<svg xmlns="http://www.w3.org/2000/svg" xmlns:xlink="http://www.w3.org/1999/xlink" width="190" height="38" viewBox="0 0 190 38">
    <defs>
        <rect id="b" width="182" height="30" rx="3"/>
        <filter id="a" width="107.7%" height="146.7%" x="-3.8%" y="-16.7%" filterUnits="objectBoundingBox">
            <feOffset dy="2" in="SourceAlpha" result="shadowOffsetOuter1"/>
            <feGaussianBlur in="shadowOffsetOuter1" result="shadowBlurOuter1" stdDeviation="2"/>
            <feComposite in="shadowBlurOuter1" in2="SourceAlpha" operator="out" result="shadowBlurOuter1"/>
            <feColorMatrix in="shadowBlurOuter1" values="0 0 0 0 0 0 0 0 0 0 0 0 0 0 0 0 0 0 0.12 0"/>
        </filter>
    </defs>
    <g fill="none" fill-rule="evenodd">
        <g transform="translate(4 2)">
            <use fill="#000" filter="url(#a)" xlink:href="#b"/>
            <rect width="181.5" height="29.5" x=".25" y=".25" fill="#FFF" stroke="#b4a153" stroke-linejoin="square" stroke-width=".5" rx="3"/>
        </g>
        <g fill="#b4a153" fill-rule="nonzero" stroke="#b4a153" stroke-width=".5">
            <path d="M132.255 13.778h-4.91c-.19 0-.345-.174-.345-.39 0-.214.155-.388.346-.388h4.908c.191 0 .346.174.346.389 0 .215-.155.389-.345.389zM132.255 16h-4.91c-.19 0-.345-.174-.345-.389 0-.215.155-.389.346-.389h4.908c.191 0 .346.174.346.39 0 .214-.155.388-.345.388z"/>
            <path d="M127.348 18.556a.346.346 0 0 1-.348-.344c0-.19.156-.343.348-.343 1.862 0 3.436-.958 3.436-2.091 0-1.134-1.574-2.091-3.436-2.091a.346.346 0 0 1-.348-.344c0-.19.156-.343.348-.343 2.317 0 4.132 1.22 4.132 2.778 0 1.557-1.815 2.778-4.132 2.778z"/>
            <path d="M131.123 22.444a.367.367 0 0 1-.26-.105l-3.766-3.773a.322.322 0 0 1 .015-.475.373.373 0 0 1 .505.015l3.766 3.773a.322.322 0 0 1-.015.474.368.368 0 0 1-.245.091z"/>
            <g>
                <path d="M143.255 13.778h-4.91c-.19 0-.345-.174-.345-.39 0-.214.155-.388.346-.388h4.908c.191 0 .346.174.346.389 0 .215-.155.389-.345.389zM143.255 16h-4.91c-.19 0-.345-.174-.345-.389 0-.215.155-.389.346-.389h4.908c.191 0 .346.174.346.39 0 .214-.155.388-.345.388z"/>
                <path d="M138.348 18.556a.346.346 0 0 1-.348-.344c0-.19.156-.343.348-.343 1.862 0 3.436-.958 3.436-2.091 0-1.134-1.574-2.091-3.436-2.091a.346.346 0 0 1-.348-.344c0-.19.156-.343.348-.343 2.317 0 4.132 1.22 4.132 2.778 0 1.557-1.815 2.778-4.132 2.778z"/>
                <path d="M142.123 22.444a.367.367 0 0 1-.26-.105l-3.766-3.773a.322.322 0 0 1 .015-.475.373.373 0 0 1 .505.015l3.766 3.773a.322.322 0 0 1-.015.474.368.368 0 0 1-.245.091z"/>
            </g>
            <g>
                <path d="M154.255 13.778h-4.91c-.19 0-.345-.174-.345-.39 0-.214.155-.388.346-.388h4.908c.191 0 .346.174.346.389 0 .215-.155.389-.345.389zM154.255 16h-4.91c-.19 0-.345-.174-.345-.389 0-.215.155-.389.346-.389h4.908c.191 0 .346.174.346.39 0 .214-.155.388-.345.388z"/>
                <path d="M149.348 18.556a.346.346 0 0 1-.348-.344c0-.19.156-.343.348-.343 1.862 0 3.436-.958 3.436-2.091 0-1.134-1.574-2.091-3.436-2.091a.346.346 0 0 1-.348-.344c0-.19.156-.343.348-.343 2.317 0 4.132 1.22 4.132 2.778 0 1.557-1.815 2.778-4.132 2.778z"/>
                <path d="M153.123 22.444a.367.367 0 0 1-.26-.105l-3.766-3.773a.322.322 0 0 1 .015-.475.373.373 0 0 1 .505.015l3.766 3.773a.322.322 0 0 1-.015.474.368.368 0 0 1-.245.091z"/>
            </g>
        </g>
        <path fill="#b4a153" d="M27.934 15.518c0 1.484-1.008 2.618-2.464 2.996L27.92 22h-1.624l-2.352-3.346h-2.212V22h-1.414v-9.618h4.046c2.03 0 3.57 1.302 3.57 3.136zm-6.202-1.82v3.64h2.436c1.386 0 2.324-.686 2.324-1.82s-.938-1.82-2.324-1.82h-2.436zm11.088 7.238c.756 0 1.638-.336 2.072-.784l.868.896c-.644.686-1.904 1.12-2.926 1.12-2.016 0-3.724-1.582-3.724-3.808 0-2.17 1.61-3.766 3.612-3.766 2.212 0 3.486 1.68 3.486 4.27H30.51c.182 1.204 1.064 2.072 2.31 2.072zm-.042-5.11c-1.12 0-2.03.756-2.254 1.932h4.34c-.154-1.12-.84-1.932-2.086-1.932zM39.302 22l-2.436-7.238h1.414l1.666 5.39 1.792-5.39h1.176l1.792 5.39 1.652-5.39h1.414L45.336 22h-1.274l-1.736-5.376L40.576 22h-1.274zm12.908-7.406c1.946 0 3.024 1.232 3.024 3.024V22h-1.358v-.994c-.532.756-1.526 1.162-2.408 1.162-1.54 0-2.674-.896-2.674-2.31 0-1.442 1.302-2.408 2.898-2.408.714 0 1.484.154 2.184.392v-.224c0-.91-.42-1.876-1.862-1.876-.714 0-1.414.28-2.044.602l-.504-1.022c1.036-.518 1.946-.728 2.744-.728zm-.476 6.482c.896 0 1.904-.448 2.142-1.344v-.966a6.724 6.724 0 0 0-1.974-.28c-.966 0-1.778.546-1.778 1.33s.7 1.26 1.61 1.26zm6.958-4.928c.462-.952 1.442-1.554 2.688-1.554v1.204c-1.498 0-2.562.826-2.688 2.086V22h-1.386v-7.238h1.386v1.386zm9.618-3.934h1.372V22H68.31v-1.26c-.56.896-1.456 1.428-2.576 1.428-1.904 0-3.332-1.568-3.332-3.794 0-2.212 1.428-3.78 3.332-3.78 1.12 0 2.016.532 2.576 1.414v-3.794zm-2.24 8.75c1.302 0 2.24-1.078 2.24-2.59 0-1.512-.938-2.576-2.24-2.576-1.33 0-2.268 1.064-2.268 2.576s.938 2.59 2.268 2.59zm8.316 1.204c-1.064 0-2.226-.378-3.094-1.078l.658-.994c.77.56 1.596.882 2.45.882.812 0 1.372-.378 1.372-.938 0-.672-.742-.882-1.638-1.134-1.666-.462-2.492-.938-2.492-2.114-.014-1.33 1.092-2.198 2.632-2.198.938 0 1.89.322 2.674.84l-.616 1.022c-.7-.434-1.428-.672-2.058-.672-.714 0-1.274.308-1.274.854 0 .56.448.728 1.666 1.106 1.19.35 2.464.742 2.464 2.184 0 1.372-1.162 2.24-2.744 2.24z"/>
        <path stroke="#b4a153" stroke-linecap="round" stroke-linejoin="round" stroke-width=".5" d="M95 7v20"/>
    </g>
</svg>
