<svg xmlns="http://www.w3.org/2000/svg" xmlns:xlink="http://www.w3.org/1999/xlink" width="111" height="111" viewBox="0 0 111 111">
    <defs>
        <path id="a" d="M55.5 111c30.652 0 55.5-24.848 55.5-55.5S86.152 0 55.5 0 0 24.848 0 55.5 24.848 111 55.5 111z"/>
        <mask id="b" width="111" height="111" x="0" y="0" fill="#e8e8e8">
            <use xlink:href="#a"/>
        </mask>
    </defs>
    <g fill="none" fill-rule="evenodd">
        <g>
            <use fill="#e8e8e8" fill-rule="nonzero" stroke="#e8e8e8" stroke-dasharray="4" stroke-opacity=".5" stroke-width="2" mask="url(#b)" opacity=".5" xlink:href="#a"/>
            <circle cx="55.5" cy="55.5" r="49.5" fill="#e8e8e8" fill-rule="nonzero"/>
            <path fill="#b4a153" d="M30.24 51.951c2.59 0 4.64.686 6.152 2.057 1.511 1.37 2.267 3.24 2.267 5.607 0 2.742-.858 4.884-2.575 6.425-1.717 1.541-4.157 2.312-7.321 2.312-2.871 0-5.127-.463-6.768-1.39V63.22c.95.539 2.04.955 3.27 1.248 1.23.293 2.373.44 3.427.44 1.864 0 3.282-.417 4.254-1.249.973-.832 1.46-2.05 1.46-3.656 0-3.07-1.958-4.606-5.872-4.606-.55 0-1.23.056-2.039.167-.808.112-1.517.238-2.127.378l-1.846-1.09.985-12.55h13.36v3.674h-9.721l-.58 6.363c.41-.07.91-.152 1.502-.246s1.316-.14 2.171-.14zm29.25 3.2c0 4.464-.719 7.78-2.154 9.949-1.436 2.168-3.63 3.252-6.583 3.252-2.86 0-5.027-1.12-6.504-3.358-1.477-2.238-2.215-5.52-2.215-9.844 0-4.535.718-7.878 2.153-10.028 1.436-2.15 3.625-3.226 6.566-3.226 2.871 0 5.045 1.125 6.521 3.375 1.477 2.25 2.215 5.543 2.215 9.88zm-13.272 0c0 3.503.36 6.005 1.08 7.505.722 1.5 1.873 2.25 3.455 2.25s2.74-.761 3.472-2.285c.732-1.523 1.098-4.014 1.098-7.47 0-3.446-.366-5.94-1.098-7.48-.733-1.541-1.89-2.312-3.472-2.312s-2.733.756-3.454 2.268c-.72 1.512-1.081 4.02-1.081 7.523zM65.94 50c0 1.746.17 3.047.51 3.902.34.856.897 1.284 1.67 1.284 1.547 0 2.32-1.729 2.32-5.186s-.773-5.186-2.32-5.186c-.773 0-1.33.428-1.67 1.284-.34.855-.51 2.156-.51 3.902zm7.91-.035c0 2.695-.483 4.72-1.45 6.073-.966 1.354-2.393 2.03-4.28 2.03-1.781 0-3.161-.7-4.14-2.1-.978-1.4-1.467-3.402-1.467-6.003 0-5.356 1.869-8.033 5.607-8.033 1.84 0 3.255.694 4.245 2.083.99 1.388 1.486 3.372 1.486 5.95zm8.825 10.3c0 1.747.173 3.053.518 3.92.346.868.906 1.301 1.68 1.301 1.534 0 2.302-1.74 2.302-5.22 0-3.434-.768-5.15-2.303-5.15-.773 0-1.333.421-1.679 1.265-.345.844-.518 2.139-.518 3.885zm7.91 0c0 2.696-.486 4.717-1.459 6.065-.973 1.348-2.39 2.022-4.254 2.022-1.781 0-3.164-.695-4.148-2.083-.985-1.39-1.477-3.39-1.477-6.003 0-5.356 1.875-8.034 5.625-8.034 1.805 0 3.208.692 4.21 2.075 1.002 1.382 1.503 3.369 1.503 5.959zm-5.22-17.964L71.107 68h-3.41l14.256-25.7h3.41z"/>
        </g>
    </g>
</svg>
