<svg xmlns="http://www.w3.org/2000/svg" xmlns:xlink="http://www.w3.org/1999/xlink" width="111" height="111" viewBox="0 0 111 111">
    <defs>
        <path id="a" d="M55.5 111c30.652 0 55.5-24.848 55.5-55.5S86.152 0 55.5 0 0 24.848 0 55.5 24.848 111 55.5 111z"/>
        <mask id="b" width="111" height="111" x="0" y="0" fill="#e8e8e8">
            <use xlink:href="#a"/>
        </mask>
    </defs>
    <g fill="none" fill-rule="evenodd">
        <g fill-rule="nonzero">
            <g fill="#e8e8e8">
                <use stroke="#e8e8e8" stroke-dasharray="4" stroke-opacity=".5" stroke-width="2" mask="url(#b)" opacity=".5" xlink:href="#a"/>
                <circle cx="55.5" cy="55.5" r="49.5"/>
            </g>
            <g fill="#b4a153">
                <path d="M39.798 35.71H60.45c.336 0 .672.012 1.007.048l.324.036c-.288-.036-.012 0 .048.011.216.048.431.084.635.132.396.095.78.203 1.163.346.072.024.54.215.263.096.216.095.432.203.648.31.323.167.647.359.959.562.155.095.3.203.455.31.264.191.096.072.036.024.108.084.204.167.3.25.3.264.587.526.85.813.12.131.24.275.36.418.048.06.096.12.156.18-.18-.216.036.059.072.095.228.322.444.657.647.991.096.155.18.322.264.49l.144.286c.024.048.156.382.048.108.3.752.515 1.529.647 2.329-.048-.299.024.203.024.286.024.227.036.442.036.67.012.477-.012.943-.06 1.42.024-.19-.012.12-.024.12l-.072.37c-.048.215-.096.43-.156.645-.06.215-.12.418-.191.633a8.25 8.25 0 0 1-.204.55 8.705 8.705 0 0 1-.6 1.146c-.24.406-.479.752-.695 1.015-1.15 1.386-2.577 2.389-4.147 2.914-1.69.562-3.224.49-5.058.49h-12.25c-.911 0-1.678.764-1.678 1.672 0 .908.767 1.672 1.678 1.672h11.255c1.702 0 3.416.084 5.094-.167 4.123-.621 7.767-3.5 9.41-7.31 1.582-3.69 1.33-8.025-.828-11.441-2.013-3.189-5.346-5.29-9.085-5.78-1.259-.168-2.553-.108-3.812-.108h-6.58c-3.848 0-7.696-.048-11.543 0h-.216c-.911 0-1.678.764-1.678 1.672.024.932.791 1.696 1.702 1.696z"/>
                <path d="M46.079 57.172h10.8c1.294 0 2.6-.036 3.907 0l.671.036c.084.012.168.012.252.024.276.036-.228-.036.048.012.431.071.85.167 1.27.286.18.048.36.108.54.168.108.035.48.179.395.143-.18-.072.132.06.168.072l.216.107c.216.108.42.215.635.334.348.203.671.418.995.645.012.012.216.168.084.06-.144-.12.108.096.132.12.156.13.323.274.467.418.288.274.564.549.815.848l.204.238c-.024-.023-.132-.179-.024-.023a10.936 10.936 0 0 1 .959 1.54c.096.191.192.382.276.573-.108-.25.084.24.12.347.12.358.227.716.323 1.087.048.215.084.43.132.633.012.047.048.322.012.047l.036.323c.036.43.06.86.048 1.29-.012.561-.036.8-.132 1.278-.18.92-.443 1.72-.803 2.424-1.594 3.117-4.71 5.04-8.15 5.064-3.165.024-6.33 0-9.482 0-3.656 0-7.311-.06-10.955 0h-.204c-.911 0-1.678.765-1.678 1.672 0 .908.767 1.672 1.678 1.672h9.9c3.56 0 7.132.012 10.704 0 3.8-.012 7.468-1.755 9.805-4.741 2.553-3.26 3.416-7.704 2.026-11.633-1.247-3.547-3.98-6.306-7.492-7.656-1.941-.74-3.943-.776-5.98-.776h-12.67c-.911 0-1.678.764-1.678 1.672-.048.932.719 1.696 1.63 1.696z"/>
                <path d="M44.4 27.672v48.824c0 2.246-.071 4.491 0 6.736v.096c0 .908.768 1.672 1.679 1.672.91 0 1.678-.764 1.678-1.672v-5.542-13.293-16.087-13.902c0-2.246.072-4.491 0-6.736v-.096c0-.908-.767-1.672-1.678-1.672-.911 0-1.678.764-1.678 1.672zM57.046 27.672v6.366c0 .908.767 1.672 1.678 1.672.911 0 1.678-.764 1.678-1.672v-6.366c0-.908-.767-1.672-1.678-1.672-.91 0-1.678.764-1.678 1.672zM57.046 76.962v6.366c0 .908.767 1.672 1.678 1.672.911 0 1.678-.764 1.678-1.672v-6.366c0-.908-.767-1.672-1.678-1.672-.91 0-1.678.764-1.678 1.672z"/>
            </g>
        </g>
    </g>
</svg>
