<svg xmlns="http://www.w3.org/2000/svg" xmlns:xlink="http://www.w3.org/1999/xlink" width="118" height="35" viewBox="0 0 118 35">
    <defs>
        <rect id="b" width="110" height="27" rx="2"/>
        <filter id="a" width="112.7%" height="151.9%" x="-6.4%" y="-18.5%" filterUnits="objectBoundingBox">
            <feOffset dy="2" in="SourceAlpha" result="shadowOffsetOuter1"/>
            <feGaussianBlur in="shadowOffsetOuter1" result="shadowBlurOuter1" stdDeviation="2"/>
            <feComposite in="shadowBlurOuter1" in2="SourceAlpha" operator="out" result="shadowBlurOuter1"/>
            <feColorMatrix in="shadowBlurOuter1" values="0 0 0 0 0 0 0 0 0 0 0 0 0 0 0 0 0 0 0.12 0"/>
        </filter>
    </defs>
    <g fill="none" fill-rule="evenodd">
        <g transform="translate(4 2)">
            <use fill="#000" filter="url(#a)" xlink:href="#b"/>
            <rect width="109.5" height="26.5" x=".25" y=".25" fill="#FFF" stroke="#b4a153" stroke-linejoin="square" stroke-width=".5" rx="2"/>
        </g>
        <path fill="#b4a153" fill-rule="nonzero" d="M100.002 14.172a.587.587 0 0 0-.83.83l1.304 1.304a.585.585 0 0 0 .83 0c.23-.229.23-.6 0-.83l-1.304-1.304z"/>
        <path fill="#b4a153" fill-rule="nonzero" d="M100.002 14.172a.587.587 0 0 0-.83.83l1.304 1.304a.585.585 0 0 0 .83 0c.23-.229.23-.6 0-.83l-1.304-1.304zM103.413 16.304c.228 0 .413-.287.413-.642v-2.02c0-.354-.185-.642-.413-.642-.228 0-.413.288-.413.643v2.019c0 .355.185.642.413.642z"/>
        <path fill="#b4a153" fill-rule="nonzero" d="M103.413 16.304c.228 0 .413-.287.413-.642v-2.02c0-.354-.185-.642-.413-.642-.228 0-.413.288-.413.643v2.019c0 .355.185.642.413.642z"/>
        <path fill="#b4a153" fill-rule="nonzero" d="M103.413 16.304c.228 0 .413-.287.413-.642v-2.02c0-.354-.185-.642-.413-.642-.228 0-.413.288-.413.643v2.019c0 .355.185.642.413.642z"/>
        <path fill="#b4a153" d="M37.534 21.154c-1.61 0-2.94-.56-3.962-1.54l.854-1.05c.854.812 1.862 1.344 3.164 1.344 1.33 0 2.016-.7 2.016-1.47 0-.91-.798-1.26-2.408-1.624-1.96-.462-3.262-1.05-3.262-2.786 0-1.61 1.4-2.828 3.332-2.828 1.484 0 2.59.546 3.514 1.358l-.812 1.064c-.812-.742-1.778-1.176-2.758-1.176-1.078 0-1.834.686-1.834 1.456 0 .896.826 1.204 2.408 1.582 1.918.448 3.248 1.092 3.248 2.814 0 1.624-1.232 2.856-3.5 2.856zm5.88-8.596a.842.842 0 0 1-.84-.84.84.84 0 0 1 .84-.826c.448 0 .826.392.826.826 0 .448-.378.84-.826.84zm-.7 8.442v-7.238H44.1V21h-1.386zm8.89-7.238h1.386v6.468c0 1.862-1.526 3.178-3.668 3.178-1.218 0-2.338-.406-3.024-.966l.546-1.036c.532.504 1.4.798 2.268.798 1.554 0 2.492-.742 2.492-2.002v-1.05c-.574.826-1.47 1.316-2.562 1.316-1.904 0-3.29-1.428-3.29-3.444s1.386-3.43 3.29-3.43c1.092 0 2.016.518 2.562 1.33v-1.162zm-2.212 5.502c1.288 0 2.212-.924 2.212-2.24 0-1.302-.924-2.226-2.212-2.226-1.288 0-2.198.924-2.198 2.226 0 1.316.91 2.24 2.198 2.24zm9.352-5.67c1.596 0 2.716 1.162 2.716 2.8V21h-1.358v-4.368c0-1.078-.686-1.834-1.666-1.834-1.008 0-1.876.658-1.988 1.512V21h-1.386v-7.238h1.386v1.05c.434-.714 1.316-1.218 2.296-1.218zm12.95 7.574c-2.422 0-4.13-1.75-4.13-4.214v-5.572h1.414v5.544c0 1.722 1.12 2.954 2.716 2.954 1.582 0 2.702-1.232 2.702-2.954v-5.544h1.428v5.572c0 2.464-1.722 4.214-4.13 4.214zm10.262-7.574c1.904 0 3.332 1.568 3.332 3.78 0 2.226-1.428 3.794-3.332 3.794-1.12 0-2.016-.532-2.576-1.428v3.668h-1.372v-9.646h1.372v1.246c.56-.882 1.456-1.414 2.576-1.414zm-.336 6.37c1.33 0 2.268-1.078 2.268-2.59 0-1.512-.938-2.576-2.268-2.576-1.302 0-2.24 1.064-2.24 2.576s.938 2.59 2.24 2.59z"/>
        <path fill="#b4a153" fill-rule="nonzero" d="M115.86 29.157l-3.726-3.726 2.658-1.535a.626.626 0 0 0-.08-1.124l-11.854-4.727a.626.626 0 0 0-.813.813l4.727 11.853a.626.626 0 0 0 1.124.081l1.535-2.658 3.726 3.726a.626.626 0 0 0 .885 0l1.818-1.818a.626.626 0 0 0 0-.885zM100.304 18.413c0-.228-.287-.413-.642-.413h-2.02c-.354 0-.642.185-.642.413 0 .228.288.413.643.413h2.019c.355 0 .642-.185.642-.413zM100.476 20.172l-1.304 1.304a.587.587 0 0 0 .83.83l1.304-1.304a.587.587 0 0 0-.83-.83zM105.587 16.478c.15 0 .3-.057.415-.172l1.304-1.304a.587.587 0 0 0-.83-.83l-1.304 1.304a.587.587 0 0 0 .415 1.002z"/>
    </g>
</svg>
