<svg xmlns="http://www.w3.org/2000/svg" xmlns:xlink="http://www.w3.org/1999/xlink" width="111" height="111" viewBox="0 0 111 111">
    <defs>
        <path id="a" d="M55.5 111c30.652 0 55.5-24.848 55.5-55.5S86.152 0 55.5 0 0 24.848 0 55.5 24.848 111 55.5 111z"/>
        <mask id="b" width="111" height="111" x="0" y="0" fill="#e8e8e8">
            <use xlink:href="#a"/>
        </mask>
    </defs>
    <g fill="none" fill-rule="evenodd">
        <g fill="#e8e8e8" fill-rule="nonzero">
            <use stroke="#e8e8e8" stroke-dasharray="4" stroke-opacity=".5" stroke-width="2" mask="url(#b)" opacity=".5" xlink:href="#a"/>
            <circle cx="55.5" cy="55.5" r="49.5"/>
        </g>
        <path fill="#b4a153" d="M62.277 25.567a1.291 1.291 0 0 0-.635.43l-21.12 26.558a1.27 1.27 0 0 0 .147 1.735c.16.142.355.243.564.29l12.93 2.965-10.542 28.952c-.447 1.666 1.177 2.233 2.23 1.181l26.13-35.434a1.278 1.278 0 0 0 .169-1.194 1.272 1.272 0 0 0-.908-.795L58.89 47.418l4.993-20.336a1.273 1.273 0 0 0-.36-1.222 1.282 1.282 0 0 0-1.245-.293zm-2.262 6.565L56.102 48.07a1.269 1.269 0 0 0 .95 1.537l11.724 2.692-19.73 26.756 8.009-21.997a1.271 1.271 0 0 0-.078-1.039 1.272 1.272 0 0 0-.833-.63l-12.368-2.835 16.24-20.422z"/>
    </g>
</svg>
