<svg xmlns="http://www.w3.org/2000/svg" xmlns:xlink="http://www.w3.org/1999/xlink" width="111" height="111" viewBox="0 0 111 111">
    <defs>
        <path id="a" d="M55.5 111c30.652 0 55.5-24.848 55.5-55.5S86.152 0 55.5 0 0 24.848 0 55.5 24.848 111 55.5 111z"/>
        <mask id="b" width="111" height="111" x="0" y="0" fill="#e8e8e8">
            <use xlink:href="#a"/>
        </mask>
    </defs>
    <g fill="none" fill-rule="evenodd">
        <g fill-rule="nonzero">
            <use fill="#e8e8e8" stroke="#e8e8e8" stroke-dasharray="4" stroke-opacity=".5" stroke-width="2" mask="url(#b)" opacity=".5" xlink:href="#a"/>
            <circle cx="55.5" cy="55.5" r="49.5" fill="#e8e8e8"/>
            <g fill="#b4a153" stroke="#e8e8e8">
                <path d="M41.455 41.446c.961-.93 1.84-.261 2.79.686l12.054 10.77a2.386 2.386 0 0 1-.03 3.407c-.962.933-2.51.92-3.455-.03L42.157 44.134c-.944-.948-1.663-1.745-.702-2.687z"/>
                <path d="M54.974 29.002a2.38 2.38 0 0 0-2.193 1.264 2.474 2.474 0 0 0 .138 2.564 2.37 2.37 0 0 0 2.316 1.012c10.064.121 18.66 7.428 20.584 17.497 1.924 10.068-3.353 20.13-12.637 24.091-9.283 3.962-20.02.735-25.708-7.727-5.69-8.462-4.766-19.832 2.21-27.225a2.453 2.453 0 0 0 .881-2.355 2.414 2.414 0 0 0-1.643-1.883 2.352 2.352 0 0 0-2.397.616c-8.72 8.975-10.012 22.977-3.086 33.452 6.926 10.475 20.144 14.51 31.58 9.642s17.91-17.286 15.469-29.67c-2.442-12.384-13.12-21.29-25.514-21.278z"/>
            </g>
        </g>
    </g>
</svg>
