<?xml version="1.0" encoding="UTF-8"?>
<svg width="80px" height="80px" viewBox="0 0 80 80" version="1.1" xmlns="http://www.w3.org/2000/svg" xmlns:xlink="http://www.w3.org/1999/xlink">
    <!-- Generator: Sketch 61 (89581) - https://sketch.com -->
    <title>阿拉丁权益</title>
    <desc>Created with Sketch.</desc>
    <g id="阿拉丁权益" stroke="none" stroke-width="1" fill="none" fill-rule="evenodd">
        <g id="火币大客户行业私享会-3" fill="#CEAE7D">
            <path d="M40,2.84217094e-14 C62.09139,2.84217094e-14 80,17.90861 80,40 C80,62.09139 62.09139,80 40,80 C17.90861,80 2.84217094e-14,62.09139 2.84217094e-14,40 C2.84217094e-14,17.90861 17.90861,2.84217094e-14 40,2.84217094e-14 Z M42,18 C40.8954305,18 40,19.1192881 40,20.5 C40,20.8702249 40.0643809,21.2216536 40.1796027,21.5372715 C39.3977675,22.0434696 38.8353352,22.8690115 38.6863548,23.8471656 L38.6863548,23.8471656 L38.4,25.7272727 L38.6863548,27.6073799 L38.7321627,27.8489108 C38.8586644,28.4045757 39.120633,28.9032402 39.4792606,29.3102489 C38.0637748,29.5176857 36.8894732,30.566589 36.5476701,31.9907686 L36.5476701,31.9907686 L36.0514962,34.055 L35.6327215,34.0555162 L35.2385737,34.1922988 C30.4093581,35.8282307 26.7619723,35.5751697 24.2964162,33.4331157 C20.498127,30.1331948 11.1700719,24.7737666 6.64167644,30.1072265 C1.98935685,36.015748 7.44192012,46.40092 15.9927872,41.5858496 C20.1790018,39.3054612 21.1969604,38.1872253 21.4231262,38.5351715 C21.4508765,38.5745718 21.463187,38.5900704 21.462393,38.5851466 L21.462393,38.5851466 L21.5314017,38.6972879 C24.3255173,43.1646269 29.2248331,49.4934326 34.8755083,50.9166036 C42.660883,52.8774171 41.1090684,56.7144516 39.5262529,59.1472011 C37.9434374,61.5799507 30.6453683,62.8617539 30.6453683,64.5 C30.6453683,66.1382461 33.6875492,67.4487724 41.972621,67.4487724 C50.2576928,67.4487724 55.2098794,65.9455763 55.2098794,64.5 C55.2098794,63.0544237 47.3087468,62.2105956 45.9301276,59.1472011 C44.5515084,56.0838066 43.3192889,53.2872839 45.9301276,52.2836994 C48.5409662,51.2801149 54.8990255,47.0157075 60.2518963,41.3692762 C63.8204768,37.6049887 68.771758,35.8204793 75.10574,36.015748 C72.826436,32.8083176 70.6878203,31.4750104 68.6898929,32.0158264 C65.6930019,32.8270504 56.8345956,36.015748 53.6211423,36.015748 C50.6149058,36.015748 49.2126489,34.3001728 47.954048,34.0789181 L47.954048,34.0789181 L47.4523299,31.9907686 C47.1105268,30.566589 45.9362252,29.5176857 44.5205041,29.3124077 C44.9305995,28.8450961 45.2142112,28.2602296 45.3136452,27.6073799 L45.3136452,27.6073799 L45.6,25.7272727 L45.3136452,23.8471656 C45.1646648,22.8690115 44.6022325,22.0434696 43.8200884,21.5377472 C43.9356191,21.2216536 44,20.8702249 44,20.5 C44,19.1192881 43.1045695,18 42,18 Z M8.72678979,31.2995649 C11.5144081,29.1247827 17.9470913,31.9095201 19.3390672,34.796135 L19.3390672,34.796135 L19.4102825,34.9422807 C19.6604896,35.450755 20.0384284,36.1699723 20.5292419,37.025671 L20.5292419,37.025671 L20.5774962,37.112 L20.5372937,37.0424639 C20.4386687,36.8761544 20.3416589,36.7106525 20.2518005,36.5542058 C18.9957486,37.0764612 13.8729392,41.5248609 10.4800798,40.2672375 C7.08722049,39.0096141 5.93917151,33.4743472 8.72678979,31.2995649 Z" id="形状结合"></path>
        </g>
    </g>
</svg>