<svg height="182" width="182" xmlns="http://www.w3.org/2000/svg"><g fill="none" fill-rule="evenodd"><path d="M175.873 121c-12.354 34.956-45.69 60-84.876 60-39.185 0-72.521-25.044-84.876-60h169.752zm0-60C163.52 26.044 130.183 1 90.997 1 51.812 1 18.476 26.044 6.121 61h169.752zM1.006 89.992a91.862 91.862 0 000 2.016v-2.016zm0 0" fill="#4086CD"/><path d="M175.88 120.996c3.308-9.36 5.111-19.43 5.12-29.92v-.152c-.009-10.492-1.813-20.564-5.122-29.926H6.122a89.806 89.806 0 00-5.117 28.997v2.01a89.806 89.806 0 005.115 28.991h169.76zm0 0" fill="#FFF"/><g transform="translate(68.63 66.635)"><path d="M23.844 26.462s9.277 20.778 9.37 20.981c.093.203.161.401.421.291.26-.11.099-.512.099-.512L26.66 25.407m-2.614 6.62c-.168 3.424 2.64 5.307 2.272 8.365-.366 3.058 1.872 4.787 2.39 5.976.52 1.19-.56 1.9-.095 2.07.466.17 1.486-.77 1.154-2.461-.333-1.69-2.043-2.193-1.641-5.928.402-3.734-2.036-4.604-1.442-8.011m-3.403-6.061s.817 22.74.828 22.963c.01.224-.001.433.282.428.282-.005.283-.438.283-.438l1.613-22.877m-3.356-.77s-8.133 21.252-8.21 21.462c-.078.21-.17.398.092.503.262.106.431-.292.431-.292l10.424-20.428m-2.792-1.986S7.374 41.2 7.223 41.365c-.15.165-.306.305-.102.502.203.196.51-.11.51-.11l17.316-15.036m-1.828-2.917s-20.778 9.277-20.981 9.37c-.203.094-.402.161-.291.422.11.26.512.098.512.098l21.815-7.074m-.57-3.379S.864 24.058.64 24.07c-.223.01-.432-.001-.427.282.005.282.438.283.438.283l22.877 1.613m.77-3.355S3.046 14.758 2.836 14.68c-.21-.078-.398-.17-.503.092-.106.262.292.432.292.432l20.428 10.423m1.986-2.792S8.381 7.334 8.216 7.184c-.165-.15-.305-.307-.502-.103-.196.203.11.51.11.51L22.86 24.907m2.917-1.829S16.5 2.301 16.407 2.098c-.094-.203-.161-.401-.422-.29-.26.11-.098.51-.098.51l7.074 21.817m3.379-.57S25.523.824 25.512.6c-.01-.224 0-.433-.282-.428-.282.005-.283.438-.283.438l-1.613 22.877m3.355.77S34.823 3.006 34.9 2.796c.078-.21.17-.397-.092-.503-.262-.106-.432.292-.432.292L23.953 23.013M26.745 25S42.247 8.341 42.397 8.176c.15-.165.307-.305.103-.502-.203-.196-.51.11-.51.11L24.674 22.82m1.829 2.917s20.778-9.277 20.981-9.37c.203-.093.401-.161.29-.422-.11-.26-.51-.098-.51-.098l-21.817 7.074m.57 3.379s22.741-.817 22.964-.828c.224-.01.433.001.428-.282-.005-.282-.438-.283-.438-.283l-22.877-1.613m-.77 3.356s21.252 8.133 21.462 8.21c.21.078.397.17.503-.092.106-.262-.292-.431-.292-.431L26.568 23.913m-1.986 2.792S41.24 42.207 41.405 42.357c.165.15.305.307.501.103.197-.203-.109-.51-.109-.51L26.761 24.634m-5.378 6.579c-1.438 3.112.46 5.91-1.027 8.607-1.485 2.699-.057 5.14-.022 6.437.037 1.297-1.232 1.552-.864 1.883.37.332 1.667-.158 1.992-1.85.325-1.692-1.073-2.798.699-6.11 1.772-3.313-.163-5.032 1.664-7.969m-4.686-2.85c-2.54 2.303-1.887 5.62-4.309 7.523-2.421 1.903-2.06 4.708-2.535 5.916-.473 1.208-1.74.947-1.53 1.396.21.45 1.594.506 2.555-.925.96-1.43.106-2.995 3.031-5.351 2.925-2.357 1.817-4.696 4.645-6.685m-3.164-4.332c-3.217 1.184-3.854 4.503-6.812 5.36-2.958.858-3.675 3.594-4.567 4.536-.892.943-1.969.226-1.943.72.027.496 1.29 1.067 2.717.1 1.426-.966 1.22-2.736 4.815-3.826 3.595-1.09 3.443-3.673 6.81-4.458m-1.298-5.328c-3.424-.168-5.307 2.64-8.365 2.272-3.058-.366-4.787 1.872-5.976 2.391-1.19.52-1.9-.561-2.07-.096-.17.467.77 1.486 2.461 1.154 1.69-.333 2.193-2.043 5.928-1.641 3.734.402 4.604-2.036 8.011-1.442m.826-5.3c-3.112-1.439-5.91.458-8.607-1.028-2.699-1.485-5.14-.057-6.437-.021-1.297.036-1.552-1.233-1.883-.865-.332.37.158 1.667 1.85 1.992 1.692.325 2.798-1.073 6.11.7 3.313 1.77 5.032-.164 7.969 1.663m2.85-4.686c-2.304-2.54-5.62-1.887-7.523-4.308-1.903-2.422-4.708-2.062-5.916-2.536-1.208-.473-.947-1.74-1.396-1.53-.45.21-.506 1.595.925 2.555 1.43.96 2.995.106 5.351 3.031 2.357 2.925 4.696 1.817 6.685 4.645m4.332-3.164c-1.184-3.217-4.503-3.854-5.36-6.812-.858-2.958-3.594-3.675-4.536-4.567-.943-.892-.226-1.969-.72-1.942-.496.026-1.067 1.29-.1 2.716.966 1.426 2.736 1.22 3.826 4.815 1.09 3.595 3.673 3.443 4.458 6.81m5.328-1.298c.168-3.424-2.64-5.307-2.272-8.365.366-3.058-1.872-4.787-2.391-5.976-.52-1.19.561-1.9.096-2.07-.467-.169-1.486.77-1.154 2.461.333 1.691 2.043 2.193 1.64 5.928-.4 3.735 2.037 4.604 1.443 8.011m5.3.826c1.439-3.112-.458-5.91 1.027-8.607 1.486-2.698.058-5.14.022-6.437-.036-1.297 1.233-1.551.865-1.883-.37-.331-1.667.158-1.992 1.85-.325 1.692 1.073 2.798-.7 6.11-1.77 3.313.164 5.032-1.663 7.969m4.686 2.85c2.54-2.303 1.887-5.62 4.308-7.523 2.422-1.903 2.062-4.708 2.536-5.916.473-1.208 1.74-.947 1.53-1.396-.21-.449-1.595-.506-2.555.925-.96 1.43-.106 2.995-3.031 5.351-2.925 2.357-1.817 4.696-4.645 6.685m3.163 4.332c3.218-1.183 3.855-4.503 6.813-5.36 2.958-.858 3.675-3.593 4.567-4.536.892-.943 1.969-.226 1.942-.72-.026-.496-1.29-1.067-2.716-.1-1.426.966-1.22 2.736-4.815 3.826-3.595 1.09-3.443 3.673-6.81 4.458m1.298 5.328c3.424.168 5.307-2.64 8.365-2.272 3.058.366 4.787-1.872 5.976-2.391 1.19-.52 1.9.562 2.07.096.169-.466-.77-1.486-2.461-1.154-1.691.333-2.193 2.043-5.928 1.641-3.735-.402-4.604 2.036-8.011 1.442m-.826 5.3c3.112 1.439 5.91-.458 8.607 1.028 2.698 1.485 5.14.057 6.437.022 1.297-.037 1.551 1.232 1.883.864.331-.37-.158-1.667-1.85-1.992-1.692-.325-2.798 1.073-6.11-.699-3.313-1.772-5.032.163-7.969-1.664m-2.85 4.686c2.303 2.54 5.62 1.887 7.522 4.309 1.904 2.421 4.709 2.06 5.917 2.535 1.208.473.947 1.74 1.396 1.53.449-.21.506-1.594-.925-2.555-1.43-.96-2.995-.106-5.351-3.031-2.357-2.925-4.696-1.817-6.685-4.645m-4.332 3.164c1.183 3.217 4.503 3.854 5.36 6.812.858 2.958 3.593 3.675 4.536 4.567.943.892.226 1.969.72 1.942.496-.026 1.067-1.29.1-2.716-.966-1.426-2.736-1.22-3.826-4.815-1.09-3.595-3.673-3.443-4.458-6.81" fill="#F6B40E" stroke="#85340A"/><path d="M25.027 32.93c.204 2.797 2.516 4.036 2.062 6.586.997-2.017-1.407-3.58-1.27-6.557m-1.367-6.513l6.417 14.02-5.377-14.452m-3.584 6.466c-.858 2.67.821 4.685-.555 6.878 1.68-1.495.037-3.845 1.279-6.555m-3.554-2.005c-1.834 2.123-1.075 4.634-3.198 6.115 2.13-.72 1.536-3.525 3.738-5.534m-2.426-3.104c-2.496 1.281-2.733 3.893-5.257 4.472 2.245.13 2.745-2.694 5.54-3.731m-1.096-3.93c-2.797.203-4.036 2.515-6.586 2.061 2.017.997 3.58-1.406 6.557-1.27m.48-3.91c-2.671-.859-4.686.82-6.88-.555 1.496 1.68 3.846.036 6.556 1.278m2.005-3.553c-2.123-1.834-4.634-1.075-6.116-3.199.721 2.13 3.526 1.536 5.535 3.738m3.104-2.426c-1.281-2.495-3.894-2.732-4.472-5.256-.13 2.245 2.694 2.744 3.731 5.539m3.93-1.095c-.203-2.798-2.515-4.037-2.061-6.586-.997 2.016 1.406 3.579 1.27 6.557m3.91.479c.859-2.67-.82-4.685.555-6.879-1.68 1.496-.036 3.845-1.278 6.555m3.553 2.005c1.834-2.122 1.075-4.633 3.199-6.115-2.13.72-1.536 3.526-3.738 5.535m2.426 3.103c2.495-1.28 2.732-3.893 5.256-4.471-2.245-.13-2.745 2.693-5.539 3.73m1.095 3.931c2.798-.204 4.037-2.516 6.586-2.062-2.016-.997-3.58 1.407-6.557 1.27m-.479 3.91c2.67.86 4.685-.82 6.879.556-1.496-1.68-3.846-.037-6.555-1.279m-2.005 3.554c2.122 1.833 4.633 1.075 6.115 3.198-.72-2.13-3.526-1.536-5.535-3.738m-3.103 2.426c1.28 2.496 3.893 2.733 4.471 5.257.13-2.245-2.693-2.745-3.73-5.54m-5.153-5.581l.697 15.403.429-15.414m-1.674-.434l-5.376 14.451 6.416-14.021m-1.361-1.025L12.537 36.598 23.74 26.002m-.876-1.491l-14.02 6.417 14.452-5.377m-.239-1.688l-15.403.698 15.414.428m.434-1.673L9.05 17.939l14.021 6.417m1.025-1.362L12.71 12.596l10.596 11.202m1.491-.876l-6.417-14.02 5.377 14.451m1.687-.238L24.748 7.71l-.428 15.414m1.673.435L31.37 9.108 24.953 23.13m1.362 1.024L36.713 12.77 25.511 23.366m.876 1.49l14.02-6.416-14.451 5.377m.238 1.687l15.404-.698-15.414-.428m-.435 1.674L40.2 31.428l-14.02-6.416m-1.025 1.361L36.54 36.772 25.943 25.57" fill="#85340A"/><circle cx="24.624" cy="23.636" fill="#F6B40E" r="9.147" stroke="#85340A" stroke-width="1.5"/><path d="M27.918 21.734c-.624 0-1.223.27-1.574.833.703.633 2.258.702 3.313-.072a2.415 2.415 0 00-1.739-.761zm-.01 0c.608-.013 1.176.317 1.255.646-.703.916-1.828.836-2.531.17.308-.583.803-.806 1.276-.816 0 0-.473.01 0 0zm0 0" fill="#843511"/><path d="M27.852 21.319c-.914 0-1.126.211-1.548.563-.423.352-.633.281-.704.352-.07.07 0 .28.14.21.141-.07.423-.21.845-.562.423-.353.844-.352 1.266-.352 1.267 0 1.97 1.055 2.111.985.14-.07-.704-1.197-2.11-1.197 0 0 1.406 0 0 0zm0 0" fill="#85340A"/><path d="M30.384 21.74c-1.618-1.407-3.658-1.618-4.784-.562a2.758 2.758 0 00-.525 1.175c-.142.801.109 1.667.736 2.554-.07 0-.212.07-.282.14-.559-1.068-.756-2.165-.573-3.209a4.55 4.55 0 01.22-.802c1.549-1.266 3.66-1.407 5.207.704 0 0-1.548-2.11 0 0h.001zm0 0" fill="#85340A"/><circle cx=".836" cy=".708" r=".633" fill="#85340A" transform="translate(27.002 21.734)"/><path d="M29.541 22.866c-1.196.915-2.392.845-3.096.423-.703-.423-.703-.563-.563-.563s.281.14.844.422 1.407.282 2.814-.282c0 0-1.407.564 0 0h.001zm0 0M23.236 25.027a.634.634 0 10.638.987c.244.184.581.203.761.206h.083c.18-.003.518-.022.761-.206.119.17.308.268.515.268a.633.633 0 00.123-1.255c.17.06.278.222.278.4a.421.421 0 01-.844.021c-.068.138-.34.545-.874.566-.534-.02-.806-.428-.875-.566a.421.421 0 01-.844-.02c0-.179.11-.342.278-.401 0 0-.169.06 0 0zm0 0M24.008 27.002c-.704 0-.983.638-1.616 1.06.352-.14.629-.418 1.122-.7.492-.28.913.062 1.194.062h.01c.28 0 .7-.343 1.193-.062.493.282.78.56 1.132.7-.633-.422-.921-1.06-1.625-1.06-.14 0-.42.076-.7.216h-.01c-.281-.14-.56-.216-.7-.216zm0 0" fill="#85340A"/><path d="M23.895 27.668c-.278.013-.646.069-1.174.227 1.267-.281 1.547.144 2.11.144h.01c.563 0 .843-.426 2.11-.144-1.408-.422-1.688-.144-2.11-.144h-.01c-.264 0-.473-.103-.936-.083 0 0 .463-.02 0 0zm0 0" fill="#85340A"/><path d="M22.66 27.995c-.082 0-.171.001-.268.01 1.478.14.768.988 2.316.988h.01c1.548 0 .848-.847 2.325-.988-1.547-.14-1.058.772-2.325.772h-.01c-1.188 0-.822-.798-2.048-.782 0 0 1.226-.016 0 0zm0 0" fill="#85340A"/><path d="M25.913 30.245a1.267 1.267 0 00-2.533 0 1.302 1.302 0 012.533 0zm0 0M19.1 21.714c1.618-1.407 3.658-1.618 4.784-.562.275.369.452.763.525 1.175.141.801-.11 1.667-.737 2.554.07 0 .212.07.282.14.559-1.068.756-2.165.573-3.208a4.55 4.55 0 00-.22-.803c-1.548-1.266-3.659-1.407-5.207.704 0 0 1.548-2.11 0 0zm0 0" fill="#85340A"/><path d="M21.554 21.404c.914 0 1.126.212 1.548.564.422.351.633.28.703.351.07.07 0 .282-.14.211-.14-.07-.423-.21-.844-.563-.423-.352-.844-.351-1.267-.351-1.266 0-1.97 1.055-2.11.984-.14-.07.703-1.196 2.11-1.196 0 0-1.407 0 0 0zm0 0" fill="#85340A"/><path d="M21.559 21.753c-.625 0-1.223.27-1.574.834.703.633 2.257.702 3.313-.072a2.415 2.415 0 00-1.74-.762h.001zm-.01.144c.608-.01 1.176.269 1.255.546-.703.774-1.828.707-2.531.144.308-.493.803-.681 1.276-.69 0 0-.473.009 0 0zm0 0" fill="#843511"/><circle cx="21.708" cy="22.367" fill="#85340A" r=".633"/><path d="M19.758 22.862c1.196.915 2.392.844 3.096.422.703-.422.703-.563.563-.563s-.281.14-.844.422-1.407.282-2.814-.281c0 0 1.407.563 0 0h-.001zm0 0" fill="#85340A"/></g></g></svg>