<svg height="182" width="182" xmlns="http://www.w3.org/2000/svg"><g fill="none" fill-rule="evenodd"><path d="M131 171.645c29.634-14.727 50-45.308 50-80.645 0-35.337-20.366-65.918-50-80.645v161.29zM51 10.355C21.366 25.082 1 55.663 1 91c0 35.337 20.366 65.918 50 80.645V10.355zm0 0" fill="#346DA6"/><path d="M92.008 180.994c13.994-.153 27.221-3.5 38.988-9.347V10.353C118.947 4.366 105.366 1 91 1c-14.369 0-27.952 3.367-40.002 9.356v161.288c11.768 5.848 24.998 9.197 38.994 9.35h2.016zm0 0" fill="#E5B731"/><path d="M91.003 52.66c.05-.14.102-.278.153-.417l.052.975c2.49 6.787 5.152 13.753 10.562 19.145-1.76-.58-4.84-1.1-6.82-1.05v29.82l8.42 1.25c.3-.03.4-.5.4-1.14.81-9.26 3-17.04 5.52-25.09.18-1.1 3.37-5.3.91-4.56-.3.04-3.59 1.38-3.07.74 4.48-4.64 11.03-7.98 17.39-8.97.56-.14.89.14.39.79-8.44 12.99-15.5 28.32-15.44 46.51-3.28 0-11.23-1.94-14.52-1.94v21.04h-7.894v-21.04c-3.29 0-11.24 1.94-14.52 1.94.06-18.19-7-33.52-15.44-46.51-.5-.65-.17-.93.39-.79 6.36.99 12.91 4.33 17.39 8.97.52.64-2.77-.7-3.07-.74-2.46-.74.73 3.46.91 4.56 2.52 8.05 4.71 15.83 5.52 25.09 0 .64.1 1.11.4 1.14l8.42-1.25v-29.82c-1.98-.05-5.06.47-6.82 1.05 5.41-5.392 8.07-12.358 10.562-19.145l.052-.975.153.417zm0 0" fill="#000"/></g></svg>