<svg height="180" width="180" xmlns="http://www.w3.org/2000/svg"><g fill="none" fill-rule="evenodd"><circle cx="90" cy="90" fill="#CA4638" r="90"/><path d="M108.103 72.236v51.763c.595 7.411 15.599 12.077 26.06 19.948 13.72-9.474 27.027-11.39 27.562-22.012l.167-49.7h-53.789zm0 0" fill="#FFF"/><path d="M108.098 123.257l.561 2.956 1.873 2.314 13.548 8.997 9.926 6.363 19.353-10.862 6.68-5.27 1.311-6.877-.812-1.607.188 1.671-.5 1.35-.561-.386-.375-2.506-.063 1.863-.936 1.093-.187-1.35.25-.964-.375-1.092-.125 2.185-.5.964-.436-.643.187-.964-.062-.9-.313-.45-.062.965-.187.32.062.579-.375.386-.25-.771.126-.708-.125-.642-.25-.707.063 1.157-.625 1.414-.5.32-.311-.385.062-1.35-.437-.77.125 1.67-.624 1.479-.375-.45-.188-.45v-.707l.688-1.8-.688.643-.56 1.542-.25.45-.313-.771.437-1.735-.25-.321-.561 2.12-.5.322-.374-.13-.25.13-30.216 1.735-.812-1.221-.187 1.221-.5.45-.499-2.25-.375 2.378-.5-1.156.25-2.636-.25-.193-.374 1.414v1.993l-.187 1.35-.375-.258-.5-1.22-.061-1.994.187-1.413-.5 1.67v2.057l-.062 1.028-.625-1.413-.312-1.158-.624-1.349.375 1.735v.9l-1.062-.964-.562-2.7-.124 1.993.25.964-.313.386-.624-1.157-.374-1.542-.437-1.479v2.378l.312 1.286-.25.321-.5-.257-.187-1.414-.125-2.057-.499 1.414-.125 1.478-.187 1.157-.312.772-.874.066h0zm0 0" fill="#2F8F22" stroke="#000" stroke-width=".1"/><path d="M134.218 74.382l-1.314-.017-.221.456-.016.636-.158.196-.032.342h-.728l-.49-.31-.143.195-.49 1.417-.285.196h-.332l-.443.407h-.443v.408l.427.554.332.26.127.587.317.505-.444.44-.348.374-.174.277h-.142l-.095-.326-.158-.375-.396.228-.363.261.015.407.585.766.554.032-.49.962-.11-.57-.254-.212-.158.033-.364.244-.253.39-.064.245-.126.228-.158.375.047.342.27.374.284.245.585.195.206.05h1.029l-.301.684-.269.749-.332.635-.206.081-.095-.13v-.342l.396-.929-.032-.31-.237.099h-.301l-.143-.098-.617.521-.411.62-.095.455.127.635.363.668.301.228.222.098-.032.342.238.26.427.196-.127.195-.332.343-.206.31-.158.439.174.587-.174.309-.396.147-.6.13-.396.195-.095.424-.222.391-.791.293-.633.082-.68.081h-.38l-.206-.326v-.52l-.348-.603-.364-.44-.617-.244-.427-.05-.412.131-.332.408h-.285l-.427-.538-.348-.26-.205-.033-.38.114-.728.781-.38-.032-.46-.31-.458.278-.222.08-.395.392-.016.537.237.636.222.244.253.065.095.538.142.244.586.587-.427.602-.08.391-.015.685.095.342.822 1.124-.047.244-.775.587-.712.7-.222.57.015.407-.68.635-.063.62.143 1.042.316.456.49.326.428.147.553-.049.443-.277.285-.26.08-.75.521.375.618.798.458.733.016.195-.696-.016-.27-.081-.711.032-.411.164-.364-.017-.19-.081-.475.244-.902.456-.712.424-.285.032-.41.342-.317.066-.507.635-.126.423.047.782.237.522.048.896.11.178-.063.587-.284.407-.048.293-.158.391-.237.342-.032.88-.142.847.047 1.14.047 1.125-.332.7-.269.358-.064.424-.094.293h.41l.207-.179-.064.358.807-.847.064.375.364-.293.031-.652-.016-.326.206.521.127.13.269-.26.063-.293.143.538.158.179.38-.44.048-1.043-.238-.684.443.863.158.326.348.538.159.619.538-.098.253-1.613.411 1.368.522 2.07.333 1.189.411.716.253.798.364.603.57.782.6.473.777.244 1.044.016.016.407-.396.375-.159.342-.427.733-.285.277-1.06-.016-.617-.293-.332-.082-.696.13-.538.424-.253-.016-.539.26-.268.359-.127.472-.348.57-.159.343.143.472-.19.358-.047 1.336.3.782.491.521.332.228.19-.097-.047-.864.174-.456.348.212.522-.26.427.342-.158.602.064.733.316.799.554.733.427.341.032-.195-.032-1.678.364-.326.443-.016.522-.407.269-.066.253-.195.032-.293.221.081.143.538-.032.602.016.26.459.164.997-.945.237-.57.079-.896.206-.163.015-.228-.19-.358.254-.065.364.113.522-.341.284-.36.222-.064 1.155-1.206.823.31 1.266.505.886.228.206.114.395.016.38.212.443.586.126.229-.142.08-.475-.243-.19.08-.538.474-.015.912.506.651 1.124.082.49-.245.427.245.57-.245.522-.179.728.277.38.098.364-.065.332-.26.522.081.49-.017.317-.244.27-.44.141-.342-.063-.456-.269-.326-.332-.13h-.348l.047-.195.475-.293 1.677-.897.317-.048.459-.342.443-.033.712-.57.269.146.285.245.553.537.38.554.27.212.315.587.412.455.3.196.349.049-.222.358-.094.375.11.554-.19.668v.781l.253.685.317-.228 1.123-1.092.396-.048.396-.294.205-.619.127-.39.174.26.253.65.506.523.348.146.032.782.016.83.174.066.585-.423.49-.619.317-.766.095-.75-.143-.651-.047-.44.158-.456.507.554.411.212.174 1.27.396-.211.474-.554.428-.668.11-.75-.079-1.107-.158-1.076-.617-.879-.253-.065-.285-.359-.047-.228-.808-.652-.632-.13-.554.212-.285.488h-.19l-.649-.553-.032-.408-.316-.325.348-.424.412-.049.68-.358.57-.44.49-.652.428-.668.142-.781.3-.88.46-1.515.316-1.336.395-.195.491-.212.411-.407.237-.05.19-.358.238-.016.063-.489.143-.228.285-.113s.079.749 0 .83c-.08.082-.57 1.076-.57 1.076l-.159.651-.03.195.442.082.506-.212h.253l.554-.651.49-.961.175-.978.205.31.047.521-.173.798-.143.685-.158.228.142.293.412-.277.411-.098 1.155-1.32.475-1.71v-1.661l-.158-.18.253-.292-.032-.587-.174-.521-.284-.31-.507.391-.316-.049-.348-.668-.048-.994-.127-.162.048-.375.285-.57.015-.847-.316-.814-.475-.604-.364-.13-.459-.048-.38-.277-.221-.082-.348.033-.332-.424-.507.016-.285-.195-.268.13s-.523-.146-.618-.163c-.094-.016-.38-.016-.38-.016l-.459-.407-.142.098-.554-.033-.839-.277.08-.244.649-.587.427-.179.617.554.49.375.65.178.775-.244.49-.537-.126-.505-.143-1.206-.57-.765-.268-1.385-.602-.88-.19-.374-.063-.44.111-.505.902-.488.332-.554-.142-.799-.206-.7-.602-.945.46-.553.268-.701.064-.374-.064-.457-.205-.293.126-.13-.126-.277-.712-.228-.538-.212-.253.13-.697-.081-.348.18-.665.292-.711.359-.554.065-1.013.668-.68.31-1.235-.05-.522-.097-.98-.994-.206-.065-.08-.391-.269-.114-.442.228.094-.505-.126-.62-.475-.798-.396-.228-.68-.211-.19.521.064.75-.285.178-.11-.537.03-.896-.205-.587-.427-.88.49.75.396.13.506.212.57.13.665-.18.284-.308.396-.587.032-.603-.443-.586v-.277l.19-.31-.27-.31-.616.034-.38.407-.159.489v.211l-.253-.081-.174-.44-.205-.945-.206-.277-.19-.489-.396-.651.602.83.3.359.65.326.38.13.537-.13.506-.147.206-.473.222-.52v-.36l-.127-.374-.205-1.205s-.365.081-.46.163c-.094.081-.332.488-.332.488l-.142.31-.333-.147-.316-.472-.27-.277-.189-.163h.19s.111.065.396-.163c.284-.228.522-.325.522-.325s.142-.098.222-.164c.078-.065.347-.944.347-.944l-.031-.408-.396.228-.506.375-.507-.049-.68-.652.064-.195.474-.326.285-.684.317-1.14s-.08-.065-.253-.098c-.174-.033-.333-.358-.333-.358l-.332-.212-.427-.39v-1.646l-.522-.114-1.155.13-.285-.668-.158-.277-.095-.456-.522.163-.712.26-.254-.016-.332-.276-.285-.098-.395-.293-.475-.342-1.25 1.026zm0 0" fill="#000" stroke="#000" stroke-width=".1"/><path d="M108.103 72.236v51.763c.595 7.411 15.599 12.077 26.06 19.948 13.72-9.474 27.027-11.39 27.562-22.012l.167-49.7h-53.789 0zm0 0" stroke="#000" stroke-width=".1"/><path d="M135.22 82.314c-.062 1.404-1.234 1.109-1.568.725-.322-1.284 1.546-1.636 1.567-.725 0 0-.02-.91 0 0h0zm0 0M135.854 82.233c.122 1.11 1.358 1.263 1.591.799.409-1.06-1.125-1.732-1.59-.799 0 0 .465-.933 0 0h0zm0 0" fill="#D40000" stroke="#000" stroke-width=".1"/><path d="M135.095 81.163v.243l-.13.025-.047-.061-.035-.377-.07-.036v-.17l.164-.012v-.159h-.2l-.071.159-.036.218.083.183-.083.146-.153.085-.213.207-.142.072-.33.037-.272-.134-.272-.267s-.118-.195-.13-.244c-.012-.048-.083-.218-.083-.218l-.07-.183-.13-.146-.202-.024-.059.255-.07.097-.166.025-.176-.158-.119-.207-.13-.268-.106-.182-.154-.23-.07-.135-.071-.316-.178-.23-.118-.195-.188-.158-.201-.158h-.237l-.153-.122-.224-.219-.166-.23-.106-.135.024-.121.082-.11.178-.11.177-.011.2-.049.201-.11.036-.145.035-.244.213-.389.094-.28.012-.218.307-.049.296.037.212.06.224.073.26-.133.213-.28.07-.486.095-.45.107-.255h.543l.188.133.154-.072.142-.073.342.036h.177s.142-.231.201-.268c.06-.036.343-.425.343-.425l.366-.097.189.024.26.304.212.134.19.012.448.304s.142.122.19.097c.046-.024.448-.207.448-.207l.354-.024.378-.134.13.304s.19.462.248.511c.06.048.296.51.296.51s.118-.06.177-.073c.059-.012.33.061.33.061l.78.037.106-.122.083.146-.106.56.047.425.142.572.177.267.236.012.307.268.012.267-.236.085-.213-.073-.272.158-.425.256-.354.364-.307.45-.201.45-.2.146-.178-.073-.177.012-.083.219-.177.219-.154.559-.33.377-.343.17-.248.195h-.165l-.283-.28-.13-.122-.036-.437-.272-.22h-.2l.295.244.012.328-.165.146-.083-.024-.083-.17h-.095l-.012.328-.354.425-.354-.304-.012-.389-.177-.036h0zm0 0" fill="#D40000" stroke="#000" stroke-width=".1"/><path d="M132.993 77.978v.425l-.153.256h-.272l-.165.182-.048.146.308.292.283.206.118.147.071.036 1.181-.012.142.145.26-.194.319-.499 1.004.013.53.4.036.33.119.048.283-.255.236-.012.118.158h.213l.697-.645.118-.17.26-.012-.036-.207-.283-.073-.248-.255-.07-.426-.225-.036-.39.207-.673.34-.225.17-.2.012s-.083-.072-.13-.072h-.26l-.213.182h-.165l-.06-.061-.909-.073-.756-.194-.39-.268-.248-.207-.07-.072-.107.048h0zm0 0" fill="#000" stroke="#000" stroke-width=".1"/><path d="M133.56 79.096h.52l.13.11v.146l-.248.11-.437.023-.307-.048-.213-.195-.047-.389.283-.328h.272l.024.11.024.461h0zm0 0M137.033 79.072l-.083.073v.146l.106.073.52.024.567-.462.012-.182-.342-.304h-.296l-.047.085.071.158.094.146-.094.194-.508.05h0zm0 0" fill="#FFFCFC" stroke="#000" stroke-width=".1"/><path d="M129.312 78.094l.528.017.272.421.239.263.238.193.204.035.392.596v.07l.306.28.085.368.034.123-.017.158-.17.105-.204-.035-.12-.088-.374.333-.238.333-.154.035-.409.456-.204.07-.323.246-.51-.018-.324-.403-.068-.158-.017-.315.29-.21.135.157-.067.158.016.193.17.07.171-.018.613-.543.153-.088.358-.368.221-.123-.017-.227-.255-.404-.085-.28-.068-.263-.068-.193-.239-.28-.136-.158-.051-.158-.238-.193-.068-.035v-.122h-.001 0zm0 0" fill="#D40000" stroke="#000" stroke-width=".1"/><path d="M139.561 80.145h.273l.29-.14.22-.193h.205l.136.14.222-.018.136-.175.05-.21.188-.263.051-.263.17-.368.052-.263-.426-.018-.494.439-.374.017-.307.333-.238.035-.255.386-.085.228.034.228.152.105h0zm0 0" fill="#A00" stroke="#000" stroke-width=".1"/><path d="M134.3 83.668l-.323.333-.085.298.136.298.307.052.221-.122.204.245.034.42.409.456.187.053.154-.176.17-.175.017-.175.272-.123.068-.525.154.192.255-.158.324-.034v-.439l-.12-.298-.255-.193-.392-.175-.425-.158-.205.018-.375.228-.408.14-.323.018h0zm0 0" fill="#D40000" stroke="#000" stroke-width=".1"/><path d="M136.863 83.56l.615-.03c.422-.281.604-1.428.895-2.186.45-.6 1.003-.78 1.677-.46l.39.115.504.402h.363l.252.058.391.029.699-.576-.028.604-.475.432-.978.374-.755-.46-.028.115 1.621 1.841h.14l.28.288.139-.115.028-.49.56-.517.055.748.196.374v.72l-.531.69-.839.115-.978-.633-.028-.288-.894-1.064v.46l.53 1.122.085.432.195.201.14.346v.432l.251.604.448.057.112-.288v-.402l.475-.49.308-.028.111.172-.14.144-.055.317v.201l.39.547.113.345-.587.92-.392.116-.698-.115-.42-.288h-.223l-.643-1.007-.084-.49-.866-1.41-.029.289.336.431.168.662.167 1.18.503 1.007.028 1.87.168.201h.223l.28-.23.223-.316-.056-1.094h.308l.531.317.391.662.14.288v.604l-.195.028-.392.432-.643.288h-1.117l-.252-.23h-.224l-.167-.173h-.308l-.866-1.266-.028-2.1.112-.46V87.3h-.14v.634l-.14.403-.028.575.028 1.582.922 1.525.671.346.196.23h-.308l.028.23-.252-.057-.055.115-.14-.058-.252-.173-.335.058-.223.115h-.587l-.252-.518-.195-.403-.671-.633h-.503l-.112-.374.084-.661.14-.605V88.02l-.112 1.842-.307 1.035-.112.087-.029 1.18.196.546.783.892-.531.058-.392-.173-.42.086-.642-.144-.727-.259-.475-.489-.223-.546-.084-.547-.112-.575.112-.46.056-.46-.224.517v1.237l-.307-.086v-.345l-.252-.346-.055-.46-.084-.69-.029-1.123.029-.69.14-.777-.113-.029-.084.979-.055 1.927-.196.058-.447.633h-1.006l-.392-.345.755-.835-.084-.662-.084-.776-.084-1.324-.866.95-.978.72h-.839l-.475-.605-.084-.69.056-.49.503-.69.363-.058.14-.144.084.115-.195.576-.196.431.167.403.476.058.615-.978.475-1.151.363-.576v-.316l-.335.258-.392.087-1.145.029-.67-.432-.113-.345.028-.317.028-.431.727-.49.028 1.036.475-.403v-.201l.615-.835 1.481-1.352h.895l.53.403.224.058.643.633.027.805.755.633-.447.547.027.288.42.316.391-.115.168 1.065.475.288.252.028.95-1.15.42-.058.251-.576-.112-.46-.112-.26h0zm0 0M126.12 93.56v.169l.33.458-.024.483-1.666.87-.726.048-.376.362-.961.314-.422-.097.07-.241.047-.41-.047-.242-.305-.17v-.386l.376-.12-.118-.169-.21-.025.046-.506.094-.193.023-.121-.023-.242-.094-.217-.258-.073-.75.315-.117-.121-.352.386-.188.024-.023-.314-.375-.507v-.097l-.704-.12-.493.652h-.351l-.258-.193h-.211l-.235.144-.14-.048-.212.387h-.117l-.14-.315-.188-.313-.07-.194.094-.386.304-.193.375-.193.282-.048.328.193.141.313.422-.41.422-.483.352-.145.445.073.493.676.469.048.563-.41.21-.121.517.072.516.29.54.82.093.797.117.218.938-.073.985-.193.563-.023h0zm0 0" fill="#D40000" stroke="#000" stroke-width=".1"/><path d="M118.429 93.536l.305.555-.023.99-.118.12-.445-.386-.235-.338-.235-.41v-.362l.235-.193.305-.072.21.096h0zm0 0M119.367 95.129l.68-1.449v-.386l-.258-.387h-.352l-.375.363v1.28l.305.579h0zm0 0M120.54 95.129l.375-.17.914-.892.141-.266-.07-.217-.258-.193-.164-.049-.376.17-.21.217-.423.772.07.628h0zm0 0M122.158 95.756l-.329.242-.375-.024-.68-.483.024-.097.422-.072.375-.17.375.025.212.193.07.217-.094.17h0zm0 0" fill="#5656A6" stroke="#000" stroke-width=".1"/><path d="M119.648 95.926l.633.603.47.314.375.145.469.265h.985l.89-.096.446-.17.868-.024.704-.338.515-.361.516-.024.282-.29h.375l.75-.58 1.056-.482 1.102-.41 1.196-.242.493.024.187.144.235.41.093.194-.117.41-.445.266-.094-.29.281-.241-.07-.145-.446-.072h-.305l-.28.29-.048.651.375.338.4.266.35.024.423-.265.563-.507.328-.58-.094-.845-.187-.531-.563-.435-.704-.29-1.22.025-.726.193-.282.097-.773.53-.352.025-.774.53-.305.121-.352.145-.54.242-1.031.482-.704.435-.352.048-.82.531-1.173.097-.21-.121-.54-.072-.352-.145-.352-.193-.492-.604-.141-.097h-.446l-.14.194.07.41h0zm0 0" fill="#DFDA4D" stroke="#000" stroke-width=".1"/><path d="M126.684 92.473l-.258 1.183.304.338-.023.386.164.17.305-.17.304-.217.305-.12.352-.194.047-.217.375-.193.399-.121.515-.145.517-.072-.375-.266-1.08-.724-.445-.048-.164.144-.633.025-.352.096-.257.145zm0 0" fill="#D40000"/><path d="M131.866 91.29l-.75-.024h-.493l-.398-.169-.329-.338-.046-.314-.235-.386-.234-.241h-.352l-.492.338-.212.434-.046.7.281.604.938.724.54.12.375-.168.844-.386.54-.362.188-.314-.119-.218h0zm0 0M130.06 90.18l.422-.459.024-1.038-.117-.097.117-.41.047-.338h-.164l-.915.893-.633.096-.328.194-.024.241.258.17.47-.05.257.025.587.773h0zm0 0" fill="#D40000" stroke="#000" stroke-width=".1"/><path d="M130.436 92.908l.82-.073.657.049.328.096.657.362.375.194.727-.049-.281-.362-.282-.362-.188-.362-.046-.362-.164.048-.188-.048-.234-.314-.14-.459-.095-.603-.187-.025-.141.29.14.145.141.29-.234.313-.024.242-.304.242-.423.193-.398.168-.446.17-.07.217h0zm0 0" fill="#D40000" stroke="#000" stroke-width=".1"/><path d="M133.297 93.898l.14 1.207-.257.748.54.024h.632l.563-.12.54-.049.492.024.399.049.492-.193.023-.387-.117-.338.234-.748-.093-.17-3.588-.047h0zm0 0" fill="#D9D24D" stroke="#000" stroke-width=".1"/><path d="M136.44 91.797l.023 1.038.352.314h.328l.258-.145.07-.217-.234-.145-.094-.29-.493-.555h-.21 0zm0 0M140.262 92.618l1.008.7.305.097.281-.097.47-.386.234-.531.023-.386-.234-.024-.375.265-.54.048-.422.073h-.328l-.329.072-.093.169h0zm0 0M143.17 91.822l-.188.314-.187.482-.423.46.024.337h-.188l.024.266.328.265.915.145.727-.966v-.266l-.399-.483-.282-.072-.352-.482h0zm0 0M147.437 94.525l.47.242v.169l-.188.266-.117.506-.047.314-.563.025-.586-.218-.329-.217h-.304l-.164-.145-.282-.193-.352-.242-.375-.506-.258-.338v-.242l.352-.458.352-.12h1.571l.727-.267.586-.507.704-.144.164-.194.47-.096 1.172-.628.656.12.657-.023.563.168.21.194-.116.072-.305-.024-.352.193-.047.652.281.53-.07.146-.352-.024-.234-.121-.117-.218v-.217l-.235-.338-.187-.072h-.422l-.14.917h-.212l-.399-.362-.586-.073-.399.363.14.483.587.579h.305l.282.338-.024.265-.422-.097-.422-.096-.352-.17-.282.05-.328-.194-.328-.145-.211-.096-.142.193h0zm0 0" fill="#D40000" stroke="#000" stroke-width=".1"/><path d="M138.854 95.225l-.14.097-.211-.097-.118-.337.235-.218.516.024.469.435v.628l-.634.314-.656.169-.727-.218-.446-.627-.117-.435.094-.748.117-.483.634-.483.68-.218.797-.12.915.24 1.852.725 1.243.58 1.383.748.821.387 1.08.53.656.242.75-.097.329.025.656-.218.446-.048.985-1.183.398-.242-.046.531-.657.749-.563.652-.234.024-.305.265-.586-.024-1.36.073-.657-.218-1.032-.217-1.22-.555-.961-.507-.47-.072-.726-.387-.446-.048-.258-.193-.797-.242-.657-.241-.633-.073-.493-.072-.234.145-.234.338-.117.458.164.556.281.048.258-.12.094-.193-.118-.049h0zm0 0" fill="#D9D34A" stroke="#000" stroke-width=".1"/><path d="M148.282 95.056h.54l.304.17h.61v.24l-.352.266-.68.193-.305.145-.234-.024-.165-.217v-.338l.141-.29.14-.145h0zm0 0M152.01 94.308h0s.376-.217.446-.386.234-.531.234-.531l.141-.628-.187-.531-.352-.096-.305.024-.164.168-.046.46.164.385.14.218-.023.41-.048.507h0zm0 0M150.603 94.501h0l.376-.193.234-.459.024-.507-.188-.386-.258-.29h-.352l-.094.676.258.266v.893h0zm0 0M150.158 94.936l.14-.17.071-.362-.14-.53-.212-.242-.258-.241-.281-.193h-.4l-.257.217.07.435.47.362.375.072.422.652h0zm0 0" fill="#48489C" stroke="#000" stroke-width=".1"/><path d="M128.238 98.704l-.683.085-.483.061-.318.194-.26-.158-.152.097-.577-.315-.672.376-.318.291h-.2l-.153-.206-.306.219-.177-.182-.189-.11-1.272.946-.459-.157-.2.182-.083.072-.047.206-.189-.51-.164.122-.283-.097-.2.291-.047.764.118.958.306 1.055.283.436.235.049.071-.304.13.57.188.194.06 1.03.765 1.771.07.91.035 1.576-.282.352-.365.57.012.169-.377.74.023 1.128.083.097.024 1.079.294.024.235.266.519-.048v-.327l.07.375.412.559.354.29.247.013.13-.194-.012-1.213.082 1.334.26-.012.33-.303.435-.061.142.012s.117.073.176.182c.059.109.271.206.271.206l.153.328.189.072.094-.206-.13-2.583-.129-2.11-.141-2.679-.142-3.42-.023-1.09-.165-.146.012-.352.4-.12.235-.074-.106-.327-.117-1.091v-.412l.141-.121.283-.012.2.242.389 1.661.2.073.707-.013 1.602 2.608.565.873.777 1.49 1.014 1.492.318.437.212.024.07-1.588.448-.4-.377-2.74-.306-.061-.424-.4-.236.036-.235.4-.294-.34-.036-.387-.27-.182h-.2l-.26-.364-.141-.036-.165.157-.036-1.236-.259-.582-.047-.352-.483-.703-.506-.121s-.224-.522-.224-.595c0-.072-.094-.327-.094-.327l-.355-.377h0zm0 0" fill="#E4CB5E" stroke="#000" stroke-width=".1"/><path d="M128.662 115.291l-.342-.448-.117-.473-.047-1.018-.106-.97-.189-1.504-.306-1.855-.247-1.504-.095-.885-.2-1.043-.082-.715-.083-.594-.07-.849.235.764.389 1.782.435 1.237.177.837v.473l.306.678.2.861.413 1.82.436 1.49.223 1.08.035.412-.459.158-.224.109-.282.157h0zm0 0" fill="#DCC56A" stroke="#000" stroke-width=".1"/><path d="M130.959 114.928l.247-1.225.295-.933.13-.63.093-.51-.023-.764-.2-.448-.919-1.904-.554-1.152-.224-.594-.412-.74-.553-1.188-.495-.885-.412-.728-.389-.533-.117.109.353 1.358.294 1.164.283 1.285.47 1.685.272 1.165.27.715.26 1.006.718 2.401.142.63.353.728.118-.012h0zm0 0" fill="#E2CC75" stroke="#000" stroke-width=".1"/><path d="M125.002 121.835l-.3.308-.47-.308.213-.572.77-.133.428.66-.172.66-.598.617-.727.22-.727.088-.855-.044-1.155-.265-.897-1.1-.684-1.408-.513-1.188-.599-2.421-.3-1.013-.127-.924-.642-1.276.257-.22 2.223-2.025h.128l.47-.44.813-1.585.085-.087.257-.969-.043-1.672-.214-.792-.512-.88s-.171-.309 0-.265c.17.044-.47-.748-.47-.748l-.77-.837v-.175l-.556-.573-.385-.22h-.3l-.128-.176-.556-.176-.256.264-.17.573v.22l.384.176.128-.088-.128-.22.042-.265.3-.22.342.264-.043.66-.256.309-.641.044-.513-.264-.214-.44-.17-.66.17-.397.257-.22.427.088.684-.176.214-.088.556.088.384.396.428.264 1.069 1.233.299.308.556.836.684 1.585.17 1.1-.084 1.1-.556 1.585-.642 1.012-.897 1.144-1.54 1.321-.213.044-.342.44.599 1.32.94 4.05.77 1.672 1.111 1.189.855.484 1.112.132.983-.264.428-.396-.171-.264h0zm0 0" fill="#DDD457" stroke="#000" stroke-width=".1"/><path d="M126.797 122.76l-.128.219.171.352.428.088.299-.396v-.44l-.257-.484-.342-.089-.384.044-.556.397-.3.352-.17.836.427 1.365.684.924 1.71 1.144 1.839.704 1.154.176.855.88.427 1.057-.384.66-.513.044v-.264l.213-.044.257-.264-.128-.264-.513-.308-.428.352-.043.792.385.397.556.131.427-.176.428-.484.043-.573-.171-.836-.727-1.056-.77-.396-1.923-.704-1.24-.484-.898-.661-.812-.88-.47-1.276.213-.836.47-.353.257.088-.086.265h0zm0 0" fill="#DBD45D" stroke="#000" stroke-width=".1"/><path d="M142.316 122.803l.342.22.043.352-.385.176-.512-.088v-.528l.299-.66.855-.044.385.484.256.924-.256.969-.984.836-1.368.968-1.496.66-2.223 1.1-.642.484-.555 1.057.342.616.427.088v-.22l-.128-.176.085-.484.257-.264.513.308.128.66-.47.485-.513.087-.813-.396-.256-.44-.043-.617.342-.572.684-.703 1.07-.617 1.538-.66 2.266-1.144 1.582-1.761v-.704l-.342-.44-.428.044h0zm0 0" fill="#E5DC5E" stroke="#000" stroke-width=".1"/><path d="M144.283 121.527v.395h.299l.3-.044.128-.527-.257-.352-.342-.045-.427.088-.47.352-.043.705.213.483.428.66.77.397.769.22 1.154-.088 1.326-.66 1.24-.924.512-1.277.641-2.333.813-2.948.513-1.1.427-.397-.128-.176h-.385l-.983-.748-1.026-.66-1.325-1.628-.684-1.365-.214-1.936.385-1.893.812-1.409 1.325-1.144 1.197-.88 1.197-.044.171.484-.17.396-.257-.22-.385-.044-.17.66.426.22.77-.088.214-.528-.085-.748-.556-.528-.984.088-.727.088-.898.528-.94 1.012-.641.969-.813 1.364-.256 1.232.043 2.157 1.069 2.333.94 1.232 1.838 1.276.3.22-.556 1.277-.812 2.685-.513 2.156-.428.924-1.368 1.233-1.54.616-1.324-.044-.641-.484-.172-.44-.043-.66.343-.088h0zm0 0" fill="#D7D643" stroke="#000" stroke-width=".1"/><path d="M137.762 105.855l-.091-.186.303-.343.573-.123.453-.374.574-.373.605-.156.785.684-.272.219-.272-.032-.513.342-.393.25-.332-.063-.303-.093-.18.155h-.273l-.212.125-.452-.032h0zm0 0" fill="#CCC" stroke="#000" stroke-width=".1"/><path d="M151.871 93.787v.436l-.422.062-.03-.591.452.093h0zm0 0" fill="#48489C" stroke="#000" stroke-width=".1"/><path d="M141.448 104.984l.302-.124h.453l.242.684v.218l.393-.124h.725l.513.249.453.466.484.28h.392v-.217h.393l.091.124.423.062.302-.093.09.28-.06.373-.09.28.12 1.182.544 2.022 1.027 1.71-.392-.186-.876-.125-.273.125-.362-.031-.423.404-.212.03-.18.156-.333-.466-1.269-1.742-.332-.373-.725-1.617-.997-2.209-.06-.902-.242-.249-.121-.03v-.157h0zm0 0M141.085 117.022l.514.249-.03-.25.363.25s.332.062.513.03c.18-.03.574-.434.574-.434l.12-.84.786-1.4.574-.342.182-.031.543-.623 1.028-.56.483-.186.786.155.574.28.12.498.091 1.338.363.28.302-.156.272-.342.664-.25.484.063-.03.622-.212 1.151-.332 1.213-.544 1.928-.513 1.37-1.27.995-.996.652h-1.602l-.483-.466.604-.156.212-.372.06-.654-.543-.404-.544.031-.725.436-.273.372-.15.436h-.272l-.605-.031-.453.311-.332.435-.091.653.151.467.332.218.605-.032.151-.123h.12l-.543.62-.695.748-.906.622-.605.186-.997.374-.725.342-.816.03-.846.778-.574.467-.392.56-.182.964v.715l.453.622-.06.187-.272-.032-.151-.124h-.665l-.181-.28-.333.063-.483.155-.211.218-.363-.187.212-.56.03-.528-.151-.716-.453-.933-.393-.435-.695-.436-1.33-.404-1.45-.56-1.057-.529-.392-.622-.152-.777.242.249-.212-.871.303.404.212.03.604.779.483.094.121.061h.15l.031-.061.453.248.514.156h.725l-.634-.156-.786-.373-.816-.467-.453-.621-.06-.28-.242-.031.03-.188.181-.217.242.031.06.186.242-.093.393.311.665.062.483.063-.422-.25-.665-.373-.665-.622-.212-.03-.665-1.058-.362-1.026-.302-1.089v-1.275l.392-1.026.574-.934.333-.31.272.092.695-.528.483-.156.635.031.483.156.695.218.332.435.332.031.09.249-.18.062.241.342-.09.218.211.28-.03.404-.392.467.271.466-.03.156.332.373.303.466.513.094 1.209.031.876-.093.513-.032-.211-.248.362-.094.453-.094.816-.652s.635-1.12.756-1.276c.12-.155.362-.684.362-.684l1.027-1.088.393-.156.906-.466h.937l.242.28.393.062.362.466.181 1.276-.574.404h-.483l-.332-.218-.09.187-.394-.093h0zm0 0M126.424 121.606s.072-.146.143-.146.23-.018.23-.018l.019-.952s-.125-.072-.143-.146c-.017-.073-.017-.42-.017-.42l-.124-.128-.018-3.841-.356-.987-.302-.53-.248-.202-.391-.036-.444.292-.267.147-.568-.128-.213-.147-.338-.017-.302-.567-.622-.202-.284-.091-.852-.073-.249-.019-.32.22-.373.457-.266.53-.036.86.195.274v.402l.09.165v.348l-.285-.348-.284-.713-.142-.439-.125.183.036.585.017.475.16.44.16.621.267.786.213.842.196.804.373.732.32.457.728.75.461.329.711.256.8-.018.248-.183-.32-.31s-.053-.202-.053-.275c0-.074.106-.44.106-.44l.338-.365.977-.183.337.256.444.512.373.2h0zm0 0" fill="#CCC" stroke="#000" stroke-width=".1"/><path d="M149.002 113.157v.55l.125.072.035.183.55.092-.053-.183-.355-.348-.09-.256-.212-.11h0zm0 0" fill="#FFFCFC" stroke="#000" stroke-width=".1"/><path d="M149.02 105.312l-.373.348-.249.493-.088.512-.16.64-.071.494.07 1.08.037.584.337.55.177.054.213.439.302-.86.143.11.089.64.497.439s-.462-.238-.569-.238c-.106 0-.124.128-.124.128l.124.274.284.293.498.2.924.019-.213.22h-.64l-.16.127.231.348.284.457.516.256.532-.146h.178l-.089.219.266.2.231.22.214.238.177.037v.274l-.32.823-.071.384-.177.31-.107.476-.32.567-.035.201h.16l.23-.311.338-.146.41-.549s.23.073.283-.037c.053-.11.302-.877.302-.877l.249-.055.124-.805.213.75.178.951-.071.805-.462.877-.124.147.07.292h.339l.39-.42.675-.933.267-.933.142-1.81.302.841.284.823.143.64-.214.84-.266.989.355-.257.747-.86.586-.895.16-.658.142-1.262-.09-.987.036-.366.125-.201-.018-.659-.124-.274-.427.585-.177.037-.498-.348-.124-.036-.284-.421-.195-.677.017-.768h-.106s.053-.64.106-.805c.054-.164.125-.475.125-.475l-.09-.677-.337-.64-.408-.365-.657-.201-.765-.22-.444-.365-.835-.092-.426.055-.8-.384-.514-.201-.657-.018-.622-.073-.32.019h0zm0 0M120.439 105.352l-1.638-.034-.262-.135-.393.337h-.754l-.82.473-.556.438-.295-.033-1.147 1.08.164.876.13.236.066.844.033 1.214-.262.202-.393 1.013-.23.876-.196 1.72.164 1.282-.23.675-.459.742-.098.371.393-.27-.065-.135.197.304.49-.911.197.337.197.034v-1.147l-.23-1.788.558 1.856.13.674.1-.034.065-1.518.36.844.033.742.163.135.1-.203v-1.113l-.591-1.788-.295-1.653.787 2.16.459.437.425 1.181.361.675.065.438.263-.168.098-.169-.23-.169.164-.134-.033-.607-.196-1.417h-.196l-.689-1.484.623.911h.262l.033-.236-.295-.608-.065-.708.59.877.196-.1-.328-.98-.065-1.113.196.473-.032.54.426.54.425.235.328-.404-.23-.17-.098-.471-.328-.405v-.54l.46.844.425.303.426.101.426-.303.721-.844-.098-.1-.754.033-.59-.405-.524-.505v-.439l.099.067.229.473.426.438.491.067.623.035.688-.641.36-1.215.099-.675-.131-.843-.426-.978-.263-.439-.229-.101h0zm0 0M144.556 124.04l-1.737 1.855-.23-.067-.622.54-.033.573.59.473.23.438.164-.034.589.742.557.81.23.135.163.37-.294.44.098.27.459-.068.524.034.328.202.13.607v.236l.361-.202.295-.439.033-1.079-.065-.303.098-.81.098 1.079.23.337.163-.135.197.709.426.439.23.404.032-.27-.033-.54.23-.607.262-.708.262-.169.23.102.328.337-.034.135.295-.034-.065-.81-.426-.607-.656-.438-.327-.337-.295-.54.459.27.491.472.459.237.328.067.557 1.113.36.54.066-.742.262-.844.262-.37.328-.035.426.136-.099-.507-.327-.64-.655-.607-.689-.54-.59-.27-.524.472-.164.067-.295.27-.229-.1-.754-.743-.196-.135-.328-.81-.491-.236-.754.068-.918-.203h0zm0 0" fill="#D40000" stroke="#000" stroke-width=".1"/><path d="M148.619 130.044l-.36.506v.843l.163.405-.164 1.586.82-1.18.294-.608-.033-.81-.23-.371-.261-.236-.23-.135h0zm0 0M151.338 128.29l-.262.068-.295.64-.065.843.164.439v.607l.065.371.295-.438.426-.742.065-.54v-.742l-.196-.337-.197-.168h0zm0 0M144.195 132.675l.426-.303.328-.237.426-.573-.066-.438-.262-.202-.328-.135-.294.034-.328.471.033.945.065.438h0zm0 0" fill="#4F4D9F" stroke="#000" stroke-width=".1"/><path d="M124.24 129.707l.328.135v.91l-.557.642-.622.472.032-.607-.164-.202v-.641l.132-.169v-.303l.557-.304.294.067h0zm0 0M119.98 130.247l.459-.034.492.303.196.574-.295.27-.163.27-.099.438.066.71.033.64-.557-.709-.459-.742-.033-.742.164-.64.196-.338h0zm0 0M118.407 129.404l-.13.472-.164.1-.197.27v1.012l-.328-.201-.36-.473-.196-.506.065-1.282.164-.54.393-.134.393.135.328.776.032.37h0zm0 0M118.44 126.132l-.196.505-.524.405c-.08-.539.19-.822.72-.91 0 0-.53.088 0 0h0zm0 0" fill="#4748A5" stroke="#000" stroke-width=".1"/><path d="M124.863 123.602h0l.23.404.196.64.327.372-.032.202.458.405.46.742.753.64-.557.507-1.311 1.012-.426.136-.557-.339.066.81.229.372-.59-.135-.688.067-.426.371-.099.37-.163-.269-.23-.371-.065-.067-.131.1.098.068.033.675-.164.135-.033.202-.753.506-.197-.506-.262-.573-.46-.237-.49.068-.557.337.163-.472.328-.54.622-.54.623-.404.491-.202.132-.068-.165-.169-.917.27-.655.439-.688.506-.524.775-.263.203v-.574l-.295-.775-.098-.507-.295-.37h-.36l-.492.1.361-.64.72-.405.328-.573.59-.507.492-.1.72.1.36.203.69.034.425-.034.524-.27.426-.81.59-.876.688-.372.82-.066h0zm0 0" fill="#D40000" stroke="#000" stroke-width=".1"/><path d="M140.787 114.358l-.95.27-.655.54-.852.91-.688 1.283-.786.978-1.443.607-1.31.034-1.016-.303-.36-.574-.099-.742-.13-.91-.296-.574-.458-.574-.525-.37.558-2.43.163-.54v-.708l.099-.944.491-.844.492-.472.851-.405 1.507-.404 1.508-.506 1.573-.371 1.77-.439.753-.067-.066 1.012.197.371-.033 2.631-.164 2.328-.13 1.213h0zm0 0" fill="#784421" stroke="#000" stroke-width=".1"/><path d="M141.148 114.325l.917.202.721.439.295.438.393-.337.164-.574.688-.404 1.049-.945-.885-1.383-.46-.675-.622-.741-.753-1.417-.852-1.923h-.46l-.064 3.812.033 1.383-.164 2.125h0zm0 0" fill="#784421" stroke="#000" stroke-width=".38"/><path d="M132.432 97.02l-.295.91 1.016-.168-.721-.742zm0 0" fill="#76401B"/><path d="M131.81 99.617l.032.709 2.818-.91v-.27l-2.85.471h0zm0 0" fill="#A05A2C" stroke="#000" stroke-width=".1"/><path d="M132.596 100.697l-.065.674.196 1.485.72 4.081h.361l.033-.64-1.245-5.6h0zm0 0" fill="#44B3CC" stroke="#000" stroke-width=".1"/><path d="M134.43 106.634l-1.31-5.903.983 6.004.328-.101h0zm0 0" fill="#50AECE" stroke="#000" stroke-width=".1"/><path d="M134.66 106.566l.459-.168-1.704-5.667 1.245 5.835h0zm0 0" fill="#50AFCE" stroke="#000" stroke-width=".1"/><path d="M133.906 100.393l2 5.903-.394.135-1.606-6.038h0zm0 0" fill="#50ABCE" stroke="#000" stroke-width=".1"/><path d="M136.2 106.161l-1.933-5.97 2.457 5.903-.524.067h0zm0 0" fill="#50B0CE" stroke="#000" stroke-width=".1"/><path d="M136.92 105.858l-2.293-5.701 2.85 5.768-.556-.067h0zm0 0" fill="#50B3CE" stroke="#000" stroke-width=".1"/><path d="M118.96 95.422l-.308.049-.38.318-.167.416.024.759.261.464.452.49.214.367-.119.66-.642.417-.689.514-.262.416-.095.465.024.49.095.122.523-.025.31-.098.475-.049.451.074.69.49.974.905.428.514-.309-.759-.166-.905-.12-.906.144-.538.237-.343.262.147.214-.122.285.147.238-.147.38.122.475-.245.714-.562h.499l.143.122.285-.122.166.244.595-.465.475-.244.475.195.619.147.237-.22.5-.025.689-.097.333.244.332.832.238.27.357.073.19.098.332.856.238.686.12.831-.049.22.214-.024.333.342.286.148.237.269.071.44.19-.024.167-.22.333.073.285.318.285.025-.5-3.402-.475-.27-.023-.782 1.117-.416.024-.294-.167-.49-.213-.44-.428.049.332-1.101.832.88-.38.05.332 1.346 1.427-.245.261.367-.095.318.12.22.07.392.429.563 1.117 2.496 1.07 2.251.475-.514.5-.122.546-.392.333-.122.237-.318.619-.025.927.857.142-.22.88-.05.285.588.048.245.356-.147.975.22.594.49.451.195.12.245.261-.318.19.024.31.074.974-.074.5-1.028s.45-.954.665-1.199c.214-.244 1.094-1.223 1.094-1.223l1.07-.735.807-.464.761-.098.714-.025-.024-.66-.285-.637-.714-.954-.143-.759v-.465l.619-.416.737-.612.024-.636-.214-.783-.428-.661-.143-.122-.238-.05-.333.22-.665.955-.737.76-.903.562-1.046.122-1.664-.269-1.165-.367-1.45-.563-1.522-.734-.832-.172-1.26-.636-.475-.025-.024.22.38.392-.095.686-.332.367-.618.024s.07.05-.286.147c-.356.098-.665 0-.665 0l-.594-.367-.571-.098h-1.141l-1.26.123-1.427.122-.712.637-.619.097-.665-.171-.69-.832.024-.465.5-.636-.262-.025-1.57.588-.974.562-.523.343-.38-.025-.5.466-.618.049-.356.39-.12-.048-.997.27-.904.17s-1.14.172-1.26.172c-.119 0-1.212-.147-1.212-.147l-.808-.416-.38-.44-.357-.245-.476-.514.024-.392-.142-.097h0zm0 0" fill="#64B4D1" stroke="#000" stroke-width=".1"/><path d="M123.805 115.95l.126.655.425.786.805.72-.678-.502.509.699-.87-.568.849.568-.891-1.31-.275-1.048h0zm0 0" stroke="#000" stroke-width=".1"/><path d="M122.766 118.852l-.318.35-.552-.088.021.72.764 1.158-.764-1.091.022-.742.53.043.297-.35h0zm0 0M121.854 120.861l-.17-.502v-.567l.17 1.07h0zm0 0" fill="#FFFCFC" stroke="#000" stroke-width=".1"/><path d="M132.561 119.093l.106.633.424.764.275.371-.805-1.768h0zm0 0" fill="#666" stroke="#000" stroke-width=".1"/><path d="M134.024 120.883l-.403-.13-.36-.35-.51-.939.53.699.743.72h0zm0 0" fill="gray" stroke="#000" stroke-width=".1"/><path d="M131.883 118.067l-.255.262-.423.109s-.424-.044-.51-.11c-.084-.065-.55-.348-.55-.348l.55.305h.976l.212-.218h0zm0 0" fill="#666" stroke="#000" stroke-width=".1"/><path d="M130.484 118.329l.063 1.855.17.72.254.524.34.546.084-.218.36.262.107-.11-.361-.37-.36-.503-.213-.523-.233-.895-.084-.96h.296l-.085-.175-.338-.153h0zm0 0" fill="#666" stroke="#000" stroke-width=".114"/><path d="M138.498 121.254l.678-.066.636-.545.106-.372.297-.218-.042.633.148.328.403.13.254.24.445.044.636-.414.467-.502.403-.372.296-.13.106-.612h.191l.043-.284-.085-.545-.19-.524-.255-.35-.424-.392-.19.087.465.459.382.502.021.785-.106.306-.572.677-.742.829-.36.175-.764-.11-.276-.37-.063-.262-.085-.262v-.306l.106-.218-.784.917-.318.021-.827.72h0zm0 0" fill="gray" stroke="#000" stroke-width=".114"/><path d="M148.696 115.535l.17-.153.19.285.043.785.02.022v.524l-.295.567-.637.699-.742.327-.678.087-.467-.108-.17-.285-.105-.283v-.655l.127-.262.042.131-.021.72.233.284.488.153.445-.153.53-.153.445-.262.021-.152-.17-.022.043-.066h.254l.318-.655.106-.546v-.436l-.126-.13-.064-.11v-.153h0zm0 0" fill="gray" stroke="#000" stroke-width=".19"/><path d="M131.904 125.641l-1.06.524-.976.305-.53-.087 1.039.393.403-.327.636-.328.488-.48h0zm0 0" fill="#666" stroke="#000" stroke-width=".1"/><path d="M132.73 127.846l.573.174.276.11.593.087-.445.283.572.13s-.55.067-.635.067c-.085 0-.382.196-.382.196s-.064.35.127.328c.191-.022.466-.066.572-.066.106 0 .446.066.446.066l.212.174-.127.197-.891.022.127.11h.721l-.7.48.848-.023.679.284v.175l-.657.153-.149-.263-.848.24-.17.219-.317-.219.254-.567-.021-.59-.127-.458-.297-.676-.233-.633h0zm0 0" fill="#999" stroke="#000" stroke-width=".152"/><path d="M121.635 100.305l-.135 1.042.27.729.034 1.007-.034-1.111-.27-.556.135-1.111h0zm0 0" fill="#FFFCFC" stroke="#000" stroke-width=".1"/><path d="M122.614 100.93v1.32l.236.312-.068 1.39.203.416v2.291M123.996 99.368l-.27.52.102.938.067.66-.101 1.041" stroke="#000" stroke-width=".1"/><path d="M124.806 100.444l-.034 1.632.101.52v.904l.034 1.389v.937l-.776-.972.81 1.042.134 1.006.203.383-.135.52.034.868V111.14l-.776-1.945.068 4.028.067-2.326.27-.417.439 1.146.067.521-.101-1.945" fill="#000" stroke="#000" stroke-width=".1"/><path d="M130.136 101.902l-.035 1.598.17.867.134.938" stroke="#000" stroke-width=".1"/><path d="M131.586 104.229l.303 3.472" fill="#E2D67E" stroke="#000" stroke-width=".1"/><path d="M122.917 109.403l.067 2.014.135.868.034.938" fill="#DDD690" stroke="#000" stroke-width=".1"/><path d="M133.07 113.119v-.348l1.484-.347-.236.173.034 1.042M137.118 112.25v-.451l1.484-.278-.338.07.068 1.076M133.913 115.619v-.348l1.249-.243-.034 1.285M136.881 115.133v-.556l1.35-.243.067 1.215" fill="#D38D5F" stroke="#000" stroke-width=".1"/><path d="M132.733 117.876l5.228-1.216" fill="#FFFCFC" stroke="#000" stroke-width=".1"/><path d="M131.45 114.507l.541.07 8.905-2.084" fill="#C87137" stroke="#000" stroke-width=".1"/><path d="M131.957 112.146l1.383-.209 7.69-2.083" fill="#C87137" stroke="#000" stroke-width=".723"/><path d="M132.497 110.583v.869l-.304.07v-.418l.304-.52h0zm0 0M133.205 110.444l.034.869h-.237l-.067-.764.27-.105h0zm0 0M133.744 110.27l-.236.14v.694l.338-.07-.102-.763h0zm0 0M134.386 110.028l-.237.208v.625l.371-.034-.134-.799h0zm0 0M135.128 109.854l-.338.139v.695l.372-.07-.034-.764h0zm0 0M135.836 109.646l-.304.035v.868l.372-.07-.068-.833h0zm0 0M136.747 109.472l-.338.139.034.59.337-.104-.033-.625h0zm0 0M137.59 109.23l-.337.173v.59h.303l.034-.764h0zm0 0M138.265 109.02l-.27.14v.66h.337l-.067-.8h0zm0 0M139.006 108.952l-.27.173v.52h.372l-.102-.693h0zm0 0M139.816 108.673l-.304.14.034.52.304-.07-.034-.59h0zm0 0M140.693 108.465l-.337.174v.555l.405-.034-.068-.695h0zm0 0" fill="#D38D5F" stroke="#000" stroke-width=".38"/><path d="M133.171 107.632l-.034.764.54-.139-.067-.73-.439.105h0zm0 0M133.88 107.424v.624h.236v-.66l-.236.036h0zm0 0M134.42 107.285v.694l.336-.104-.033-.625-.304.035h0zm0 0M135.128 107.146l.034.52h.303l.034-.625-.371.105h0zm0 0M135.802 107.007v.556h.472l-.067-.626-.405.07h0zm0 0M136.544 106.833v.521l.405-.104-.101-.556-.304.14h0zm0 0" fill="#5DB7D2" stroke="#000" stroke-width=".38"/><path d="M137.118 106.66v.52l.303-.07-.067-.45h-.236 0zm0 0M137.623 106.52v.417h.203v-.451l-.203.035h0zm0 0M138.062 106.486l.034.382.337-.07-.034-.451-.337.139h0zm0 0M138.736 106.208v.521h.203l.067-.52h-.27 0zm0 0M139.31 106.104v.452l.27.034-.068-.486h-.202 0zm0 0M139.85 105.965v.52l.27.036v-.452l-.27-.104h0zm0 0M140.39 105.791l-.102.59h.304l-.034-.45-.168-.14h0zm0 0M140.794 105.791v.487l.439-.209-.068-.521-.37.243h0zm0 0" fill="#CCC" stroke="#000" stroke-width=".38"/><path d="M141.368 109.542l1.315-.243" stroke="#000" stroke-width=".989"/><path d="M141.368 112.39l2.9-.8" fill="#FFFCFC" stroke="#000" stroke-width="1.103"/><path d="M127.268 115.584l-.37.382.033.139h.438l.136-.313-.237-.208h0zm0 0M126.83 115.063l.067.417.304-.035.168-.312-.033-.244-.304.07-.202.104h0zm0 0M127.572 114.89l.1.277h.574v-.208l-.236-.104-.438.034h0zm0 0M127.505 114.369l.033.312h.405l.202-.278-.236-.208-.404.174h0zm0 0M126.695 114.473l-.068.208.203.104.439-.104v-.174l-.574-.034h0zm0 0M126.695 113.952v.243l.438.035.135-.209-.168-.139-.405.07h0zm0 0M127.572 113.744l-.067.208.404.104.202-.174-.303-.208-.236.07h0zm0 0M126.729 113.188l-.068.312.27.035.236-.173.034-.243-.27-.035-.202.104h0zm0 0M127.47 113.05v.311l.44.104v-.451l-.203-.07-.236.105h0zm0 0M127.066 112.528h-.405l-.034.486.472-.208-.033-.278h0zm0 0M127.403 112.39l-.169.346h.473l.202-.45-.27-.07-.236.173h0zm0 0M127.302 111.799l.034.278.439-.07-.17-.347-.303.139h0zm0 0M126.863 111.903l-.303-.07.034.383.439-.07-.17-.243h0zm0 0M126.56 111.278l-.034.347h.54l-.101-.347h-.405 0zm0 0M127.2 111.104v.417h.507l-.102-.417h-.404 0zm0 0M126.93 110.792l-.336.416-.135-.347.236-.417.236.348h0zm0 0M127.234 110.48l-.067.347h.438v-.348l-.168-.104-.203.104h0zm0 0M126.695 110.063h-.236l-.034.278h.405l-.135-.278h0zm0 0" fill="#DDD690" stroke="#000" stroke-width=".38"/><path d="M127.167 109.958l-.067.313h.337v-.313h-.27 0zm0 0M127.066 109.333l-.068.312h.472l.035-.277-.44-.035h0zm0 0M126.526 109.472l-.067.452.404-.173v-.244l-.337-.035h0zm0 0M126.493 108.847l-.135.278.202.104.169-.243-.068-.208-.168.07h0zm0 0M127.05 108.613l-.107.23.175.31.243-.06.01-.35-.273-.14-.049.01h0zm0 0M126.476 108.262l-.088.25.175.16s.146-.059.146-.11c0-.05.049-.21.049-.21l-.195-.12-.087.03h0zm0 0M126.943 108.132l-.059.28.137.09.243.02s.01-.19.01-.26-.176-.15-.176-.15l-.155.02h0zm0 0M126.427 107.751l-.02.28.205.05s.107-.109.107-.15c0-.039-.098-.22-.098-.22l-.194.04h0zm0 0M126.884 107.671l-.039.23s.078.11.176.11c.097 0 .136-.1.136-.14 0-.04-.04-.21-.04-.21l-.233.01h0zm0 0M126.407 107.36l-.067.231.194.09.146-.2-.156-.11-.117-.01h0zm0 0M126.865 107.22l-.03.21s.137.1.186.07c.048-.03.106-.16.106-.16l-.175-.12h-.087 0zm0 0M126.271 106.77l-.048.26s.145.14.184.12c.04-.02.244-.08.244-.08l-.107-.26s-.127-.03-.165-.03c-.04 0-.117 0-.108-.01h0zm0 0M126.777 106.64l-.058.25.33.06s.05-.28-.018-.28c-.07 0-.234-.02-.254-.03h0zm0 0M126.3 106.299l-.058.15.165.13.137-.08-.088-.19-.155-.01h0zm0 0M126.797 106.199l-.127.2.205.09.174-.14-.252-.15h0zm0 0M126.31 105.758l-.087.15.097.16.156-.13-.166-.18h0zm0 0M126.66 105.658l-.077.11.116.16.195-.11.02-.09-.088-.11-.166.04h0zm0 0M126.262 105.347l-.088.21.194.11.108-.14-.069-.16-.145-.02h0zm0 0M126.631 105.147l-.107.14.146.15.185-.11-.126-.16-.098-.02h0zm0 0M126.262 104.997h-.078v.17l.223-.02-.039-.17-.106.02h0zm0 0M126.563 104.796l-.01.19.205-.03-.01-.17-.185.01h0zm0 0M126.213 104.646l-.068.1.117.16.117-.11s.038-.15 0-.15h-.166 0zm0 0M126.232 104.316l-.087.08.107.11.136-.07-.156-.12h0zm0 0M126.262 104.065l-.108.16h.186l-.078-.16h0zm0 0M126.505 104.155l.02.16h.155l-.175-.16h0zm0 0M126.514 104.416s-.038.21 0 .21c.04 0 .146-.03.146-.03l-.146-.18h0zm0 0" fill="#E2D67E" stroke="#000" stroke-width=".38"/><path d="M131.69 109.254l-.213.3.02.311.282.27.262-.38-.35-.501h0zm0 0" fill="#D3C55F" stroke="#000" stroke-width=".38"/><path d="M132.07 108.823l-.262.391.253.41.262-.17s.04-.34-.01-.4a3.452 3.452 0 00-.243-.231h0zm0 0" fill="#D3C75F" stroke="#000" stroke-width=".38"/><path d="M131.584 108.272s-.117.18-.117.22c0 .04.068.33.068.33l.166.222s.184-.06.204-.121c.02-.06.087-.29.087-.29l-.223-.301-.185-.06h0zm0 0" fill="#E2D67E" stroke="#000" stroke-width=".38"/><path d="M131.175 108.703l-.048.1s-.03.24.029.28c.058.04.233.231.233.231s.155-.1.155-.15c0-.05-.116-.361-.116-.361l-.136-.14-.117.04h0zm0 0" fill="#D3C95F" stroke="#000" stroke-width=".38"/><path d="M130.776 108.012l-.077.19.097.26.185.19s.204-.039.204-.08v-.28l-.127-.22-.214-.1-.068.04h0zm0 0M131.214 107.832l-.048.15s.019.21.058.23l.194.1.136-.23-.136-.29-.204.04h0zm0 0M131 107.351l-.097.22.058.16.137.07s.155-.08.155-.12v-.21l-.175-.11-.078-.01h0zm0 0M130.552 107.51l-.126.171.049.21.214.07.146-.18-.117-.24-.166-.03h0zm0 0M130.387 107.06l-.107.1v.13l.165.131.156-.08-.039-.18-.078-.121-.097.02h0zm0 0M130.815 106.93l-.068.16.097.21.156-.09-.03-.18-.155-.1h0zm0 0M130.523 106.5l-.038.36.243-.04.058-.19-.087-.14-.176.01h0zm0 0M130.27 106.58a1.89 1.89 0 01-.175.02l.04.36.155-.02.058-.13-.02-.16-.058-.07h0zm0 0M129.978 106.219l-.116.15.116.2.108-.02.067-.15-.175-.18h0zm0 0M130.357 106.118l-.097.11.078.12.098.01.097-.12-.088-.11-.088-.01h0zm0 0M129.735 105.858l-.068.19.185.05.048-.12-.058-.11-.107-.01h0zm0 0M130.056 105.758l-.019.22.204-.02-.02-.18-.165-.02h0zm0 0M129.502 105.508l.01.19h.204s.068-.22-.02-.21c-.087.01-.175.03-.194.02h0zm0 0M129.89 105.417v.19l.215-.03-.049-.17-.165.01h0zm0 0M129.609 105.217h-.214l.029.19.194-.02-.01-.17h0zm0 0M129.745 105.087l-.03.18.225-.01v-.17h-.195 0zm0 0M129.531 104.796l-.01.21s.243.04.243 0-.048-.18-.048-.18l-.185-.03h0zm0 0M129.395 104.816h-.195l.02.23h.233l.03-.16-.088-.07h0zm0 0M128.937 104.135l-.097.1.302.491h.184l-.174-.25s.029-.12-.02-.14c-.048-.02-.087-.02-.087-.02l-.108-.18h0zm0 0" fill="#E2D67E" stroke="#000" stroke-width=".38"/><path d="M128.976 103.945l-.068.09.36.25v.21l.166.16.136.04-.049-.17-.068-.19-.136-.11-.097-.18s-.049-.01-.088-.02c-.038-.01-.077-.07-.077-.07l-.079-.01h0zm0 0" fill="#E2D67E" stroke="#000" stroke-width=".38"/><path d="M129.652 138.96c-.162-3.038 2.506-6.076-4.677-9.114" stroke="#4DCF4A" stroke-width=".761"/><path d="M136.501 137.24c0-4.012-2.227-5.732-6.682-5.159" stroke="#38BB26" stroke-width=".951"/><path d="M138.84 138.96c-2.355-2.918-5.499-2.58-9.188 0M144.686 135.177c-.894-1.716-4.158-.586-7.684.86" stroke="#51C757" stroke-width=".761"/><path d="M156.546 129.674c-.89-2.637-2.45-4.128-4.677-4.471" stroke="#7ACB73" stroke-width=".685"/><path d="M159.553 125.546c-.59-1.362-1.21-2.668-2.672-2.235" stroke="#4CB135" stroke-width=".951"/><path d="M123.638 136.38c.778-2.75-.066-3.83-1.503-4.299" stroke="#60C85A" stroke-width="1.065"/><path d="M110.943 126.234c1.487-.664 2.674-1.945 4.844-1.203M109.105 124.515c1.214.026 2.062.514 2.339 1.72" stroke="#71CE5B" stroke-width=".989"/><g><path d="M94 .087A91.542 91.542 0 0090 0C40.294 0 0 40.294 0 90c0 1.004.016 2.004.05 3H94V.087zm0 0" fill="#346DA6"/><path d="M22.035 31A89.876 89.876 0 004.441 62H94V31H22.035zm0 0" fill="#FFF"/><path d="M13.67 42.295a89.64 89.64 0 00-8.231 16.822L73.205 93H94V82.602L13.67 42.295zm0 0" fill="#FFF"/><path d="M94 .087A91.542 91.542 0 0090 0c-7.744 0-15.26.978-22.43 2.817L33.788 19.71A90.322 90.322 0 008.16 52.5L94 10.398V.087zm0 0" fill="#FFF"/><path d="M16 38.76C5.912 53.304 0 70.962 0 90c0 1.004.016 2.004.05 3H16V38.76zm0 0" fill="#FFF"/><path d="M17.253 37a89.846 89.846 0 00-10.61 19H94V37H17.253zm0 0" fill="#CA4638"/><path d="M11 46.849C3.987 59.66 0 74.365 0 90c0 1.004.016 2.004.05 3H11V46.849zm0 0M93.839.08a91.559 91.559 0 00-15.134.622L25.455 27.28a90.543 90.543 0 00-3.42 3.72h9.853L93.838.08zm0 0M94 93L32 62h13.864L94 86.068V93zm0 0" fill="#CA4638"/></g></g></svg>