<svg height="180" width="180" xmlns="http://www.w3.org/2000/svg"><g transform="translate(-16)" fill="none" fill-rule="evenodd"><circle cx="106" cy="90" fill="#57BB63" r="90"/><path d="M106 30L21 90l85 60 85-60-85-60z" fill="#E5B731"/><path d="M106 125c19.33 0 35-15.67 35-35s-15.67-35-35-35-35 15.67-35 35 15.67 35 35 35z" fill="#346DA6"/><path d="M132.321 104.362l-.108-.63.714-.696-.986-.143-.441-.893-.44.893-.987.143.714.696-.169.982.882-.464.696.366-.137.277-.986.143.714.696-.169.982.882-.464.882.464-.169-.982.714-.696-.986-.143-.441-.893-.179.362zM117.5 79.25l-.882.464.169-.982-.714-.696.986-.143.441-.893.44.893.987.143-.714.696.169.982-.882-.464zm-2 10l-.882.464.169-.982-.714-.696.986-.143.441-.893.44.893.987.143-.714.696.169.982-.882-.464zm-9 7l-.882.464.169-.982-.714-.696.986-.143.441-.893.44.893.987.143-.714.696.169.982-.882-.464zm3 3l-.882.464.169-.982-.714-.696.986-.143.441-.893.44.893.987.143-.714.696.169.982-.882-.464zm-4 8l-.882.464.169-.982-.714-.696.986-.143.441-.893.44.893.987.143-.714.696.169.982-.882-.464zm29.5-4.75l-.588.309.112-.654-.475-.464.657-.096L135 101l.294.595.657.096-.475.464.112.654-.588-.309zm-8 8l-.588.309.112-.654-.475-.464.657-.096L127 109l.294.595.657.096-.475.464.112.654-.588-.309zm-3.5-.25l-.882.464.169-.982-.714-.696.986-.143.441-.893.44.893.987.143-.714.696.169.982-.882-.464zm7-1l.882.464-.169-.982.714-.696-.986-.143-.441-.893-.44.893-.987.143.714.696-.169.982.882-.464zm-7 9l.882.464-.169-.982.714-.696-.986-.143-.441-.893-.44.893-.987.143.714.696-.169.982.882-.464zm0-4l.882.464-.169-.982.714-.696-.986-.143-.441-.893-.44.893-.987.143.714.696-.169.982.882-.464zm-47-30l-.882.464.169-.982-.714-.696.986-.143L76.5 82l.44.893.987.143-.714.696.169.982-.882-.464zM86 93.5l-.588.309.112-.654-.475-.464.657-.096L86 92l.294.595.657.096-.475.464.112.654L86 93.5zm-5.5 5.75l-.882.464.169-.982-.714-.696.986-.143L80.5 97l.44.893.987.143-.714.696.169.982-.882-.464zm6 7l-.882.464.169-.982-.714-.696.986-.143.441-.893.44.893.987.143-.714.696.169.982-.882-.464zm-11-4l-.882.464.169-.982-.714-.696.986-.143.441-.893.44.893.987.143-.714.696.169.982-.882-.464zm18-13l-.882.464.169-.982-.714-.696.986-.143L93.5 87l.44.893.987.143-.714.696.169.982-.882-.464zM91 108.5l-.588.309.112-.654-.475-.464.657-.096L91 107l.294.595.657.096-.475.464.112.654L91 108.5zm10-10l-.588.309.112-.654-.475-.464.657-.096L101 97l.294.595.657.096-.475.464.112.654L101 98.5zm4 3l-.588.309.112-.654-.475-.464.657-.096L105 100l.294.595.657.096-.475.464.112.654-.588-.309zm8 8l-.588.309.112-.654-.475-.464.657-.096L113 108l.294.595.657.096-.475.464.112.654-.588-.309zm5 2l-.588.309.112-.654-.475-.464.657-.096L118 110l.294.595.657.096-.475.464.112.654-.588-.309zm-3 4l-.588.309.112-.654-.475-.464.657-.096L115 114l.294.595.657.096-.475.464.112.654-.588-.309z" fill="#FFF"/><path d="M140.545 95.657C125.648 82.785 106.233 75 85 75c-3.712 0-7.368.238-10.955.7a34.74 34.74 0 00-1.884 5.325A80.576 80.576 0 0185 80c20.904 0 39.936 8.018 54.188 21.146a34.762 34.762 0 001.357-5.489z" fill="#FFF"/><path d="M75.724 80.092c.548-.067.883-1.01.749-2.107-.135-1.096-.688-1.93-1.237-1.863-.548.067-.883 1.01-.748 2.107.134 1.096.688 1.93 1.236 1.863m-.09-.737c.321-.04.514-.63.429-1.32-.085-.689-.414-1.215-.736-1.176-.322.04-.514.63-.43 1.32.085.689.414 1.215.736 1.176M79.833 78.074l-.646.045.104 1.482-.412.029-.247-3.993 1.266-.088c.385-.027.736.512.785 1.205.039.554-.128 1.038-.394 1.224.227.42.367 1.14.445 1.542l-.396.077c-.077-.4-.216-1.115-.505-1.523zm-.698-.696l.855-.06c.158-.011.27-.25.25-.533-.02-.283-.164-.504-.321-.493l-.855.06.071 1.026zM83.09 79.205l1.57-.027a1.429 1.429 0 001.404-1.454l-.008-.476a1.429 1.429 0 00-1.453-1.403l-1.572.027.058 3.333zm.608-.63l.904-.015c.5-.01.898-.421.89-.92l-.006-.286a.905.905 0 00-.92-.89l-.905.016.037 2.095zM87.322 79.164l2.998.104.022-.618-2.427-.085.03-.857 1.903.067.02-.571-1.904-.067.024-.666 2.284.08.022-.619-2.856-.1-.116 3.332zM91.55 79.344l.57.05.2-2.278.464 2.335.522.046.863-2.219-.199 2.277.57.05.29-3.32-.83-.073-.864 2.219-.465-2.335-.83-.073-.29 3.32zM98.457 80.123l2.464.423.097-.563-1.9-.327.128-.75 1.549.265.097-.563-1.55-.266.09-.516 1.842.316.096-.563-2.405-.413-.508 2.957zM104.787 81.366l.6.155.31-1.199 1.29.334a1.048 1.048 0 00.525-2.028l-1.844-.477-.881 3.215zm1.064-1.643l1.245.322a.429.429 0 00.215-.83l-1.245-.322-.215.83z" fill="#009B3A"/><g fill="#009B3A"><path d="M108.876 82.457l.59.186.373-1.18 1.272.4a1.048 1.048 0 00.63-1.998l-1.817-.573-1.048 3.165zm1.15-1.585l1.226.386a.429.429 0 00.257-.817l-1.226-.387-.258.818z"/><path d="M111.579 83.309c.143-.454.458-1.453-.223-1.668l-.863-.272c.999.315.684 1.314.54 1.768"/></g><path d="M114.308 84.286c.776.29 1.667-.174 1.99-1.036.321-.862-.046-1.796-.822-2.087-.776-.29-1.667.174-1.989 1.036-.322.862.045 1.797.821 2.087m.217-.58c.456.17.99-.131 1.192-.673.203-.542-.002-1.12-.458-1.29-.456-.17-.99.131-1.192.673-.203.542.002 1.12.458 1.29" fill="#009B3A"/><path d="M116.857 85.273l1.329-3.057 2.751 1.196-1.33 3.057-2.75-1.196zm2.268-1.454l-.228.524 1.375.598.228-.524-1.375-.598z"/><path d="M118.232 85.871c.76.33 1.673-.086 2.04-.93.367-.844.05-1.797-.71-2.127-.76-.33-1.674.086-2.04.93-.368.845-.05 1.797.71 2.127m.247-.568c.446.194.995-.079 1.226-.61.23-.53.056-1.117-.39-1.311-.447-.194-.995.079-1.226.61-.23.53-.056 1.117.39 1.311" fill="#009B3A"/><path fill="#009B3A" d="M118.164 82.206l1.157.504-.19.436-1.157-.503z"/><path fill="#009B3A" d="M118.164 82.206l.436.19-.664 1.529-.437-.19z"/><g fill="#009B3A"><path d="M120.725 86.99l.554.276.553-1.108 1.193.595a1.048 1.048 0 00.935-1.875l-1.705-.85-1.53 2.962zm1.383-1.386l1.15.574a.429.429 0 00.383-.767l-1.15-.574-.383.767z"/><path d="M123.26 88.254c.213-.426.68-1.363.042-1.682l-.81-.404c.937.468.47 1.405.258 1.831"/></g><path d="M124.499 88.908l2.61 1.477.306-.539-2.114-1.196.422-.746 1.658.938.281-.497-1.658-.938.329-.58 1.989 1.125.305-.539-2.487-1.407-1.641 2.902z" fill="#009B3A"/><g fill="#009B3A"><path d="M129.362 90.54c-.179.28.002.594.404.85.402.255.675.246.79.066.365-.573-1.742-1.407-1.093-2.405.56-.857 1.519-.19 1.88.04.362.23.942.826.49 1.513l-.612-.39c.192-.302-.019-.591-.34-.796-.311-.198-.564-.289-.75.002-.31.466 1.756 1.344 1.122 2.338-.467.733-1.28.413-1.821.068-.462-.294-1.152-.988-.702-1.69 0 0-.45.702 0 0l.632.403z"/></g><g fill="#009B3A"><path d="M132.938 92.904c-.194.271-.029.594.359.87.388.277.661.282.786.108.394-.553-1.667-1.497-.966-2.459.604-.827 1.526-.11 1.875.139.349.248.897.874.41 1.535l-.59-.421c.207-.291.012-.591-.298-.812-.3-.215-.549-.318-.75-.037-.334.448 1.683 1.434.999 2.393-.505.708-1.3.346-1.823-.028-.446-.318-1.099-1.047-.613-1.724 0 0-.486.677 0 0l.61.436z"/></g><g fill="#009B3A"><path d="M136.32 96.74c.648.515 1.638.349 2.211-.371s.512-1.723-.136-2.239c-.648-.515-1.638-.35-2.211.371-.573.72-.512 1.722.136 2.238m.385-.484c.381.303.982.181 1.342-.272.36-.453.343-1.065-.037-1.368-.381-.303-.982-.181-1.342.271-.36.453-.343 1.066.037 1.369"/></g></g></svg>