<svg height="182" width="182" xmlns="http://www.w3.org/2000/svg"><g fill="none" fill-rule="evenodd"><path d="M20.705 147.207C37.198 167.807 62.558 181 91 181c39.187 0 72.524-25.044 84.879-60H58.143l-37.438 26.207zm0-112.414C37.198 14.193 62.558 1 91 1c39.187 0 72.524 25.044 84.879 60H58.143L20.705 34.793zm0 0" fill="#4BB7C0"/><path d="M58.141 60.998h117.737a89.805 89.805 0 015.116 28.994v2.016a89.806 89.806 0 01-5.114 28.988H58.141l42.856-29.999L58.14 60.998zm0 0" fill="#E5B731"/><path d="M20.705 34.793C8.375 50.195 1 69.736 1 91c0 21.264 7.374 40.805 19.705 56.207L101 91 20.705 34.793zm0 0" fill="#262626"/></g></svg>