<svg height="182" width="182" xmlns="http://www.w3.org/2000/svg"><g fill="none" fill-rule="evenodd"><path d="M-27.768 252.195c15.98 33.454 10.117 74.736-17.592 102.445-27.71 27.709-68.991 33.573-102.445 17.592l120.037-120.037zm-17.539-24.781a90.497 90.497 0 00-.107-.107l.107.107zm-128.04 126.511a91.86 91.86 0 001.422 1.421l-1.421-1.42zm0 0" fill="#CA4638"/><path d="M-190.252 329.784c-15.981-33.453-10.117-74.735 17.592-102.444 27.709-27.71 68.99-33.573 102.444-17.592l-120.036 120.036zm17.538 24.781a95.022 95.022 0 00.107.107l-.107-.107zm128.04-126.511a91.858 91.858 0 00-1.421-1.421l1.42 1.421zm0 0" fill="#479951"/><g><path d="M151 158.083C135.077 172.334 114.05 181 91 181c-23.05 0-44.077-8.666-60-22.917V23.917C46.923 9.666 67.95 1 91 1c23.05 0 44.077 8.666 60 22.917v134.166zm0 0" fill="#FFF"/><path d="M151 158.083c18.412-16.48 30-40.428 30-67.083s-11.588-50.604-30-67.083v134.166zM31 23.917C12.588 40.397 1 64.345 1 91s11.588 50.604 30 67.083V23.917zm0 0M90.999 51.063l-6.46 12.046c-.732 1.31-2.045 1.188-3.358.456l-4.676-2.42 3.485 18.502c.733 3.38-1.619 3.38-2.78 1.919l-8.16-9.136-1.324 4.64c-.153.609-.825 1.249-1.833 1.096l-10.319-2.17 2.71 9.855c.58 2.192 1.033 3.1-.585 3.678l-3.678 1.729 17.763 14.429c.703.545 1.059 1.527.808 2.416l-1.554 5.102c6.116-.705 11.596-1.766 17.715-2.419.54-.058 1.445.834 1.441 1.46l-.81 18.692h2.974l-.468-18.652c-.004-.626.816-1.558 1.357-1.5 6.119.653 11.6 1.714 17.715 2.419l-1.554-5.102c-.25-.889.105-1.87.808-2.416l17.763-14.43-3.678-1.728c-1.618-.578-1.166-1.486-.586-3.678l2.71-9.854-10.318 2.17c-1.008.152-1.68-.488-1.833-1.097l-1.324-4.64-8.16 9.136c-1.161 1.462-3.513 1.462-2.78-1.919l3.485-18.503-4.676 2.421c-1.313.732-2.626.853-3.359-.456" fill="#CA4638"/></g></g></svg>