<svg height="182" width="182" xmlns="http://www.w3.org/2000/svg"><g fill="none" fill-rule="evenodd"><path d="M181 91H1c0 49.706 40.294 90 90 90s90-40.294 90-90zm0 0" fill="#CA4638"/><path d="M181 91H91V1c49.706 0 90 40.294 90 90zm0 0" fill="#FFF"/><path d="M91 1C41.294 1 1 41.294 1 91h90V1zm0 0" fill="#346DA6"/><path fill="#FFF" d="M55.5 70.5l-17.927 9.58 3.423-20.29-14.503-14.37 20.043-2.96L55.5 24l8.964 18.46 20.043 2.96-14.503 14.37 3.423 20.29z"/><g><path d="M172.232-147.805c15.98 33.454 10.117 74.736-17.592 102.445-27.71 27.709-68.991 33.573-102.445 17.592l120.037-120.037zm-17.539-24.781a90.497 90.497 0 00-.107-.107l.107.107zM26.653-46.075a91.86 91.86 0 001.422 1.421l-1.421-1.42zm0 0" fill="#CA4638"/><path d="M9.748-70.216C-6.233-103.669-.37-144.95 27.34-172.66c27.709-27.71 68.99-33.573 102.444-17.592L9.748-70.216zm17.538 24.781a95.022 95.022 0 00.107.107l-.107-.107zm128.04-126.511a91.858 91.858 0 00-1.421-1.421l1.42 1.421zm0 0" fill="#479951"/></g></g></svg>