<svg height="180" width="180" xmlns="http://www.w3.org/2000/svg"><g fill="none" fill-rule="evenodd"><circle cx="90" cy="90" fill="#FFF" r="90"/><path d="M157.083 150c-16.48 18.412-40.428 30-67.083 30s-50.604-11.588-67.083-30h134.166zm0-120C140.603 11.588 116.655 0 90 0S39.396 11.588 22.917 30h134.166z" fill="#346DA6"/><path d="M5.121 120H174.88c3.316-9.383 5.121-19.48 5.121-30s-1.805-20.617-5.121-30H5.12C1.805 69.383 0 79.48 0 90s1.805 20.617 5.121 30z" fill="#CA4638"/><g transform="translate(30 61)"><ellipse cx="25.875" cy="29.025" fill="#FFF" rx="25.875" ry="29.025"/><g stroke="#000" stroke-width=".1"><path d="M9.878 24.02l.683-.736-1.615-.264-.497.655 1.429.346h0z" fill="#CEA849"/><path d="M24.988 11.021l-2.055.062c-1.313.13-1.812.658-.997 1.657-2.116.346-4.186.851-6.098 1.907-.538-.094-1.162.22-1.341.761-.15.437.215.9.862.716-.428 1.177-5.486 1.04-5.614 3 .383-.341.804-.63 1.225-.338l-.29.915c-.736.229-1.254.356-1.562 1.197-.318.844-.776 2.131-1.094 2.765a1.38 1.38 0 00-.26.758c0 .365.25.874.827.874.587 0 .876-.384.876-.77-.034-.269-.135-.584-.756-.548 1.042-.26 1.943.105 2.548.508.836.644 1.045 1.893.557 2.92-.478.998-1.692 1.58-3.504.844-1.473-.605-2.955.186-3.443 1.56-2.22 6.268 1.661 11.353 6.061 14.318 4.579 3.087 5.395 3.928 6.619 5.437 1.234 1.507 2.429 3.232 4.22 3.232.279 0 .548-.083.787-.219 1.128 0 1.2.44 2.714.467v.002l.077-.002.075.002v-.002c1.515-.027 1.588-.467 2.716-.467.24.136.506.22.785.22 1.792 0 2.986-1.726 4.22-3.233 1.225-1.509 2.042-2.35 6.62-5.437 4.4-2.966 8.282-8.05 6.062-14.319-.488-1.373-1.971-2.164-3.445-1.56-1.811.738-3.024.155-3.502-.843-.488-1.027-.279-2.276.557-2.92.605-.403 1.504-.768 2.546-.508-.62-.036-.72.28-.754.548 0 .386.289.77.876.77.577 0 .825-.51.825-.874 0-.154-.048-.465-.258-.758-.318-.634-.777-1.921-1.096-2.765-.308-.841-.825-.968-1.562-1.197l-.288-.915c.42-.292.842-.003 1.225.338-.128-1.96-5.187-1.823-5.615-3 .647.185 1.013-.28.863-.716-.179-.54-.803-.855-1.34-.761-1.912-1.056-3.983-1.56-6.1-1.907.816-1 .317-1.528-.996-1.657l-2.055-.062-.36-.012-.357.012h0z" fill="#DCA842"/><path d="M36.126 16.014c-.372-.73-.251-1.238.235-.888"/><g fill="#825123"><path d="M12.218 21.02c.116.006.234.036.343.083.193.084.362.227.422.426l.001.003c1.702 4.86.792 6.932-.72 10.077-2.183 4.529-.592 11.275 4.286 14.225 2.397 1.443 4.246 1.936 5.663 2.3.708.183 1.309.334 1.817.558.49.216.997.604 1.317 1.052-.49.042-1.29.18-1.682.3-.571-.748-2.006-1.434-3.492-1.954a31.842 31.842 0 00-3.875-1.062h-.002c-2.734-.816-5.283-2.648-7.203-4.976-2.034-2.464-3.073-5.837-2.671-9.22.09-.774.389-1.247.815-1.504.426-.257.964-.301 1.536-.262 1.038.061 2.055-.23 2.985-.82 1.2-.76 1.69-2.104 1.671-3.563-.019-1.459-.554-3.026-1.402-4.194-.304-.42-.425-.735-.419-.98a.479.479 0 01.349-.46.712.712 0 01.261-.03h0z"/></g><g fill="#825123"><path d="M39.532 21.02a1.02 1.02 0 00-.343.083c-.193.084-.362.227-.422.426l-.001.003c-1.702 4.86-.792 6.932.72 10.077 2.183 4.529.592 11.275-4.286 14.225-2.397 1.443-4.246 1.936-5.663 2.3-.708.183-1.309.334-1.817.558-.49.216-.997.604-1.317 1.052.49.042 1.29.18 1.682.3.571-.748 2.006-1.434 3.492-1.954 1.485-.52 3.034-.89 3.875-1.062h.002c2.734-.816 5.283-2.648 7.203-4.976 2.034-2.464 3.073-5.837 2.671-9.22-.09-.774-.389-1.247-.815-1.504-.426-.257-.964-.301-1.536-.262-1.038.061-2.055-.23-2.985-.82-1.2-.76-1.69-2.104-1.671-3.563.019-1.459.554-3.026 1.402-4.194.304-.42.425-.735.419-.98a.479.479 0 00-.349-.46.712.712 0 00-.261-.03h0z"/></g></g><path d="M13.75 30.026c.582-2.076.873-4.744.05-8.215 3.626-2.506 6.178-4.796 12.085-4.796 5.897 0 8.68 1.74 12.085 4.796-.813 3.471-.522 6.128.05 8.215H13.73" fill="#89C5E3" stroke="#000" stroke-width=".1"/><path d="M16.455 26.022l-.2 2.003h-.006l-.772-1.985.371 2.096-.008.003-.862-1.047.518 1.245-.634-.406.385.664-.01.014-.451-.051.28.361a1.276 1.276 0 00-.088.465l.002.022h2.98l.002-.022c0-.163-.03-.321-.088-.467l.587-.518-.739.237-.018-.025c.114-.128 1.225-1.387 1.18-1.387-.048 0-1.405 1.072-1.453 1.11l-.007-.006 1.066-2.173-1.475 1.95L17 28.1l.435-2.06-.778 1.98-.201-1.997z" fill="#FCDD09"/><path d="M13.976 29.025c-.315 1.149-.708 2.127-1.053 2.962-.895 2.201-1.082 7.32 2.224 10.939 4.91 5.355 8.649 3.198 10.528 6.116h.384c1.879-2.918 5.618-.76 10.528-6.116 3.306-3.619 3.129-8.738 2.223-10.939-.334-.827-.738-1.813-1.053-2.962h-23.79" fill="#0F47AF"/><path d="M20.885 24.97c-.051-.314-.63-.253-.588-.759-.385-.078-.313-.95.405-.89.076-.173.944-.57.84-.022.435-.481.75-.04.507.174.168.213.253.701-.263.658.198.445-.26.429-.565.304.008.169-.015.302-.188.26-.11.095-.026.215-.011.327l-.137-.051zM30.37 24.972c.005-.41-.618-.285-.595-.75-.338-.064-.29-.93.41-.879-.039-.25.942-.571.85-.021.341-.448.678-.03.471.171.17.21.377.573-.223.65.242.29-.264.423-.572.3.008.166-.082.224-.257.183-.11.092.04.286.055.396l-.139-.05zM35.706 26.022c.075-.195-.67-.178-.65-.4-.339-.031-.29-.446.41-.42-.04-.12.87-.321.81-.03.341-.214.718.005.511.1.17.102.377.275-.223.312.241.138-.264.202-.572.143.007.08-.035.093-.21.073-.111.045.133.151.149.204l-.225.018z" fill="#FFF"/><path d="M33.037 31.346c.148-.86.777-1.653.846-2.325.059-.607.167-.86.482-1.498.314-.641.442-.937.51-1.38.099-.573.482-.695.66-.11.166.584.5 2.051.677 2.393.167.341.345.815.315 1.047-.03.231.226.319.374.485.147.155.167.694.6 1.157.432.463.913.793 1.316 1.024.364.918.61 2.306.55 3.892H12.366c-.01-.418 0-.827.02-1.222 2.398-.694 3.293-2.47 4.305-2.348.55-.86 1.22-1.786 1.681-2.26.55-.562 1.632-2.8 1.907-4.168.275-1.355.678-2.083.983-2.007.305.08.433.144.796 1.369.502 1.685.846 1.885 1.229 3.096.334 1.05 1.032 2.932 2.104 3.914.668-.562 1.435-1.191 1.68-1.631.207-.387.522-.982.895-1.268.167-.561.383-1.566.56-1.808.168-.22.236-.44.256-.827.01-.387.275-1.202.639-1.885.364-.672.845-.892 1.062 0 .206.894.688 2.768 1.14 3.936.187.486.53 1.442 1.288 2.447l.081.108c.016-.03.031-.052.046-.13 0 0-.015.078 0 0z" fill="#509164"/><path d="M12.402 35.545c.325-.185.826-.114 1.012.078.099-.216.256-.377.55-.318.237-.298.434-.448.571-.298.138-.296.6-.366.758-.182.167-.298.501-.435.727-.275.295-.447.816-.605 1.131-.377.275-.24.59-.193.728-.035.137.15.433-.158.55.126.207-.056.6-.067.679.184.05-.137.226-.22.325-.114 0-.526.324-.927.776-.801.217-.377.59-.535.767-.4.187-.217.57-.068.738.195.364-.011.54.181.728.559.186.377.727.605 1.072.435.344-.149.658-.196.776-.011.207-.217.433-.161.57-.012.237.24.463-.184.6-.023.217.263.414-.24.797.023.374.263 1.111.66 1.682.66.57 0 1.023-.81 1.386-.239.364-.284.915-.421 1.298-.181.227-.24.748-.319.954-.09.207-.366.6-.586.934-.46.187-.374.935-.433 1.16.094.188 0 .483.193.483.432.187 0 .482.138.482.39.206-.06.462.09.501.376.413-.035.748.161.934.559.138-.138.06-.491.374-.559.315-.058.413.056.501.182.345-.296.827-.26 1.23.16.295-.137.57-.078.659.091.127-.137.334-.17.54-.17.01.775-.049 1.62-.196 2.489h-26.63a14.393 14.393 0 01-.187-2.468" fill="#078930"/><g fill="#FFF"><path d="M25.338 19.016l-.238.764h-.81l.66.474-.246.764.643-.474.651.474-.246-.764.651-.456h-.8l-.247-.764M22.044 20.026l-.116.764-.806.12.734.347-.125.762.573-.551.725.349-.376-.688.582-.543-.806.12-.376-.689M18.754 21.031l.01 1.144-.81.364.819.34v1.142l.484-.942.81.34-.513-.919.494-.929-.81.367-.511-.92M15.37 22.019l.144.768-.728.366.818.102.134.766.351-.698.809.102-.593-.545.36-.691-.729.366-.593-.536M29.702 20.026l.117.764.809.12-.737.347.125.762-.575-.551-.728.349.378-.688-.576-.543.81.12.377-.689M32.996 21.031l-.01 1.144.81.364-.819.34v1.142l-.484-.942-.81.34.513-.919-.494-.929.8.367.512-.92M36.38 22.019l-.144.768.728.366-.818.102-.134.766-.351-.698-.809.102.593-.545-.36-.691.729.366.593-.536"/></g><g><path d="M28.515 41.963l.101-7.061c0-.338.06-.39.07-.008l.02 7.142M24.515 41.963l.101-7.061c0-.338.06-.39.07-.008l.02 7.142M26.515 41.963l.101-7.061c0-.338.06-.39.07-.008l.02 7.142" fill="#865800"/><path d="M24.46 34.953c.223-.406.737.51 1.057.125-.194 1.316-.97.28-1.056.77v-.895M26.403 34.953c.223-.406.736.51 1.056.12-.203 1.32-.969.286-1.056.775v-.895M28.515 35.14c.223-.415.737.52 1.056.106-.203 1.349-.968.292-1.056.786v-.908" fill="#FFF"/><path d="M29.584 42.965c-.225 0-.508-.108-.586-.291-.166.162-.859.252-1.132.01-.186.163-.762.273-1.055.08-.234.211-.927.193-1.288-.028-.147.16-.566.28-.79.301-.323-.474-1.192-1.228-1.738-1.509a72.327 72.327 0 00-2.5-1.208c-.38-.17-.732-.463-.01-.141.772.342 2.012.855 2.851 1.238 1.2.544 5.994.464 6.784.392.41-.029.957-.35 1.338-.593.293-.182.302-.072.02.08-.313.17-.655.302-.899.654-.332.474-.79.685-.966.997" fill="#704D25"/><path d="M29.584 42.965c-.225 0-.508-.108-.586-.291-.166.162-.859.252-1.132.01-.186.163-.762.273-1.055.08-.234.211-.927.193-1.288-.028-.147.16-.566.28-.79.301-.323-.474-1.192-1.228-1.738-1.509a72.327 72.327 0 00-2.5-1.208c-.38-.17-.732-.463-.01-.141.772.342 2.012.855 2.851 1.238 1.2.544 5.994.464 6.784.392.41-.029.957-.35 1.338-.593.293-.182.302-.072.02.08-.313.17-.655.302-.899.654-.332.474-.79.685-.966.997l-.03.018z" fill="#704D25"/><path d="M29.489 36.262l-1.7-.23c-.3.633-.342 1.424-.182 1.978.545-.647 1.529-.31 2.02.024-.16-.564-.406-1.328-.128-1.758M29.416 38.054c-.413.012-1.4-.021-1.708-.021-.334.583-.15 1.464-.07 1.8.37-.8 1.54-.372 1.99.201-.23-.585-.405-1.086-.203-1.99M30.616 40.259c-.522-.07-2.203-.156-2.544-.225-.272.43-.5.988-.613 1.523.818-.68 2.714-.18 3.112.48-.398-.568-.795-1.426.057-1.778M27.451 36.305l-1.704-.274c-.243.344-.422.952-.398 1.658.357-.412 1.664-.246 1.997.344-.114-.638-.26-1.442.113-1.738" fill="#FFF"/><path d="M28.422 38.31l-2.709-.277c-.43.42-.407 1.018-.302 1.654.616-.394 2.627-.179 3.104.347-.29-.768-.535-1.223-.081-1.724M28.515 40.26l-2.567-.226c-.4.434-.672.876-.585 1.523.4-.572 2.102-.158 2.827.48-.433-.499-.476-1.213.325-1.776M24.015 36.031c-.282.156-.715.697-.78.845.476-.14 1.484-.18 2.112.156-.184-.258-.25-.71-.087-.899-.249-.078-.91-.118-1.235-.094" fill="#FFF"/><path d="M23.962 37.51c.612-.01 1.865.133 2.406.274-.32.457-.28 1.234-.15 1.718-.832-.778-2.206-.758-3.018-.53.15-.352.521-1.083.752-1.472" fill="#FFF"/><path d="M26.403 39.695c-.592.023-2.105-.274-2.797-.661-.24.74-.351 1.968-.371 2.411.671-1.022 2.316-.454 2.837.591-.05-.556-.23-1.922.331-2.353M24.29 36.041c-1.55 1.004-2.728 3.029-3.168 4.432.44-.01.991.141 1.187.562.458-2.017 1.103-3.88 1.982-5.004" fill="#FFF"/></g><g stroke="#000" stroke-width=".1"><path d="M25.456 9.433c.892 1.103 2.18 1.26 4.44 1.26 1.418 0 2.563-.01 3.404 0 0 .283-.091.585-.091.938 0 .34.355.498.872.38.516-.118 1.621-.45 2.219.078 1.003.9 2.848 1.055 3.344 1.623-.152-.686-.8-1.378-1.52-1.956.68-.098 1.56-.028 1.865.205-.77-.837-2.17-.857-2.879-1.267-.709-.41-1.388-.773-1.915-.91 0-.233-.03-.42-.233-.556-.446-.312-1.318-.42-2.027-.46.101-.107.122-.235.122-.43V7.235c0-.383.04-.48-.396-.753-1.682-1.035-3.729-1.778-7.458-1.778-3.72 0-5.767.733-7.459 1.778-.446.273-.395.37-.395.753v1.103c0 .195.01.323.122.43-.71.03-1.571.138-2.027.46-.193.135-.233.313-.233.555-.517.128-1.196.49-1.915.91-.71.41-2.108.43-2.879 1.269.294-.233 1.176-.313 1.855-.206-.71.568-1.358 1.26-1.52 1.956.496-.568 2.34-.723 3.354-1.623.588-.528 1.693-.205 2.22-.077.516.117.871-.03.871-.38 0-.353-.091-.656-.091-.938.83-.02 1.976 0 3.405 0 2.25 0 3.537-.158 4.439-1.26-.497-.128-.406-1.009-.325-1.349-1.053-.235-1.58-.635-2.432-.635-.84 0-.993.448-.993.615v.138c-.669 0-1.611-.168-1.844-.608 1.297-.527 3.222-1.005 5.867-1.005s4.57.478 5.868 1.005c-.233.44-1.176.608-1.845.608v-.138c0-.157-.142-.615-.993-.615s-1.378.39-2.432.635c.03.33.122 1.22-.365 1.348z" fill="#89C5E3"/><path d="M25.347 16.107c.47 0 .87 0 1.16-.04v-.7c0-.229.78-.5 1.961-.26 4.621.939 5.252 3.117 8.763 4.368.04.011.17.054.32.083.09-.219.19-.438.3-.707.06-.2.57-.19 1.02.03.52.26.75.562.66.72-.09.23-.18.416-.26.603.82.304 2.311.763 1.821 2.816-.38-.385-1.3-.804-1.87-.804-.65 0-1.35-.258-1.13-1-.12-.062-.331-.176-.44-.198-.02.064-.05.126-.081.187-.15.387-.8.523-1.45.294-3.662-1.303-4.792-4.183-9.113-4.223v.126c0 .363-.45.696-1.66.696-1.201 0-1.661-.333-1.661-.696v-.126c-4.311.03-5.452 2.91-9.113 4.223-.64.23-1.29.082-1.45-.294-.02-.061-.05-.123-.08-.187-.11.022-.32.136-.44.198.21.731-.47 1-1.13 1-.57 0-1.481.42-1.871.804-.49-2.042.98-2.501 1.82-2.816-.08-.187-.16-.374-.26-.603-.08-.158.14-.46.66-.72.45-.23.95-.24 1.02-.03.11.259.2.478.3.707.15-.03.27-.072.32-.083 3.502-1.251 4.142-3.43 8.763-4.369 1.17-.24 1.961.032 1.961.262v.7c.29.029.69.04 1.16.04 0 0-.47 0 0 0h0z" fill="#FFF"/></g></g></g></svg>