<svg height="180" width="180" xmlns="http://www.w3.org/2000/svg"><g fill="none" fill-rule="evenodd"><path d="M15.155 140h149.69a89.68 89.68 0 0010.034-20H5.12a89.68 89.68 0 0010.034 20z" fill="#E5B731"/><path d="M164.845 140c-16.146 24.12-43.64 40-74.845 40-31.204 0-58.7-15.88-74.845-40h149.69zm10.034-20c3.316-9.383 5.121-19.48 5.121-30 0-49.706-40.294-90-90-90S0 40.294 0 90c0 10.52 1.805 20.617 5.121 30H174.88z" fill="#346DA6"/><path d="M38.05 65.315L30.08 69.5l1.522-8.864-6.448-6.278 8.911-1.293L38.051 45l3.985 8.065 8.911 1.293-6.448 6.278L46.02 69.5l-7.97-4.185zm22 28.12L48.502 99.5l2.206-12.844-9.343-9.096 12.912-1.874L60.051 64l5.774 11.686 12.913 1.874-9.344 9.096L71.6 99.5l-11.55-6.064z" fill="#FFF"/></g></svg>