<?xml version="1.0" encoding="UTF-8"?>
<svg width="80px" height="80px" viewBox="0 0 80 80" version="1.1" xmlns="http://www.w3.org/2000/svg" xmlns:xlink="http://www.w3.org/1999/xlink">
    <!-- Generator: Sketch 61 (89581) - https://sketch.com -->
    <title>专属大客户经理</title>
    <desc>Created with Sketch.</desc>
    <g id="专属大客户经理" stroke="none" stroke-width="1" fill="none" fill-rule="evenodd">
        <g id="私人客服-3" fill="#CEAE7D">
            <g id="私人客服">
                <path d="M40,1.42108547e-14 C62.09139,1.42108547e-14 80,17.90861 80,40 C80,62.09139 62.09139,80 40,80 C17.90861,80 4.26325641e-14,62.09139 4.26325641e-14,40 C4.26325641e-14,17.90861 17.90861,1.42108547e-14 40,1.42108547e-14 Z M40,15 C28.9680818,15 19.9229981,23.5066498 19.0679004,34.3178721 C16.7021152,35.1220676 15,37.3622586 15,40 L15,40 L15,46 C15,49.3137085 17.6862915,52 21,52 C24.3137085,52 27,49.3137085 27,46 L27,46 L27,40 C27,37.4168136 25.3675645,35.2149029 23.077051,34.3708675 C23.897044,25.7462786 31.1606831,19 40,19 C48.8393169,19 56.102956,25.7462786 56.9219705,34.3696039 C54.6324355,35.2149029 53,37.4168136 53,40 L53,40 L53,46 C53,48.0258363 54.0039989,49.8171761 55.5416871,50.9026557 C53.4596357,55.5844792 49.3256001,59.1390206 44.3011129,60.4488822 C43.4295499,58.9826138 41.8295258,58 40,58 C37.2385763,58 35,60.2385763 35,63 C35,65.7614237 37.2385763,68 40,68 C42.2567372,68 44.1642771,66.5049085 44.7855693,64.451422 C51.4240415,62.9025754 56.8735136,58.20155 59.4298802,51.9848372 C62.5429496,51.7644538 65,49.1691643 65,46 L65,46 L65,40 C65,37.3622586 63.2978848,35.1220676 60.9336477,34.3183462 C60.0770019,23.5066498 51.0319182,15 40,15 Z" id="形状结合"></path>
            </g>
        </g>
    </g>
</svg>