<svg xmlns="http://www.w3.org/2000/svg" viewBox="-214 306 182 182"><circle fill="#D8D8D8" cx="-123" cy="397" r="91"/><path fill="#FFF" d="M-123 334.6c-34.5 0-62.4 27.9-62.4 62.4s27.9 62.4 62.4 62.4 62.4-27.9 62.4-62.4-27.9-62.4-62.4-62.4zm40.9 33.9h-13c-2.2-6.4-5.1-12.3-8.8-17.5 8.9 3.7 16.4 9.8 21.8 17.5zm-8.5 23.7c-.2-4.8-.9-9.5-1.8-14.1h15.6c1.8 4.4 3 9.2 3.5 14.1h-17.3zm17.2 9.6c-.5 5-1.7 9.7-3.5 14.1h-15.5c1-4.6 1.6-9.4 1.8-14.1h17.2zm-44.8-33.3v-19.4c5.7 5 10 11.8 13 19.4h-13zm16 9.6c1.1 4.6 1.8 9.4 2 14.1h-18v-14.1h16zm-25.6-29.3v19.7h-13.3c3-7.7 7.4-14.6 13.3-19.7zm0 29.3v14.1h-18.3c.3-4.7.9-9.5 2-14.1h16.3zm0 23.7v14.1h-16.3c-1.1-4.6-1.7-9.4-2-14.1h18.3zm0 23.7v19.9c-5.9-5.1-10.4-12.1-13.4-19.9h13.4zm9.6 19.6v-19.6h13.1c-3 7.7-7.3 14.6-13.1 19.6zm0-29.2v-14.1h18c-.3 4.7-.9 9.5-2 14.1h-16zm-24.4-64.7c-3.6 5.2-6.5 11.1-8.7 17.4h-12.6c5.3-7.7 12.7-13.7 21.3-17.4zm-13.1 41h-16.9c.5-5 1.7-9.7 3.5-14.1h15.3c-1 4.6-1.7 9.4-1.9 14.1zm1.8 23.7h-15.2c-1.8-4.4-3-9.2-3.5-14.1h16.9c.2 4.7.8 9.5 1.8 14.1zm-10 9.6h12.6c2.1 6.2 4.9 12.1 8.5 17.2-8.6-3.7-15.8-9.7-21.1-17.2zm60.3 17.4c3.6-5.2 6.5-11.1 8.6-17.4h12.9a50.15 50.15 0 01-21.5 17.4z"/></svg>