<svg height="180" width="180" xmlns="http://www.w3.org/2000/svg"><g fill="none" fill-rule="evenodd"><circle cx="90" cy="90" fill="#FFF" r="90"/><path d="M120 5.121V60h54.879C165.84 34.428 145.572 14.16 120 5.121zM60 174.88V120H5.121C14.16 145.572 34.428 165.84 60 174.879z" fill="#CA4638"/><path d="M5.121 60H60V5.121C34.428 14.16 14.16 34.428 5.121 60zM120 174.879V120h54.879c-9.039 25.572-29.307 45.84-54.879 54.879z" fill="#346DA6"/><path d="M67.646 80.724c.007.504.145.635.367.954l.057-.987c-.184-.112-.255-.018-.424.033 0 0 .17-.05 0 0h0z" fill="#00873F" stroke="#000" stroke-width=".1"/><path d="M76.653 75.677c.035.234.017 19.907.017 21.943 0 1.946 0 3.135.965 4.504.369.54.456.523.614.72.492.631 1.737 1.226 2.632 1.424.877.18 4.106.108 5.229.108 1.438 0 2.105-.072 3.07.901.298.288.368.432.596.793.123-.09.123-.108.193-.235a2.84 2.84 0 011.44-1.26c.754-.307 2.017-.199 2.894-.199 1.123 0 3.527.09 4.527-.126.438-.108.807-.27 1.158-.432.35-.162.666-.379.947-.595.298-.234.526-.486.79-.793 1.263-1.459 1.193-3.278 1.193-5.188V76.506c0-.937-.106-.703.368-1.19l3.106-3.278-33.178.018c.053.18.21.288.403.486l.44.45c.297.325.56.595.859.901.228.253 1.596 1.712 1.737 1.784 0 0-.14-.072 0 0h0z" fill="#FFF" stroke="#000" stroke-width=".1"/><path d="M92.514 90.978h10.383l.03 8.445c-.47 3.688-3.18 4.944-5.613 4.932-1.645.017-2.205-.012-4.8-.03V90.978s0 4.425 0 0h0z" fill="#002D62" stroke="#000" stroke-width=".1"/><path d="M87.012 90.978H76.628l-.03 8.445c.47 3.688 3.181 4.944 5.613 4.932 1.645.017 2.205-.012 4.8-.03V90.978s0 4.425 0 0h0zM92.514 85.442V72.036h13.981l-3.568 3.46v9.946H92.514h0z" fill="#CE1126" stroke="#000" stroke-width=".1"/><path d="M87.012 85.442V72.036H73.03l3.568 3.46v9.946h10.414z" fill="#002D62" stroke="#000" stroke-width=".1"/><path d="M89.249 75.33v1.501h-1.506v1.27h1.506v5.373h1.239V78.1h1.524v-1.27h-1.524v-1.5h-1.24 0z" fill="#EAC102" stroke="#000" stroke-width=".1"/><path d="M80.614 75.124l.117 18.079h.002l-.002.04c0 2.378 1.366 4.306 3.05 4.306 1.67 0 3.027-1.899 3.047-4.251v-.054l-.123-8.16-6.09-9.96h0z" fill="#FFF" stroke="#000" stroke-width=".1"/><path d="M80.617 75.214l3.373 5.399-.027 9.786-3.28-3.915-.066-11.27h0z" fill="#002D62" stroke="#000" stroke-width=".1"/><path d="M79.766 95.944c0 2.62 1.845 4.71 4.12 4.71 2.257 0 4.09-2.058 4.118-4.608l-.167-8.9-8.229-8.436.158 17.234h0z" fill="#FFF" stroke="#000" stroke-width=".1"/><path d="M79.612 78.808l4.557 4.671-.037 9.426-4.43-4.243-.09-9.854h0z" fill="#002D62" stroke="#000" stroke-width=".1"/><path d="M86.08 85.433l1.762 1.806.117 6.193c-.633 1.196-1.92.548-1.92.548l.041-8.547h0z" fill="#CE1126" stroke="#000" stroke-width=".1"/><path d="M87.968 94.336L88 96.077v.059c-.001.142-.009.283-.021.422-1.683 1.266-2.151-.61-2.151-.61 1.26-.123 1.859-.864 2.14-1.612 0 0-.281.748 0 0h0z" fill="#002D62" stroke="#000" stroke-width=".1"/><path d="M79.72 91.191c2.31 2.637 4.286 4.06 4.286 4.06.52 4.151 2.96 2.772 3.838 2.125-.496 1.946-2.08 3.369-3.959 3.369-2.275 0-4.12-2.09-4.12-4.667v-.045h0l-.044-4.842h0z" fill="#CE1126" stroke="#000" stroke-width=".1"/><g fill="#EAC102"><path d="M80.288 75.267c-.184-.412-.131-.675.024-.936l-1.603-1.334.711 2.174c.28-.144.512-.148.809.152l-.159.149 7.163 9.819.332-.229-7.199-9.868-.078.073zM79.415 78.428c-.274-.409-.262-.677-.138-.958l-1.643-1.057.91 1.94c.261-.178.491-.2.843.111l-.096.124 8.066 8.035.274-.26-8.107-8.076-.11.141z"/></g><path d="M99.072 93.565c0 2.238-1.366 4.022-3.05 4.022-1.67 0-3.027-1.757-3.047-3.934l.123-7.602 6.09-9.551-.116 17.065z" fill="#FFF" stroke="#000" stroke-width=".1"/><path d="M99.186 76.35l-3.373 5.301.027 8.786 3.28-3.39.066-10.697h0z" fill="#002D62" stroke="#000" stroke-width=".1"/><path d="M99.105 88.855c-1.71 2.433-3.172 3.747-3.172 3.747-.384 3.83-2.19 2.558-2.84 1.96.367 1.796 1.54 3.109 2.93 3.109 1.684 0 3.05-1.928 3.05-4.307l-.001-.04h.001l.032-4.47h0z" fill="#AA241E" stroke="#000" stroke-width=".1"/><path d="M100.194 78.748l-.158 17.233h-.001l.001.045c0 2.576-1.844 4.665-4.119 4.665-2.257 0-4.09-2.057-4.118-4.607v-.058l.167-8.843 8.228-8.435h0z" fill="#FFF" stroke="#000" stroke-width=".1"/><path d="M100.191 78.845l-4.557 4.672.036 9.426 4.432-4.243.09-9.855h0z" fill="#002D62" stroke="#000" stroke-width=".1"/><path d="M93.723 85.47l-1.762 1.806-.118 6.194c.634 1.196 1.92.548 1.92.548l-.04-8.548h0z" fill="#CE1126" stroke="#000" stroke-width=".1"/><path d="M91.835 94.374l-.033 1.74v.06c.002.142.01.283.022.422 1.683 1.266 2.15-.61 2.15-.61-1.26-.123-1.858-.865-2.14-1.612 0 0 .282.747 0 0h0z" fill="#002D62" stroke="#000" stroke-width=".1"/><path d="M100.082 91.229c-2.31 2.637-4.285 4.06-4.285 4.06-.52 4.15-2.96 2.772-3.839 2.125.497 1.946 2.082 3.368 3.96 3.368 2.275 0 4.12-2.089 4.12-4.667l-.001-.044h.001l.044-4.842h0z" fill="#CE1126" stroke="#000" stroke-width=".1"/><g fill="#EAC102"><path d="M100.012 75.267c.184-.412.131-.675-.024-.936l1.603-1.334-.711 2.174c-.28-.144-.512-.148-.809.152l.159.149-7.163 9.819-.332-.229 7.199-9.868.078.073zM100.885 78.428c.274-.409.262-.677.138-.958l1.643-1.057-.91 1.94c-.261-.178-.491-.2-.843.111l.096.124-8.066 8.035-.274-.26 8.107-8.076.11.141z"/></g><path d="M93.002 91.066l-4.013-6.693c-1.318-.665-2.895 1.132-3.347 1.481-.452.35-1.341.079-1.341.079h0l3.924 7.094c1.187.51 1.985-.899 2.549-1.318 1.034-.77 2.228-.643 2.228-.643h0z" fill="#FFF" stroke="#000" stroke-width=".1"/><path d="M92.89 90.907l-3.912-6.69c.03-1.475 1.971-1.843 2.492-2.078.52-.235.699-1.147.699-1.147h0l4.421 6.795c-.107 1.288-1.726 1.33-2.36 1.632-1.165.551-1.34 1.488-1.34 1.488h0z" fill="#FFF" stroke="#000" stroke-width=".1"/><path d="M82.456 62.679c-3.857-.067-7.75.813-10.99 2.824-1.489.924-1.839 1.234-1.02 2.72-.193.133-1.548.547-1.883.665-.618.222-1.258.466-1.84.725-.617.273-1.176.525-1.712.85-.64.385-.908.673-1.4 1.183l3.09-.237c-.096.2-.32.488-.446.68-.529.762-.856 1.368-1.318 2.167.164-.082.447-.303.625-.422.618-.436 1.37-.872 2.048-1.22 2.211-1.116 6.187-1.145 7.817-3.105.417-.495.164-.79-.186-1.596 1.206-.4 1.66-.68 3.127-1.013 3.544-.791 5.986.148 7.699-.274.536-.133 1.057-.428 1.094-.99l-.253-1.79 5.755-.007c.007 1.013-.968 2.314.82 2.78 1.615.421 4.883-.503 7.705.28l3.127 1.014c-.015.147-.238.547-.305.754-.134.362-.12.554.111.813.306.347.737.695 1.2.96.915.526 2.114.858 3.245 1.132 3.254.791 3.559.998 6.06 2.669-.163-.488-1.354-2.225-1.749-2.839l3.075.244c-.529-.806-2.152-1.656-3.09-2.026l-3.745-1.367c.067-.178.134-.222.209-.385.2-.45.35-.931.074-1.353-.521-.79-3.647-2.327-4.437-2.543a39.586 39.586 0 00-4.1-.882c-1.333-.213-3.897-.397-3.897-.397-.183-.194.354-1.21-.469-1.922-.484-.384-1.183-.517-1.898-.591-2.86-.274-6.753-.192-9.642 0-.834.052-1.422.14-1.898.591-.581.547-.655.88-.603 1.908 0 0-.052-1.028 0 0h0z" fill="#002D62" stroke="#000" stroke-width=".1"/><path d="M106.607 74.174c-.03.054-.06.036.034.217.891 2.02.576 1.065 1.31 3.698a7.098 7.098 0 01-.469-.666 19.526 19.526 0 01-1.076-1.895.827.827 0 00-.268-.359c-.062.199.25 1.26.328 1.549.328 1.298 1.205 2.78 1.847 3.953-.188-.108-.298-.274-.455-.437-.563-.523-.405-.393-.733-1.042a13.537 13.537 0 01-.782-1.934 33.752 33.752 0 00-.484-1.366c-.063.09-.016-.073-.063.125-.047.18.014.395.03.575.078.758.188 1.518.297 2.276-.453-.217-.89-.56-1.329-.83-.094-.055-.218-.147-.327-.183l-.127.018c-.094.27.767 1.136.923 1.28.204.18 1.08.868 1.173 1.12.344.902.656 1.606 1.188 2.328l.469.683-1.031-1.172c-.751-.776-1.047-1.098-1.892-1.856.016.27.313.504.47.666l1.295 1.64c.407.595.891 1.103 1.251 1.734l.815 1.549a8.86 8.86 0 00-.454-.701l-1.25-1.77c-.439-.594-.923-1.008-1.486-1.513-.47-.433-.782-.703-1.33-.973-.03.162.155.285.265.393.625.577 1.174 1.229 1.768 1.86.235.253.455.503.674.792.22.27.422.507.626.796.375.577.747 1.241 1.076 1.873l.502.995c-.39-.163-2.205-2.489-2.643-2.994-.36-.415-.515-.651-.968-.904.031.253 1.264 1.842 1.545 2.185.125.144.174.232.268.359l.547.705c.36.487 1.016 1.349 1.266 1.89l.376.87c-.015-.09-.735-1.155-.845-1.28a5.758 5.758 0 00-.469-.632c-.407-.506-1.079-1.356-1.564-1.735l-1.25-.809c-.063.144.204.358.36.502l.47.506c.562.505 1.326 1.479 1.764 2.128.297.397.517.778.767 1.211-.156-.108-.281-.27-.39-.415-.173-.198-.25-.253-.406-.415-.235-.27-.548-.522-.86-.774l-2.018-1.12c.03.18.702.647.89.773.39.289 1.048.758 1.392 1.173.156.18.235.31.376.454.297.306.517.629.752 1.008.234.378.436.667.655 1.064.235.415.375.777.562 1.228l.69 2.868c-.22-.938-.642-1.97-.94-2.89-.234-.703-.75-2.413-1.548-2.106-.297.126-.437.486-.562.774-.188.397-.44-.145-1.065 1.298-.344.812-.577 1.75-.733 2.652a1.01 1.01 0 000 .432c.156-.072.265-.558.327-.774.313-.884.627-1.407 1.065-2.236l-.596 3.05c.204-.037.268-.438.347-.654.265-.758.498-1.513.748-2.271.891.703 1.174 4.491 1.3 5.844-.094-.47-.438-1.478-.626-1.93l-.909-1.695c-.531.072-.593.829-.718 1.298-.156-.235-.314-.629-.674-.593-.328.018-.452.45-.499.865-.047.433-.048.9.015 1.332.016.09.11.975.156 1.047l.112.126.186-2.596c.344.18 1.002 1.858.909 2.544-.344 2.507-.55 3.298-1.74 5.372-.202.36-.42.74-.654 1.064-.11.18-.218.344-.343.506l-.39.49c.609-1.191.872-1.662 1.31-3.033.312-1.028.58-2.11.689-3.21.015-.18.016-.343-.015-.523-.125.054-.158.253-.205.415-1.032 3.608-1.17 3.732-2.86 6.943l.313-2.055c-.156.018-.127.109-.19.307-.047.145-.09.254-.137.398-.235.794-.47 1.568-.846 2.271.032-.216.139-.506.201-.722.172-.668.283-1.387.377-2.072l.014-.472c-.187-.018-.2.397-.279.65-.203.739-.5 1.39-.797 2.075v-.199c.063-.45.172-1.136.094-1.587 0 0 .06.11-.049-.16-.156.054-.188.396-.22.558a7.204 7.204 0 01-.17.631c-.392 1.227-.875 2.018-1.438 3.136-.33-.01-.07.026.075.04-.047-.014-.081-.023-.079-.027.23.036.174.035.079.026.466.133 3.13.701 3.13.701 1.549-.072 2.579-.215 4.111-.034.235.018 1.188.217 1.33.09-.454-.288-.89-.416-1.39-.597l-1.47-.415 4.173-.125-.376-.234c-.688-.306-2.548-.435-3.283-.489 1.376-.144 2.395-.267 3.771-.285.36-.116 1.584.33 1.046-.29-.484-.379-2.064-.433-2.58-.415l2.472-.126c.393-.114 2.934.553 2.033-.108-.703-.397-2.254-.76-3.004-.887.437-.288.83-.575 1.299-.791.938-.451 1.97-.775 2.971-1.081 1.102-.193 1.931-.785.484-.524-.891.108-1.97.394-2.751.485l.703-.433c.688-.397 1.484-.56 2.234-.848.141-.054.095.002.142-.143l-.123-.051c-.14-.018-.269.05-.41.069.454-.307 1.706-.596 2.175-.723a29.97 29.97 0 001.69-.501c.172-.054.405-.054.499-.217l-.108-.073c-.172-.072-3.205.434-3.533.506-.297.054-.863.199-1.114.199.923-.433 1.83-.887 2.8-1.211.172-.054.878-.196.972-.377-.188-.09-.345-.036-.61.018-.908.162-1.784.433-2.644.74-.297.108-.705.286-.987.358 3.112-1.352 1.926-.956 4.803-1.587.328-.072.594-.037.626-.29l-1.657-.108c-.547.018-1.11.164-1.564.182l1.232-1.173c.344-.324.188-.414.782-.432.235-.018.954.038 1.095-.052-.422-.487-.547-.236-.953-.489l.502-.688c.126-.18.25-.34.343-.575.047-.108.046-.088.015-.16l-.201.035-1.285 1.19c-.219.18-.17.163-.499.18-.563.055-1.11.252-1.627.36.61-.541 1-.864 1.672-1.315.297-.217.61-.399.923-.597.25-.144.877-.378.924-.558l-1.985.575c-.39.163-1.47.74-1.705.956.876-1.1 2.218-2.36 3.25-3.244.126-.108.441-.287.488-.45-.078-.036-.112-.057-.19-.039-.547.127-1.782 1.065-2.204 1.371-.703.524-1.47 1.1-2.096 1.713.375-.45.72-.865 1.143-1.28a2.98 2.98 0 01.328-.324c.11-.109.188-.2.298-.308.218-.198.391-.394.61-.592.422-.397.842-.813 1.218-1.246l.625-.614c.14-.144.563-.431.547-.684-.86.542-1.655 1.134-2.468 1.765-.407.307-.782.632-1.173.939-.297.216-.908.847-1.143.973.485-.884.987-1.803 1.612-2.56.766-.956 1.735-1.949 2.61-2.76.235-.217.455-.486.674-.666v-.091c-.203-.018-.879.543-1.035.688-.938.775-1.858 1.637-2.64 2.539-.14.162-.25.327-.39.471-.407.433-.8 1.008-1.129 1.531a40.7 40.7 0 00-1.314 2.22c.266-1.371 1.127-2.433 1.783-3.245l1.5-1.86c.11-.126.16-.215.254-.341 1.002-1.24 1.484-2.203 1.687-3.656-.17.28-.413.61-.793 1.142-.12.158-.223.277-.343.455l-3.045 3.949c.136-.553.735-1.737 1.008-2.21.411-.711.771-1.304 1.2-1.956.29-.454 1.625-2.41 1.95-2.746l.142-.16c.035-.24.205-.363.428-.571.25-.235.299-.36.596-.541-.282-.325-1.331.413-1.534.575-1.33 1.028-2.281 2.434-3.25 3.841.124-.757.92-2.976 1.295-3.607.313-.47.596-1.081.908-1.514l.875-1.553c-.203.018-.437.362-.562.506-.094.108-.155.182-.25.29-1.172 1.407-1.863 2.974-2.676 4.706.047-.866.738-2.324 1.113-3.028.485-.938 1.03-1.732 1.53-2.634-.281-.09-1.11 1.028-1.25 1.263-.36.505-.72 1.01-1.032 1.587-.563 1.065-1.11 2.252-1.486 3.46l-.093.256c.063-1.136 1.063-3.844 1.5-4.728.267-.523.548-.937.86-1.388.126-.163.204-.305.314-.467.218-.307.406-.58.625-.887l.61-.917c-.39-.163-1.8 1.641-2.066 2.02a18.737 18.737 0 00-.953 1.548c.157-.865.736-2.072 1.158-2.794.375-.65.766-1.17 1.188-1.747.14-.18.251-.364.36-.58-.437-.072-2.234 2.293-2.594 2.816-.156.234-.284.449-.425.683l-.592 1.064c-.03.073-.05.11-.096.2l-.123.181c.094-.83.532-2.564.767-3.322.328-.974.779-1.856 1.154-2.812-.313-.054-.904.85-1.076 1.138l-.704 1.514c.078-.704 1.046-3.156 1.374-4.057-.188.054-.312.377-.484.666-.438.775-.83 1.533-1.236 2.327.063-.794.518-1.625.83-2.31-.578.289-1.549 2.617-1.783 3.357-.11.306-.22.665-.298 1.007l-.123.364c-.031-1.786.294-3.61.529-5.36-.14.037-.172.219-.235.381l-.17.45c-.095.325-.204.63-.314.99l-.454 2.129c-.672-1.064-.841-3.029-2.17-5.247-.423-.704-.566-.778-1.129-1.229 0 0 .563.451 0 0h0z" fill="#006300" stroke="olive" stroke-width=".1"/><path d="M66.667 79.518c0 .35-.323.634-.721.634-.398 0-.72-.284-.72-.634 0-.35.322-.635.72-.635.398 0 .72.284.72.635 0 0 0-.35 0 0h0zM75.705 105.233c0 .35-.323.634-.72.634-.399 0-.721-.284-.721-.634 0-.35.322-.635.72-.635.398 0 .721.285.721.635 0 0 0-.35 0 0h0z" fill="red" stroke="#006300" stroke-width=".1"/><path d="M76.426 105.777c0 .35-.323.634-.721.634-.398 0-.72-.284-.72-.634 0-.35.322-.635.72-.635.398 0 .72.284.72.635 0 0 0-.35 0 0h0zM66.306 98.007c0 .35-.322.635-.72.635-.398 0-.721-.285-.721-.635 0-.35.323-.634.72-.634.399 0 .721.284.721.634 0 0 0-.35 0 0h0zM65.946 101.089c0 .35-.323.634-.72.634-.399 0-.721-.284-.721-.634 0-.35.322-.635.72-.635.398 0 .72.284.72.635 0 0 0-.35 0 0h0zM66.306 102.358c0 .35-.322.634-.72.634-.398 0-.721-.284-.721-.634 0-.35.323-.635.72-.635.399 0 .721.284.721.635 0 0 0-.35 0 0h0zM68.288 95.288c0 .35-.322.635-.72.635-.398 0-.721-.285-.721-.635 0-.35.323-.634.72-.634.399 0 .721.284.721.634 0 0 0-.35 0 0h0zM68.649 93.657c0 .35-.323.634-.721.634-.398 0-.72-.284-.72-.634 0-.35.322-.635.72-.635.398 0 .72.284.72.635 0 0 0-.35 0 0h0z" fill="red" stroke="#006300" stroke-width=".1"/><path d="M71.896 88.365c1.217-1.14 1.108-1.468 1.108-1.468-.165-.147-.894.262-1.134.08-1.047-.79-2.064-.025-2.064-.025-1.202.939-.98 1.064-.98 1.064.16.286.341.5.534.658-.016.038.002.053.002.053.49 1.347 1.793 1.199 2.28.938 0 0-.487.26 0 0 1.367-.734 1.32-1.037 1.32-1.037-.114-.143-.773.038-.945-.145a1.77 1.77 0 00-.121-.118h0zm-6.809-4.2c.087.267.172.63.316.708.968.522.962 1.731.962 1.731-.028 1.445-.207 1.316-.207 1.316a1.21 1.21 0 01-.832-.352c.246 1.445.039 1.643.039 1.643-.16.906-.17 1.591-.17 1.591-.724-.313-1.34-.058-1.34-.058-.893.163-1.667-.86-1.667-.86-1.192-1.857-.795-2.46-.795-2.46.1-.07.239.162.239.162.377.394 1.052.487 1.052.487-1.906-1.393-.655-4.482-.655-4.482.238-.302.317.441.317.441.259.813 1.013 1.301 1.013 1.301.397.627.397.882.397.882.199-1.045.417-.766.417-.766.097.34.285.637.48.91h0c-.105-.344-.142-.609-.142-.609.119-1.524.338-1.809.403-1.86-.287-.535-.372-1.157-.343-1.53 0 0-.058.752 0 0 .163-2.112.492-2.189.492-2.189.194.084.29 1.023.55 1.163 1.132.61 1.125 2.024 1.125 2.024-.032 1.69-.241 1.538-.241 1.538a1.71 1.71 0 01-1.41-.73h0zm.488 7.402c.051-1.506 1-3.025 1-3.025 1.11 2.414.899 3.087.899 3.087-.393 1.61-.937 2.792-.937 2.792-.163-.97-.538-1.288-.757-1.697-.323.14-.538.322-.84.332 0 0 .516-.017 0 0-1.406.046-2.747-1.815-2.747-1.815 2.097-.636 2.567-.267 2.567-.267.299.198.573.401.815.593h0zm6.528 6.906a10.53 10.53 0 00-.225.492s-.394 1.631-1.604 1.64c.688.613.783.95.783.95 1.41-2.122 2.132-1.81 2.132-1.81-.012.276-.394.962-.394.962-.079.813.1 1.463.1 1.463v.232c.8-.424 1.149-.377 1.149-.377-.575 2.921-1.694 2.21-1.953 2.457-.437.418-.17 1.149-.17 1.149.02.44 0 0 0 0 .01.188.008.294.003.354.848-.03 1.143.178 1.143.178-.126-.887-.772-.904-.772-.904-.155-.279.182-.295.182-.295 1.727.197 2.654 1.461 2.654 1.461.646 1.068.45 2.119.45 2.119.154 1.067-.17 1.018-.17 1.018-.673.246-.73.805-.73.805-.66 1.05-3.032.049-3.032.049-.73-.23-.59-.46-.59-.46.66-.394.885-.706.885-.706-1.264-1.33-1.447-3.055-1.447-3.055a9.21 9.21 0 01.762-.146h0c-.102-.875-.668-1.162-.668-1.162-.738-.591-.754-.88-.973-1.695-.227-.846.093-2.216.226-2.714h0c-.308-.12-.872-.215-1.322.392l-.338-.21s0-.232-.397-.835c0 0-.218-.28-.437-1.278 0 0-.119-.162.199-2.02 0 0 .159-.697.377-.07l.695 1.533s.131-.553 1.089-1.372a2.327 2.327 0 00-.415-.3s-.084-.312.365-.591c0 0 .267.295 1.517.065 0 0 .932.025 1.642.838.397.454.127.378 1.068 1.346 0 0 .168.345-1.46.542 0 0-.13-.012-.324-.045h0zm-1.202-.345c-.26.114-.274.164-.274.164l.027-.297c.077.048.16.093.247.133h0zm-.572 9.662c-.229.151-.33.288-.735.349-1.819.272-2.84-2.532-2.84-2.532-.059-.557.16-.263.537-.104.496.209.644.044 1.201-.035.735-.105 1.559.743 1.559.743.466.476.506 1.428.506 1.428-.05.151-.228.151-.228.151zm-2.16-5.06c-1.902-.944-3.033.115-3.033.115-.07.14.113.206.113.206 1.193.172.81.107 1.305.903.85 1.363 2.352 1.075 2.352 1.075.31.083.618.518.618.518-.126-1.215-1.355-2.817-1.355-2.817zm-3.293-8.81c-.365-.295-.282.296-.282.296-.786-1.609-2.863-1.733-2.863-1.733-.169-.009-.268-.16-.268-.16-.348 0 .08.813.08.813.625 1.95 1.22 2.172 1.22 2.172-.708.473-1.843-.556-1.588.197 1.102 1.359 1.847 1.544 1.847 1.544 1.39.395 2.005 0 2.005 0 .318.674.526.767.526.767 1.261.441 1.54 1.289 1.54 1.289 0-1.614-.52-3.605-.52-3.605-.394-.691-1.697-1.58-1.697-1.58zm1.792 6.38c-.955-.328-1.509.036-1.509.036-.496.232-1.4-.442-1.4-.442-1.191-1.16-1.42-1.88-1.42-1.88 0-.21 1.053-.163 1.053-.163 1.386-.039 1.702.294 1.702.294.716.476.642.912.899 1.088.618.422.716.62.716.62.175.279.252.549-.04.448 0 0 .292.1 0 0zm13.408 5.65c-.267.081-.97 1.379-.97 1.379-.842-1.856-1.965-2.152-1.965-2.152-.225.115.028.542.028.542.337.986-.056 1.757-.056 1.757-.126.723.014.887.014.887-1.334-.805-1.418-.722-1.418-.722-.014 1.001 1.01 2.873 1.01 2.873 2.22-.69 2.388-.64 2.388-.64.828-.148.807-.164.807-.164.667-2.234.162-3.76.162-3.76zM68.343 94.482c.457-.72 0-2.067 0-2.067-.179-1.44 1.668-2.81 1.668-2.81.536 1.161.477 1.858.477 1.858 1.41-.395 1.727-.51 1.727-.51.06.928-.695 2.275-.695 2.275 1.152.395 1.549-.255 1.549-.255-.556 2.995-2.998 2.392-2.998 2.392-1.013-.767-1.728-.883-1.728-.883zm.636-8.376c.472-2.048.187-2.253.187-2.253-.208 0-.575.842-.86.868-1.243.114-1.655 1.443-1.655 1.443-.47 1.598-.229 1.54-.229 1.54 1.488.618 2.39-.87 2.557-1.598 0 0-.168.728 0 0zm.637-3.241c.51-2.035.23-2.247.23-2.247-.208-.006-.592.826-.878.845-1.244.081-1.681 1.4-1.681 1.4-.5 1.585-.258 1.534-.258 1.534 1.476.656 2.405-.808 2.587-1.532 0 0-.182.724 0 0zm-2.69-2.896c-.544-1.895 1.096-4.401 1.096-4.401.344 1.177.533 2.102.533 2.102 1.304-1.549 2.46-1.787 2.46-1.787l-.045 1.196c.87-.099 1.236-.329 1.236-.329-.187 1.52-1.826 3.055-1.826 3.055-.617.46-1.376.295-1.376.295-1.186.394-1.463 1.339-1.463 1.339-.116-.821-.198-.022-.615-1.47 0 0 .417 1.448 0 0zm2.39 6.338c.735-1.138 1.906-.65 1.906-.65 1.053.093 1.946-1.184 1.946-1.184.477-.906.775-1.115.775-1.115-.04-.302-.298-.256-.298-.256-.636.163-.636.186-.636.186.477-2.067.219-2.16.219-2.16-.159 0-.258.14-.258.14-.278.952-1.41.906-1.41.906-.06-1.37-.318-1.185-.318-1.185-.179.348-.556.557-.556.557-1.112 1.301-1.112 1.858-1.112 1.858.06 1.533-.258 2.903-.258 2.903zM83.799 113.828c.323.142.985.535 1.252.694l.915 2.176c.351.318.295.247.689.371l-2.18 1.15c-.633.3-.38 1.008-.085 1.15.324.123.999-.23 1.238-.372 1.083-.637 2.067-1.291 3.038-2.087.155-.124.872-.76 1.013-.725l3.853 2.795c.282.159.844.619 1.154.336.126-.107.323-.354.253-.637-.056-.3-.211-.354-.394-.442-.295-.16-2.04-1.168-2.096-1.168l.465-.159c.14-.124-.102-.49.08-.42l.96-2.003 1.196-.549c-.009-1.406-9-2.28-11.351-.11 0 0 2.351-2.17 0 0h0z" fill="#006300" stroke="#000" stroke-width=".1"/><path d="M76.343 110.72c-1.151.408-2.322.779-3.4 1.335-.296.148-.742.463-1.002.556-.613-.927-1.45-2.298-2.044-3.095-.334-.426-.799-.89-1.375-1.186-.91-.426-1.244-.296-1.82.204l-.409-.778c-.817-1.445-1.672-2.113-2.582-3.28l-.817-.964c-.112-.13-.149-.222-.298-.296l.465 1.742.371 1.797c-.501-.278-.966-.556-1.486-.778-.39-.148-1.393-.37-1.876-.315l.594.537c1.022.908 1.691 2.113 2.1 3.465.445 1.464 1.486 3.02 2.582 4.096.223.222.854.796 1.263.945 1.226.444 1.17-.019 1.616-.241.706 1.223 1.133 1.834 2.044 2.965l.594.667c1.17 1.241 3.01 1.575 4.682 1.186a6.194 6.194 0 001.783-.723c2.173-1.26 1.133-2.242.873-3.243.706-.222 3.47-1.063 4.464-1.248 3.5-.652 9.988-.738 14.137-.13.372.054 4.555 1.175 4.964 1.416 0 0-.27.674-.336.967-.07.312-.034.842-.034.842.07.71.676 1.081 1.215 1.396.576.334 1.04.537 1.783.723a6.11 6.11 0 002.248.092c1.56-.26 2.378-1.167 3.047-1.982.204-.241.371-.445.576-.686.167-.222.353-.482.52-.723.297-.444.724-1.26.929-1.538 0 0 .316.297.542.37.212.07.907-.055 1.092-.129.539-.204.873-.611 1.245-.963 1.152-1.112 2.118-2.558 2.582-4.133.557-1.853 1.32-2.724 2.675-3.928 0 0-.642.027-.958.083-.316.055-.937.25-.937.25-.289.123-.483.223-.743.353-.204.13-.52.333-.706.407l.372-1.816c.111-.5.39-1.241.446-1.723l-.576.63c-.353.445-.762.852-1.096 1.297-.167.204-.372.39-.539.612-.334.444-.706.815-1.04 1.297-.167.26-.279.463-.446.74-.111.186-.279.612-.39.742-2.466-1.378-3.574 1.98-5.239 4.04-1.56-.834-2.49-1.26-4.254-1.816-.334-.093-1.337-.315-1.542-.426-.097-.006-3.622-.723-3.622-.723-.613-.019-1.542-.204-2.21-.278-4.57-.537-9.605-.519-14.156.167l-2.137.333s-3.748.915-3.734.89c0 0-.014.025 0 0h0z" fill="#CE1126" stroke="#000" stroke-width=".1"/><path d="M97.422 115.294l-1.196.624.68 1.349c-.496-.085-2.298-.709-2.886-.894.147-.422.202-.472.147-.995l.202-.961 1.453.489c.551.169 1.011.287 1.6.388 0 0-.589-.101 0 0zm-15.683.21l1.195.624-.68 1.35c.496-.085 2.298-.709 2.887-.894-.147-.422-.202-.473-.147-.995l-.203-.961-1.452.489c-.552.168-1.011.286-1.6.387 0 0 .589-.1 0 0z" fill="#CE1126" stroke="#000" stroke-width=".1"/><path d="M88.564 116.544c-.26.146-1.32.707-2.486.872 0 0-1.376-.095-1.076-1.877 0 0-.11-.303-.11-.653 0 0-.159-.62.332-1.21 0 0 .221-.318 1.598.207 0 0 .181.092 1.465.38.064-.163.241-.291.611-.357.29-.046 0 0 0 0 .29-.046 1.004-.091 1.294-.068.299.029.37.233.389.49.044.045.266.146 1.302-.349 0 0 1.835-.589 2.152-.223 0 0 .68.796.047 1.798 0 0 .08.032.127.844 0 0-.032.923-1.218.987 0 0-.967-.12-2.252-.911-.115.18-.374.165-.703.18-.357 0-1.026.16-1.338.023a.226.226 0 01-.134-.133z" fill="#CE1126" stroke="#000" stroke-width=".1"/></g></svg>