<svg height="180" width="180" xmlns="http://www.w3.org/2000/svg"><g fill="none" fill-rule="evenodd"><path d="M167.96 135H12.04c15.562 26.901 44.647 45 77.96 45 33.313 0 62.398-18.099 77.96-45z" fill="#CA4638"/><path d="M12.04 135h155.92c7.657-13.238 12.04-28.607 12.04-45H0c0 16.393 4.383 31.762 12.04 45z" fill="#346DA6"/><path d="M0 90h180c0-49.706-40.294-90-90-90S0 40.294 0 90z" fill="#E5B731"/><g stroke="#262626" stroke-width=".1"><path d="M82.082 93.443l6.98-6.981-24.77-25.048s-1.457 1.456-3.819-.198c2.502.216 2.924-.697 2.924-.697l-1.901-.65-.997-3.215 2.995 1.216.702 1.85s.97-.619.508-2.735c2.243 1.891.386 3.63.386 3.63L90 85.525l24.91-24.91s-1.857-1.739.386-3.63c-.461 2.116.508 2.735.508 2.735l.702-1.85 2.995-1.216-.997 3.214-1.9.651s.42.913 2.923.697c-2.362 1.654-3.818.198-3.818.198L90.937 86.462h0l5.981 5.981h0l23.985-24.035-.497-.48-.269-1.9 1.878.235.496.479.492-.51.08-1.238 3.693-1.722-1.702 3.645-1.125.229-.492.509.276.267-.441.457c-.067.069 2.174.986 4.046.102 0 0 1.471 1.522-.56 3.626-2.031 2.103-3.627.71-3.627.71 1.43-1.28-.54-3.734-.54-3.734l-.487.504-.276-.266-24 24.051 24.203 24.204.28 1.01 1.066.336 1.206 2.321-2.321-1.206-.384-1.016-.962-.33-24.068-24.337-6.939 6.953 24.828 24.88.215.96 1.205.512.925 1.857-1.87-.944-.583-1.114-.86-.38-24.788-24.84-23.79 23.84-.86.38-.582 1.114-1.871.944.925-1.857 1.205-.512.215-.96 23.83-23.88-5.935-5.947-23.074 23.331-.962.33-.384 1.016-2.321 1.206 1.206-2.321 1.065-.335.28-1.01 23.205-23.205-24.001-24.051-.276.266-.488-.504s-1.969 2.454-.539 3.734c0 0-1.596 1.393-3.627-.71-2.031-2.104-.56-3.626-.56-3.626 1.872.884 4.113-.033 4.046-.102l-.44-.457.275-.267-.492-.51-1.125-.228-1.702-3.645 3.693 1.722.08 1.239.492.509.496-.48 1.878-.235-.27 1.901-.496.48 23.985 24.035zm.98.982L90 87.41l5.944 6.01L89 100.377l-5.939-5.952z" fill="#AFBAC0"/><path d="M113.506 62v15.717l5.075-5.152v19.287s3.4 24.347-9.171 26.04c-4.468.603-13.482-1.913-13.482-1.913s5.743 6.985 4.163 7.869c-.65.364-4.768.378-4.768.378V128s-9.767-.94-13.003 0c-.338 0 0-3.214 0-3.214s-4.318.355-4.986-.02c-1.58-.883 3.312-7.966 3.312-7.966s-7.425 4.038-15.935-.821c-8.214-4.69-5.153-29.448-5.153-29.448V71.485l5.702 6.021V62L89 83.323 113.506 62z" fill="#E5B731"/><path d="M90.427 80.786L108.43 67l.464 16.04L114 77.924l-.415 18.438s.415 15.519-12.85 18.699c-3.643.873-8.806.53-8.806.53l2.303 9.792s3.832 3.08 2.527 3.957c-1.305.877-7.187-.546-7.187-.546-.483 0-5.605 1.848-6.91.971-1.304-.877 1.587-4.04 1.587-4.04l2.776-10.134s-5.658 2.125-13.029-2.09c-9.446-5.402-7.902-21.729-7.902-21.729V77.923l4.43 5.118V67l18.34 13.786h1.563z" fill="#346DA6"/><path d="M90.825 83.725L106.631 70v10.856c0 1.502-3.08 8.135-3.08 8.135L111 80.856v13.882s-1.044 9.58-5.888 13.177c-4.844 3.596-13.594 7.718-13.594 7.718l.898 14.152s2.233 2.094 1.117 2.973c-1.117.879-3.17-.916-3.17-.916-.413 0-2.466 1.795-3.583.916-1.116-.88 1.117-2.973 1.117-2.973l.898-14.152s-7.806-4.122-12.65-7.718C71.301 104.318 70 94.738 70 94.738V80.856l6.763 8.135s-2.05-6.29-2.05-7.792V70.343l14.775 13.382h1.337z" fill="#CA4638"/><path d="M107.772 83s.068-5.064-5.43-13.554c2.175 2.425 4.34 6.192 4.34 6.192S102.528 66.31 101 64.991c2.446 1.94 5.828 8.652 5.828 8.652S105.936 68.302 101 61c1.83 0 7.729 13.29 7.729 13.29s-4.935-12.737-5.683-12.929c.921 0 5.76 10.83 5.76 10.83s-2.703-9.06-3.695-10.107c.992.667 4.228 8.512 4.228 8.512s-1.557-6.428-3.236-9.043c1.68 1.319 4.301 9.177 4.301 9.177s-.311-5.29-1.597-8.393c4.588 9.854 2.883 16.918 2.883 16.918L107.772 83zM65.26 73.277s-1.15 3.58 1.386 5.056C69.024 80.44 70.516 82 70.516 82s-.094-1.747-1.205-2.21c0 0 2.302-.333 2.302-1.2-.859.25-2.57 0-2.57 0s2.318-.71 2.941-2.285c-2.364 1.211-3.761 1.28-3.761 1.28 0-1.28 3.486-1.808 4.208-2.243-1.088-.427-3.407.178-3.407.178.875-.42 2.085-.368 2.96-.787.66-.317.986-1.104 1.646-1.42-.633.073-1.384.365-2.017.438-.638.073-1.157-.073-1.794 0 .473-.292-.086-2.106.424-2.251.344-.098.75.432 1.37.748.556.284 1.329.363 1.616.185.895-.554 1.62-1.793 2.515-2.347-.61.106-1.503-.107-2.114 0-1.131.196-1.982.711-3.114.908 0 0 5.297-2.064 5.503-3.08-.803.53-2.79.321-2.79.321l1.555-.94s5.33-.294 5.621-.892c-.434-.72-3.34-.031-3.34-.031s-.046-.665.784-.872c.949-.237 2.834-.335 3.151-.927h-2.478s1.184-.831 1.45-1.457c-.985 0-1.728.946-1.728.946l-.395-.946c-.138.337-.356.61-.493.946-.306.749-.531 1.561-.837 2.31l-3.836 1.356c.743-.565 1.79-.79 2.533-1.356.515-.393.727-1.126 1.243-1.52-.736.495-1.823.337-2.56.831-.58.391-2.286 2.495-2.286 2.495s.348-1.417.893-2.272c.527-.827 2.139-1.755 2.476-2.164.612-.743.928-1.999 1.54-2.742-.698.692-1.924.862-2.622 1.554-.494.49-1.217 2.56-1.217 2.56l-.699-2.752c-.149.973-1.007 2.164-1.157 3.138-.134.877.307 2.413.307 2.413l-.891 2.814c-.262.49-1.22.606-1.48 1.097-.52.976-.344 2.327-.864 3.303.456 0 .216-1.163.324-1.744.141-.763-.332-2.656-.332-2.656s.84-.63 1.42-2.492c.406-1.303.557-3.722.752-4.769l-1.3 2.622s-1.107-2.026-1.172-2.533c-.595.988-.196 2.533.3 3.74.497 1.207 0 1.358 0 1.358l-.816-.475-.772-.45c.068.216.269 1.042.578 1.585.3.526.71.773.71.773s.17 2.228.3 2.636l-1.718-3.587c.141 1.133-.142 2.796 0 3.93.198 1.59 1.02 4.243 1.02 4.243l-1.933-4.03z" fill="#57BB63"/><path fill="#346DA6" d="M119 69.704l1-.704v13h-1z"/><path fill="#CA4638" d="M118 70.704l1-.704v13h-1z"/><path fill="#346DA6" d="M113 61.704l1-.704v13h-1z"/><path fill="#CA4638" d="M113 62.704l1-.704v13h-1z"/><path fill="#346DA6" d="M60 71.704L59 71v13h1z"/><path fill="#CA4638" d="M61 72.704L60 72v13h1z"/><path fill="#346DA6" d="M65 60.704L64 60v13h1z"/><path fill="#CA4638" d="M66 61.704L65 61v13h1z"/></g><g transform="translate(67 64)"><ellipse cx="22" cy="23" fill="#AFBAC0" rx="17" ry="23" stroke="#E5B731" stroke-width=".1"/><path d="M22 44c8.284 0 15-9.402 15-21S30.284 2 22 2C13.716 2 7 11.402 7 23s6.716 21 15 21z" fill="#4086CD" stroke="#262626" stroke-width=".1"/><path d="M7 24.37c.24 7.224 2.363 10.502 2.363 10.502 1.088.775 4.289-2.269 6.218-1.352 0-.917-4.451-1.748-4.451-1.748s3.467-.205 4.954-.618c0-.355-1.58-.464-2.756-.82-.734-.221-1.28-.796-1.28-.796s1.626.371 2.4.368c.877-.004 2.552-.39 2.552-.39s-2.108-1.336-2.75-2.08c-.275-.319 0-1.11 0-1.11s-.94-.093-1.395-.378c-.782-.49-2.316-1.948-2.316-1.948s-2.014.37-3.539.37zM25.308 23L15 25.841s.534-.022.925.459c.373.458.589 1.408 1.214 1.809.741.475 1.871.45 2.634.604.348.07.45.336.704.422 1.458.497 4.2 0 4.2 0s-3.613 1.14-3.121 1.376c1.272.608 8.578 1.02 8.578 1.02s-3.227 1.33-2.777 1.655c.445.321 1.925.409 3.33.716.954.209 1.707.809 2.413 1.01.702.199 1.633 0 1.633 0s1.143-2.506 1.605-4.401c.346-1.422.662-5.167.662-5.167L25.308 23z" fill="#57BB63" stroke="#262626" stroke-width=".1"/><path d="M7.522 19.525c-.602 2.29-.518 3.79-.518 5.156 0 .153 2.044.19 3.661.394.883.111 2.134.542 2.134.542s-1.698-1.422-1.249-1.907c1.755-1.895 3.871-2.325 3.871-2.325s-3.32 1.589-2.622 2.687c.323.507 1.287 1.47 2.147 1.738 1.347.418 2.542.019 2.93 0 2.339-.116 4.129-.735 4.129-.735s1.64.017 3.467 0c1.252-.012 2.429.12 3.592.209 1.408.107 1.493.487 2.544.526.66.024 1.274-.34 1.934-.315.548.02.9.102 1.448.122.577.021 1.929 0 1.929 0s.206-2.752-.04-3.681l-1.89-1.19-2.29 1.07L16.603 18l-9.08 1.525z" fill="#4D7277" stroke="#262626" stroke-width=".1"/><path d="M10.58 20.385c-.905 0-2.58 0-2.58-.27 0-.271 3.55-1.93 4.31-2.749.759-.82 3.474-2.612 4.334-2.338.86.274 2.239.607 2.239.607l1.443.715s1.827-.291 2.429 0c.602.29.987 1.682 1.75 1.682s2.93 2.078 2.93 2.078l1.388.004s.95.39 1.62.842C31.114 21.41 33 22 33 22s-5.058-.099-5.62-.522c-.245-.184-.996.266-1.795.286-1.03.027-2.124-.34-2.124-.34s-.843.413-1.777.34c-1.3-.1-2.812-.808-2.812-.808s-1.494.682-2.697.468c-1.203-.214-2.735-1.31-2.735-1.31s-1.867.272-2.86.27z" fill="#FFF" stroke="#262626" stroke-width=".1"/><path d="M9.147 11.8S14.29 8 22.828 8c8.537 0 13.416 3.42 13.416 3.42L38 16s-6.221-4.58-15.172-4.58C13.878 11.42 8 16 8 16l1.147-4.2z" fill="#AFBAC0" stroke="#E5B731" stroke-width=".1"/><path d="M21.489 7.843L22 6l.511 1.843L23.8 6.405l-.362 1.833 1.752-.755-1.148 1.546L26 9.1l-1.728.9 1.728.9-1.958.07 1.148 1.547-1.752-.755.362 1.833-1.289-1.438L22 14l-.511-1.843-1.289 1.438.362-1.833-1.752.755 1.148-1.546L18 10.9l1.728-.9L18 9.1l1.958-.07-1.148-1.547 1.752.755-.362-1.833 1.289 1.438z" fill="#E5B731"/><path d="M15 1.907S19.179-.01 22.245 0C25.312.011 29 1.907 29 1.907V5s-2.43-2.38-6.755-2.41C17.921 2.56 15.22 5 15.22 5L15 1.907z" fill="#C27200" stroke="#262626" stroke-width=".1"/><path d="M7.84 49.481v-.383h-.708s.401-3.122 2.332-2.983c0 0-.108-2.115-3.057-2.115-2.948 0-3.023 2.115-3.023 2.115 1.953.733 2.859 2.983 2.761 2.983h-.64v.383H4.79l-.955-.65L0 50.14l3.836 1.46.955-.803h.714v.69L6.65 53l1.19-1.514v-.69H40V49.48H7.84z" fill="#AFBAC0" stroke="#262626" stroke-width=".1"/><rect fill="#C27200" height="8" rx="2" stroke="#262626" stroke-width=".1" width="24" x="10" y="46"/><path d="M18.536 44.609c.105-.431 0-1.587 0-1.587s2.328.478 3.464.475c1.224-.004 3.614-.497 3.614-.497s-.063.87 0 1.298c.065.436.386 1.294.386 1.294s-1.339.736-1.863 1.21c-.733.662-1.91 2.198-1.91 2.198s-1.175-1.546-1.904-2.198c-.68-.608-2.323-1.583-2.323-1.583s.463-.31.536-.61z" fill="#C27200" stroke="#262626" stroke-width=".1"/></g><path d="M88.357 100.72c0 .155-.08.28-.179.28-.098 0-.178-.125-.178-.28v-3.44c0-.155.08-.28.178-.28.1 0 .18.125.18.28v3.44z" fill="#84848A"/><path d="M93 101c-.14-.591-.508-1.024-.957-.999l-.015.001c-.717.047-.768.497-1.028.886l2 .112z" fill="#A3A5A8"/><path d="M86 100l-.026-.355h-.09v.047l-.256-.023-.013.083h-.064l-.019-.107-.083.006v.041h-.097l-.006-.083h-.083v-.065l-.102-.006-.02-.224h-.051v-.308L85.02 99l.018.657-.038.006v.07h.045l-.02.22L86 100zm-1.006 0l.006-.43-.074.019h-.05l-.04-.037-.006.028-.187.009-.023-.093-.113.018-.006.066-.141.009-.023-.084h-.04v-.468l-.062.01-.028.56-.057.01v-.075l-.074-.01-.01.14-.086-.018.006-.13h-.08l-.01.149-.482.018.022-.672-.079-.019.006.673s-.312-.168-.363-.253l.187.364c0 .001.623.197 1.807.216z" fill="#2F2311"/><path d="M90.01 100.483h-.68l-3.48-.048s-1.517-.04-2.261-.12A11.8 11.8 0 0182 100c.007.25.166.379.296.508a.32.32 0 00.09.053c.28.123 1.044.277 1.29.325.28.057 1.285.121 1.964.113.359-.004 2.461-.015 4.36-.024v.012c.582.048 5-.049 5-.049v-.136c.929-.065 1.869-.141 1.869-.141a.538.538 0 00.034-.078c.034-.093.074-.23.09-.287l.007-.024-2 .033v-.137c-1.618.024-4.982-.168-4.982-.168l-.009.483z" fill="#FFE600"/><path d="M96.983 100.026a.652.652 0 01-.035.093s-3.462.326-3.735.268v.086s-7.05.039-7.744.048c-.694.01-1.72-.067-2.007-.134-.251-.058-1.032-.24-1.318-.387l-.144.023s.31.324.522.486c.066.05.122.084.157.089.147.02.502.21.68.21.176 0 2.332.192 2.332.192s3.425-.038 4.016-.02c.59.02 4.842-.038 4.842-.038s-.354.077.06 0c.413-.076 1.756-.21 1.948-.268.06-.018.127-.09.19-.18.136-.193.253-.47.253-.47a.337.337 0 01-.017.002" fill="#034EA2"/><path d="M87.555 96.432c-.16.016-.276-.143-.424.064a.209.209 0 00-.012.012c-.102.104-.155.249-.092.357.037.065.212.123.29.132a.33.33 0 00.37-.283c.091.102.356.105.49.112.233.011.298-.026.335-.244.136.172.245.185.48.15.267-.042.58-.07.775-.248a.38.38 0 00.313.158c.115.001.265-.017.372-.052.088-.03.186-.14.276-.154.07.091.206.056.298.072.171.093.357.15.632.02.072-.034.33.05.42.012.063-.026.075-.081.128-.11.112.078.295-.002.415-.03.096.005.229-.009.263-.112.168-.09.119-.164.067-.207-.266-.095-.451-.095-.7.064-.082-.019-.122-.017-.181.077-.107-.144-.295-.185-.49-.082-.163-.082-.248-.021-.38-.017-.266-.178-.743-.155-1.072.017-.374-.154-.488-.065-.735.1-.14-.055-.311-.022-.463-.011-.139.01-.21.164-.331.112-.267-.115-.396.06-.598.053-.219-.168-.446.038-.446.038" fill="#FFF"/><path d="M89.077 95.819l.018.024s.02-.049.037-.049c.018 0 .065.037.065.037l.01-.049.083.037-.004-.065s.054.012.053.004c-.002-.008-.006-.055-.006-.055s.065.004.07.008l-.006-.05s.095.019.091.008l-.02-.06s.077.013.109.013c.031 0 .027.016.027.016v-.04l.122-.007-.02-.046.092-.004-.039-.069s.184.1.241.01c0 0-.084.008-.179-.042-.094-.051-.182-.065-.217-.08a.943.943 0 01-.26-.165c.012.002.032-.002.032-.002s-.206-.128-.311-.154c0 0-.134-.046-.196.029 0 0-.03.06-.053.076a.498.498 0 00-.077.08c-.004.007-.016-.017-.076.044 0 0-.014.009-.019.006 0 0-.118-.097-.258-.006l-.01.008s-.056-.042-.1-.042a.471.471 0 01-.062-.053c-.008-.008-.004-.002-.004-.002s-.056-.194-.162-.178c-.105.016-.153.058-.168.065-.016.006-.122.066-.144.074-.022.008-.07.043-.07.043s-.095.069-.117.075c-.022.006-.15.055-.156.055-.006 0 .012.01.016.01 0 0-.1.048-.156.06-.057.013-.231.057-.245.051-.014-.006-.006-.002-.006-.002s.05.043.196.022c.027-.004.045-.002.056-.004.011-.002.014-.002.006.002a1.301 1.301 0 00-.064.049c.004-.002.152-.002.125.008a.318.318 0 00-.049.044l.144.004-.02.032s.132.01.146.007l-.024.044s.068-.004.114-.026l-.022.056s.087-.006.095-.008l-.034.059s.06.014.076.01c.015-.004.008-.004.008-.004l-.026.036h.092l-.01.03.082-.026.021.04s.065-.045.072-.043l.041.048s.042-.057.048-.059l.005-.001s.015.058.033.072c0 0 .03-.036.039-.034.008.002.023.038.023.038l.022-.032.053.032s.011-.048.026-.043c.016.007.08.2.224.214.182.018.253-.147.253-.147l.054-.056.007.053.057-.043.002.026s.07-.05.073-.073l.025.063s.046-.05.05-.048c.008.002.015.034.052.044" fill="#FFF" stroke="#999B9E" stroke-width=".133"/><path d="M89.013 100s.05-.294.236-.35c.187-.057.384-.226.384-.441a.442.442 0 00-.226-.407s.354-.271.354-.666c0-.396-.374-.61-.374-.61s.57-.25.61-.577c.039-.328-.256-.712-.345-.825a.349.349 0 00-.225-.124l.059.136-.118-.057s.058.185.216.34c.117.112.324.35.265.53-.059.18-.58.475-.58.475v.248s.374.26.364.486c-.01.226-.334.486-.334.486l-.02.226s.226.17.216.35c-.01.182-.245.272-.245.272s-.286.146-.246.474" fill="#2F3B30"/><path d="M88.987 100s-.05-.294-.236-.35c-.187-.057-.384-.226-.384-.441s.108-.34.226-.407c0 0-.354-.271-.354-.666 0-.396.374-.61.374-.61s-.57-.25-.61-.577c-.039-.328.256-.712.345-.825.088-.113.226-.124.226-.124l-.06.136.118-.057s-.058.185-.216.34c-.117.112-.324.35-.265.53.059.18.58.475.58.475v.248s-.374.26-.364.486c.01.226.334.486.334.486l.02.226s-.226.17-.216.35c.01.182.245.272.245.272s.286.146.246.474" fill="#2F3B30"/><path d="M96.884 100.164c-.19.057-1.519.19-1.928.266-.409.077-.058 0-.058 0s-4.206.057-4.79.038c-.585-.019-3.974.02-3.974.02s-2.132-.19-2.307-.19c-.176 0-.526-.19-.672-.21A.434.434 0 0183 100l.098.104-.018.071c.09.237.828.743.828.743l2.37.082s10.494-.32 10.494-.39c0-.071.228-.411.228-.411s-.056-.053-.116-.035" fill="#ED1C24"/><g><path d="M96.696 57.42c.187-.114.183-1.01.162-1.566.517.777 1.302 1.186 1.627 1.142.268-.036.241-.889.193-1.46.713.827 1.433.99 1.77.867.262-.094.11-.774-.058-1.313.999.605 1.773.26 1.943.117.157-.13-.255-.924-.563-1.465 1.083.7 2.112.697 2.371.514.22-.156-.262-.95-.705-1.586 1.308.717 2.46.747 2.585.53.102-.177-.386-.916-.824-1.52 3.113 2.098 3.425.883 3.425.883l-.734-1.014c1.48.469 2.616.584 2.728.493.08-.066-.147-.326-.456-.62 2.426.796 3.135.291 3.384.207.222-.076-.33-.535-.812-.893 1.387.468 2.349.72 2.349.72 1.845.067 1.376-.455.539-.956 2.028.63 3.492.87 3.41.626-.104-.312-.927-.907-1.639-1.375 1.517.663 2.553.967 3.226 1.112 1.41.304.767-.212.767-.212l-1.818-.999c.834.31 1.462.484 1.92.582 1.41.304.768-.212.768-.212l-2.532-1.391c1.135.772 4.278 1.337 4.278 1.337s-2.861-1.868-3.59-2.137c-.728-.269-7.37-2.838-7.37-2.838l-.313.078-3.375-.929-5.405-.901-5.291.195-1.75 2.984-3.267 1.317-2.053.32-6.094.465-1.896-.664-1.694-.91-.65-1.566-1.224-2.05-5.317-.209-2.842.186-.163-.309-1.874.776-.248-.09-2.023.977-1.63-.047C60.474 46.466 55 50.15 55 50.15c.077-.026.427-.158.968-.365.224-.027.8-.099 1.489-.223-.003.131.164.288.96.307.349.009.792-.008 1.338-.082-.216.162-.371.31-.42.425-.108.257 1.632.09 3.972-.476-.746.436-1.05.875.659.909 0 0 1.091-.22 2.635-.657-.44.383-.899.836-.685.897.265.077 1.058.59 3.718-.5-.459.411-.93.876-.817.966.115.092 1.28-.037 2.782-.533l-.817 1.1s.268 1.227 3.453-.745c-.459.585-.973 1.305-.877 1.486.115.218 1.238.236 2.548-.4-.447.621-.916 1.37-.708 1.529.253.194 1.281.238 2.388-.419-.327.529-.767 1.304-.615 1.442.21.19 1.393.75 2.844-.749-.052.305-.426 2.597.1 2.687.54.094 2.035-.667 2.731-2.152.01.005-.188.55-.188.55s-.2 1.922.067 2.098c.248.164.84.236 1.563-.956-.022.672-.032 1.457.043 1.556-3.169 2.135-4.413 10.429-4.217 8.99 0 0 8.939-5.008 11.672-7.706l3.459-2.88c.748 1.378 1.386 1.332 1.65 1.171z" fill="#452C25" stroke="#262626" stroke-width=".1"/><path d="M85.01 48.711c-1.353.078-2.688-.824-2.688-.824a2.108 2.108 0 01-1.774-1.85c-.671-.257-1.248-1.986-1.248-1.986-1.04.623-2.34.007-2.34.007s0-.257-1.173 0c-1.174.256-.973-.22-.973-.22s.47-.476-1.61 0c-2.078.476.169-.623.169-.623-.604.183-2.582.33-2.582.33-.726.033-1.463.392-2.265.622-.5.142-1.354.309-1.786.494-1.152.494-3.462 1.557-5.37 2.308-2.507.987-4.495 1.739-4.364 1.707.157-.038 2.723-1.67 5.938-3.132 2.985-1.358 6.411-2.615 8.139-3.108 2.242-.745 4.078-.389 5.12-.01.502.183 3.276-.086 4.516.06 1.241.147 1.37 2.195 1.37 2.195.235.146.319 2.07.319 2.07s-.688.018.117.128c.805.11 2.28 1.282 2.28 1.282.503 0 .56-.018.56-.018s.292-.37.695-.524c.402-.155.77-.31 1.223-.344a9.242 9.242 0 011.544.013c.453.052.987.056 1.624.176.638.12.705.155.906.223.2.07.381.025.381.025.828-.348 2.365-.962 2.718-.891 0 0 .58-.147.892-.39a82.984 82.984 0 001.025-.828s-.493-3.477 3.028-3.136c3.52.34 8.188.794 9.124.94.935.146 4.287 1.107 5.089 1.497.802.39 3.107 1.425 4.133 1.88.416.185 2.002.89 3.176 1.356A11.724 11.724 0 01124 50c-1.104-.468-1.996-1.004-2.87-1.385-.707-.308-1.447-.452-2.022-.708-1.22-.544-2.16-1.04-2.9-1.385-2.727-1.274-2.702-1.326-3.806-1.412-.761-.06.547.931.547.931s-2.495-.973-3.297-1.314c-.802-.341-1.47-.487-2.228-.439a4.563 4.563 0 01-1.783-.243c-.445-.146-2.985-.243-3.431-.292a5.765 5.765 0 01-.802-.146l.178.292-1.248-.195-.356.536s-1.203.243-1.292-.146c-.09-.39-.713 1.752-1.025 2.386-.312.633-1.736.423-2.092.812-.357.39-1.117.65-1.295.748-.179.097-.72.051-1.031.051-.464 0-.069.007-.83.153 0 0-.658-.007-.91-.11-.25-.103-.804-.263-1.083-.342-.38-.11-2.497-.158-2.798-.14-.302.016-.812.173-1.148.31-.335.138-.922.499-.922.585" fill="#DCDDDE" stroke="#262626" stroke-width=".05"/><path d="M93.612 53.186c-.162-.148.065-.296.065-.296s-.42-1.073-.679-1.258c-.259-.185.032-.333.032-.333s-.452-.74-.776-.962c-.323-.223 0-.26 0-.26s-.337-.994-1.125-1.45c0 0-.522-.188-1.055-.347-.533-.16-1.854-.307-3.451-.276-1.683.032-2.396.869-2.396.869l-.108 1.42.243-.173-.356 1.768c-.056.404.302 1.107.322 1.952.006.267.022.547.05.834.077.758.246 1.563.574 2.305.026.058.05.23.081.175.082-.149.267.5.433.733 0 0 .1.882.18.555.03-.127.3.5.467.893.06.143.378 1.114.366.672-.013-.484.28 1.03.28 1.248l.388-.592.194.666.323-.037-.097.63s.905-.778.938-1.074c.032-.296.064-.518.064-.518l.291-.296.453-.74s1.132.925 1.26 1.258c.13.333.26.629.26.629l.29-.296.259.666.162-.333.157.462.117.277c.078.077.259.116.598-.48.485-.851.453-1.517.485-1.666.032-.148.226.26.226.26s.42-.815.356-1.333c-.065-.518.259-.333.259-.333s.064-1.37 0-1.703c-.065-.333.226-.259.226-.259s-.097-1.628-.194-1.813c-.097-.185.226-.222.226-.222s-.226-1.074-.388-1.222h0z" fill="#452C25" stroke="#262626" stroke-width=".1"/><path d="M86.078 50.673s-.112-1.112.206-1.231c0 0 .112-1.02 1.5-.88 0 0 .468-.759 1.217-.36 0 0 .713-.339 1.125-.14.412.2.918.54.956.62 0 0 .6-.12.88.1.282.22.15.94.15.94s.675.505.731.951c.056.447.056.626-.094.746 0 0 .3.24.244.58-.056.34-.337.832-.394.832-.056 0 .038.886-.262 1.185-.3.3-.58.36-.712.4-.131.04-.469.52-.787.58-.319.06-.75-.48-.787-.64-.038-.16-.469-.34-.469-.34s-.974 1.02-1.63.86c-.656-.16-.975-.7-1.03-.8-.057-.1-.244-.839-.244-.839s-.731-.42-.675-.819c.056-.4.356-.879.356-.879l-.281-.866h0z" fill="#DCDDDE" stroke="#979797" stroke-width=".1"/><path d="M81.118 52s-.671-.671 1.19-1c0 0 .562.178.692.301 0 0-.324.315-1.385.398 0 0-.476.082-.497.301h0z" fill="#D9C0B9" stroke="#000" stroke-width=".1"/><path d="M81.606 50s-.947-.17-.474-.455c.474-.285.376-.134.376-.134s.02-.411.405-.411c.384 0 .451.32.451.32s.35-.279.518-.027c.169.252.107.466.107.466L81.606 50z" fill="#CA4638" stroke="#262626" stroke-width=".1"/><path d="M86.1 50.305c-.339.08-1.105.16-1.373.16-.267 0-.677-.22-.962-.28-.285-.059-1.212-.159-1.55.2-.34.359-.553.479-.66.598-.107.12-.537.511-.553.684-.017.173.107.433.321.433.214 0 .663.467.663.565-.001.163.587.338 1.141.335 1-.006 1.492-.524 2.99-.342.817.099 2.318-.558 2.585-.957.267-.399.428-.817.16-1.276-.267-.459-1.068-.411-1.14-.425 0 0-1.284.226-1.622.305h0z" fill="#DBA05F" stroke="#262626" stroke-width=".1"/><path d="M81 52.968s.389.151.651-.203c.216-.29.293-.157.349-.135 0 0 .011-.36-.124-.63 0 0-.273.415-.475.527-.202.113-.339.076-.401.441h0z" fill="#D9C0B9" stroke="#000" stroke-width=".1"/><path d="M84 51.082c0 .079-.224.181-.5.228-.276.047-.5.02-.5-.058 0-.08.224-.182.5-.229.276-.047.5-.02.5.059" fill="#000"/><path d="M92.648 61.753c0 .264-.036.661-.213.892-.177.232-.355.364-.638.364-.284 0-1.029-.033-1.17.198-.142.232-.25.364-.25.364s-.44.43-.37.662c.37-.43.726-.232.726-.232s.425.066.815-.132c.39-.198.603-.231.78-.231.178 0 .32.165.32.165s.106.496.07.793c-.035.298-.106.893.284.893l.313.511s.503-.544.432-.445c0 0 .07-.628-.071-.992-.142-.363-.213-.76-.213-.76s1.206.364 1.312.496c.107.132.39.364.497.33.106-.033.347 0 .531.325.443-.324 0-.622 0-.622s-.354-.694-.886-.926c-.532-.231-.887-.232-1.1-.43-.212-.198-.248-.43-.283-.661-.035-.232.01-2.23.01-2.23L92.63 60s.018 1.488.018 1.753zM86.803 63.076s-.82.557-.912.82c-.092.262-.118.515-.118.515V65s.683-.466.644-.312c0 0 .238.12.616-.65.378-.773.736-1.106 1.004-1.083.269.022.61.251.782.412.173.162.41.282.71.206 0 0 .153-.206.383-.002.198-.091 0-.583 0-.583s-.25-.523-.788-.599c-.537-.076-.91-.207-.782-.413.128-.205.816-1.8.816-1.8L88.246 59l-.365 1.023s.119.604.124.76c.004.154-.725 1.475-.823 1.552-.098.077-2.052.74-2.284.806-.232.065-.719.573-.719.573l-.179.422s.451-.276.556-.136c0 0 .227-.251.43-.157.203.094.533-.079.597-.182.064-.103.08-.09.08-.09l.578-.088.562-.407z" fill="#BD8759" stroke="#000" stroke-width=".1"/></g></g></svg>