<?xml version="1.0" encoding="UTF-8"?>
<svg width="80px" height="80px" viewBox="0 0 80 80" version="1.1" xmlns="http://www.w3.org/2000/svg" xmlns:xlink="http://www.w3.org/1999/xlink">
    <!-- Generator: Sketch 61 (89581) - https://sketch.com -->
    <title>杠杆风险率下调</title>
    <desc>Created with Sketch.</desc>
    <g id="杠杆风险率下调" stroke="none" stroke-width="1" fill="none" fill-rule="evenodd">
        <g id="提升额度">
            <path d="M40,1.98951966e-13 C62.09139,1.98951966e-13 80,17.90861 80,40 C80,62.09139 62.09139,80 40,80 C17.90861,80 1.98951966e-13,62.09139 1.98951966e-13,40 C1.98951966e-13,17.90861 17.90861,1.98951966e-13 40,1.98951966e-13 Z M35.1101506,17.5064905 L34.9743364,17.7060175 L16.0506131,46.7223933 C15.4148047,47.6972995 15.0762766,48.8360866 15.0762766,50 C15.0762766,53.2383969 17.6418515,55.8775718 20.8513384,55.9958615 L21.0762766,56 L51.2526901,56.0008275 C53.4310987,59.0284965 56.9853147,61 61,61 C67.627417,61 73,55.627417 73,49 C73,42.372583 67.627417,37 61,37 C59.9192935,37 58.8719538,37.1428598 57.8758353,37.4107248 L45.0256636,17.7060175 C44.5706358,17.0083082 43.9753159,16.4129884 43.2776067,15.9579606 C40.5697068,14.1919389 36.9652898,14.8937854 35.1101506,17.5064905 Z M39.9806452,44.5014006 C40.8322581,44.5014006 41.5677419,44.7563025 42.1483871,45.2661064 C42.6903226,45.7759104 43,46.4313725 43,47.232493 C43,48.0336134 42.6903226,48.7254902 42.1483871,49.2352941 C41.5290323,49.745098 40.8322581,50 39.9806452,50 C39.1290323,50 38.4322581,49.7086835 37.8903226,49.1988796 C37.2709677,48.6890756 37,48.0336134 37,47.232493 C37,46.4313725 37.2709677,45.7759104 37.8903226,45.2661064 C38.4322581,44.7563025 39.1290323,44.5014006 39.9806452,44.5014006 Z M40,24 C40.045445,24 40.0908814,24.0012528 40.1362574,24.0037571 C41.4452616,24.0759999 42.4601113,25.1538226 42.4726259,26.4463112 L42.4689185,26.6089331 L41.7358183,39.8923525 C41.6849614,40.8138546 40.9229045,41.535014 40,41.535014 C39.128368,41.535014 38.400208,40.8917576 38.2791486,40.0439918 L38.2641817,39.8923525 L37.5310815,26.6089331 C37.5285772,26.5635571 37.5273244,26.5181207 37.5273244,26.4726756 C37.5273244,25.1070546 38.634379,24 40,24 Z" id="形状结合" fill="#CEAE7D"></path>
            <circle id="椭圆形" stroke="#DCB983" stroke-width="3" cx="61" cy="49" r="13.5"></circle>
            <path d="M61.9598209,42.3430509 L62.032228,42.4115055 L66.6030008,47.0476938 C67.139367,47.5917363 67.1311893,48.4831145 66.5848502,49.0372726 C66.062265,49.5673369 65.2355757,49.5978945 64.6952745,49.1234287 L64.6234276,49.055598 L62.3924552,46.7926966 L62.3341298,54.4485856 C62.3283112,55.2123455 61.7075181,55.8284271 60.943736,55.8284271 C60.1872897,55.8284271 59.5740689,55.2152063 59.5740689,54.45876 C59.5740689,54.4553678 59.5740815,54.4519757 59.5741067,54.4485836 L59.6309168,46.8025828 L59.6309168,46.8025828 L57.3584629,49.1075593 C56.8121238,49.6617174 55.9334065,49.6699272 55.3970403,49.1258847 C54.8839944,48.6054962 54.8690935,47.7673963 55.3468985,47.210528 L55.4151071,47.1363908 L60.0733386,42.4115055 C60.5907522,41.8866869 61.415668,41.8638687 61.9598209,42.3430509 Z" id="路径" fill="#CEAE7D" fill-rule="nonzero" transform="translate(61.000000, 48.914214) rotate(-180.000000) translate(-61.000000, -48.914214) "></path>
        </g>
    </g>
</svg>