<svg height="180" width="180" xmlns="http://www.w3.org/2000/svg"><g fill="none" fill-rule="evenodd"><path d="M120 174.878c34.953-12.357 59.994-45.693 59.994-84.878S154.953 17.479 120 5.122v169.756z" fill="#4086CD"/><path d="M60 5.12v169.76c9.383 3.316 19.48 5.12 29.997 5.12 10.52 0 20.619-1.805 30.003-5.122V5.122C110.616 1.805 100.517 0 89.997 0 79.48 0 69.383 1.804 60 5.12z" fill="#FFF"/><path d="M.003 89.287v1.426c.301 38.879 25.255 71.889 60 84.167V5.12C25.258 17.398.304 50.408.003 89.287z" fill="#4086CD"/><path d="M101.197 109.88c.591.49 1.19 1.12 1.749 1.901-.614.058-4.443-1.37-5.573-2.768.51-1.053 0 0 0 0 .15-.31.5-.466.977-.454a2.413 2.413 0 01-.041-.037c.346-1.118 0 0 0 0 .346-1.118 3.263-.84 5.922 1.894-.326.082-1.668-.13-3.034-.536h0zm9.878-15.04c-.152 0-.294-.01-.425-.03-.306-.961 0 0 0 0-.211-.664.766-1.431 2.463-1.608.284-.184.504-.298.617-.318l-.106.284c.643-.02 1.37.041 2.16.214-.213.233-1.492.8-2.81 1.155-1.275 2.236-2.961 3.058-3.528 2.368 0 0 .69.84 0 0 .267-.633.913-1.384 1.629-2.064h0zm-1.82 1.307c-.3.68-.607 1.353-.9 2.023-.815 1.866-2.165 3.331-3.628 4.733h0c.501-1.228.71-3.262.678-4.162.112.871.474 1.394.918 1.368 0 0-.943.055 0 0 .581-1.434.154-4.906-.119-5.331-.66 1.409-.88 2.693-.827 3.648a.495.495 0 00-.023-.086c-1.732 2.346-1.807 4.567-1.108 5.019-.459.431-.924.86-1.383 1.296-.059.057-.121.11-.186.159 1.04-1.766 1.329-6.139 1.089-6.738-.825 1.134-1.364 2.245-1.673 3.231h0a12.784 12.784 0 00-.186-1.628c-.484.441-2.162 4.61-1.913 6.596 1.157.404 0 0 0 0 .202.07.414.043.623-.073h0a1.68 1.68 0 01-.188.108c-1.217.613-2.61.846-3.863 1.447-.52.245-1.028.723-1.535.809-2.198.355-4.136.81-6.085 1.839-.295.16-.626.355-.827.674h0l.343.209c.2-.319.52-.515.827-.675 1.949-1.017 3.886-1.483 6.084-1.838.508-.086 1.016-.552 1.535-.81 1.253-.588 2.647-.821 3.864-1.434.07-.037.39-.233.531-.392.484-.577 1.359-.748 1.902-1.263.76-.73 1.539-1.438 2.28-2.169h0c.635.805 3.26-.025 5.4-2.953-.455-.037-2.817.848-4.382 1.895.883-.979 1.657-2.032 2.196-3.258 1.405-3.237 3.154-6.56 2.918-10.225a17.05 17.05 0 01-.013-.22.686.686 0 00.074-.021s-1.123.406 0 0c.008-.104.01-.213.006-.328.939-.015 2.01-2.238 1.503-5.498h0c.617-.647 1.24-1.76 1.703-3.418-2.117 1.438-3.114 3.003-3.453 3.624a9.513 9.513 0 00-.199-1.005c-.67-2.618-1.492-5.212-2.81-7.533.912-.53.214-3.278-2.688-5.58-.039.394.538 2.195 1.318 3.717l-.049-.031.12.166c.278.529.58 1.017.888 1.39h0c1.355 2.353 2.196 4.996 2.879 7.663.15.583.236 1.176.285 1.776h0c-.37-.338-.935-.665-1.531-.944a1.373 1.373 0 00-.221-.272l-.02.163c-1.026-.454-2.08-.754-2.343-.72.739.962 1.549 1.602 2.268 1.962-.02 2.79 1.02 4.675 1.94 4.888h0v.012c.11 1.7-.207 3.325-.719 4.9h0a6.752 6.752 0 00-.304-1.037c.013-.727-.033-1.294-.115-1.472-.11.158-.213.314-.31.47-.47-.99-1.013-1.85-1.22-1.995-.064 1.372.176 2.51.531 3.311-.892 2.093-.642 3.765.118 4.013h0zm.74-1.75c.129-.322.252-.646.367-.972a.66.66 0 01-.212-.052c-.04.345-.09.691-.155 1.025h0zm-11.428 9.052c.187-.529.35-1.105.48-1.726-.632.24-3.889 3.601-4.418 5.624.952.859 0 0 0 0 .262.236.645.246 1.082.046a3.063 3.063 0 00-.023.07c.945.918 0 0 0 0 .945.918 3.652-1.14 4.745-5.563-.274.088-1.03.707-1.866 1.549h0zm11.715-30.515c.074-.934-.15-2.247-.87-3.678-.255.422-.563 3.756.023 5.096.903.025 0 0 0 0 .367.01.664-.37.792-1.013-.153 1.242-.199 2.772.113 3.622.977.087 0 0 0 0 .977.087 1.646-2.416.311-5.528-.112.162-.257.749-.37 1.501h0zm.954 12.503c.006-.736.012-1.47-.03-2.194-.169.138-.436.195-.766.163.282.615.569 1.327.796 2.031h0zm1.418-2.89c-.441.282-.852.323-1.166.154h0c.108.983.1 1.985.09 2.994.218-1.175.663-2.381 1.076-3.147h0zm-10.797 21.51c-.189.761-.469 1.356-.783 1.743.401-.381.991-.575 1.468-.891-.323-.076-.562-.38-.685-.852h0zm6.26-5.734c.69-1.883-.003-6.306-.376-6.843-1.678 3.903-.843 6.982.375 6.843 0 0-1.218.14 0 0zm-13.489 11.04c1.79.093 5.2 2.36 5.516 2.893-3.806.03-6.06-1.857-5.516-2.893 0 0-.544 1.036 0 0zm17.287-20.302c.228-1.608 2.45-4.54 2.928-4.79-.3 3.432-2.095 5.335-2.928 4.79 0 0 .833.545 0 0zm-2.948 9.662c1.467-1.09 5.577-1.581 6.155-1.397-2.98 2.456-5.941 2.502-6.155 1.397 0 0 .214 1.105 0 0zm2.591-6.225c.765-1.518 3.927-3.597 4.48-3.655-1.464 3.305-3.86 4.52-4.48 3.655zm-.374-11.566c-.025-1.936 2.014-5.77 2.515-6.154.294 4.098-1.444 6.653-2.515 6.154 0 0 1.07.5 0 0zm-.622.353c-.83-1.55-4.255-3.66-4.86-3.712 1.568 3.394 4.177 4.62 4.86 3.712 0 0-.683.908 0 0zm-.4-2.036c-.452-1.54-3.128-4.076-3.65-4.239.783 3.317 2.875 4.904 3.65 4.239 0 0-.775.665 0 0zm-7.462 26.143c1.768-1.314 6.694-1.938 7.375-1.707-3.596 2.982-7.12 3.038-7.375 1.707 0 0 .254 1.331 0 0zm8.016-15.487c-.002-1.932-2.137-5.644-2.665-5.996-.21 4.102 1.597 6.557 2.665 5.996 0 0-1.068.56 0 0zm-10.35 17.07c1.985-.843 6.784-.17 7.372.237-4.108 2.026-7.453 1.16-7.372-.237 0 0-.08 1.398 0 0zm4.156-36.526c.697 3.849 3.006 5.778 3.928 5.055-.43-1.789-3.35-4.826-3.928-5.055z" fill="#406325" stroke="#24420E" stroke-width=".1"/><path d="M77.906 106.174c.148.157.45.342.518.378.22.11.444.208.673.298-.965.138-2.25.676-3.547 1.761.345.115 2.237-.089 3.727-.559-2.053.845-4.377 2.464-4.658 2.938 4.508.036 7.194-2.18 6.608-3.425h0c.36.124.715.259 1.06.421.52.257 1.028.723 1.536.81 2.197.355 4.135.82 6.084 1.838.307.16.626.356.827.674l.343-.208h0c-.202-.319-.532-.515-.827-.674-1.95-1.03-3.887-1.484-6.085-1.84-.508-.085-1.016-.563-1.535-.808-.77-.37-1.594-.6-2.398-.865h0a10.393 10.393 0 01-1.466-.581 1.686 1.686 0 01-.188-.11h0c.21.116.422.144.624.073 0 0-1.158.405 0 0 .248-1.986-1.43-6.154-1.914-6.595-.517 2.908.05 5.157.834 6.121-.498-.473-1.285-.657-1.79-1.145-.755-.718-1.527-1.416-2.26-2.138.726-.252.609-2.007-.83-3.882.1-.973-.1-2.343-.81-3.858-.274.426-.7 3.898-.12 5.331.943.056 0 0 0 0 .18.01.344-.067.485-.221.288.935.691 1.929 1.146 2.503h0c-1.256-1.25-2.386-2.58-3.103-4.22-.292-.67-.599-1.344-.9-2.024h0c.292-.094.508-.398.614-.853.035.867.152 1.697.396 2.252 1.067.053 0 0 0 0 1.067.053 1.624-2.672-.05-5.974-.135.223-.283 1.157-.337 2.258-.102-.637-.328-1.366-.71-2.141.48-.745.892-1.861 1.022-3.268-.251.127-1.036 1.074-1.684 2.12a11.162 11.162 0 00-.13-.192c-.045.094-.078.297-.098.576-.228.4-.424.8-.554 1.165a14.683 14.683 0 01-.368-1.68h0c1.078.24 2.694-2.167 2.495-6.06-.198.132-.62.735-1.072 1.538.263-.816.424-1.843.395-3.024.806-.422 1.704-1.146 2.525-2.216-.454-.058-2.939.744-4.318 1.709a9.83 9.83 0 01.234-1.264c.808-3.154 1.835-6.273 3.673-8.92 1.11-.889 2.322-3.932 2.286-4.421-2.319 1.666-3.007 3.77-2.411 4.34h0c-1.98 2.708-3.053 5.94-3.89 9.21-.1.384-.17.772-.222 1.164h0c-.271-.841-.914-2.352-2.356-3.971.056 2.008.501 3.35 1.05 4.082-.42 2.652.262 4.541 1.093 4.831a3.43 3.43 0 00-.005.517c.024.01.05.017.074.023h0a17.05 17.05 0 01-.013.219c-.013.205-.02.41-.021.614h0c-.524-2.09-3.075-5.432-3.65-5.733.375 4.272 2.57 6.68 3.654 6.123.1 3.272 1.659 6.282 2.935 9.22.539 1.226 1.312 2.28 2.196 3.258-1.565-1.046-3.927-1.932-4.383-1.895 2.14 2.929 4.766 3.76 5.401 2.954h0c.69.68 1.413 1.34 2.122 2.018-1.752-1.024-5.636-1.501-6.202-1.31 3.11 2.58 6.16 2.677 6.485 1.57h0c.527.419 1.277.607 1.732 1.102-2.018-.807-6.733-.143-7.315.26 4.067 2.014 7.384 1.18 7.373-.194zm2.801 1.22c.146.047.291.094.436.143a5.03 5.03 0 00-1.13.244c.27-.118.507-.247.694-.387h0zM68.51 95.159c.109-.005.213-.015.31-.03.346-1.083 0 0 0 0 .208-.652-.6-1.39-2.074-1.703-.826-.685-1.591-1.189-1.84-1.233.139.387.292.748.455 1.084a10.09 10.09 0 00-2.323.243c.247.27 1.766.94 3.296 1.336 1.14 1.461 2.384 1.932 2.855 1.36 0 0-.69.838 0 0-.138-.33-.38-.69-.68-1.057zm.69-.74a24.966 24.966 0 01-.6-1.666h0a.935.935 0 00.377-.129c.039.583.11 1.21.224 1.795h0zm-1.254-4.76a10.851 10.851 0 01-.023-1.693c.265-.061.54-.262.796-.582-.347.773-.64 1.58-.773 2.275h0zm.88-6.382c-.324.073-.61.082-.84.033h0c-.024.454-.03.911-.03 1.37h0c.025.202.045.406.06.608.237-.706.528-1.411.81-2.01h0zm1.1-3.946c-.467.44-.852.885-1.072 1.294.745.99 0 0 0 0 .745.99 3.588-.346 5.296-4.045-.32.027-1.367.585-2.463 1.346.695-.89 1.342-2.172 1.727-3.8-.627.196-3.838 3.238-4.38 5.086.93.799 0 0 0 0 .222.19.533.228.892.119h0zm13.555 27.664c.303.411.615.76.922 1.006 1.237-.564 0 0 0 0 1.237-.564.272-3.978-3.54-6.728-.02.36.43 1.687 1.1 3.1-.704-.736-1.653-1.482-2.855-2.134.038.67 2.268 4.702 4.021 5.777 1.075-.667 0 0 0 0 .296-.184.415-.547.352-1.02h0zm-.96 2.095c-1.79.092-5.2 2.36-5.516 2.893 3.806.03 6.06-1.857 5.516-2.893 0 0 .544 1.036 0 0zM69.744 97.858c-1.26-.934-4.786-1.357-5.283-1.199 2.558 2.108 5.1 2.147 5.283 1.2zm-2.361-6.304c-.728-1.444-3.737-3.422-4.262-3.478 1.392 3.145 3.673 4.3 4.262 3.478 0 0-.59.823 0 0zm.69-12.068c.228-1.923-1.396-5.952-1.853-6.387-.723 4.043.736 6.77 1.853 6.387 0 0-1.117.382 0 0zm1.127-3.788c.67-1.649.19-5.694-.132-6.199-1.615 3.43-.966 6.258.132 6.2 0 0-1.098.058 0 0zm1.267-1.942c.792-1.212 1.05-4.49.88-4.943-1.826 2.466-1.756 4.81-.88 4.943 0 0-.876-.134 0 0zm5.582 30.63c-1.26-1.569-2.022-6.06-1.84-6.693 2.844 3.177 3.035 6.406 1.84 6.692 0 0 1.195-.286 0 0zM71.683 74.31c1.82-.601 4.725-3.923 4.914-4.549-3.934 1.055-5.741 3.641-4.914 4.549 0 0-.827-.908 0 0z" fill="#67923D" stroke="#24420E" stroke-width=".1"/><g stroke-width=".1"><path d="M81.078 76.106l9.628 10.516c.734.806 9.116 9.698 9.872 10.498.263.346 1.004 1.286 1.086 1.416.508.61 1.05 1.407 1.714 2.128.118.162.282.118.432.207.442.288.897.77 1.216 1.17l2.909 3.58c.188.224.233.36.094.478l-1.776 2.164c-.323.295-.69.432-.817.167-.726-1.42-2.59-3.623-3.258-5.33-.4-1.019-.87-2.856-1.244-3.312-.465-.57-1.71-2.046-2.816-3.367-.077-.093-.146-.178-.223-.263-.077-.092-.153-.178-.23-.27-5.628-6.365-12.125-14.083-16.864-19.53.208-.19.077-.077.277-.252h0z" fill="#6C301E" stroke="#351710"/><path d="M70.941 68.186l7.693 7.044c.068.1.15.074.235.011l.756-.577.002-.03a.307.307 0 01.027-.116l-.341-.388c-.041-.06-.026-.082.036-.138.046-.05.093-.092.154-.148.061-.042.103-.003.16.052l.341.394c.183.017.33.18.32.364 4.615 4.99 8.585 9.428 13.18 14.342l5.424 5.747c.192.276 1.043.792 1.605 1.197.199.143.369.278.436.414l.395 1.404c.132.31.56 1.042.58 1.095-.625.577-.593.534-1.023.898-.43-.533-1.6-1.886-2.658-3.145-.083-.1-.09-.108-.2-.255.093-.12.249-.29.372-.403.108-.091.215-.182.314-.259.062-.048.122-.09.169-.132.046-.035-.054-.114-.103-.168-6.35-6.815-13.189-14.298-18.78-20.394a.433.433 0 01-.103.01.398.398 0 01-.16-.045l-.744.778c-.17.155-.309.148-.445.082l-7.642-7.634h0zM80.595 89.37a52.521 52.521 0 00-3.073-1.863c.897-.042 2.891.985 3.701 1.51 6.04 3.917 11.177 9.09 16.567 15.187-.232.23-.405.392-.615.568l-.298.289c-4.794-6.21-11.148-12.195-16.282-15.69z" fill="#B2B6BA" stroke="#485654"/><path d="M98.996 103.519c-.498.13-.94.318-1.326.565-.058.354-.493.75-.905.84-.075-.096-.093-.124-.15-.195a.032.032 0 00-.042-.01c-.036.02-.084.046-.145.086a.386.386 0 00-.418.248c-.096.246.097.57.308.783.234.185.35.271.62.233.274-.057.425-.308.486-.388.939 1.144 1.644 1.76 2.833 2.702.53.004.814-.332.636-.712-.059-.127-.212-.212-.336-.165a.272.272 0 000-.115c.621-.574.886-1.291.23-2.506-.56-1.023-1.188-1.37-1.787-1.366h-.004 0zm1.576 1.15c.11.188.175.35.259.521.374.762.049 1.676-.59 1.957-.03-.002-.02-.006-.053.005.104-.174-.209-.547-.369-.416.076-.193-.168-.512-.368-.43.104-.18-.135-.484-.359-.385.116-.194-.081-.473-.313-.423.07-.207-.106-.445-.341-.405.02-.184-.04-.285-.128-.368.28-.215.592-.546.867-.695.687-.3 1.111.272 1.395.639h0z" fill="#FAB81C" stroke="#6C301E"/><path d="M81.538 104.095a9.087 9.087 0 01-.58-.603c5.742-5.764 11.176-10.62 17.437-14.167.839-.476 2.89-1.382 3.784-1.286a52.47 52.47 0 00-3.177 1.675C93.67 92.896 86.972 98.49 81.82 104.4l-.281-.306z" fill="#B2B6BA" stroke="#000"/><path d="M82.685 104.445a.386.386 0 00-.403-.272 1.892 1.892 0 00-.14-.095.032.032 0 00-.042.007c-.061.068-.08.096-.161.187-.406-.115-.817-.536-.853-.894a4.615 4.615 0 00-1.291-.643h-.003c-.598-.04-1.246.268-1.866 1.256-.727 1.173-.504 1.905.082 2.516a.268.268 0 00-.007.114c-.12-.054-.28.021-.346.145-.2.369.064.721.593.748 1.243-.868 1.983-1.441 2.988-2.526.057.083.193.343.462.416.268.054.39-.025.633-.196.224-.199.435-.512.354-.763 0 0 .081.251 0 0h0zm-2.427-.105c-.233-.054-.422.173-.364.384-.229-.064-.442.203-.338.404-.217-.112-.474.177-.38.362-.195-.094-.458.21-.394.407-.152-.14-.486.213-.393.394-.031-.013-.022-.009-.053-.01-.62-.317-.89-1.25-.472-1.988.094-.165.168-.323.29-.505h0c.304-.349.761-.893 1.43-.554.265.166.556.515.824.746-.093.078-.159.175-.15.36 0 0-.009-.185 0 0h0z" fill="#FAB81C" stroke="#6C301E"/><path d="M98.425 76.654L88.3 86.686c-.77.77-9.578 9.236-10.37 9.999-.279.336-1.068 1.233-1.151 1.359-.537.586-1.12 1.353-1.816 2.038-.124.157-.288.1-.437.187-.458.267-.933.729-1.275 1.11l-3.08 3.429c-.199.216-.251.35-.117.475l1.67 2.246c.31.308.668.467.807.208.794-1.383 2.765-3.493 3.51-5.162.446-.997 1.004-2.807 1.403-3.245.489-.548 1.809-1.962 2.978-3.225l.235-.254.239-.258c5.93-6.081 12.795-13.467 17.793-18.675-.196-.197-.072-.079-.263-.264h0z" fill="#6C301E" stroke="#351710"/><path d="M108.974 69.255l-8.024 6.656c-.077.095-.158.068-.234 0l-.73-.614.003-.027a.363.363 0 00-.021-.118l.358-.368c.045-.056.03-.078-.03-.138-.047-.049-.088-.093-.149-.153-.058-.044-.105-.009-.162.045l-.362.375a.358.358 0 00-.34.346c-4.854 4.756-9.031 8.996-13.861 13.677l-5.695 5.47c-.204.266-1.083.74-1.664 1.12-.206.136-.385.259-.459.393l-.465 1.38c-.147.302-.613 1.016-.634 1.064.598.606.567.562.975.946.459-.513 1.688-1.805 2.805-3.009.09-.097.095-.107.21-.246a3.376 3.376 0 00-.351-.42 8.62 8.62 0 00-.304-.277c-.061-.054-.117-.1-.158-.139-.041-.04.06-.112.107-.163 6.676-6.494 13.866-13.632 19.748-19.446a.354.354 0 00.259-.024l.702.815c.165.166.305.162.438.1l8.038-7.245h0z" fill="#B2B6BA" stroke="#485654"/></g><g stroke-width=".1"><path d="M88.474 69.078l-.952 1.138c-.302 1.33.45 2.333 1.93 3.203 1.2.748 3.419.617 4.12.013l-3.46-3-1.638-1.354h0z" fill="#A50A0A" stroke="#4C0505"/><path d="M95.483 103.315c-.17-.205-.341-.41-.514-.615-2.159 2.868-4.856 5.44-8.229 7.254 3.804-1.084 6.294-3.873 8.743-6.639 0 0-2.45 2.766 0 0zm-3.895 9.066c1.341-2.735 2.96-5.47 4.592-8.204a69.501 69.501 0 00-.54-.67c-1.855 3.094-4.032 6.774-4.052 8.874 0 0 .02-2.1 0 0zm9.441-32.382c-.67-1.379-1.67-2.75-2.985-4.266-2.367-2.583-4.736-5.077-8.054-6.918.006-.012.078-.024.078-.024l.078-.05-.064-.065h.11l-.089-.102h.116l-.082-.083h.124l-.07-.093.101.008-.094-.098.139-.028-.113-.07.122-.024-.102-.07.148-.047-.13-.078.164-.073-.16-.116.17-.058-.184-.075.155-.082-.182-.033.123-.144-.177.01.08-.152-.168.014c-.003-.004.081-.128.081-.128l-.17.03.075-.155-.164.083.047-.18-.159.11.024-.183-.146.126.016-.174-.13.135.012-.184-.126.155-.013-.18-.102.141-.051-.171-.085.171-.043-.182-.08.182-.039-.182-.069.182-.052-.171-.054.171-.04-.15-.06.181-.057-.171-.06.195-.075-.174-.031.208-.09-.17-.01.201-.096-.153-.006.2-.103-.144.008.175-.11-.092.054.189-.132-.078.05.165-.11-.061.04.16-.1-.032.052.12c-.003.005-.084.001-.084.001l.044.093c-.097.264-.104.579-.088.893.003.058.15.118.173.154.07.109.057.168.057.168-.402.655-.761 1.16-.801 1.912.322-.411.656-.914 1.125-.914-.232.39-.342 1.567-.082 1.746l.195-.344c.007.273.045.455.098.59.081-.165.162-.323.243-.442.019.382.067.689.177.84.109-.187.255-.302.409-.398-.054.218-.132.424-.098.686.162-.28.325-.445.487-.638-.094.403-.008.704.105 1.148.101-.527.14-.583.383-.804.026.483-.065.922.036 1.191.22-.425.368-.364.5-.64-.026.402-.106.836-.004 1.194.085-.359.314-.55.49-.678.015.558.143.466-.201.94.146.067.64-.096.91-.212-.13.3-.092.534-.222.746.272-.138.504-.36.732-.59-.106.344-.385.687-.245 1.03.063-.32.321-.585.566-.633-.038.18-.064.552-.321.732.616.064.86-.355 1.17-.686-.04.344-.03.62.391 1.105-.085-.617.06-.49.339-.861.134.545.288 1.125.853 1.527-.234-.576-.277-.872-.145-1.234.073.373.425.824.51 1.179.052-.393.111-.773.243-1.03.164.446.302.907.34 1.421.124-.256.224-.516.294-.783 4.979 5.235 6.09 11.891.634 18.924 1.96-1.333 2.466-3.445 3.555-5.246-1.063 2.358-1.537 5.011-3.41 6.962 1.814-1.575 2.199-3.017 3.29-4.535-1.163 3.174-2.771 6.652-5.001 9.836.396.433.792.873 1.19 1.317.346-.58.692-1.159 1.033-1.739 2.364-3.918 6.222-9.52 4.268-18.062-.249-1.078-.573-2.243-1.088-3.314z" fill="#448127" stroke="#34541F"/></g><path d="M82.522 94.133s-1.554.168-1.989-1.989c-.466-2.306 1.339-2.552 1.339-2.552s2.044-.198 3.317-.23l.565 4.557-3.232.214h0z" fill="#F9F0AA" stroke="#999270" stroke-width=".1"/><path d="M81.753 89.63s1.911-.472 2.149 1.647c.062.554-.238 1.82-1.175 2.162l3.5-.37-.316-3.81-1.18.099s-2.503.087-2.978.272c0 0 .475-.185 0 0h0z" fill="#F9F0AA" stroke="#999270" stroke-width=".1"/><path d="M82.521 94.133c.012 0 13.095-.886 14.435-.831 3.972-2.193-.019-10.805-3.366-15.622.382-1.085-7.533-3.526-11.112-3.306-.45.028-.885.058-1.3.09-1.942.207-1.962 2.715-1.17 4.296.768 1.534 7.648 13.995 2.81 15.313l-.297.06h0z" fill="#F9F0AA" stroke="#999270" stroke-width=".1"/><g fill="#B07E09"><path d="M88.986 83.523a.45.45 0 00.01.098.141.141 0 00.027.055.094.094 0 00.041.029c.017.006.036.01.058.014.008.001.014.009.018.02a.13.13 0 01.002.078c-.004.013-.011.02-.02.022a.401.401 0 01-.049.003h-.106a.412.412 0 00-.095.012l-.053.014-.053.014a.391.391 0 01-.046.01c-.01 0-.017-.005-.021-.018a.126.126 0 01-.003-.08c.004-.012.01-.02.019-.024a.463.463 0 00.058-.028.135.135 0 00.043-.04.177.177 0 00.026-.061.394.394 0 00.007-.1l-.026-.892a.877.877 0 00-.004-.066.133.133 0 00-.009-.038.03.03 0 00-.017-.017.07.07 0 00-.033-.001.33.33 0 00-.072.018c-.01.003-.019-.002-.024-.016a.134.134 0 01-.008-.044c0-.011 0-.023.003-.036a.042.042 0 01.017-.028 2.01 2.01 0 00.116-.08c.037-.029.077-.057.117-.085.008-.004.017-.004.026.001.01.006.014.02.015.044l.036 1.222zM89.305 82.23a.315.315 0 01.053 0c.022 0 .045.002.069.005l.072.003c.023.001.047 0 .07-.003a.039.039 0 00.025-.013.109.109 0 00.018-.029.681.681 0 00.02-.073c.003-.015.01-.023.019-.024.004 0 .01 0 .014.002.005.003.01.008.015.017a.07.07 0 01.006.038l-.006.059a1.347 1.347 0 01-.02.13.397.397 0 01-.018.063.16.16 0 01-.027.046.066.066 0 01-.04.023.466.466 0 01-.113 0 .51.51 0 00-.116-.005 5.03 5.03 0 00.002.347c-.006-.003-.004-.007.003-.013a.236.236 0 01.092-.038.16.16 0 01.103.022c.033.02.062.05.088.09a.53.53 0 01.063.147.829.829 0 01.027.197c.003.089-.002.169-.015.239a.638.638 0 01-.058.18.34.34 0 01-.095.117.257.257 0 01-.125.05.215.215 0 01-.059-.002.138.138 0 01-.059-.024.16.16 0 01-.048-.058.234.234 0 01-.022-.103c0-.03.003-.061.01-.093.011-.037.027-.058.048-.06.007 0 .015 0 .022.005a.058.058 0 01.022.02c.006.01.012.023.016.038a.206.206 0 010 .108.05.05 0 00-.002.008c0 .006.003.012.007.017a.05.05 0 00.019.013.086.086 0 00.027.006c.01 0 .021 0 .033-.002.05-.006.087-.045.107-.117.022-.076.03-.176.027-.299a.652.652 0 00-.047-.254c-.029-.061-.072-.088-.13-.081a.098.098 0 00-.054.023.18.18 0 01-.027.02c-.017.001-.029-.005-.035-.019a.172.172 0 01-.01-.064 14.165 14.165 0 01-.004-.599.1.1 0 01.008-.037c.005-.014.013-.021.025-.023zM90.186 82.524a1.835 1.835 0 00-.006-.128.42.42 0 00-.016-.089.116.116 0 00-.03-.05.075.075 0 00-.049-.018c-.009 0-.015-.005-.02-.018a.14.14 0 010-.078c.002-.013.009-.02.018-.022a.647.647 0 01.095-.001.705.705 0 00.13-.016.788.788 0 01.084-.013c.06-.006.116.009.169.045a.463.463 0 01.136.157.95.95 0 01.094.25c.023.1.036.208.038.326.003.13-.004.245-.022.345a.931.931 0 01-.078.251.445.445 0 01-.12.157.293.293 0 01-.154.063.492.492 0 01-.096 0 .414.414 0 00-.157.012 2.101 2.101 0 01-.074.022c-.01.003-.016-.003-.021-.017a.13.13 0 01-.004-.08c.004-.013.01-.02.02-.024a.182.182 0 00.04-.023.083.083 0 00.026-.031.181.181 0 00.014-.054.639.639 0 00.003-.089l-.02-.877zm.157.706c.002.076.005.134.008.176a.3.3 0 00.018.09c.009.018.02.03.037.034a.193.193 0 00.067.002.123.123 0 00.082-.048.37.37 0 00.063-.126 1.07 1.07 0 00.04-.202 2.338 2.338 0 00-.012-.56.738.738 0 00-.056-.203.269.269 0 00-.096-.117.224.224 0 00-.146-.029c-.01.001-.018.005-.021.012a.12.12 0 00-.004.045l.02.926zM91.424 82.008c.007-.001.014 0 .02.003.01.008.016.028.015.062l-.001.036v.043l.001.037c0 .036.002.07.004.101l.003.09c0 .016-.003.027-.01.033-.006.007-.013.01-.019.011a.026.026 0 01-.017-.006c-.006-.005-.01-.017-.012-.036a2.012 2.012 0 00-.017-.127.216.216 0 00-.02-.066.049.049 0 00-.033-.025.273.273 0 00-.057-.004l-.065.005a.43.43 0 00-.046.006c-.01.002-.017.006-.02.012a.092.092 0 00-.007.036v.084l.007.399a.1.1 0 00.001.023l.003.002a.262.262 0 00.075-.015.074.074 0 00.038-.03.144.144 0 00.015-.056c.003-.023.005-.055.006-.096.001-.015.005-.027.012-.034.006-.007.013-.012.019-.012s.013.003.019.01.01.02.01.035a1.875 1.875 0 01-.002.126 5.446 5.446 0 000 .127 2.136 2.136 0 00.008.187l.003.073c0 .017-.003.029-.01.036-.006.007-.012.011-.018.012-.007 0-.013-.003-.02-.009-.006-.005-.01-.016-.012-.032a1.46 1.46 0 00-.01-.102.132.132 0 00-.016-.054.06.06 0 00-.04-.023.272.272 0 00-.075-.002l-.002.002a.046.046 0 00-.001.017l.005.3c.001.068.004.121.007.158.003.037.01.063.018.08a.057.057 0 00.04.029.298.298 0 00.126-.007.085.085 0 00.03-.014.248.248 0 00.034-.036.163.163 0 00.024-.045.346.346 0 00.015-.068c.003-.027.006-.064.008-.11.001-.016.005-.027.012-.034.007-.007.013-.01.02-.01.007-.001.014.002.022.01.007.007.01.019.01.036l-.007.182a2.499 2.499 0 00-.001.183.061.061 0 01-.017.035.029.029 0 01-.018.006l-.391.031a.701.701 0 00-.08.011l-.07.014c-.01.001-.017-.005-.021-.018a.144.144 0 01-.003-.08c.003-.012.01-.02.018-.023a.137.137 0 00.041-.021.089.089 0 00.026-.034.188.188 0 00.015-.054.574.574 0 00.003-.086l-.015-.877c0-.033-.002-.064-.003-.096a.753.753 0 00-.009-.083.277.277 0 00-.016-.06c-.006-.016-.015-.027-.025-.032a.104.104 0 00-.024-.01.156.156 0 00-.024-.004c-.008 0-.014-.005-.018-.018a.145.145 0 010-.078c.003-.014.009-.021.017-.022a.538.538 0 01.066-.001c.018 0 .04 0 .068-.003l.388-.03z"/><g><path d="M88.74 87.381a1.87 1.87 0 00-.009-.13.405.405 0 00-.017-.09.113.113 0 00-.032-.051.078.078 0 00-.052-.017c-.01.002-.016-.004-.02-.017a.133.133 0 01-.003-.08c.003-.014.01-.022.02-.023a.549.549 0 01.1-.005.79.79 0 00.137-.022.914.914 0 01.09-.017.263.263 0 01.178.04.46.46 0 01.146.155.929.929 0 01.101.254c.026.1.04.21.044.331a1.76 1.76 0 01-.02.354.96.96 0 01-.08.261.476.476 0 01-.127.166.327.327 0 01-.161.07.549.549 0 01-.102.004.455.455 0 00-.13.01l-.036.009a2.278 2.278 0 01-.078.025c-.01.003-.017-.002-.023-.016a.13.13 0 01-.004-.082c.004-.013.01-.022.02-.026a.203.203 0 00.043-.024.09.09 0 00.027-.034.186.186 0 00.014-.056.63.63 0 00.002-.09l-.028-.899zm.172.717c.003.078.006.137.01.18a.296.296 0 00.02.092c.01.018.022.03.04.033.016.004.04.004.07 0a.136.136 0 00.087-.053.389.389 0 00.065-.132c.018-.057.031-.126.04-.208.009-.082.011-.176.008-.28a2.29 2.29 0 00-.026-.294.72.72 0 00-.06-.205.266.266 0 00-.103-.115.24.24 0 00-.155-.024c-.011.001-.018.005-.022.013a.12.12 0 00-.004.046l.03.947zM90.04 86.798c.008 0 .015 0 .021.003.012.007.018.028.018.062l-.001.038.001.044.001.037.005.104.004.092c0 .016-.003.027-.01.034a.036.036 0 01-.02.013c-.005 0-.012-.002-.018-.007-.007-.004-.01-.016-.013-.035a1.978 1.978 0 00-.02-.13.21.21 0 00-.021-.067.05.05 0 00-.035-.024.285.285 0 00-.061 0l-.069.007a.456.456 0 00-.048.008c-.01.003-.018.008-.022.014a.093.093 0 00-.006.038v.085l.012.408c0 .015.001.023.002.024.001.001.002.002.003.001a.29.29 0 00.08-.018.081.081 0 00.04-.033.144.144 0 00.015-.057c.002-.024.004-.057.005-.099 0-.016.005-.028.012-.036.007-.008.013-.012.02-.013.007 0 .014.003.02.01.007.007.01.018.01.035.001.023.002.045.001.067v.062a4.408 4.408 0 000 .13 2.074 2.074 0 00.012.19l.003.076c0 .017-.003.03-.01.037-.006.008-.012.012-.019.013-.007 0-.014-.002-.02-.007-.007-.006-.012-.017-.014-.033a1.448 1.448 0 00-.01-.104.126.126 0 00-.02-.054c-.008-.012-.022-.02-.04-.023a.304.304 0 00-.08.002l-.003.003a.048.048 0 00-.001.017l.009.306c.002.07.005.125.009.162.004.038.01.065.02.081s.024.025.043.028a.322.322 0 00.132-.012.094.094 0 00.033-.017.283.283 0 00.035-.038.176.176 0 00.024-.047.348.348 0 00.015-.07 1.32 1.32 0 00.008-.113c.001-.017.005-.029.012-.036.007-.007.014-.011.021-.012.008 0 .015.002.023.01.008.007.012.019.012.036l-.005.186a2.464 2.464 0 000 .188.064.064 0 01-.018.037.033.033 0 01-.018.007l-.413.05a.797.797 0 00-.085.016 3.186 3.186 0 00-.074.018c-.01.001-.018-.005-.022-.018a.14.14 0 01-.004-.08c.003-.014.01-.022.019-.026a.16.16 0 00.043-.024.099.099 0 00.027-.035.192.192 0 00.015-.057.58.58 0 00.002-.088l-.026-.898a2.79 2.79 0 00-.004-.097.751.751 0 00-.01-.086.268.268 0 00-.017-.06c-.007-.017-.016-.027-.028-.031a.095.095 0 00-.025-.01.191.191 0 00-.025-.003c-.009.001-.015-.004-.02-.017a.139.139 0 01-.001-.08c.003-.014.01-.022.019-.023a.593.593 0 01.07-.005.693.693 0 00.071-.006l.41-.05zM90.867 88.002a.452.452 0 00.01.1.144.144 0 00.028.058.102.102 0 00.044.03.323.323 0 00.061.015c.008.002.015.01.019.022a.126.126 0 01.001.08c-.004.013-.011.02-.021.021a.379.379 0 01-.051.002l-.056-.001h-.057a.435.435 0 00-.1.01l-.057.012-.055.013a.417.417 0 01-.05.008c-.01.001-.017-.005-.022-.018a.129.129 0 01-.002-.082c.004-.012.01-.02.02-.024a.48.48 0 00.061-.028.137.137 0 00.046-.039.172.172 0 00.028-.063.386.386 0 00.008-.101l-.023-.916a.81.81 0 00-.004-.067.136.136 0 00-.008-.04.033.033 0 00-.019-.017.077.077 0 00-.034-.002.772.772 0 00-.077.017c-.011.003-.02-.003-.025-.017a.135.135 0 01-.008-.045c0-.012 0-.024.003-.037a.042.042 0 01.018-.029c.042-.025.083-.052.123-.08.04-.028.082-.055.125-.083.008-.005.018-.004.027.002.01.006.015.02.016.044l.03 1.255zM91.482 87.026a.582.582 0 00-.028-.192c-.017-.042-.044-.062-.08-.058-.033.003-.059.026-.077.068a.446.446 0 00-.026.183.302.302 0 00.094.224 6.622 6.622 0 00.06.06.366.366 0 00.043-.114.704.704 0 00.014-.171zm.045.85a.36.36 0 00-.115-.275 9.536 9.536 0 00-.07-.066.482.482 0 00-.062.136.567.567 0 00-.023.17c.003.108.017.19.042.247.026.056.059.082.1.078.04-.003.073-.032.096-.085a.488.488 0 00.032-.205s.002.083 0 0zm.133-.06a.751.751 0 01-.02.203.534.534 0 01-.061.15.303.303 0 01-.087.093.197.197 0 01-.279-.045.373.373 0 01-.06-.127.733.733 0 01-.026-.19.741.741 0 01.04-.275.311.311 0 01.118-.164.402.402 0 01-.099-.142.563.563 0 01-.046-.224.768.768 0 01.016-.183.526.526 0 01.05-.141.281.281 0 01.077-.092.18.18 0 01.093-.037.15.15 0 01.088.019c.028.016.054.04.076.072.022.033.04.074.054.124a.685.685 0 01.014.288.58.58 0 01-.076.199c-.018.028-.035.045-.05.05a.14.14 0 01.06.047.402.402 0 01.059.09.572.572 0 01.042.123c.01.047.016.1.017.161zM92.115 87.979c.03-.003.053-.02.07-.054a.612.612 0 00.035-.19.063.063 0 01.01-.034c.006-.008.013-.012.02-.012.007 0 .015.003.023.012.008.01.013.024.013.042.001.054 0 .109-.005.165a1.146 1.146 0 01-.021.154.436.436 0 01-.041.117c-.018.032-.04.049-.065.05a.398.398 0 01-.076 0 1.127 1.127 0 01-.076-.013 1.869 1.869 0 00-.069-.012.27.27 0 00-.059-.002.088.088 0 00-.059.02 2.938 2.938 0 01-.048.035c-.017 0-.028-.008-.032-.028a.296.296 0 01-.004-.1 1.608 1.608 0 01.106-.355c.02-.046.04-.087.061-.122l.064-.106.057-.098a.634.634 0 00.073-.223.877.877 0 00.01-.153.733.733 0 00-.035-.24c-.024-.065-.061-.095-.11-.092a.086.086 0 00-.057.029.214.214 0 00-.04.06.32.32 0 00-.028.147c0 .009.002.017.004.025a.05.05 0 00.011.019c.005.005.013.007.022.006.021-.001.037.01.046.032a.254.254 0 01-.002.18c-.01.027-.028.042-.053.043a.062.062 0 01-.055-.023.188.188 0 01-.034-.063.407.407 0 01-.017-.078.727.727 0 01.01-.241.55.55 0 01.049-.143.324.324 0 01.077-.1.188.188 0 01.215-.018c.033.02.06.05.082.088a.472.472 0 01.049.14 1.008 1.008 0 01-.01.425.968.968 0 01-.07.188 1.305 1.305 0 01-.137.219 4.108 4.108 0 00-.047.072.829.829 0 00-.068.13.317.317 0 00-.024.13.04.04 0 01.013-.03.196.196 0 01.114-.017.415.415 0 01.04.01.402.402 0 00.036.007c.01.002.021.003.032.002zM92.691 87.856c0 .043.004.076.01.1a.154.154 0 00.027.06.11.11 0 00.043.032.335.335 0 00.062.018c.008.002.014.01.018.023a.126.126 0 010 .078c-.004.014-.011.02-.021.021h-.051l-.056-.004a5.354 5.354 0 00-.108-.004.437.437 0 00-.05.006l-.056.01-.056.01a.378.378 0 01-.049.007c-.01 0-.017-.006-.022-.02a.127.127 0 01-.001-.081c.004-.013.01-.021.02-.024a.453.453 0 00.061-.024.132.132 0 00.047-.038.168.168 0 00.028-.061.387.387 0 00.01-.101l-.013-.917a.839.839 0 00-.003-.067.135.135 0 00-.009-.04.035.035 0 00-.018-.018.078.078 0 00-.034-.004.315.315 0 00-.077.014c-.011.002-.02-.004-.025-.019a.14.14 0 01-.004-.082.04.04 0 01.019-.028 1.96 1.96 0 00.124-.074 3.77 3.77 0 01.125-.077c.009-.004.018-.003.027.003.01.006.015.021.015.045l.017 1.256z"/></g><g><path d="M85.109 80.44a.24.24 0 00-.023-.076.09.09 0 00-.042-.04.173.173 0 00-.072-.012c-.013.002-.023-.004-.03-.017a.104.104 0 01-.01-.04.12.12 0 01.007-.043c.005-.014.014-.022.028-.024.032-.003.072-.005.118-.005a1.187 1.187 0 00.243-.025l.06-.01a.76.76 0 01.06-.01c.013 0 .023.005.028.018a.109.109 0 01.003.082c-.005.015-.014.024-.026.025a.222.222 0 00-.073.025.092.092 0 00-.037.044.237.237 0 00-.014.077 1.4 1.4 0 00.001.127l.04.82c.001.05.005.09.01.123a.293.293 0 00.019.075.113.113 0 00.032.043.153.153 0 00.099.028.49.49 0 00.058-.003.293.293 0 00.092-.022.158.158 0 00.063-.054.329.329 0 00.044-.1c.012-.043.022-.097.03-.165.001-.016.007-.027.017-.034.01-.007.02-.011.029-.012a.053.053 0 01.032.008c.012.007.017.019.017.037l-.005.208a2.394 2.394 0 00.003.208.056.056 0 01-.025.037.056.056 0 01-.025.008l-.582.06a1.21 1.21 0 00-.12.018 5.912 5.912 0 01-.113.022.031.031 0 01-.032-.016.096.096 0 01-.004-.083c.005-.014.013-.022.024-.026a.616.616 0 00.077-.027.085.085 0 00.04-.031.138.138 0 00.014-.06.988.988 0 000-.114l-.044-.924a1.18 1.18 0 00-.011-.12zM86.12 80.457a1.158 1.158 0 00-.011-.12.225.225 0 00-.022-.074.093.093 0 00-.042-.04.164.164 0 00-.072-.013c-.014.002-.023-.004-.03-.018a.105.105 0 01-.003-.083c.005-.014.014-.021.028-.023.032-.003.07-.004.114-.004a1.211 1.211 0 00.191-.014l.055-.01.06-.01a.765.765 0 01.06-.009c.015-.001.025.005.03.018a.109.109 0 01.008.041.129.129 0 01-.008.042c-.005.014-.013.022-.024.023a.215.215 0 00-.073.025.097.097 0 00-.038.044.215.215 0 00-.014.076c-.002.032-.001.075.001.128l.042.924a.87.87 0 00.01.114.126.126 0 00.022.056c.01.011.024.02.043.025a.393.393 0 00.075.009c.012.001.022.009.028.022.007.013.01.026.011.04a.096.096 0 01-.007.041.034.034 0 01-.03.023.786.786 0 01-.125.003.72.72 0 00-.24.023.856.856 0 01-.118.021c-.014.002-.024-.004-.03-.017a.104.104 0 01-.01-.04c0-.013.002-.027.006-.041.004-.014.012-.023.024-.027a.4.4 0 00.076-.024.09.09 0 00.04-.033.134.134 0 00.015-.06.966.966 0 000-.114l-.043-.924zM86.97 80.669c.001.016.003.026.005.03.002.005.008.006.018.005l.031-.003a.327.327 0 00.092-.02.164.164 0 00.067-.05.232.232 0 00.042-.091.531.531 0 00.011-.149.533.533 0 00-.019-.129.221.221 0 00-.04-.081.134.134 0 00-.064-.042.218.218 0 00-.086-.008l-.055.005c-.007.001-.012.002-.015.004l-.005.01a1.292 1.292 0 000 .073l.019.446zm.021.474c.004.085.008.151.014.197a.312.312 0 00.023.098c.01.02.025.03.043.034a.305.305 0 00.08 0c.069-.006.115-.033.14-.081a.463.463 0 00.032-.225.593.593 0 00-.029-.173.253.253 0 00-.06-.1.17.17 0 00-.085-.043.371.371 0 00-.105-.004l-.03.003c-.017.001-.027.005-.03.011a.191.191 0 00-.002.063l.01.22zm-.24-.705a2.118 2.118 0 00-.007-.097.572.572 0 00-.014-.087.23.23 0 00-.025-.064.069.069 0 00-.039-.031.433.433 0 00-.07-.012c-.012.001-.021-.005-.027-.018a.11.11 0 01-.004-.081c.005-.014.014-.022.027-.023a.86.86 0 01.098-.004.654.654 0 00.101-.005 1.45 1.45 0 00.114-.014l.063-.01a.664.664 0 01.141-.008.368.368 0 01.182.052c.029.017.055.04.077.069.022.028.04.063.055.104.015.04.023.088.025.143a.513.513 0 01-.01.138.402.402 0 01-.104.19.496.496 0 01-.074.06l.002-.01c0-.005-.002-.008-.005-.009.089.027.16.073.21.138a.492.492 0 01.089.29.617.617 0 01-.023.216.378.378 0 01-.08.143.31.31 0 01-.115.08.497.497 0 01-.134.031 1.465 1.465 0 01-.147.008 5.13 5.13 0 00-.157.009 1.415 1.415 0 00-.162.025l-.06.014c-.014.003-.025-.003-.031-.017a.114.114 0 01-.006-.084c.005-.014.012-.022.024-.025a.307.307 0 00.063-.023.102.102 0 00.038-.034.153.153 0 00.02-.057.46.46 0 00.003-.092l-.039-.905zM88.387 79.872c.011 0 .021 0 .03.004.017.007.025.027.024.062a.316.316 0 00-.001.038l.001.045.002.038c.001.037.003.072.006.104l.006.094c.001.016-.004.027-.013.034a.057.057 0 01-.028.012.048.048 0 01-.027-.006c-.009-.005-.015-.017-.018-.036a1.46 1.46 0 00-.027-.13.177.177 0 00-.03-.068.075.075 0 00-.05-.025.543.543 0 00-.085-.001l-.097.008a.82.82 0 00-.068.008c-.015.002-.025.007-.03.014-.006.007-.009.02-.01.037a.978.978 0 00.001.087l.016.412c0 .015.002.023.003.024a.547.547 0 00.116-.017.112.112 0 00.056-.033.117.117 0 00.021-.057 1.04 1.04 0 00.008-.1c.001-.017.007-.029.017-.036a.054.054 0 01.028-.013.04.04 0 01.029.01c.009.007.014.018.014.035.001.024.002.046.001.067v.063a3.75 3.75 0 000 .132 1.475 1.475 0 00.016.193l.004.076c.001.017-.003.029-.013.037a.05.05 0 01-.027.013.047.047 0 01-.03-.008c-.009-.005-.015-.016-.018-.033a1.047 1.047 0 00-.015-.105.108.108 0 00-.027-.055c-.012-.012-.031-.02-.058-.023a.595.595 0 00-.112.002c-.001 0-.002 0-.004.003-.001.001-.002.007-.001.016l.012.31c.003.072.007.126.013.164a.169.169 0 00.028.082c.013.016.033.025.06.028a.632.632 0 00.186-.012.152.152 0 00.046-.016.332.332 0 00.05-.038.163.163 0 00.034-.048.271.271 0 00.022-.071.966.966 0 00.011-.114c.001-.017.007-.029.017-.036a.057.057 0 01.03-.012c.01-.001.02.002.032.01.01.007.016.02.016.037l-.008.188a1.77 1.77 0 000 .19.059.059 0 01-.025.037.056.056 0 01-.025.007l-.582.05a1.605 1.605 0 00-.224.032c-.014.001-.025-.005-.031-.019a.106.106 0 01-.005-.08.038.038 0 01.026-.027.26.26 0 00.06-.023.112.112 0 00.04-.036.156.156 0 00.02-.057.42.42 0 00.004-.09l-.035-.906a1.914 1.914 0 00-.007-.099.562.562 0 00-.013-.086.223.223 0 00-.024-.062.07.07 0 00-.04-.031.353.353 0 00-.07-.012c-.012 0-.021-.005-.027-.018a.104.104 0 01-.009-.039c0-.014.002-.028.006-.042.005-.015.014-.023.027-.024.033-.003.066-.004.098-.004.026 0 .06-.002.102-.006l.575-.049zM88.76 80.264a2.12 2.12 0 00-.006-.097.551.551 0 00-.014-.088.229.229 0 00-.024-.064.07.07 0 00-.038-.032.371.371 0 00-.07-.013c-.014 0-.023-.005-.029-.018a.103.103 0 01-.003-.081c.005-.015.015-.022.029-.023a1.297 1.297 0 01.141-.003 1.706 1.706 0 00.216-.02c.047-.006.088-.01.123-.013a.382.382 0 01.133.014.295.295 0 01.12.068.37.37 0 01.088.13.565.565 0 01.039.201.626.626 0 01-.014.166.42.42 0 01-.05.125.321.321 0 01-.079.088.395.395 0 01-.097.054c.001 0 .002-.002.002-.005v-.003a.473.473 0 01.197.255.998.998 0 01.045.191l.018.095a.156.156 0 00.024.07c.01.01.019.016.027.016.008-.001.017-.007.025-.02a.155.155 0 00.02-.06.06.06 0 01.013-.036.038.038 0 01.025-.013c.012 0 .023.005.034.016a.062.062 0 01.016.047.36.36 0 01-.02.109.274.274 0 01-.046.08.184.184 0 01-.127.068.143.143 0 01-.103-.029.172.172 0 01-.04-.043.204.204 0 01-.028-.062 9.15 9.15 0 01-.062-.272l-.016-.084a.548.548 0 00-.078-.197.126.126 0 00-.116-.052.053.053 0 00-.035.014c-.008.009-.012.025-.012.05l.011.317a.546.546 0 00.015.12.16.16 0 00.031.065c.013.015.03.025.05.03.021.007.045.01.072.01.013 0 .023.006.03.02a.105.105 0 01.002.085c-.006.013-.016.02-.03.022a.965.965 0 01-.143.001 5.012 5.012 0 00-.118 0 .773.773 0 00-.118.018.788.788 0 01-.117.018c-.013 0-.023-.005-.03-.019a.108.108 0 01-.004-.081.036.036 0 01.025-.025.322.322 0 00.07-.024.087.087 0 00.038-.033.157.157 0 00.016-.062.851.851 0 00.002-.107l-.03-.884zm.219.265c.001.03.005.046.012.048a.172.172 0 00.066.005.262.262 0 00.098-.024.138.138 0 00.059-.057.276.276 0 00.03-.1.986.986 0 00-.012-.298.244.244 0 00-.035-.09.12.12 0 00-.06-.043c-.026-.009-.056-.012-.092-.009-.038.003-.06.009-.066.018-.012.014-.017.043-.016.085l.016.465zM90.316 81.04c.001.05.004.09.007.115.004.026.01.045.02.057a.08.08 0 00.042.026.38.38 0 00.078.011c.012.002.021.01.028.023a.097.097 0 01.001.082c-.006.013-.016.02-.03.022a.805.805 0 01-.125-.002.731.731 0 00-.239.015.865.865 0 01-.12.016c-.013.001-.022-.005-.028-.018a.104.104 0 01-.003-.081c.004-.014.012-.023.023-.026a.387.387 0 00.077-.022.087.087 0 00.04-.031.135.135 0 00.017-.06.925.925 0 00.002-.114l-.03-1.048c-.002-.049-.01-.078-.026-.089-.016-.01-.046-.015-.09-.012a.31.31 0 00-.092.017.118.118 0 00-.056.046.265.265 0 00-.034.087 1.325 1.325 0 00-.023.15c-.001.018-.007.03-.017.036a.055.055 0 01-.029.008.043.043 0 01-.026-.012c-.009-.008-.013-.02-.014-.035.003-.06.004-.118.002-.177a1.84 1.84 0 00-.012-.176c0-.031.009-.052.029-.061.02-.01.04-.015.06-.016l.858-.053a.156.156 0 01.06.007c.02.007.03.025.03.055a1.215 1.215 0 00-.003.16 2.023 2.023 0 00.014.198.05.05 0 01-.012.036.052.052 0 01-.028.018c-.01.002-.02 0-.03-.005-.01-.005-.017-.015-.019-.03a.981.981 0 00-.029-.151.236.236 0 00-.04-.084.115.115 0 00-.06-.039.274.274 0 00-.087-.006c-.045.003-.076.01-.093.023s-.024.044-.023.092l.03 1.048zM91.135 80.768c-.01 0-.017.003-.021.007a.077.077 0 00-.012.029l-.065.277a.264.264 0 00-.007.048.07.07 0 00.032.063c.01.007.022.012.036.015a.243.243 0 00.042.006c.015 0 .025.006.031.02a.115.115 0 01.002.083c-.005.015-.015.022-.03.023h-.044l-.047-.005a1.997 1.997 0 00-.093-.005.345.345 0 00-.077.013.381.381 0 01-.086.013c-.014 0-.024-.006-.03-.02a.118.118 0 01-.01-.045.09.09 0 01.007-.037.036.036 0 01.026-.024l.023-.005a.206.206 0 00.039-.02.123.123 0 00.032-.032.247.247 0 00.028-.056c.009-.023.02-.062.034-.115l.33-1.344c.006-.023.02-.036.042-.037.02 0 .037.009.052.029a226.646 226.646 0 00.296 1.011l.102.335a.643.643 0 00.037.1.188.188 0 00.034.05c.01.01.022.018.034.021l.04.012c.012.002.02.01.026.023a.117.117 0 01.001.08c-.004.015-.013.022-.026.023a.576.576 0 01-.102-.005.453.453 0 00-.104-.004.818.818 0 00-.125.015.772.772 0 01-.116.014c-.014 0-.024-.006-.031-.02a.104.104 0 01-.003-.083.038.038 0 01.027-.023.192.192 0 00.075-.03c.01-.008.015-.027.015-.058a.614.614 0 00-.014-.089 3.454 3.454 0 00-.066-.236c-.004-.015-.01-.023-.015-.027a.082.082 0 00-.035-.003l-.284.013zm.274-.152c.01 0 .016 0 .018-.002.002-.002.001-.005-.002-.009l-.154-.553c0 .002.002.003.004.003s.003-.002.004-.005l-.136.561c-.004.011-.005.017-.004.017h.011l.26-.012zM92.16 80.068c0-.05-.002-.095-.007-.133a.32.32 0 00-.022-.092.123.123 0 00-.042-.054.144.144 0 00-.073-.022c-.013 0-.023-.006-.029-.02a.102.102 0 010-.08c.005-.014.014-.021.028-.022a1.22 1.22 0 01.142.005h.058c.047-.002.092-.005.134-.009a1.79 1.79 0 01.127-.008.502.502 0 01.25.058c.077.04.144.097.2.17a.854.854 0 01.134.266c.033.104.05.217.051.34.002.134-.012.252-.04.355a.757.757 0 01-.121.255.514.514 0 01-.413.21c-.05 0-.097-.001-.143-.006a.912.912 0 00-.285.01 6.688 6.688 0 01-.06.01c-.013.002-.024-.004-.031-.019a.097.097 0 01-.003-.083.04.04 0 01.029-.024.316.316 0 00.061-.02.098.098 0 00.039-.032.142.142 0 00.021-.055.451.451 0 00.007-.091l-.011-.909zm.22.74c0 .08.004.14.008.183a.235.235 0 00.025.095c.012.02.03.032.054.037a.412.412 0 00.1.007.207.207 0 00.124-.045.348.348 0 00.096-.126.797.797 0 00.063-.207c.014-.082.021-.176.02-.282a1.701 1.701 0 00-.027-.299.61.61 0 00-.078-.212.343.343 0 00-.141-.127.464.464 0 00-.217-.04c-.016.001-.026.005-.031.012-.006.006-.008.022-.008.046l.012.959z"/></g><g><path d="M85.142 85.036a.223.223 0 00.027.1.22.22 0 00.056.064.381.381 0 00.077.045l.083.037c.05.023.098.048.145.073.046.025.09.056.13.094a.48.48 0 01.147.338.47.47 0 01-.028.207.415.415 0 01-.238.235.59.59 0 01-.159.037.417.417 0 01-.241-.055.174.174 0 01-.014-.005.03.03 0 00-.015-.003c-.005 0-.01.004-.016.01a.095.095 0 00-.016.04.052.052 0 01-.022.03.053.053 0 01-.03.008.043.043 0 01-.028-.012.045.045 0 01-.014-.032c.002-.033.003-.069.003-.106a1.338 1.338 0 00-.012-.223 1.783 1.783 0 00-.017-.118.052.052 0 01.01-.04.05.05 0 01.031-.021.054.054 0 01.034.005.037.037 0 01.021.027.691.691 0 00.05.16.407.407 0 00.074.113c.03.03.061.053.096.068a.243.243 0 00.268-.058.215.215 0 00.045-.076.26.26 0 00.011-.101.295.295 0 00-.034-.127.346.346 0 00-.071-.09.443.443 0 00-.09-.063 2.754 2.754 0 00-.1-.05 15.29 15.29 0 01-.122-.057.477.477 0 01-.117-.079.398.398 0 01-.087-.118.473.473 0 01-.042-.18.435.435 0 01.026-.192.358.358 0 01.09-.132.408.408 0 01.134-.08.61.61 0 01.245-.037.46.46 0 01.083.02l.037.01c.01.002.018.003.026.002.006 0 .01-.004.012-.01a.04.04 0 01.022-.025.06.06 0 01.029-.007.07.07 0 01.027.01c.01.004.015.015.014.032a.45.45 0 00-.007.076 1.35 1.35 0 00.014.185c.006.029.011.066.017.11 0 .013-.003.024-.012.031a.064.064 0 01-.028.015.052.052 0 01-.031-.004.033.033 0 01-.022-.024 1.11 1.11 0 00-.047-.155.245.245 0 00-.056-.087.151.151 0 00-.074-.037.36.36 0 00-.104-.003.236.236 0 00-.078.021.192.192 0 00-.101.113.223.223 0 00-.01.09zM86.755 84.577a.087.087 0 01.033.003c.02.005.029.025.028.058a2.477 2.477 0 00.001.077l.002.036c.002.034.005.067.009.097.003.031.006.06.007.088.001.015-.004.026-.015.033a.07.07 0 01-.031.011c-.01.001-.02 0-.03-.005-.01-.004-.017-.015-.02-.033a1.193 1.193 0 00-.032-.123.153.153 0 00-.035-.063.09.09 0 00-.055-.022.763.763 0 00-.096 0l-.107.01a1.19 1.19 0 00-.077.008c-.016.003-.028.008-.033.014-.006.007-.01.019-.01.036a.732.732 0 00.001.08l.022.387c0 .014.002.021.003.022a.733.733 0 00.13-.018.133.133 0 00.062-.032.1.1 0 00.024-.054.767.767 0 00.007-.094.045.045 0 01.018-.034.066.066 0 01.032-.013.05.05 0 01.032.009c.01.006.016.017.017.033l.002.063-.001.059a1.597 1.597 0 00.013.241 1.879 1.879 0 01.014.134c.001.016-.003.028-.014.035a.061.061 0 01-.03.013.061.061 0 01-.033-.007c-.01-.005-.018-.015-.021-.03a.834.834 0 00-.018-.099.096.096 0 00-.03-.05.12.12 0 00-.066-.021.782.782 0 00-.129.006c-.002.002-.002.007-.002.016l.017.29c.004.067.009.118.016.153.006.036.017.061.032.076s.038.024.068.026a.828.828 0 00.26-.03.38.38 0 00.054-.037.157.157 0 00.038-.046.228.228 0 00.023-.067.746.746 0 00.012-.107c.001-.016.008-.027.019-.034a.072.072 0 01.032-.012.065.065 0 01.037.009c.012.006.018.018.018.034l-.006.177c-.002.054-.001.107.003.162l-.001.016a.044.044 0 01-.01.02.062.062 0 01-.018.015.072.072 0 01-.028.008l-.651.055c-.045.004-.09.01-.133.016a8.52 8.52 0 00-.117.02c-.016 0-.028-.005-.035-.018a.087.087 0 01-.007-.076c.005-.012.015-.02.03-.025a.318.318 0 00.067-.023.12.12 0 00.043-.034.13.13 0 00.023-.054.344.344 0 00.003-.083l-.048-.85a1.627 1.627 0 00-.008-.092.439.439 0 00-.016-.081.19.19 0 00-.028-.058.075.075 0 00-.043-.028.39.39 0 00-.079-.01.03.03 0 01-.03-.017.085.085 0 01-.011-.036c-.001-.013.001-.026.007-.04a.033.033 0 01.03-.022c.036-.003.073-.005.109-.006.029 0 .067-.003.113-.007l.643-.055zM87.451 85.727a.455.455 0 00.017.113c.009.026.02.046.036.059a.132.132 0 00.06.028.42.42 0 00.086.007c.016 0 .027.005.034.018.007.013.01.026.011.04a.08.08 0 01-.008.04c-.007.012-.018.02-.034.02a1.368 1.368 0 01-.168.006 1.074 1.074 0 00-.265.02c-.044.01-.087.016-.13.02-.015 0-.026-.005-.032-.017a.085.085 0 01-.007-.076.038.038 0 01.028-.025.409.409 0 00.078-.023.092.092 0 00.042-.033.132.132 0 00.017-.058.666.666 0 00.001-.1l-.043-.824a2.077 2.077 0 00-.007-.094.457.457 0 00-.016-.085.19.19 0 00-.027-.06.067.067 0 00-.043-.027 1.293 1.293 0 00-.08-.011.031.031 0 01-.032-.017.08.08 0 01-.003-.076.035.035 0 01.03-.022.849.849 0 01.11-.002c.032.002.076 0 .13-.004.06-.006.114-.013.163-.02.048-.008.093-.013.134-.016a.565.565 0 01.147.007.316.316 0 01.23.177c.025.05.04.112.044.186a.501.501 0 01-.03.219.387.387 0 01-.108.149.488.488 0 01-.164.09 1.036 1.036 0 01-.218.047.066.066 0 000 .021l.017.323zm-.025-.479v.005l.018-.001a.535.535 0 00.14-.027.191.191 0 00.085-.057.215.215 0 00.041-.097.642.642 0 00.007-.148c-.006-.11-.025-.186-.06-.227-.033-.04-.089-.058-.167-.052-.042.004-.068.01-.078.022-.01.012-.015.037-.012.076l.026.506zM88.729 85.648a.926.926 0 00.01.108.1.1 0 00.022.052c.01.011.026.019.047.024.021.005.05.008.088.009a.04.04 0 01.031.021.082.082 0 01.012.038.078.078 0 01-.009.038.037.037 0 01-.032.022c-.05.003-.096.004-.14.001a.988.988 0 00-.267.02 1.17 1.17 0 01-.134.018c-.015.001-.026-.004-.033-.016a.088.088 0 01-.004-.076.038.038 0 01.026-.025.505.505 0 00.085-.022.097.097 0 00.044-.03.113.113 0 00.018-.057.712.712 0 00.001-.107l-.047-.982c-.003-.045-.013-.073-.03-.083-.018-.01-.052-.013-.1-.009a.4.4 0 00-.104.019.133.133 0 00-.062.043.229.229 0 00-.037.084 1.054 1.054 0 00-.023.14c-.001.017-.007.029-.019.034a.07.07 0 01-.032.009.051.051 0 01-.03-.011c-.009-.007-.014-.018-.015-.033.002-.055.002-.11 0-.166a1.448 1.448 0 00-.016-.164c-.001-.03.01-.05.031-.058a.205.205 0 01.066-.017l.96-.07a.208.208 0 01.068.006c.021.005.033.022.034.05a.857.857 0 00-.002.15 1.605 1.605 0 00.018.186.042.042 0 01-.013.034.06.06 0 01-.03.017.059.059 0 01-.034-.004c-.012-.004-.02-.014-.022-.028a.782.782 0 00-.034-.14.21.21 0 00-.047-.078.134.134 0 00-.068-.035.36.36 0 00-.096-.004.232.232 0 00-.104.024c-.019.013-.027.042-.024.087l.047.981zM89.403 84.731a.908.908 0 00-.011-.112.19.19 0 00-.024-.07.1.1 0 00-.047-.038.217.217 0 00-.08-.013.032.032 0 01-.032-.018.082.082 0 01-.003-.078.035.035 0 01.03-.02 1.55 1.55 0 01.129-.003 1.636 1.636 0 00.275-.018l.066-.01a1.04 1.04 0 01.069-.006c.016-.001.027.005.032.017a.084.084 0 01.009.039.1.1 0 01-.009.039c-.006.013-.015.02-.028.021a.269.269 0 00-.08.023.098.098 0 00-.044.04.173.173 0 00-.017.071c-.002.03-.002.07 0 .12l.04.867a.677.677 0 00.01.107.11.11 0 00.024.053c.01.01.026.019.048.024a.5.5 0 00.083.01.041.041 0 01.032.02.081.081 0 01.012.038.078.078 0 01-.01.039.038.038 0 01-.033.02c-.05.004-.096.005-.14.002a.965.965 0 00-.267.018c-.048.009-.093.015-.133.017-.015.002-.026-.004-.033-.016a.084.084 0 01-.004-.076.038.038 0 01.027-.025.52.52 0 00.085-.022.096.096 0 00.044-.03.109.109 0 00.018-.055.772.772 0 000-.108l-.038-.867zM90.803 84.286c.012-.001.024 0 .033.003.02.006.028.026.027.059a.262.262 0 00-.002.035l.002.042.002.036c0 .034.003.067.006.098l.007.087c0 .015-.005.026-.016.033a.068.068 0 01-.031.01.061.061 0 01-.03-.005c-.01-.005-.017-.016-.02-.034a1.192 1.192 0 00-.03-.123.153.153 0 00-.033-.064.09.09 0 00-.056-.023.752.752 0 00-.095-.002l-.108.007-.076.006c-.017.003-.028.007-.034.013-.006.007-.01.018-.011.036a.785.785 0 000 .08l.017.387c0 .014.001.022.003.023a.711.711 0 00.13-.015.13.13 0 00.062-.03.102.102 0 00.025-.054.81.81 0 00.008-.094.045.045 0 01.02-.034.066.066 0 01.032-.012c.01 0 .02.003.031.01.01.007.016.018.017.033v.064l-.001.058a4.279 4.279 0 000 .124 1.24 1.24 0 00.017.181l.004.071c0 .016-.004.028-.014.035a.062.062 0 01-.032.012.062.062 0 01-.032-.007c-.01-.005-.017-.016-.02-.031a.845.845 0 00-.017-.099.097.097 0 00-.03-.052.121.121 0 00-.065-.022.778.778 0 00-.129.003c-.002.002-.002.007-.002.016l.012.29c.003.068.007.119.013.155a.146.146 0 00.032.076c.015.015.037.025.068.028a.835.835 0 00.259-.025.38.38 0 00.055-.035.158.158 0 00.04-.045.226.226 0 00.023-.066.744.744 0 00.014-.107c.001-.016.008-.027.019-.034a.072.072 0 01.033-.011c.012 0 .024.002.036.01.012.006.018.018.018.034l-.01.177c-.002.053-.002.107.002.162 0 .004 0 .01-.002.016a.042.042 0 01-.01.019.06.06 0 01-.018.015.073.073 0 01-.029.007l-.652.041a1.95 1.95 0 00-.132.013 7.58 7.58 0 00-.118.016c-.016 0-.027-.005-.035-.018a.086.086 0 01-.005-.076c.005-.012.015-.02.03-.024a.32.32 0 00.067-.022.116.116 0 00.044-.033.131.131 0 00.023-.053.33.33 0 00.005-.084l-.035-.85a1.718 1.718 0 00-.007-.093.445.445 0 00-.015-.081.187.187 0 00-.026-.058.076.076 0 00-.044-.03.456.456 0 00-.079-.012c-.013 0-.023-.005-.03-.017a.086.086 0 01-.002-.076.032.032 0 01.03-.022 1.72 1.72 0 01.11-.003c.028 0 .066-.001.113-.004l.644-.041zM91.199 84.554a.499.499 0 00-.01-.097.103.103 0 00-.024-.048.085.085 0 00-.044-.022.46.46 0 00-.071-.007.034.034 0 01-.033-.018.08.08 0 01-.012-.04c0-.013.003-.026.01-.039a.036.036 0 01.031-.02l.043-.002.075-.003c.032 0 .063-.002.092-.003h.083a.56.56 0 01.07.006c.02.004.032.013.036.028l.4 1.03c-.002-.004-.005-.005-.01-.005-.004 0-.007.002-.009.007l.32-1.072c.003-.015.021-.026.055-.032a6.131 6.131 0 01.326-.035c.015 0 .026.005.032.018a.104.104 0 01.01.037.082.082 0 01-.008.037.04.04 0 01-.027.024c-.04.011-.07.02-.09.028a.074.074 0 00-.04.036.196.196 0 00-.014.078c-.001.035 0 .089.002.161l.03.817a.681.681 0 00.01.107.11.11 0 00.023.053c.01.01.026.02.048.024.02.005.049.01.084.011a.04.04 0 01.03.021.078.078 0 01.002.077c-.006.013-.017.02-.033.02a1.074 1.074 0 01-.14 0 .997.997 0 00-.267.014 1.135 1.135 0 01-.134.016.033.033 0 01-.032-.017.08.08 0 01-.011-.038c0-.012.002-.025.007-.038a.039.039 0 01.027-.024.498.498 0 00.086-.02.096.096 0 00.044-.03.113.113 0 00.019-.056.729.729 0 00.002-.107l-.03-.821c0 .004.001.007.003.007h.003l-.232.765a2.982 2.982 0 00-.047.17l-.044.189a.032.032 0 01-.018.023.067.067 0 01-.054.003.03.03 0 01-.019-.021l-.436-1.092.006-.002c.004-.001.005-.003.005-.005l.03.823c.002.051.006.09.014.116a.13.13 0 00.029.056.09.09 0 00.045.023.73.73 0 00.069.01c.013.002.022.01.028.021a.097.097 0 01.008.036.101.101 0 01-.006.038c-.005.013-.015.02-.03.021a.5.5 0 01-.091-.004.747.747 0 00-.228.012.551.551 0 01-.091.014.03.03 0 01-.031-.016.079.079 0 01-.006-.075.039.039 0 01.027-.024.748.748 0 00.076-.018.084.084 0 00.042-.027.127.127 0 00.02-.06.732.732 0 00.003-.116l-.033-.923zM93.124 84.79c0 .016.001.026.004.03.002.003.009.005.02.005l.034-.002a.436.436 0 00.103-.016.183.183 0 00.077-.044.2.2 0 00.049-.084.416.416 0 00.014-.14.43.43 0 00-.018-.12.204.204 0 00-.044-.079.158.158 0 00-.07-.041.29.29 0 00-.096-.01l-.062.002a.04.04 0 00-.016.003c-.003.002-.005.005-.006.01a1.445 1.445 0 00-.002.068l.013.418zm.013.446c.002.08.006.142.011.185a.257.257 0 00.025.092c.01.02.026.03.046.035.02.003.05.004.09.003.077-.004.13-.028.158-.072a.37.37 0 00.04-.21.478.478 0 00-.028-.163.238.238 0 00-.065-.095.206.206 0 00-.095-.044.483.483 0 00-.117-.008l-.034.002c-.019 0-.03.004-.033.01-.004.006-.005.025-.004.058l.006.207zm-.256-.67a1.628 1.628 0 00-.005-.09.471.471 0 00-.014-.083.198.198 0 00-.026-.06.076.076 0 00-.043-.031.513.513 0 00-.078-.014.03.03 0 01-.03-.018.085.085 0 01-.003-.076c.006-.013.016-.02.03-.02a1.308 1.308 0 01.16 0 2.207 2.207 0 00.19-.011l.072-.007a1.148 1.148 0 01.158-.003.455.455 0 01.202.056.3.3 0 01.084.067c.025.027.045.06.06.1a.402.402 0 01.025.134.403.403 0 01-.014.13.344.344 0 01-.12.174.532.532 0 01-.084.052c.002 0 .002-.004.002-.009 0-.004-.002-.007-.005-.007.099.028.177.074.233.136a.417.417 0 01.093.276.49.49 0 01-.03.201.34.34 0 01-.222.201.641.641 0 01-.152.025 1.874 1.874 0 01-.077.002H93.2a8.137 8.137 0 00-.175.003 2.183 2.183 0 00-.182.018l-.067.01c-.016.003-.028-.003-.035-.016a.09.09 0 01-.004-.078.033.033 0 01.027-.023.373.373 0 00.07-.02.107.107 0 00.044-.03.127.127 0 00.023-.054.364.364 0 00.006-.085l-.026-.85zM94.024 84.517c0-.031-.002-.061-.004-.092a.456.456 0 00-.014-.082.191.191 0 00-.026-.061.076.076 0 00-.042-.031.55.55 0 00-.079-.015.031.031 0 01-.031-.018.087.087 0 01-.01-.037c0-.012.002-.025.008-.038.006-.014.017-.02.032-.021a1.573 1.573 0 01.159.002c.015 0 .037 0 .064-.002l.098-.005.08-.006c.052-.004.097-.007.136-.008.05-.002.1.004.149.017a.354.354 0 01.23.192.459.459 0 01.04.19.493.493 0 01-.019.154.356.356 0 01-.058.116.325.325 0 01-.09.08.475.475 0 01-.11.048c.002 0 .003-.002.003-.004v-.003a.517.517 0 01.172.156.456.456 0 01.045.089.827.827 0 01.047.18l.018.09c.006.033.015.054.026.065.01.012.02.017.03.017.009 0 .018-.006.028-.017a.13.13 0 00.023-.057c.002-.015.007-.027.016-.033a.045.045 0 01.027-.011c.014 0 .026.005.039.016a.053.053 0 01.016.044.29.29 0 01-.025.101.243.243 0 01-.051.075.2.2 0 01-.068.043.23.23 0 01-.136.01.192.192 0 01-.099-.065.178.178 0 01-.03-.06 5.893 5.893 0 01-.064-.257l-.018-.078a.471.471 0 00-.083-.187.154.154 0 00-.13-.052.067.067 0 00-.038.012c-.01.007-.014.022-.014.045l.007.299a.44.44 0 00.014.113c.008.027.02.047.034.062a.122.122 0 00.056.03c.023.006.05.01.08.01.015 0 .026.007.032.02a.09.09 0 01.011.04.08.08 0 01-.01.039.036.036 0 01-.033.02 1.208 1.208 0 01-.16-.002 6.006 6.006 0 00-.132-.005 1.015 1.015 0 00-.133.014 1.023 1.023 0 01-.13.013.033.033 0 01-.033-.018.088.088 0 01-.003-.077.037.037 0 01.028-.023.404.404 0 00.08-.02.09.09 0 00.042-.03.127.127 0 00.019-.057.657.657 0 00.003-.1l-.019-.83zm.242.255c0 .028.004.043.012.046.016.005.04.007.074.006a.337.337 0 00.11-.02.142.142 0 00.067-.05.227.227 0 00.034-.094.777.777 0 00-.007-.28.211.211 0 00-.039-.084.135.135 0 00-.066-.044.312.312 0 00-.102-.01c-.042.001-.067.006-.075.014-.013.014-.02.04-.019.08l.01.436zM95.976 84.066c.012 0 .023.001.033.005.019.007.027.027.025.06a1.122 1.122 0 00-.002.077v.036c.001.034.002.067.005.098l.004.088c0 .015-.006.025-.017.032a.07.07 0 01-.032.01.063.063 0 01-.029-.008c-.01-.005-.016-.016-.019-.035a1.233 1.233 0 00-.026-.124.156.156 0 00-.032-.065.091.091 0 00-.055-.025.752.752 0 00-.095-.006l-.108.002c-.034 0-.06.002-.077.004-.017.001-.028.005-.034.011-.006.006-.01.018-.012.035a.81.81 0 00-.001.081l.005.387c0 .014.001.021.002.023a.716.716 0 00.13-.01.13.13 0 00.064-.028.099.099 0 00.026-.053.812.812 0 00.011-.093c.003-.015.01-.026.02-.033a.064.064 0 01.033-.01.05.05 0 01.03.01c.011.007.016.019.016.034v.063l-.004.059a2.79 2.79 0 00-.004.124 1.27 1.27 0 00.013.181l.002.072c0 .016-.004.027-.015.034a.06.06 0 01-.032.01.062.062 0 01-.032-.008c-.01-.006-.017-.016-.02-.031a.848.848 0 00-.014-.1.098.098 0 00-.027-.053.124.124 0 00-.065-.025.768.768 0 00-.13-.002c0 .002-.002.007-.002.016l.005.29c0 .068.004.12.009.155a.147.147 0 00.03.078.106.106 0 00.066.03.84.84 0 00.208-.001.194.194 0 00.052-.013.36.36 0 00.056-.033.156.156 0 00.04-.043.222.222 0 00.026-.065.752.752 0 00.016-.107c.002-.015.01-.026.02-.032a.072.072 0 01.034-.01c.012 0 .024.003.036.01.012.008.017.02.016.036l-.013.176a1.432 1.432 0 00-.004.162c0 .004 0 .01-.002.016a.043.043 0 01-.01.019.058.058 0 01-.019.014.072.072 0 01-.029.006l-.652.014a6.109 6.109 0 00-.251.019c-.016 0-.027-.006-.034-.02a.09.09 0 01-.011-.04c0-.011.002-.023.007-.036.005-.012.016-.02.031-.022a.314.314 0 00.068-.019.116.116 0 00.044-.032.129.129 0 00.025-.052.334.334 0 00.007-.083l-.012-.852c0-.031-.002-.062-.004-.092a.448.448 0 00-.012-.082.19.19 0 00-.026-.06.076.076 0 00-.042-.031.506.506 0 00-.078-.016c-.014 0-.024-.005-.03-.017a.088.088 0 010-.077.032.032 0 01.03-.02l.11.001c.028.001.066.002.113 0l.645-.014z"/></g></g><path d="M81.31 75.201c-.935 0-1.175.905-1.162 1.477.034 1.5 1.162 1.572 1.162 1.572l1.505-.084.72-3.088-2.225.123h0z" fill="#F9F0AA" stroke="#999270" stroke-width=".1"/><path d="M93.6 77.68c1.687-.272 1.664-2.556.511-3.47-3.91-.145-9.056-.037-12.773.243.423-.013 1.599.095 1.73 1.653a2.086 2.086 0 01-.773 1.773c-.467.371-.985.371-.985.371.062.024.545.002.908-.022.186-.012.643-.067.77-.084 5.302-.7 10.593-.462 10.593-.462h.02v-.002s0 .001 0 0h0z" fill="#F9F0AA" stroke="#999270" stroke-width=".1"/></g></svg>