<?xml version="1.0" encoding="UTF-8"?>
<svg width="80px" height="80px" viewBox="0 0 80 80" version="1.1" xmlns="http://www.w3.org/2000/svg" xmlns:xlink="http://www.w3.org/1999/xlink">
    <!-- Generator: Sketch 61 (89581) - https://sketch.com -->
    <title>专属行研报告</title>
    <desc>Created with Sketch.</desc>
    <g id="专属行研报告" stroke="none" stroke-width="1" fill="none" fill-rule="evenodd">
        <g id="火币研究院专属行研报告-3">
            <g id="火币研究院专属行研报告">
                <path d="M40,0 C62.09139,0 80,17.90861 80,40 C80,62.09139 62.09139,80 40,80 C17.90861,80 0,62.09139 0,40 C0,17.90861 17.90861,0 40,0 Z M30.8726302,22.5950095 L25.3402425,22.5950095 C23.3590496,22.5950095 21.7142857,24.2397734 21.7142857,26.2209663 L21.7142857,58.0883838 C21.7142857,60.0695767 23.3590496,61.7143406 25.3402425,61.7143406 L56.216947,61.7143406 C58.1981399,61.7143406 59.8429038,60.0695767 59.8429038,58.0883838 L59.8429038,26.2209663 C59.8429038,24.2397734 58.1981399,22.5950095 56.216947,22.5950095 L50.6097972,22.5950095 L50.6097972,26.1462043 C50.6097972,27.3423962 49.6005103,28.3516832 48.4043184,28.3516832 L33.0781091,28.3516832 C31.8819172,28.3516832 30.8726302,27.3423962 30.8726302,26.1462043 L30.8726302,22.5950095 Z M39.8870943,35 L39.8870725,44.6947303 C39.8870725,44.7233142 39.8979824,44.7519199 39.9198021,44.7737178 C39.9416219,44.7955375 39.9702057,44.8064474 39.9987896,44.8064474 L50,44.8064474 C50,50.0014665 45.6369895,54 40.4293804,54 C35.2215094,54 31,49.9296359 31,44.7346386 C31,39.5393576 34.7737901,35 39.8870943,35 Z M43,35 C46.837174,35 50,38.0445126 50,42 L43.0823179,42 C43.0612561,42 43.0401782,41.9916932 43.0241166,41.9750962 C43.0080389,41.9584826 43,41.9367187 43,41.9149549 L43,35 Z M40.7412137,14.8571429 C37.7881149,14.8571429 35.35835,17.1373837 35.134064,20.0531016 L34.872397,20.0531016 C33.9752531,20.0531016 33.2650141,20.7633406 33.2650141,21.6604845 L33.2650141,24.1650114 C33.2650141,25.0621553 33.9752531,25.7723943 34.872397,25.7723943 L46.6100304,25.7723943 C47.5071744,25.7723943 48.2174134,25.0621553 48.2174134,24.1650114 L48.2174134,21.6604845 C48.2174134,20.7633406 47.5071744,20.0531016 46.6100304,20.0531016 L46.3857445,20.0531016 C46.1240775,17.1373837 43.6943126,14.8571429 40.7412137,14.8571429 Z M43.0214546,18.8942907 L43.0214546,22.5950095 L38.4983539,22.5950095 L38.4983539,18.8942907 L43.0214546,18.8942907 Z" fill="#CEAE7D"></path>
                <g id="图表-饼状图" transform="translate(42.000000, 33.000000)"></g>
            </g>
        </g>
    </g>
</svg>