<svg height="182" width="182" xmlns="http://www.w3.org/2000/svg"><g fill="none" fill-rule="evenodd"><path d="M175.873 121c-12.354 34.956-45.69 60-84.876 60-39.185 0-72.521-25.044-84.876-60h169.752zm0-60C163.52 26.044 130.183 1 90.997 1 51.812 1 18.476 26.044 6.121 61h169.752zM1.006 89.992a91.862 91.862 0 000 2.016v-2.016zm0 0" fill="#4086CD"/><path d="M175.88 120.996c3.308-9.36 5.111-19.43 5.12-29.92v-.152c-.009-10.492-1.813-20.564-5.122-29.926H6.122a89.806 89.806 0 00-5.117 28.997v2.01a89.806 89.806 0 005.115 28.991h169.76zm0 0" fill="#FFF"/><path d="M63 79l-5.878 3.09 1.123-6.545-4.756-4.635 6.572-.955L63 64l2.939 5.955 6.572.955-4.756 4.635 1.123 6.545L63 79zm64 0l-5.878 3.09 1.123-6.545-4.756-4.635 6.572-.955L127 64l2.939 5.955 6.572.955-4.756 4.635 1.123 6.545L127 79zm-64 36l-5.878 3.09 1.123-6.545-4.756-4.635 6.572-.955L63 100l2.939 5.955 6.572.955-4.756 4.635 1.123 6.545L63 115zm64 0l-5.878 3.09 1.123-6.545-4.756-4.635 6.572-.955L127 100l2.939 5.955 6.572.955-4.756 4.635 1.123 6.545L127 115zM95 97l-5.878 3.09 1.123-6.545-4.756-4.635 6.572-.955L95 82l2.939 5.955 6.572.955-4.756 4.635 1.123 6.545L95 97zm0 0" fill="#4086CD"/></g></svg>