<?xml version="1.0" encoding="UTF-8"?>
<svg width="80px" height="80px" viewBox="0 0 80 80" version="1.1" xmlns="http://www.w3.org/2000/svg" xmlns:xlink="http://www.w3.org/1999/xlink">
    <!-- Generator: Sketch 61 (89581) - https://sketch.com -->
    <title>借贷额度提升</title>
    <desc>Created with Sketch.</desc>
    <g id="借贷额度提升" stroke="none" stroke-width="1" fill="none" fill-rule="evenodd">
        <g id="提升额度" fill="#CEAE7D">
            <path d="M40,3.25428573e-12 C62.09139,3.25428573e-12 80,17.90861 80,40 C80,62.09139 62.09139,80 40,80 C17.90861,80 3.25428573e-12,62.09139 3.25428573e-12,40 C3.25428573e-12,17.90861 17.90861,3.25428573e-12 40,3.25428573e-12 Z M20.5,49 C19.1192881,49 18,50.1192881 18,51.5 L18,51.5 L18,60.5 C18,61.8807119 19.1192881,63 20.5,63 C21.8807119,63 23,61.8807119 23,60.5 L23,60.5 L23,51.5 C23,50.1192881 21.8807119,49 20.5,49 Z M33.5,44 C32.1192881,44 31,45.1192881 31,46.5 L31,46.5 L31,60.5 C31,61.8807119 32.1192881,63 33.5,63 C34.8807119,63 36,61.8807119 36,60.5 L36,60.5 L36,46.5 C36,45.1192881 34.8807119,44 33.5,44 Z M59.5,41 C58.1192881,41 57,42.1192881 57,43.5 L57,43.5 L57,60.5 C57,61.8807119 58.1192881,63 59.5,63 C60.8807119,63 62,61.8807119 62,60.5 L62,60.5 L62,43.5 C62,42.1192881 60.8807119,41 59.5,41 Z M46.5,49 C45.1192881,49 44,50.1192881 44,51.5 L44,51.5 L44,60.5 C44,61.8807119 45.1192881,63 46.5,63 C47.8807119,63 49,61.8807119 49,60.5 L49,60.5 L49,51.5 C49,50.1192881 47.8807119,49 46.5,49 Z M60.4023774,17.9999974 L48.0584773,18 C46.6104926,18 45.4353167,19.1537242 45.4353167,20.5752773 C45.4353167,21.9968304 46.6104926,23.1505547 48.0584773,23.1505547 L54.081254,23.1505547 L41.2108765,35.822504 L32.3979527,27.177496 C31.9152911,26.703645 31.243762,26.4152139 30.5512476,26.4152139 C29.8587332,26.4152139 29.1872041,26.6830428 28.7045425,27.177496 L16.7712092,38.911252 C15.7429303,39.9207607 15.7429303,41.548336 16.7712092,42.5578447 C17.274856,43.0522979 17.9463852,43.3201268 18.6179143,43.3201268 C19.2894434,43.3201268 19.9609725,43.0729002 20.4646193,42.5578447 L30.5512476,32.637084 L39.3222009,41.3026941 C39.8048624,41.7765452 40.4763916,42.0649762 41.168906,42.0649762 C41.8614203,42.0649762 42.5329495,41.7971474 43.015611,41.3026941 L57.7536788,26.7971474 L57.7536788,32.7099842 C57.7536788,34.1315372 58.9288548,35.2852615 60.3768394,35.2852615 C61.8248241,35.2852615 63.0002219,34.1315372 63.0002219,32.7099842 L63.0002219,20.5958796 C63.0002219,19.1622245 61.8380148,18.0000175 60.4043598,18.0000175 C60.403699,18.0000175 60.4030382,18.0000177 60.4023774,17.9999974 Z" id="形状结合"></path>
        </g>
    </g>
</svg>