<?xml version="1.0" encoding="UTF-8"?>
<svg width="80px" height="80px" viewBox="0 0 80 80" version="1.1" xmlns="http://www.w3.org/2000/svg" xmlns:xlink="http://www.w3.org/1999/xlink">
    <!-- Generator: Sketch 61 (89581) - https://sketch.com -->
    <title>定制节日礼品</title>
    <desc>Created with Sketch.</desc>
    <g id="定制节日礼品" stroke="none" stroke-width="1" fill="none" fill-rule="evenodd">
        <g id="新品内测资格" fill="#CEAE7D">
            <g id="未点亮图标边框">
                <path d="M40,0 C62.09139,0 80,17.90861 80,40 C80,62.09139 62.09139,80 40,80 C17.90861,80 0,62.09139 0,40 C0,17.90861 17.90861,0 40,0 Z M59,37 L43,37 L43,64 L57,64 C58.1045695,64 59,63.1045695 59,62 L59,62 L59,37 Z M39,37 L22,37 L22,62 C22,63.1045695 22.8954305,64 24,64 L24,64 L39,64 L39,37 Z M62,34 L62.1492623,33.9945143 C63.1841222,33.9181651 64,33.0543618 64,32 L64,32 L64,28 L63.9945143,27.8507377 C63.9181651,26.8158778 63.0543618,26 62,26 L62,26 L55.526536,26.0013433 C55.8420677,25.2342848 56,24.4005034 56,23.5004457 C56,21.7015017 55.3690926,20.1673181 54.1099362,18.9005692 C52.8498937,17.6338202 51.3275638,17 49.53763,17 C47.479206,17 45.8647212,17.7452513 44.691517,19.2348625 L44.691517,19.2348625 L41,24.0228348 L37.3075969,19.2348625 C36.1343927,17.7452513 34.5181356,17 32.4614839,17 C30.6724362,17 29.1483341,17.6338202 27.8891777,18.9005692 C26.6291352,20.1682096 26,21.7015017 26,23.5004457 C26,24.4005034 26.1577105,25.2342848 26.4730206,26.0013433 L20,26 C18.8954305,26 18,26.8954305 18,28 L18,28 L18,32 C18,33.1045695 18.8954305,34 20,34 L20,34 L62,34 Z M49.53763,20.7146678 C50.307656,20.7146678 50.9616021,20.9865597 51.4994683,21.5276692 C52.0373346,22.0687787 52.3075969,22.726668 52.3075969,23.5004457 C52.3204421,24.2420678 52.0279703,24.9560402 51.4994683,25.4732222 C51.2792112,25.6948075 51.0398486,25.8710976 50.781199,26.0020926 L50.781199,26.0020926 L44.163,26 L47.5474362,21.6141398 C48.0471999,21.0150861 48.7100071,20.7146678 49.53763,20.7146678 Z M32.46237,20.7146678 C33.2891068,20.7146678 33.951914,21.0150861 34.4525638,21.6141398 L34.4525638,21.6141398 L37.864,26 L31.2194431,26.0025059 C31.013428,25.8987577 30.8202982,25.7679585 30.6455069,25.6123683 L30.5005317,25.4732222 C29.9617793,24.9321127 29.6932892,24.2742234 29.6932892,23.5004457 C29.6932892,22.7275595 29.9617793,22.0687787 30.5005317,21.5276692 C31.039284,20.9856682 31.6932302,20.7146678 32.46237,20.7146678 Z" id="形状结合"></path>
            </g>
        </g>
    </g>
</svg>