<svg height="182" width="182" xmlns="http://www.w3.org/2000/svg"><g fill="none" fill-rule="evenodd"><path d="M176.726 118.486A89.944 89.944 0 00181 91a89.946 89.946 0 00-4.258-27.435l-46.14 27.788 46.124 27.133zm0 0M5.274 63.514A89.944 89.944 0 001 91a89.946 89.946 0 004.258 27.435l46.14-27.788L5.275 63.514zm0 0" fill="#262626"/><path d="M24.979 152.166C41.417 169.9 64.912 181 91 181s49.583-11.1 66.021-28.834L91 114.076l-66.021 38.09zm0-122.332C41.417 12.1 64.912 1 91 1s49.583 11.1 66.021 28.834L91 67.924l-66.021-38.09zm0 0" fill="#57BB63"/><path d="M176.726 118.486a89.922 89.922 0 01-19.705 33.68L51 91l106.021-61.166a89.92 89.92 0 0119.72 33.73L130.6 91.353l46.126 27.133zm4.273-27.042a91.906 91.906 0 000-.888v.888zm0 0" fill="#E5B731"/><path d="M5.274 63.514a89.922 89.922 0 0119.705-33.68L131 91 24.979 152.166a89.92 89.92 0 01-19.72-33.73l46.14-27.789L5.274 63.514zm0 0" fill="#E5B731"/><g><path d="M-27.768 52.195c15.98 33.454 10.117 74.736-17.592 102.445-27.71 27.709-68.991 33.573-102.445 17.592L-27.768 52.195zm-17.539-24.781a90.497 90.497 0 00-.107-.107l.107.107zm-128.04 126.511a91.86 91.86 0 001.422 1.421l-1.421-1.42zm0 0" fill="#CA4638"/><path d="M-190.252 129.784C-206.233 96.331-200.37 55.05-172.66 27.34-144.951-.37-103.67-6.233-70.216 9.748l-120.036 120.036zm17.538 24.781a95.022 95.022 0 00.107.107l-.107-.107zm128.04-126.511a91.858 91.858 0 00-1.421-1.421l1.42 1.421zm0 0" fill="#479951"/></g></g></svg>