<svg height="182" width="182" xmlns="http://www.w3.org/2000/svg"><g transform="translate(1 1)" fill="none" fill-rule="evenodd"><circle cx="90" cy="90" fill="#FFF" r="90" transform="matrix(1 0 0 -1 0 180)"/><path d="M23.849 47.342l15.427 18.385L69.15 40.658 53.724 22.273 23.85 47.342zm3.856 4.596l1.929 2.298L59.51 29.168l-1.929-2.299-29.876 25.07zm5.785 6.894l1.929 2.299 29.876-25.07-1.929-2.297L33.49 58.832zm0 0M39.276 113.273l-15.427 18.385 29.875 25.069 15.427-18.385-29.875-25.069zm-3.857 4.596l-1.929 2.299 29.876 25.068 1.929-2.298-29.876-25.069zm-5.785 6.895l-1.929 2.298 29.876 25.069 1.929-2.299-29.876-25.068zm17.645 6.974l-3.856 4.596 2.298 1.928 3.856-4.596-2.298-1.928zm0 0M123.276 22.273l-15.427 18.385 29.875 25.069 15.427-18.385-29.875-25.069zm-3.857 4.596l-1.929 2.299 29.876 25.068 1.929-2.298-29.876-25.069zm-5.785 6.895l-1.929 2.298 29.876 25.069 1.929-2.299-29.876-25.068zm23.43.08l-3.856 4.596 2.298 1.928 3.857-4.596-2.299-1.929zm-11.57 13.788l-3.857 4.596 2.299 1.929 3.856-4.597-2.298-1.928zm0 0M107.849 138.342l15.427 18.385 29.875-25.069-15.427-18.385-29.875 25.069zm3.856 4.596l1.929 2.298 29.876-25.068-1.929-2.299-29.876 25.07zm5.785 6.894l1.929 2.299 29.876-25.07-1.929-2.297-29.876 25.068zm4.147-23.06l3.857 4.596 2.298-1.928-3.856-4.597-2.299 1.929zm5.786 6.894l3.856 4.596 2.298-1.928-3.856-4.596-2.298 1.928zm5.785 6.894l3.856 4.597 2.299-1.929-3.857-4.596-2.298 1.928zm0 0" fill="#262626"/><path d="M58.997 65.32c11.187-16.78 33.828-21.334 50.57-10.172 16.744 11.162 21.248 33.813 10.062 50.593-11.186 16.78-33.828 21.333-50.57 10.171C52.314 104.75 47.81 82.1 58.996 65.32c-11.186 16.78-6.682 39.431 10.061 50.593 16.743 11.162 39.385 6.608 50.571-10.171 5.593-8.39 3.341-19.716-5.03-25.297-8.372-5.58-19.693-3.304-25.286 5.086S72.4 96.197 64.028 90.616c-8.372-5.581-10.624-16.907-5.03-25.297zm0 0" fill="#CA4638"/><path d="M58.997 65.32c-11.186 16.78-6.682 39.43 10.061 50.592 16.743 11.162 39.385 6.608 50.571-10.171 5.593-8.39 3.341-19.716-5.03-25.297-8.372-5.58-19.693-3.304-25.286 5.086S72.4 96.197 64.028 90.616c-8.372-5.581-10.624-16.907-5.03-25.297zm0 0" fill="#346DA6"/></g></svg>