<?xml version="1.0" encoding="UTF-8"?>
<svg width="80px" height="80px" viewBox="0 0 80 80" version="1.1" xmlns="http://www.w3.org/2000/svg" xmlns:xlink="http://www.w3.org/1999/xlink">
    <!-- Generator: Sketch 61 (89581) - https://sketch.com -->
    <title>快速充提通道</title>
    <desc>Created with Sketch.</desc>
    <g id="快速充提通道" stroke="none" stroke-width="1" fill="none" fill-rule="evenodd">
        <g id="新品内测资格" fill="#CEAE7D">
            <g id="未点亮图标边框">
                <path d="M40,0 C62.09139,0 80,17.90861 80,40 C80,62.09139 62.09139,80 40,80 C17.90861,80 0,62.09139 0,40 C0,17.90861 17.90861,0 40,0 Z M51.2736799,19.0023995 L51.2282333,19.0023995 L34.7537837,19.0253972 L34.6856137,19.0253972 C34.1402532,19.0483948 33.640338,19.3933591 33.4358256,19.8993083 C33.4358256,19.9453033 33.4358256,19.9683011 33.4131022,19.9912988 L23.1194076,44.2997651 C23.0285141,44.483746 22.9830675,44.713722 23.0057906,44.9207021 C23.0285139,45.7256182 23.7102138,46.3465552 24.4828093,46.300557 L35.4127778,46.3005287 L31.5498004,63.2497836 L31.5725238,63.2497836 C31.5498004,63.3647718 31.5043537,63.5027573 31.5043537,63.6177455 C31.5270771,64.4226617 32.2087769,65.0435986 32.9813724,64.9976005 C33.3903932,64.9746029 33.7539679,64.7906218 34.0039255,64.4686553 L56.6137027,37.2394968 C56.6364261,37.2164992 56.6591493,37.1935018 56.6591493,37.1705041 L56.6591493,37.1475064 C56.8863829,36.871535 57,36.5265694 57,36.1586111 C56.9772766,35.3996887 56.341022,34.7787562 55.5911491,34.7787562 L55.4775321,34.7787562 L44.1669368,34.6867657 L52.6143585,21.0261883 C52.705252,20.8192096 52.7506986,20.5892336 52.7506986,20.3822545 C52.7279752,19.5773383 52.0462754,18.9564014 51.2736799,19.0023995 Z" id="形状结合"></path>
            </g>
        </g>
    </g>
</svg>