<svg height="180" width="180" xmlns="http://www.w3.org/2000/svg"><defs><linearGradient id="a" x1="-1.122%" x2="173.942%" y1="49.916%" y2="49.916%"><stop offset="0%" stop-color="#025"/><stop offset="50%" stop-color="#04A"/><stop offset="100%" stop-color="#025"/></linearGradient><linearGradient id="b" x1="-.004%" x2="171.203%" y1="49.955%" y2="49.955%"><stop offset="0%" stop-color="#025"/><stop offset="50%" stop-color="#04A"/><stop offset="100%" stop-color="#025"/></linearGradient><linearGradient id="c" x1="-.084%" x2="100.113%" y1="49.986%" y2="49.986%"><stop offset="0%" stop-color="#025"/><stop offset="50%" stop-color="#04A"/><stop offset="100%" stop-color="#025"/></linearGradient><linearGradient id="d" x1="50.024%" x2="50.024%" y1="44.492%" y2="62.507%"><stop offset="0%" stop-color="#F5F549"/><stop offset="100%" stop-color="#97C924"/></linearGradient><linearGradient id="e" x1="50.024%" x2="50.024%" y1="44.478%" y2="62.491%"><stop offset="0%" stop-color="#F5F549"/><stop offset="100%" stop-color="#97C924"/></linearGradient><linearGradient id="f" x1="50.024%" x2="50.024%" y1="44.478%" y2="62.491%"><stop offset="0%" stop-color="#F5F549"/><stop offset="100%" stop-color="#97C924"/></linearGradient><linearGradient id="g" x1="50.024%" x2="50.024%" y1="44.478%" y2="62.491%"><stop offset="0%" stop-color="#F5F549"/><stop offset="100%" stop-color="#97C924"/></linearGradient><linearGradient id="h" x1="50.025%" x2="50.025%" y1="44.492%" y2="62.507%"><stop offset="0%" stop-color="#F5F549"/><stop offset="100%" stop-color="#97C924"/></linearGradient><linearGradient id="i" x1="38.299%" x2="55.818%" y1="75.275%" y2="17.283%"><stop offset="0%" stop-color="#510000"/><stop offset="30%" stop-color="#8A0000"/><stop offset="100%" stop-color="#A00"/></linearGradient><linearGradient id="j" x1="61.033%" x2="72.924%" y1="65.842%" y2="19.614%"><stop offset="0%" stop-color="#FF2A2A"/><stop offset="100%" stop-color="red"/></linearGradient></defs><g fill="none" fill-rule="evenodd"><path d="M174.873 120H5.121c12.355 34.956 45.69 60 84.876 60 39.186 0 72.522-25.044 84.876-60z" fill="#4086CD"/><path d="M5.121 120h169.752c3.317-9.383 5.121-19.48 5.121-30s-1.804-20.617-5.12-30H5.12C1.805 69.383 0 79.48 0 90s1.805 20.617 5.121 30z" fill="#FFF"/><path d="M5.121 60h169.752C162.52 25.044 129.183 0 89.997 0 50.812 0 17.476 25.044 5.121 60z" fill="#4086CD"/><path d="M89.9 67.926L79.65 84.37 69.172 101.17l20.504-.002 20.951.002-10.253-16.442L89.9 67.926z" fill="#E5B731"/><path d="M89.9 68.798L99.956 84.93l9.833 15.771-20.113-.001-19.666.001 10.059-16.13L89.9 68.797z" fill="#FFF"/><path d="M89.916 68.362L79.884 84.47l-4.915 7.887h29.894l-4.69-7.527-10.257-16.468zM74.458 97.485c-.918 0-1.983.18-2.85.25l-2 3.202 20.084-.003 20.533.003-2.007-3.214c-.83-.076-1.862-.238-2.741-.238-.086 0-.166.003-.249.005-.057 0-.12-.005-.178-.005h-.22c-.058 0-.111.004-.168.005-.083-.002-.162-.005-.248-.005-1.148 0-2.12.28-3.213.28-1.095 0-2.064-.28-3.214-.28-.085 0-.166.003-.248.005-.057 0-.11-.005-.167-.005h-.226c-.058 0-.117.004-.173.005-.083-.002-.163-.005-.248-.005-1.149 0-2.12.28-3.213.28-1.094 0-2.065-.28-3.214-.28-.085 0-.17.003-.253.005-.057 0-.11-.005-.168-.005h-.226c-.058 0-.111.004-.168.005-.083-.002-.168-.005-.253-.005-1.149 0-2.115.28-3.208.28s-2.059-.28-3.208-.28c-.085 0-.165.003-.247.005-.057 0-.12-.005-.178-.005h-.222c-.057 0-.11.004-.166.005-.083-.002-.164-.005-.249-.005-1.15 0-2.119.28-3.214.28-1.093 0-2.064-.28-3.213-.28-.084 0-.166.003-.248.005-.057 0-.108-.005-.166-.005H74.878c-.058 0-.115.004-.172.005-.083-.002-.162-.005-.248-.005zM105.868 97.394s.868.044 1.232.082c.365.038.947.076.947.076l-.119-.145c-.183.06-1.415-.056-2.06-.013 0 0 .645-.043 0 0z" fill="#FFF"/><path fill="none" d="M72.523 77.812h1.642v2.312h-1.642z"/><path d="M89.95 68.664l-.738 1.192.738 16.067.737-16.067-.737-1.192h0zm.033 17.292l2.614-13.087-1.052-1.692-1.562 14.78h0zm0 .067l3.955-10.957-.77-1.241-3.185 12.198h0zm0-.067l4.994-9.245-.608-.976-4.386 10.221h0zm0 0l5.831-7.863-.506-.817-5.325 8.68h0zm0 0l6.602-6.65-.448-.723-6.154 7.373h0zm0 0l7.306-5.534-.415-.666-6.89 6.2h0zm0 .034l7.976-4.515-.4-.646-7.576 5.16h0zm0-.034l8.613-3.445-.4-.643-8.213 4.088h0zm0 0l9.283-2.346-.415-.67-8.868 3.016h0zm0-.033l10.054-1.161-.453-.716-9.6 1.877h0zm0 .025l10.825.142-.511-.837-10.314.695h0zm0-.025l11.83 1.675-.612-.97-11.218-.705h0zm0 0l13.037 3.653-.776-1.249-12.26-2.404h0zm0 0l14.679 6.267-1.062-1.703-13.617-4.564h0zm0 0l10.892 6.535h2.346l-13.238-6.535h0zm0 0l8.135 6.535h1.55l-9.685-6.535h0zm0 0l6.137 6.535h1.136l-7.273-6.535h0zm0 0l4.597 6.535h.9l-5.497-6.535h0zm0 0l3.329 6.535h.76l-4.089-6.535h0zm0 0l2.185 6.535h.664l-2.849-6.535h0zm0 0l1.162 6.535h.614l-1.776-6.535h0zm0 0l.194 6.535h.61l-.804-6.535h0zm0 0l-.804 6.535h.61l.194-6.535h0zm-.033 0l-1.776 6.535h.614l1.162-6.535h0zm0 0L87.1 92.458h.664l2.185-6.535h0zm.033 0l-4.088 6.535h.759l3.33-6.535h0zm-.033 0l-5.496 6.535h.9l4.596-6.535h0zm0 0l-7.273 6.535h1.135l6.138-6.535h0zm.033 0l-9.685 6.535h1.551l8.134-6.535h0zm0 0l-13.237 6.535h2.346l10.891-6.535h0zm0 0l-13.616 4.564-1.062 1.703 14.678-6.267h0zm0 0l-12.26 2.405-.776 1.248 13.036-3.653h0zm0 0l-11.218.705-.612.97 11.83-1.675h0zm-.033.025l-10.314-.695-.51.837 10.824-.142h0zm.033-.025l-9.6-1.877-.361.57-.093.147 10.054 1.16h0zm-.033.033l-8.868-3.016-.415.67 9.283 2.346h0zm.033 0l-8.213-4.088-.4.643 8.613 3.445h0zm0 .034l-7.577-5.161-.399.645 7.976 4.516h0zm0-.034l-6.89-6.2-.416.666 7.306 5.534h0zm-.033 0l-6.154-7.373-.448.723 6.602 6.65h0zm0 0l-5.325-8.68-.507.819 5.832 7.861h0zm0 0l-4.386-10.221-.608.976 4.994 9.245h0zm0 .067l-3.185-12.198-.77 1.24 3.955 10.958h0zm0-.067l-1.562-14.779-1.052 1.694 2.614 13.085h0z" fill="#17C0EB" opacity=".62" stroke="#17C0EB" stroke-width=".5"/><path d="M89.916 79.656c-3.392 0-6.494 1.152-8.877 3.058l-4.494 7.224a11.81 11.81 0 00-.233 2.553h1.716l-.002-.208c0-6.094 5.323-11.034 11.89-11.034s11.89 4.94 11.89 11.034c0 .07 0 .139-.002.208h1.716c.002-.069.002-.139.002-.208 0-.8-.08-1.584-.233-2.343l-4.497-7.227c-2.382-1.905-5.484-3.057-8.876-3.057z" fill="red"/><path d="M89.95 79.89c-3.609 0-6.884 1.322-9.29 3.47l-3.69 5.91a11.496 11.496 0 00-.39 3.188h1.473a10.37 10.37 0 01-.002-.208c0-6.075 5.327-10.999 11.9-10.999 6.571 0 11.899 4.924 11.899 10.999 0 .07-.001.139-.003.208h1.472l.002-.208c0-1.028-.136-2.027-.391-2.981l-3.69-5.91c-2.406-2.147-5.68-3.469-9.29-3.469z" fill="#F60"/><path d="M89.967 80.125c-3.895 0-7.393 1.569-9.797 4.06l-2.67 4.274a11.278 11.278 0 00-.652 3.999h1.227a10.36 10.36 0 01-.002-.208c0-6.07 5.325-10.991 11.894-10.991s11.894 4.92 11.894 10.99c0 .07 0 .14-.002.209h1.226l.002-.208c0-1.324-.23-2.599-.655-3.792l-2.67-4.274c-2.402-2.49-5.9-4.059-9.795-4.059z" fill="#FF0"/><path d="M89.95 80.36c-4.46 0-8.389 2.096-10.698 5.28l-.862 1.38a11.108 11.108 0 00-1.307 5.438h.98l-.002-.208c0-6.066 5.323-10.984 11.889-10.984 6.565 0 11.888 4.918 11.888 10.984 0 .07 0 .139-.002.208h.98l.003-.208c0-1.873-.47-3.646-1.305-5.222l-.872-1.397c-2.31-3.179-6.237-5.271-10.692-5.271z" fill="#0F0"/><path d="M89.9 80.594c-6.968 0-12.618 5.233-12.618 11.69 0 .069 0 .138.002.207h.736l-.002-.208c0-6.08 5.32-11.008 11.882-11.008 6.562 0 11.882 4.928 11.882 11.008 0 .07 0 .14-.002.208h.735l.002-.208c0-6.456-5.649-11.689-12.617-11.689z" fill="#0CF"/><path d="M89.933 80.795c-6.839 0-12.383 5.144-12.383 11.488 0 .07 0 .139.002.208h.491l-.002-.208c0-6.093 5.324-11.032 11.892-11.032s11.892 4.939 11.892 11.032c0 .07 0 .139-.002.208h.49l.003-.208c0-6.344-5.544-11.488-12.383-11.488z" fill="#00F"/><path d="M89.95 80.996c-6.7 0-12.132 5.039-12.132 11.253 0 .07 0 .14.002.209h.246a10.43 10.43 0 01-.003-.209c0-6.089 5.322-11.025 11.887-11.025s11.887 4.936 11.887 11.025c0 .07 0 .14-.002.209h.244c.002-.07.002-.14.002-.209 0-6.214-5.43-11.253-12.13-11.253z" fill="purple"/><path d="M89.933 82.84h-.05l.05 1.106.05-1.105-.05-.001zm-.393.033a2.838 2.838 0 00-.093.013l.201 1.093-.108-1.106zm.786 0l-.108 1.106.2-1.093a2.843 2.843 0 00-.092-.013s.03.004 0 0zm-1.186.067a3.056 3.056 0 00-.095.027l.369 1.046-.274-1.073zm1.586 0l-.274 1.073.37-1.046a3.049 3.049 0 00-.096-.027s.032.009 0 0zm-2.03.134a2.93 2.93 0 00-.087.039l.503 1-.415-1.039zm2.406 0l-.415 1.04.503-1a2.889 2.889 0 00-.088-.04s.029.013 0 0zm-2.772.168l-.09.051.704.92-.614-.971zm3.206 0l-.614.972.703-.922-.09-.05s.03.016 0 0zm-3.554.234l-.077.06.805.812-.728-.872zm3.868 0l-.727.872.804-.81a3.018 3.018 0 00-.077-.062s.026.02 0 0zm-4.143.302a3.008 3.008 0 00-.07.07l.939.7-.869-.77zm4.489 0l-.839.77.905-.699a2.964 2.964 0 00-.066-.071s.022.023 0 0zm-4.806.302c-.019.025-.036.05-.054.076l1.005.56-.95-.636zm5.051 0l-.95.636 1.006-.56a2.783 2.783 0 00-.056-.076s.02.025 0 0zm-5.263.335c-.015.027-.03.054-.043.081l1.072.421-1.03-.502zm5.51 0l-1.063.502 1.106-.42a2.61 2.61 0 00-.044-.082s.015.027 0 0zm-5.657.335l-.03.087 1.139.281-1.11-.368zm5.804 0l-1.11.368 1.14-.28-.03-.088s.01.029 0 0zm-5.918.436l-.017.093 1.173.141-1.156-.234zm6 0l-1.124.234 1.14-.141a2.878 2.878 0 00-.016-.093s.006.03 0 0zm-6.047.368a3.072 3.072 0 00-.003.1l1.172-.016-1.17-.084zm6.126 0l-1.17.084 1.173.017c0-.034-.001-.067-.003-.1 0 0 .002.033 0 0zm-4.957.302l-1.172.075.01.092 1.162-.167zm3.787 0l1.162.167c.005-.03.008-.061.011-.092l-1.173-.075zm-3.72.234l-1.139.216.023.086 1.117-.302zm3.653 0l1.117.302.023-.086-1.14-.216zm-3.585.235l-1.106.354.037.082 1.069-.436zm3.518 0l1.068.436.038-.082-1.106-.354zm-.1.235l.988.57.05-.077-1.038-.493zm-3.284 0l-1.04.493.05.076.99-.57zm.134.2l-.939.603.061.068.878-.67zm2.982 0l.876.67c.021-.021.043-.043.063-.066l-.939-.603zm-2.781.202l-.838.772.07.066.768-.838zm2.614 0l.767.838.07-.066-.837-.772zm-2.413.134l-.737.85.081.055.656-.905zm2.178 0l.655.905.082-.054-.737-.851zm-2.01.134l-.57.96.084.045.485-1.005zm1.81 0l.485.972.084-.042-.57-.93zm-1.543.1l-.435 1.009.092.03.343-1.039zm1.307 0l.344 1.04.092-.031-.436-1.009zm-1.072.067l-.268 1.055.089.018.18-1.073zm.804 0l.18 1.073c.03-.006.06-.011.088-.018l-.268-1.055zm-.536.034l-.134 1.065c.034.003.068.006.102.007l.032-1.072zm.302 0l.032 1.072c.034-.001.068-.004.102-.007l-.134-1.065z" fill="#FFF"/><g><path d="M104.502 96.144c-1.035.06-1.824.213-2.926.247-.077.002-.15 0-.224 0-.009.002-.018.002-.027.002l-.097.008-.077.002-.115.005-.115.003-.06.002-.06.002-.114.003c-.038.002-.076.002-.115.003l-.072.002-.098-.002-.027.001c-.074.005-.146.01-.223.013-1.102.034-2.191-.129-3.23-.123-1.036.059-1.974.345-3.075.379-.076.002-.151.002-.224.002l-.032.001-.094.008-.076.003c-.039 0-.071.002-.11.003a9.241 9.241 0 01-.114.004l-.065.002-.06.001c-.04.001-.072.004-.11.004l-.114.003c-.027.002-.055.002-.082.002l-.093-.002-.033.001c-.073.005-.149.01-.224.013-1.102.034-2.04-.128-3.078-.123-1.035.059-1.97.144-3.07.178-.078.003-.15.002-.224.002l-.027.002c-.033.001-.065.005-.098.007-.026 0-.051.002-.077.003a8.493 8.493 0 01-.114.003c-.038.002-.076.002-.115.003l-.06.002c-.02.002-.04.002-.06.002l-.115.004a9.238 9.238 0 01-.114.004l-.072.002c-.033 0-.065-.003-.098-.002h-.027c-.075.005-.147.01-.224.012-1.101.034-2.053-.06-3.091-.056-1.036.06-1.973.28-3.074.313-.077.003-.15.002-.224.002l-.027.002c-.033.001-.066.005-.099.007-.024 0-.047.002-.07.003a8.585 8.585 0 01-.115.003l-.11.003-.065.002-.06.002-.115.003-.11.004a4.765 4.765 0 01-.081.003c-.032 0-.067-.003-.098-.002h-.028c-.074.005-.147.01-.224.012-1.102.034-2.047-.128-3.084-.123-1.013.058-1.164.184-2.179.37l-.773 1.241c.905-.14 2.263-.504 3.389-.505 1.167-.001 2.575.267 3.962.271 1.615.004 2.223-.32 3.526-.44 1.302-.12 2.548.156 3.793.162 1.002-.003 2.53-.323 3.815-.448 1.287-.125 2.466.087 4.016.109 1.55.022 1.794-.35 3.689-.388 2.028-.042 2.213.26 4.01.26 1.35.068 2.511-.253 3.717-.332 1.205-.08 1.764.012 2.646.032l-.586-.963h-.03c-1.1.035-1.624-.242-2.661-.238 0 0 1.037-.004 0 0z" fill="#97C924"/><path d="M28.653 0c-.544 0-.71.254-.71.254-.873 3.118-3.764 6.29-7.204 6.29h-2.575v3.174h19.605l-1.972-3.23c-3.094-.426-5.622-3.352-6.427-6.234 0 0-.172-.254-.717-.254z" fill="url(#d)" transform="translate(71.015 89.207)"/><path d="M99.673 89.341c-.25 0-.402.053-.49.105-.085.049-.101.081-.103.085 0 .002-.005.003-.006.005-.446 1.571-1.387 3.15-2.657 4.343-1.28 1.201-2.892 2.016-4.657 2.016h-2.447v2.93h19.404l-1.811-2.97c-1.495-.18-2.861-.934-3.973-1.976a9.758 9.758 0 01-2.657-4.343l-.005-.005a.336.336 0 00-.108-.08c-.09-.052-.24-.11-.49-.11z" fill="#97C924"/><path d="M24.475.255c.872 3.118 3.758 6.289 7.198 6.289h2.577v3.174H13.271V6.544h2.572c3.44 0 6.33-3.171 7.203-6.289 0 0 .17-.255.715-.255.544 0 .714.255.714.255z" fill="url(#e)" transform="translate(71.015 89.207)"/><path d="M94.775 89.341c.25 0 .4.058.49.11.086.05.106.076.108.08l.006.005a9.757 9.757 0 002.656 4.343c1.28 1.201 2.896 2.016 4.66 2.016h2.436v2.93h-20.71v-2.93h2.445c1.765 0 3.376-.815 4.655-2.016 1.27-1.193 2.21-2.771 2.656-4.343l.006-.005c.002-.004.018-.036.102-.085.09-.052.24-.105.49-.105z" fill="#97C924"/><path d="M19.582.255c.872 3.118 3.758 6.289 7.198 6.289h2.577v3.174H8.378V6.544h2.573c3.44 0 6.33-3.171 7.202-6.289 0 0 .17-.255.715-.255.544 0 .715.255.715.255z" fill="url(#f)" transform="translate(71.015 89.207)"/><path d="M89.883 89.341c.25 0 .4.058.49.11.086.05.105.076.108.08l.005.005a9.76 9.76 0 002.656 4.343c1.28 1.201 2.897 2.016 4.661 2.016h2.435v2.93h-20.71v-2.93h2.445c1.765 0 3.377-.815 4.655-2.016a9.766 9.766 0 002.657-4.343c0-.002.004-.003.005-.005.002-.004.018-.036.102-.085.09-.052.24-.105.49-.105z" fill="#97C924"/><path d="M87.939 92.826c-.32.803-1.53 1.991-2.824 2.964-.368.01-.562.03-.896.011.788-.066 2.627-1.5 3.72-2.975z" fill="#9ECB34"/><path d="M14.723.255c.872 3.118 3.758 6.289 7.197 6.289h2.578v3.174H3.519V6.544H6.09c3.44 0 6.33-3.171 7.203-6.289 0 0 .17-.255.714-.255.545 0 .715.255.715.255z" fill="url(#g)" transform="translate(71.015 89.207)"/><path d="M84.991 89.341c-.25 0-.4.058-.49.11a.335.335 0 00-.108.08l-.006.005a9.759 9.759 0 01-2.656 4.343c-1.28 1.201-2.897 2.016-4.661 2.016h-2.436v2.93h20.714l.064-2.93h-2.446c-1.765 0-3.441-.815-4.72-2.016-1.27-1.193-2.21-2.771-2.657-4.343 0-.002-.005-.003-.005-.005-.002-.004-.019-.036-.103-.085-.088-.051-.24-.105-.49-.105z" fill="#97C924"/><path d="M9.088 0c-.544 0-.716.254-.716.254-.803 2.874-3.766 6.58-6.846 7.02L0 9.718h19.572V6.544h-2.58c-3.437 0-6.322-3.172-7.193-6.29 0 0-.166-.254-.71-.254z" fill="url(#h)" transform="translate(71.015 89.207)"/><path d="M79.609 89.451a.335.335 0 00-.108.08c-.452 1.577-1.496 3.166-2.58 4.43-1.084 1.266-3.097 2.546-4.474 2.681l-1.365 2.183h19.37v-2.93h-2.445c-1.764 0-3.376-.815-4.654-2.017a9.766 9.766 0 01-2.656-4.342c-.007-.009-.024-.041-.108-.09-.088-.052-.24-.105-.49-.105s-.4.058-.49.11z" fill="#97C924"/></g><g><path d="M89.157 83.628c-.17 0-.437.008-.556.004-.068-.003-.08-.008-.01-.012.16-.01.321-.015.62-.02a21.96 21.96 0 011.451.009c.315.015.616.032.643.045.008.005.08.012-.045.016-.385.012-1.315-.012-1.859-.008-.182.001-.394.005-.566.002-.135-.003-.022-.009.078-.011.175-.005.43-.02.395-.027-.02-.004-.023.001-.15.002 0 0 .127 0 0 0h-.001z" fill="red"/><path d="M.15.036c.044 0 .22.002.39-.002L.734.03.538.036C.423.04.242.045.155.051.067.056.032.064.047.064.063.065.17.07.495.074c.581.006.692.019 1.281.019.462 0 .388-.008.757-.007.32.002.49-.005.182-.01-.392-.003-1.17 0-1.537.001-.118-.032-.016-.02-.043-.034-.028-.014-.178-.015.02-.026C.99.024.79.023.582.024.272.027.306.032.15.036c0 0 .156-.004 0 0z" fill="url(#i)" transform="translate(88.525 83.593)"/><path d="M1.196.055C.856.052.495.045.244.048.154.05.162.052.134.055.122.06-.035.066.095.065.29.06.8.07.971.072c.08.001.252.004.306.008.053.004.026.015.011.019-.015.005.034.015.194.016.173.001.305-.003.373-.01a2.84 2.84 0 01.214-.015c.1-.005.214-.007.373-.007.16-.001.391.003.391-.002 0-.004-.108-.007-.062-.012.036-.004-.114-.003-.238-.005l-.76-.004-.577-.006s.173.001 0 0z" fill="url(#j)" transform="translate(88.525 83.593)"/><path d="M89.544 83.669c-.094-.002-.671-.016-.882-.011a.365.365 0 01-.093-.003c-.001-.002.031-.006.053-.009.022-.003.057-.008.15-.011.2-.006.658.006.902.01-.021.004-.137.024-.13.024 0 0-.007 0 0 0z" fill="#910000"/></g><g fill="#C8A400"><path d="M115.57 95.189l.526.138-.54 2.048-.525-.138zM82.75 114.22l-2.545 2.645.497.16.787-.82h.002l1.612.524.153 1.127.497.161-.506-3.635-.496-.161zm.088.577l.195 1.42-1.187-.385.992-1.035zM111.138 102.696l3.27 1.387 1.265-2.483-.465-.197-1.012 1.987-.026.05-.041-.017-2.764-1.173-.227.446zM68.148 102.051l-3.025 1.602.26.41 2.549-1.349-1.77 2.583.297.472 3.243-.154-2.503 1.326.26.41 3.024-1.6-.394-.625-3.292.142 1.799-2.507-.448-.71zM68.003 108.016l2.023 2.41.368-.309-1.686-2.01-.035-.04.033-.028.723-.606.033-.028.034.041 1.516 1.807.367-.307-1.516-1.807-.035-.041.033-.028.633-.53.032-.028.034.041 1.622 1.933.37-.31-1.958-2.334-2.59 2.174zM76.649 111.31l-1.841 2.86.468.268 1.84-2.86-.467-.267zM79.477 112.814a2.992 2.992 0 00-1.109-.391 1.758 1.758 0 00-1.016.144 1.702 1.702 0 00-.738.71c-.173.3-.26.623-.265.968-.004.344.093.66.291.956.198.294.52.572.969.831.432.25.842.369 1.24.363a1.593 1.593 0 001.025-.388l-.409-.353c-.587.473-1.115.225-1.655-.08-.825-.49-1.164-1.221-.722-2.025.52-.867 1.4-.713 2.128-.31.506.29.92.623.872 1.183l.495.18a1.467 1.467 0 00-.204-.953c-.188-.319-.487-.595-.902-.835 0 0 .415.24 0 0zM93.573 114.728a2.128 2.128 0 00-.88.486c-.243.225-.402.499-.477.822-.074.323-.057.672.051 1.05.1.347.262.65.486.912.223.26.485.43.79.512.304.081.667.063 1.09-.058.405-.116.714-.315.934-.598.21-.273.317-.609.322-1.012l-.461.023c-.02.766-.48.952-.983 1.102-.785.214-1.454-.097-1.733-1.01-.277-1.014.32-1.517.992-1.728.475-.136.926-.178 1.266.275l.396-.212a1.463 1.463 0 00-.74-.572c-.314-.106-.663-.104-1.053.008 0 0 .39-.112 0 0zM96.06 114.521l1.403 3.154 2.735-1.218-.2-.448-2.28 1.015-.046.02-.018-.039-.392-.88-.017-.04.046-.02 2.05-.913-.199-.446-2.05.912-.046.021-.018-.04-.343-.77-.017-.04.047-.02 2.192-.976-.2-.45-2.648 1.178zM99.453 113.304l1.834 2.875.432-.24-1.454-2.28-.076-.119.157.045 3.596 1.111.565-.316-1.835-2.875-.432.242 1.453 2.279.075.116-.156-.044-3.595-1.11-.564.316zM103.201 111.465l.337.357 1.174-.963.044-.037.03.03 2 2.117.399-.328-2-2.116-.03-.03.046-.038 1.18-.967-.338-.357-2.842 2.332zM110.159 104.49l1.68 3.462.35-.499-.524-1.071.001-.002 1.135-1.622 1.186.126.35-.5-3.829-.394-.35.5zm.609.054l1.495.158-.836 1.193-.66-1.351zM72.987 108.519l-2.333 2.505.403.33.89-.954.028-.03.045.036 1.09.893c.068.055.135.107.201.156-.002.213-.012 1.283-.013 1.734l.512.42.012-1.83c.534.266.986.236 1.39-.183l.015-.019.024-.024a.727.727 0 00.196-.493.905.905 0 00-.175-.552c-.123-.178-.35-.404-.679-.674l-.112-.092-1.494-1.223zm.071.687l.045.037 1.087.89c.441.362.887.817.56 1.169-.328.351-.95-.07-1.3-.355l-1.097-.898-.045-.037.03-.032.691-.743.03-.03zM106.422 108.914l2.742 2.155.346-.377-1.044-.822-.034-.026.038-.042.936-1.02c.058-.064.112-.127.164-.188.228 0 1.378.002 1.863 0l.44-.479h-1.967c.275-.498.232-.918-.227-1.29-.006-.006-.013-.01-.02-.015l-.026-.022a.862.862 0 00-.535-.18c-.207-.003-.4.051-.588.167-.189.116-.427.328-.71.636l-.096.105-1.282 1.398zm.737-.07l.038-.042.933-1.018c.379-.413.859-.83 1.243-.528.385.302-.054.883-.352 1.212l-.941 1.027-.039.042-.035-.028-.813-.639-.034-.026zM67.2 99.686l-3.775-.19.194.48 1.17.055.001.002.63 1.559-.803.853.194.48 2.582-2.759-.193-.48zm-.405.443l-1.011 1.076-.464-1.148 1.475.072zM101.823 65.738l-1.49 3.077-.497-.204 1.491-3.077.496.204zM84.217 63.64l.401 3.34 1.695-.188c.29-.032.544-.08.76-.143.217-.062.398-.138.542-.227a1.485 1.485 0 00.655-.87c.06-.206.077-.435.046-.692a1.696 1.696 0 00-.284-.78 1.49 1.49 0 00-.626-.505 1.94 1.94 0 00-.716-.16v.001a5.697 5.697 0 00-.858.046l-1.615.179zm.58.417l.06-.006 1.022-.114c.386-.042.67-.051.862-.022.612.138.976.553 1.03.998.053.446-.108.77-.387 1.023a1.3 1.3 0 01-.436.238c-.187.065-.445.09-.765.15l-1.038.115-.06.007-.005-.04-.277-2.307-.005-.042zM89.213 63.007v3.534h2.993v-.502h-2.545V64.963h2.294v-.5H89.66V63.513H92.11v-.505h-2.898zM96.63 63.83l-1.346 3.218.479.172 1.066-2.552.055-.132.06.147 1.282 3.425.627.225 1.345-3.219-.48-.173-1.066 2.551-.054.13-.059-.145-1.285-3.423-.625-.225zM104.45 67.121a2.715 2.715 0 00-1.005-.392 1.617 1.617 0 00-.941.107c-.285.127-.52.339-.706.637-.17.273-.264.57-.28.89-.017.318.06.614.232.893.17.277.456.543.86.795.388.243.761.365 1.127.37.352.005.67-.106.959-.332l-.363-.337c-.558.421-1.035.178-1.52-.12-.742-.475-1.026-1.162-.589-1.894.51-.79 1.315-.623 1.97-.23.455.283.824.602.758 1.119l.45.18c.05-.308.001-.603-.152-.888-.162-.3-.426-.564-.8-.798 0 0 .374.234 0 0zM107.546 69.378l-3.543 1.727.4.335 1.097-.538.002.001 1.298 1.09-.34 1.174.4.336 1.086-3.79-.4-.335zm.003.435l-.428 1.48-.956-.802 1.384-.678zM113.958 76.781l-3.866.239.245.46 1.198-.076.002.002.795 1.496-.734.95.245.461 2.36-3.07-.245-.462zm-.369.492l-.924 1.198-.586-1.102 1.51-.096zM115.933 81.031a3.125 3.125 0 00-.63-1.032 1.732 1.732 0 00-.898-.52 1.841 1.841 0 00-1.002.044 1.594 1.594 0 00-.785.55c-.196.257-.296.573-.306.953-.009.38.065.775.224 1.187a3.422 3.422 0 00.762 1.175l-.27.09.173.448.51-.17 1.19-.396-.661-1.7-.393.13.466 1.2.02.054-.042.014-.515.171-.019.006-.02-.013c-.395-.32-.63-.752-.799-1.18-.306-.868-.323-1.709.678-2.051.984-.303 1.606.431 1.917 1.179.202.535.302 1.08-.13 1.47l.248.38c.176-.14.308-.292.385-.461.083-.18.116-.404.099-.672a2.878 2.878 0 00-.201-.855zM116.794 83.38l-2.03.366c-.376.068-.658.178-.847.325-.188.147-.308.354-.366.63-.057.272-.049.605.035 1.011l.002.01c.087.406.214.718.377.95.166.235.36.386.594.456.234.071.54.076.918.008l2.03-.366-.102-.48-1.98.357c-.89.16-1.189-.273-1.341-1.014l-.002-.01c-.159-.74-.057-1.246.832-1.406l1.981-.357-.1-.48zM117.826 88.713l-3.6-1.284.034.497 1.118.395v.002l.113 1.615-1.052.547.035.497 3.387-1.772-.035-.497zm-.534.287l-1.325.69-.083-1.19 1.408.5zM62.912 84.518l3.534.764.803-3.186-.502-.109-.67 2.656-.013.055-.045-.01-.986-.213-.045-.01.014-.054.602-2.389-.5-.108-.602 2.389-.014.054-.044-.01-.864-.187-.044-.009.014-.054.644-2.555-.505-.11-.777 3.086zM63.958 80.574l3.428 1.104.174-.464-1.306-.42-.042-.014.019-.052.412-1.098c.372-.99.296-1.629-.523-1.906a.999.999 0 00-.952.198c-.128.11-.244.262-.349.458a5.13 5.13 0 00-.274.63s.106-.282 0 0l-.587 1.564zm.662-.307l.02-.051.41-1.095c.191-.507.474-1.051.955-.896.481.154.301.837.153 1.24l-.415 1.106-.02.051-.043-.013-1.017-.328-.043-.014zM65.759 76.94l1.785.968c.331.179.622.269.868.274.246.004.484-.078.723-.249.238-.17.47-.425.696-.781l.005-.009c.224-.357.351-.67.394-.944.044-.278.004-.51-.12-.706-.126-.196-.353-.387-.684-.567l-1.785-.967-.266.422 1.742.944c.782.423.697.932.283 1.582l-.005.009c-.409.653-.846.97-1.628.546l-1.742-.943-.266.421zM68.606 73.253l2.513 2.108 1.161-1.384c.502-.543 1.088-1.395.393-1.978-.558-.468-1.036-.032-1.036-.032s.17-.387-.194-.693a.826.826 0 00-.504-.184 1.078 1.078 0 00-.552.195c-.188.123-.402.324-.639.606 0 0 .237-.282 0 0l-1.142 1.362zm.697-.107l.038-.045.785-.935c.258-.307.646-.748.97-.479.326.27-.04.727-.302 1.04l-.784.934-.038.045-.032-.026-.606-.508-.03-.026zm1.024.859l.038-.045.785-.935c.542-.647.882-.845 1.169-.605.287.241.14.622-.393 1.257l-.784.935-.038.045-.032-.027-.714-.6-.03-.025zM75.202 67.217l1.921 2.882.462-.26-1.922-2.883-.461.26zM78.177 65.805a2.516 2.516 0 00-.834.606 1.553 1.553 0 00-.396.825c-.042.302.01.608.156.922.134.288.327.525.578.713.25.187.529.285.843.296.313.012.675-.076 1.087-.268.395-.185.685-.423.877-.718.184-.284.258-.604.222-.962l-.46.112c.057.684-.385.94-.876 1.175-.765.346-1.467.204-1.838-.551-.379-.845.169-1.41.822-1.732.463-.216.912-.343 1.297-.009l.376-.267a1.326 1.326 0 00-.798-.36c-.326-.031-.676.04-1.056.218 0 0 .38-.178 0 0zM71.766 69.824l2.492 2.444 2.135-1.869-.354-.347-1.708 1.495-.043.038-.032-.03-2.107-2.067-.383.336zM62.009 88.889l3.621.224.036-.489v-.001l-1.38-.085-.044-.003.004-.055.095-1.323c.006-.083.01-.162.011-.24.185-.123 1.118-.748 1.51-1.014l.045-.62-1.593 1.07c-.101-.547-.409-.859-1.022-.906h-.026l-.036-.004a.887.887 0 00-.55.148.933.933 0 00-.368.454c-.078.195-.133.494-.162.893l-.01.137-.13 1.814h-.001zm.551-.458l.004-.055.095-1.32c.039-.535.157-1.13.665-1.098.508.031.53.734.501 1.16l-.096 1.33-.004.055-.046-.003-1.074-.067-.045-.002zM109.903 71.534l-2.8 2.139.336.378h.001l1.067-.814.035-.027.037.042.91 1.023c.058.065.114.124.17.182-.043.207-.259 1.255-.347 1.697l.428.48.365-1.79c.479.333.934.364 1.415.008l.019-.016.028-.02a.768.768 0 00.29-.457.86.86 0 00-.067-.565c-.088-.19-.27-.444-.544-.752l-.094-.106-1.249-1.402zm-.061.683l.037.042.908 1.02c.369.415.724.922.33 1.222-.392.3-.928-.197-1.222-.524l-.917-1.03-.037-.041.035-.028.83-.634.036-.027zM65.023 96.144l-.526.139-.539-2.049.526-.138z"/></g></g></svg>