<svg height="182" width="182" xmlns="http://www.w3.org/2000/svg"><g fill="none" fill-rule="evenodd"><path d="M91 181c49.706 0 90-40.294 90-90H91V1C41.294 1 1 41.294 1 91h90v90zm0 0" fill="#FFF"/><path d="M1 91c0 49.706 40.294 90 90 90V91H1zm0 0" fill="#346DA6"/><path d="M181 91c0-49.706-40.294-90-90-90v90h90zm0 0" fill="#CA4638"/><path fill="#346DA6" d="M55.5 66.5l-17.927 9.58 3.423-20.29-14.503-14.37 20.043-2.96L55.5 20l8.964 18.46 20.043 2.96-14.503 14.37 3.423 20.29z"/><path fill="#CA4638" d="M127.5 144.5l-17.927 9.58 3.423-20.29-14.503-14.37 20.043-2.96L127.5 98l8.964 18.46 20.043 2.96-14.503 14.37 3.423 20.29z"/></g></svg>