<svg height="182" width="182" xmlns="http://www.w3.org/2000/svg"><g fill="none" fill-rule="evenodd"><path d="M131 171.645c29.634-14.727 50-45.308 50-80.645 0-35.337-20.366-65.918-50-80.645v161.29zM51 10.355C21.366 25.082 1 55.663 1 91c0 35.337 20.366 65.918 50 80.645V10.355zm0 0" fill="#CA4638"/><path d="M92.008 180.994c13.994-.153 27.221-3.5 38.988-9.347V10.353C118.947 4.366 105.366 1 91 1c-14.369 0-27.952 3.367-40.002 9.356v161.288c11.768 5.848 24.998 9.197 38.994 9.35h2.016zm0 0" fill="#FFF"/></g></svg>