<svg height="180" width="180" xmlns="http://www.w3.org/2000/svg"><g fill="none" fill-rule="evenodd"><path d="M174.873 120H5.121c12.355 34.956 45.69 60 84.876 60 39.186 0 72.522-25.044 84.876-60z" fill="#346DA6"/><path d="M5.121 120h169.752c3.317-9.383 5.121-19.48 5.121-30s-1.804-20.617-5.12-30H5.12C1.805 69.383 0 79.48 0 90s1.805 20.617 5.121 30z" fill="#FFF"/><path d="M5.121 60h169.752C162.52 25.044 129.183 0 89.997 0 50.812 0 17.476 25.044 5.121 60z" fill="#CA4638"/><g fill="#009B3A" stroke="#000" stroke-width=".1"><path d="M94.44 78s10.827 4.784 8.936 14.668c-1.89 9.885-7.919 9.819-10.282 10.911-2.364 1.093-3.995 2.656-4.928 2.438-.932-.22-2.165-.957-2.165-.957s-.099 1.623 1.8 1.919c1.898.295 4.394-2.563 5.593-2.88 1.198-.318 8.558-1.137 10.349-11.195 2.09-10.736-9.237-14.589-9.304-14.904 0 0 .067.315 0 0h0z"/><path d="M99.849 79.473c.198.828.202 1.511.01 1.527-.193.015-.509-.642-.707-1.47-.128-.536-.18-1.037-.137-1.314.044-.277.177-.288.349-.029.172.26.357.75.485 1.286 0 0-.128-.536 0 0h0zM98.714 80.372c.162.533.27 1.051.284 1.358.015.307-.067.356-.214.128-.147-.227-.337-.696-.498-1.23-.162-.533-.27-1.051-.284-1.358-.015-.307.067-.356.214-.128.147.227.337.696.498 1.23 0 0-.16-.534 0 0h0z"/><path d="M98.536 80.165c.829.206 1.484.522 1.464.707-.02.184-.708.168-1.536-.037-.829-.206-1.484-.522-1.464-.707.02-.184.708-.168 1.536.037 0 0-.828-.205 0 0h0z"/><path d="M98.122 80.659c.354.335.659.71.798.984.14.274.094.404-.121.342-.216-.063-.567-.308-.92-.644-.355-.335-.66-.71-.8-.984s-.093-.404.122-.342c.216.063.567.308.92.644 0 0-.353-.336 0 0h0zM98.214 79.789c.54.54.88 1.072.763 1.188-.119.117-.652-.226-1.191-.766-.54-.54-.88-1.072-.763-1.188.119-.117.652.226 1.191.766 0 0-.54-.54 0 0h0z"/><path d="M99.682 80.953c.007.007-.452.25-.556.287-.103.037-.244-.136-.543.015-.298.15-.503.426-.568.587-.065.162.084.23.445.057.361-.173.456-.446.63-.554a4.2 4.2 0 01.632-.323c.072-.154.305-.486.426-.676.12-.19.594-.504.767-.869.15-.302.094-.56-.108-.452-.201.107-.462.411-.583.63-.121.217-.017.495-.152.7-.106.147-.363.598-.39.598 0 0 .027 0 0 0h0zM102.999 82.635c.011.892-.074 1.69-.222 2.094-.15.405-.34.353-.5-.135-.16-.487-.265-1.337-.276-2.229-.011-.892.074-1.69.222-2.094.15-.405.34-.353.5.135.16.487.265 1.337.276 2.229 0 0-.011-.892 0 0h0zM101.853 82.473c.127.893.176 1.724.13 2.178-.046.455-.181.466-.354.027-.172-.438-.356-1.258-.482-2.151-.127-.893-.176-1.724-.13-2.178.046-.455.181-.466.354-.027.172.438.356 1.258.482 2.151 0 0-.126-.893 0 0h0z"/><path d="M101.187 82.917c.71.493 1.333 1.06 1.63 1.487.299.428.228.65-.186.584-.414-.066-1.107-.41-1.818-.905-.71-.493-1.333-1.06-1.63-1.487-.299-.428-.228-.65.186-.584.414.066 1.107.41 1.818.905 0 0-.711-.494 0 0h0z"/><path d="M100.816 82.59c.524.7.948 1.424 1.112 1.9.164.477.043.633-.317.41-.36-.224-.905-.792-1.428-1.492-.81-1.08-1.324-2.14-1.149-2.365.175-.226.972.466 1.782 1.547 0 0-.81-1.08 0 0h0z"/><path d="M101.34 82.77c.337.71.582 1.41.645 1.836.062.426-.068.513-.342.23-.273-.285-.648-.897-.984-1.607-.336-.71-.581-1.409-.644-1.835-.062-.426.068-.513.342-.23.273.285.648.897.984 1.607 0 0-.336-.71 0 0h0z"/><path d="M102.606 85.19c.006.012-.697.154-.85.16-.153.007-.288-.291-.743-.21-.456.082-.825.374-.967.57-.142.194.04.351.587.266.547-.085.767-.422 1.038-.496.272-.074.72-.168.966-.178.149-.182.575-.54.802-.752.227-.21.974-.443 1.33-.874.304-.353.312-.732.003-.67-.31.064-.764.372-1 .622-.238.25-.188.677-.438.901-.193.16-.69.672-.728.661 0 0 .037.011 0 0h0zM103.892 87.743c-.11.889-.287 1.664-.464 2.033-.177.37-.326.277-.393-.243-.066-.52-.038-1.387.073-2.276.11-.889.287-1.664.464-2.033.177-.37.326-.277.393.243.066.52.038 1.387-.073 2.276 0 0 .111-.889 0 0h0z"/><path d="M103.995 87.574c.025.892-.047 1.703-.188 2.127-.141.424-.33.395-.496-.074-.165-.47-.282-1.309-.306-2.201-.025-.892.047-1.703.188-2.127.141-.424.33-.395.496.074.165.47.282 1.309.306 2.201 0 0-.024-.892 0 0h0zM101.747 87.06c.528.512.97 1.07 1.158 1.462.188.392.093.56-.247.44-.341-.12-.877-.51-1.405-1.022s-.97-1.07-1.158-1.462c-.188-.392-.093-.56.247-.44.341.12.877.51 1.405 1.022 0 0-.528-.512 0 0h0z"/><path d="M102.32 86.703c.339.707.59 1.416.66 1.861.07.446-.051.559-.32.297-.268-.261-.642-.857-.98-1.564-.339-.707-.59-1.416-.66-1.861-.07-.446.051-.559.32-.297.268.261.642.857.98 1.564 0 0-.338-.707 0 0h0z"/><path d="M103.522 87.325c.305.89.487 1.747.478 2.247-.01.5-.209.567-.523.175-.314-.392-.695-1.182-.999-2.072-.305-.89-.487-1.747-.478-2.247.01-.5.209-.567.523-.175.314.392.695 1.182.999 2.072 0 0-.304-.89 0 0h0z"/><path d="M103.476 89.62a6.27 6.27 0 01-.799 0c-.14-.02-.21-.314-.637-.318-.427-.004-.813.2-.975.353-.163.154-.026.328.485.344.512.017.769-.253 1.028-.274.26-.021.683-.03.907.003.166-.141.615-.395.858-.548.242-.154.96-.238 1.356-.57.338-.27.41-.614.12-.61-.292.004-.758.208-1.016.395-.258.187-.286.585-.553.747-.202.113-.742.495-.774.478 0 0 .032.017 0 0h0zM104.276 92.408c-.344.7-.714 1.268-.97 1.492-.258.223-.363.068-.276-.409.086-.476.35-1.2.694-1.9.344-.699.714-1.267.97-1.49.258-.224.363-.069.276.408-.086.476-.35 1.2-.694 1.9 0 0 .343-.7 0 0h0z"/><path d="M104.433 91.797c-.322.887-.702 1.65-.997 2.001-.295.352-.46.238-.433-.297.027-.535.242-1.411.564-2.298.497-1.371 1.095-2.35 1.334-2.185.24.164.03 1.408-.468 2.78 0 0 .498-1.372 0 0h0z"/><path d="M102.464 91.682c.317.706.52 1.418.535 1.87.015.45-.162.571-.464.317-.302-.255-.683-.846-.999-1.551-.49-1.09-.678-2.117-.422-2.292.257-.176.861.566 1.35 1.656 0 0-.489-1.09 0 0h0z"/><path d="M102.952 91.364c.076.892.06 1.742-.04 2.23-.102.488-.275.54-.453.136s-.335-1.202-.411-2.094c-.076-.892-.06-1.742.04-2.23.102-.488.275-.54.453-.136s.335 1.202.411 2.094c0 0-.076-.892 0 0h0z"/><path d="M103.947 91.536c-.08.892-.24 1.711-.418 2.147-.178.435-.349.422-.447-.036-.098-.458-.109-1.29-.029-2.183.08-.892.24-1.711.418-2.147.178-.435.349-.422.447.036.098.458.109 1.29.029 2.183 0 0 .08-.893 0 0h0z"/><path d="M103.222 93.905a6.003 6.003 0 01-.695-.29c-.113-.068-.06-.343-.43-.501a1.49 1.49 0 00-.985-.055c-.2.071-.149.268.29.468.437.2.766.064 1 .14.233.077.604.224.786.333.2-.06.688-.11.958-.153.27-.042.926.148 1.4.01.398-.105.595-.37.34-.473-.255-.102-.739-.099-1.036-.034-.296.064-.476.392-.77.432-.22.021-.837.15-.858.123 0 0 .021.026 0 0h0zM103.253 97.639c-.709.677-1.412 1.18-1.845 1.322-.432.14-.529-.103-.253-.64.277-.536.884-1.283 1.592-1.96.709-.677 1.412-1.18 1.845-1.322.432-.14.529.103.253.64-.277.536-.884 1.283-1.592 1.96 0 0 .708-.677 0 0h0z"/><path d="M102.82 96.405c-.523.7-1.067 1.269-1.428 1.494-.362.224-.484.07-.321-.405.162-.476.585-1.2 1.108-1.899.524-.7 1.068-1.269 1.43-1.494.36-.224.483-.07.32.405-.162.476-.585 1.2-1.108 1.899 0 0 .523-.7 0 0h0zM100.972 95.29c.059.89.023 1.753-.094 2.263-.117.51-.297.59-.472.209-.176-.38-.32-1.163-.378-2.053-.059-.89-.023-1.752.094-2.262.117-.51.297-.59.472-.209.176.38.32 1.163.378 2.053 0 0-.058-.89 0 0h0z"/><path d="M101.859 96.028c-.193 1.657-.51 2.987-.707 2.972-.198-.016-.203-1.371-.01-3.028.124-1.072.307-2.057.48-2.584.174-.527.31-.516.359.028.049.545.002 1.54-.122 2.612 0 0 .124-1.072 0 0h0z"/><path d="M102.429 95.698c-.323.89-.703 1.676-.997 2.06-.294.383-.457.308-.429-.199.029-.507.245-1.367.568-2.257.323-.89.703-1.676.997-2.06.294-.383.457-.308.429.199-.029.507-.245 1.367-.568 2.257 0 0 .323-.89 0 0h0z"/><path d="M101.437 99.084c-.006.017-.622-.557-.734-.7-.112-.145.063-.51-.326-.89-.39-.379-.91-.508-1.183-.493-.275.016-.29.315.166.781.457.466.912.415 1.168.621.255.206.65.57.83.8.267.001.886.135 1.233.19.348.055 1.075.6 1.71.606.529.019.876-.272.605-.523-.272-.252-.865-.451-1.254-.486-.389-.034-.739.35-1.115.283-.277-.062-1.084-.143-1.1-.189 0 0 .016.046 0 0h0zM99.44 102.827c-.893.201-1.707.229-2.135.073-.427-.156-.404-.471.06-.828.466-.356 1.303-.7 2.196-.9.892-.2 1.706-.228 2.134-.072.427.156.404.471-.06.828-.466.356-1.303.7-2.196.9 0 0 .893-.2 0 0h0z"/><path d="M99.6 101.265c-.892.461-1.736.741-2.213.735-.477-.006-.516-.298-.1-.765.415-.467 1.22-1.04 2.112-1.5.893-.461 1.737-.741 2.214-.735.477.006.516.298.1.765-.415.467-1.22 1.04-2.112 1.5 0 0 .892-.46 0 0h0zM99.221 98.623c-.726 1.378-1.637 2.44-2.035 2.374-.399-.066-.135-1.237.59-2.615.47-.893 1.042-1.695 1.5-2.104.46-.41.735-.364.724.12-.012.484-.309 1.332-.779 2.225 0 0 .47-.893 0 0h0z"/><path d="M99.505 99.877c-.691.883-1.426 1.627-1.928 1.952-.502.325-.695.18-.505-.377.189-.559.731-1.446 1.422-2.33 1.07-1.364 2.162-2.301 2.44-2.093.28.208-.36 1.484-1.429 2.848 0 0 1.069-1.364 0 0h0z"/><path d="M99.877 100.506c-.883.691-1.771 1.234-2.33 1.423-.557.189-.7-.004-.375-.507.325-.502 1.07-1.238 1.953-1.93 1.364-1.067 2.638-1.706 2.846-1.426.208.28-.73 1.372-2.094 2.44 0 0 1.364-1.068 0 0h0z"/><path d="M97.235 102.269c-.013.011-.272-.877-.3-1.075-.03-.198.284-.43.128-1.008-.156-.577-.536-1-.774-1.147-.238-.147-.387.12-.214.815.173.696.58.916.702 1.255.122.34.29.905.337 1.222.225.158.685.644.954.898.268.255.633 1.182 1.165 1.56.438.328.862.265.748-.126-.114-.39-.524-.921-.836-1.181-.312-.26-.782-.112-1.069-.394-.205-.22-.849-.768-.841-.82 0 0-.008.052 0 0h0z"/><path d="M95.998 104.999c-1.658.027-3-.397-2.998-.948.001-.55 1.345-1.02 3.002-1.05 1.658-.027 3 .397 2.998.948-.001.55-1.345 1.02-3.002 1.05 0 0 1.657-.03 0 0h0z"/><path d="M95.636 102.034c-1.046 1.348-2.18 2.202-2.531 1.908-.352-.294.21-1.624 1.256-2.972.677-.874 1.425-1.58 1.961-1.851.537-.272.78-.07.638.532-.141.602-.646 1.51-1.324 2.383 0 0 .678-.873 0 0h0z"/><path d="M95.771 103.328c-1.372.69-2.606.88-2.756.423-.15-.458.841-1.388 2.214-2.079 1.372-.69 2.606-.88 2.756-.423.15.458-.841 1.388-2.214 2.079 0 0 1.373-.69 0 0h0zM96.872 77.847c.802.546 1.286 1.057 1.08 1.141-.205.085-1.022-.29-1.824-.835-.52-.353-.928-.708-1.072-.932-.145-.224-.003-.283.372-.153.374.129.925.426 1.444.779 0 0-.52-.353 0 0h0zM95.442 79.076c.536.095 1.042.264 1.327.442.286.179.308.34.058.424-.25.083-.734.077-1.27-.018-.827-.147-1.524-.455-1.556-.69-.032-.233.614-.304 1.441-.158 0 0-.827-.146 0 0h0z"/><path d="M95.659 78.677c.533.338.995.712 1.212.98.217.27.157.393-.159.324-.315-.069-.838-.32-1.37-.657-.824-.523-1.421-1.091-1.333-1.27.087-.179.826.1 1.65.623 0 0-.824-.523 0 0h0zM83 101.878s2.332.55 4.36 1.363c2.027.811 5.107 3.597 5.935 3.755.928.047 2.216-.303 2.705-1.78-1.43.42-2.288 1.059-3.653.232-.482-.2-2.062-1.785-3.794-2.633-1.731-.848-5.224-1.815-5.224-1.815l-.329.878h0zM85.563 79C85.555 78.986 88 78 88 78l-2.688.534-.312.368.563.098h0z"/><path d="M89 81c-1.137-.214-2.886-.61-4-.703.77-.884 1.83-2.38 2.484-3.297-.432.875-1.11 2.03-1.377 2.867.784.439 2.017.782 2.893 1.133 0 0-.876-.35 0 0h0z"/><path d="M85.628 80C85.616 79.98 88 78 88 78l-2.755 1.342-.245.62.628.038h0z"/><path d="M88 80c-1.138-.218-2.888-.62-4-.717.751-.88 1.781-2.369 2.416-3.283-.414.872-1.069 2.023-1.32 2.858.79.441 2.024.789 2.904 1.142 0 0-.88-.353 0 0h0z"/><path d="M84.533 80C84.527 79.983 87 79 87 79l-2.657.423-.343.415.533.162h0z"/><path d="M88 81c-1.14-.1-2.9-.322-4-.297.634-1.004 1.47-2.676 1.987-3.703-.305.958-.813 2.234-.963 3.135.824.372 2.073.595 2.976.865 0 0-.903-.27 0 0h0z"/><path d="M84.737 80.877C84.72 80.857 87 78 87 78l-2.867 2.237L84 81l.737-.123h0z"/><path d="M87 81c-1.14-.023-2.91-.13-4-.027.54-1.084 1.22-2.874 1.641-3.973-.217 1.014-.607 2.37-.674 3.313.851.327 2.112.471 3.033.687 0 0-.92-.216 0 0h0z"/><path d="M83.68 80c-.015-.018 2.32-2 2.32-2l-2.808 1.396-.192.597.68.007h0z"/><path d="M87 79.93c-1.138.005-2.89-.059-4 .07.736-1.094 1.742-2.894 2.362-4-.4 1.016-1.036 2.377-1.275 3.32.794.305 2.03.418 2.913.61 0 0-.883-.192 0 0h0z"/><path d="M83.792 80.99C83.779 80.963 87 78 87 78l-3.626 2.121L83 81l.792-.01h0z"/><path d="M86 81.24c-1.14.199-2.905.423-4 .76.585-1.383 1.342-3.623 1.809-5-.26 1.236-.707 2.909-.815 4.033.839.216 2.094.135 3.006.207 0 0-.912-.072 0 0h0z"/><path d="M82.718 81.759C82.701 81.738 85 78 85 78l-2.847 3.062L82 82l.718-.241h0z"/><path d="M86 81.472c-1.14.132-2.9.252-4 .528.644-1.377 1.497-3.622 2.024-5-.315 1.247-.835 2.93-.994 4.073.821.273 2.07.269 2.97.399 0 0-.9-.13 0 0h0z"/><path d="M82.798 81.995C82.785 81.968 86 79 86 79l-3.633 2.116L82 82l.798-.005h0z"/><path d="M85 80.932c-1.14.287-2.91.65-4 1.068.533-1.39 1.203-3.626 1.617-5-.211 1.22-.593 2.88-.655 3.98.854.14 2.116-.042 3.038-.048 0 0-.922.006 0 0h0z"/><path d="M81.82 81.659C81.796 81.644 84 78 84 78l-2.951 3.164L81 82l.82-.341h0z"/><path d="M86 80.765c-1.428.335-3.653.774-5 1.235.517-1.393 1.109-3.627 1.475-5-.124 1.212-.415 2.865-.363 3.95 1.111.1 2.707-.137 3.888-.185 0 0-1.181.048 0 0h0z"/><path d="M81.749 82.772C81.729 82.75 84 79 84 79l-2.879 3.049L81 83l.749-.228h0z"/><path d="M84 81.54c-1.143.4-2.928.94-4 1.46.36-1.399.746-3.63.985-5-.05 1.2-.216 2.844-.128 3.911.905.044 2.188-.266 3.143-.37 0 0-.955.104 0 0h0z"/><path d="M81.89 82.666C81.863 82.65 84 79 84 79l-3 3.157.014.843.876-.334h0z"/><path d="M85 81.883c-1.427.3-3.647.687-5 1.117.577-1.39 1.269-3.626 1.696-5-.18 1.218-.547 2.875-.547 3.97 1.093.129 2.681-.069 3.851-.087 0 0-1.17.018 0 0h0z"/><path d="M80.862 82.937C80.845 82.914 84 80 84 80l-3.699 2.175L80 83l.862-.063h0z"/><path d="M84 82.312c-1.426.178-3.638.37-5 .688.662-1.38 1.493-3.623 2.005-5-.259 1.24-.73 2.915-.805 4.045 1.069.234 2.647.177 3.8.267 0 0-1.153-.09 0 0h0z"/><path d="M80.822 82.705C80.8 82.687 83 79 83 79l-2.954 3.117L80 83l.822-.295h0z"/><path d="M84 81.89c-1.429.582-3.661 1.393-5 2.11.44-1.687.902-4.358 1.19-6-.052 1.422-.246 3.38-.126 4.632 1.134-.036 2.74-.526 3.936-.742 0 0-1.196.216 0 0h0z"/><path d="M79.789 84.62C79.767 84.597 82 80 82 80l-2.92 3.909L79 85l.789-.38h0z"/><path d="M84 82.63c-1.43.656-3.668 1.585-5 2.37.37-1.692.72-4.36.938-6 .012 1.41-.096 3.355.084 4.587 1.155-.1 2.769-.677 3.978-.958 0 0-1.21.281 0 0h0z"/><path d="M79.995 84.506C79.965 84.491 82 80 82 80l-3 4.024.076.976.92-.494h0z"/><path d="M83 83.592c-1.43.667-3.669 1.613-5 2.408.36-1.693.694-4.36.901-6 .022 1.407-.073 3.352.115 4.58 1.157-.109 2.773-.697 3.984-.988 0 0-1.211.29 0 0h0z"/><path d="M78.975 85.688C78.95 85.663 82 81 82 81l-3.814 3.837L78 86l.975-.312h0z"/><path d="M83 83.44c-1.322.998-3.415 2.464-4.607 3.56-.002-1.72-.246-4.37-.393-6 .332 1.35.661 3.245 1.124 4.38 1.166-.391 2.695-1.36 3.876-1.94 0 0-1.18.58 0 0h0z"/><path d="M78.76 86.193C78.737 86.19 79 81 79 81l-1 5.049.279.951.48-.807h0z"/><path d="M83 83.465c-1.33.99-3.433 2.446-4.633 3.535.006-1.72-.227-4.37-.367-6 .327 1.35.648 3.247 1.107 4.385 1.17-.386 2.707-1.346 3.893-1.92 0 0-1.186.574 0 0h0z"/><path d="M78.844 87.334C78.82 87.32 80 82 80 82l-2 4.905.158 1.095.686-.666h0z"/><path d="M82 83.926c-1.152 1.145-2.985 2.844-4.003 4.074-.18-1.731-.688-4.375-.997-6 .455 1.324.965 3.197 1.523 4.292 1.065-.519 2.417-1.656 3.477-2.366 0 0-1.06.71 0 0h0z"/><path d="M78.813 87.195C78.788 87.19 79 82 79 82l-1 5.047.31.953.503-.805h0z"/><path d="M82 84.4c-1.286 1.01-3.322 2.494-4.478 3.6-.04-1.72-.34-4.37-.522-6 .358 1.348.726 3.241 1.21 4.374 1.144-.402 2.635-1.383 3.79-1.974 0 0-1.155.59 0 0h0z"/><path d="M79 88.427C78.97 88.41 81 83 81 83l-3 4.809.078 1.191.921-.573h0z"/><path d="M82 84.913c-1.15 1.148-2.982 2.853-4 4.087-.181-1.732-.69-4.375-1-6 .456 1.323.967 3.196 1.525 4.29 1.065-.522 2.415-1.664 3.475-2.377 0 0-1.06.713 0 0h0z"/><path d="M79 88.132c-.03 0-.204-5.132-.204-5.132L78 88.112l.457.888.543-.868h0z"/><path d="M82 84.876c-1.102 1.16-2.86 2.88-3.826 4.124-.233-1.733-.817-4.375-1.174-6 .492 1.321 1.054 3.193 1.64 4.283 1.036-.53 2.335-1.684 3.36-2.407 0 0-1.025.723 0 0h0z"/><path d="M77.625 88.263C77.606 88.254 78 83 78 83l-1 4.978.2 1.022.425-.737h0z"/><path d="M81 85.435c-.98 1.286-2.553 3.206-3.396 4.565-.36-1.743-1.132-4.379-1.604-6 .58 1.299 1.27 3.152 1.924 4.207.964-.64 2.137-1.938 3.076-2.772 0 0-.94.834 0 0h0z"/><path d="M78 89.142c-.03-.001-.335-5.142-.335-5.142L77 89.101l.479.899.521-.858h0z"/><path d="M81 85.19c-.902 1.356-2.359 3.387-3.122 4.81-.441-1.748-1.333-4.38-1.878-6 .635 1.287 1.408 3.129 2.104 4.165.92-.7 2.011-2.08 2.896-2.975 0 0-.885.895 0 0h0z"/><path d="M78.645 89.278C78.625 89.268 79 84 79 84l-1 4.962.21 1.038.435-.722h0z"/><path d="M81 86.491c-.767 1.557-2.018 3.904-2.644 5.509-.583-1.764-1.682-4.387-2.356-6 .733 1.251 1.649 3.064 2.42 4.044.84-.872 1.79-2.482 2.58-3.553 0 0-.79 1.071 0 0h0z"/><path d="M78 89.989c-.02.008-1-4.989-1-4.989l.338 5.258.45.742.212-1.011h0z"/><path d="M81 86.491c-.778 1.557-2.047 3.904-2.684 5.509-.57-1.764-1.653-4.387-2.316-6 .725 1.251 1.629 3.064 2.393 4.044.847-.872 1.81-2.482 2.607-3.553 0 0-.798 1.071 0 0h0z"/><path d="M79 91.122c-.03 0-.526-5.122-.526-5.122L78 91.122l.512.878.488-.878h0z"/><path d="M81 86.618c-.802 1.52-2.106 3.81-2.766 5.382-.547-1.761-1.593-4.385-2.234-6 .708 1.258 1.587 3.076 2.339 4.066.86-.84 1.847-2.408 2.661-3.448 0 0-.814 1.04 0 0h0z"/><path d="M79 91.062c-.03.003-.953-5.062-.953-5.062L78 91.184l.585.816.415-.938h0z"/><path d="M80 87.979c-.871 1.416-2.28 3.543-3.011 5.021-.474-1.753-1.414-4.382-1.989-6 .658 1.276 1.464 3.11 2.177 4.128.901-.752 1.96-2.2 2.823-3.15 0 0-.863.95 0 0h0z"/><path d="M77.696 92.256C77.676 92.248 78 87 78 87l-1 4.984.242 1.016.454-.744h0z"/><path d="M80 88.256c-.737 1.624-1.942 4.077-2.536 5.744-.615-1.77-1.761-4.388-2.464-6 .755 1.24 1.703 3.042 2.491 4.003.823-.93 1.741-2.617 2.509-3.747 0 0-.768 1.13 0 0h0z"/><path d="M78 92.967c-.037.009-2-4.967-2-4.967l.77 5.281.861.719.369-1.033h0z"/><path d="M80 88c-.519 1.7-1.395 4.293-1.767 6-.842-1.51-2.324-3.69-3.233-5.03.913.979 2.09 2.44 2.998 3.15.696-1.07 1.387-2.874 2.002-4.12 0 0-.615 1.246 0 0h0z"/><path d="M80 92.945c-.034.011-2-4.945-2-4.945l.874 5.303.818.697.308-1.055h0z"/><path d="M80 89c-.508 1.701-1.368 4.295-1.73 6-.853-1.496-2.351-3.65-3.27-4.977.92.966 2.109 2.41 3.023 3.107.69-1.075 1.37-2.881 1.977-4.13 0 0-.607 1.249 0 0h0z"/><path d="M79 93.857c-.025.016-2-4.857-2-4.857l1.165 5.393.695.607.14-1.143h0z"/><path d="M80 89c-.335 1.704-.932 4.315-1.116 6-1.035-1.302-2.8-3.137-3.884-4.267 1.046.785 2.418 1.986 3.428 2.515.587-1.132 1.087-2.962 1.572-4.248 0 0-.485 1.286 0 0h0z"/><path d="M79 94.027c-.025.006-1-5.027-1-5.027l.165 5.22.523.78.312-.973h0z"/><path d="M80 90c-.184 1.706-.554 4.332-.584 6-1.192-1.13-3.19-2.68-4.416-3.636 1.154.624 2.685 1.61 3.779 1.99.5-1.183.842-3.035 1.221-4.354 0 0-.38 1.32 0 0h0z"/><path d="M78.916 94.865C78.894 94.89 76 91 76 91l2.197 4.682L79 96l-.084-1.135h0z"/><path d="M80 91c-.191 1.706-.57 4.331-.607 6-1.186-1.137-3.173-2.7-4.393-3.663 1.15.632 2.673 1.626 3.763 2.013.504-1.182.853-3.032 1.237-4.35 0 0-.384 1.318 0 0h0z"/><path d="M79 95.83c-.023.018-2-4.83-2-4.83l1.256 5.421.657.579.087-1.17h0z"/><path d="M81 91c-.12 1.707-.39 4.339-.353 6-1.26-1.062-3.359-2.5-4.647-3.386 1.202.561 2.801 1.461 3.931 1.782.461-1.204.736-3.064 1.069-4.396 0 0-.333 1.332 0 0h0z"/><path d="M79.956 96.908C79.932 96.93 77 93 77 93l2.156 4.638L80 98l-.044-1.092h0z"/><path d="M81 92c-.109 1.707-.363 4.34-.316 6-1.272-1.05-3.386-2.47-4.684-3.346 1.21.55 2.82 1.437 3.956 1.748.455-1.206.718-3.067 1.044-4.402 0 0-.326 1.335 0 0h0z"/><path d="M80 97.893c-.027.014-2-4.893-2-4.893l1.107 5.357.72.643.173-1.107h0z"/><path d="M80.714 93c.063 1.71.073 4.357.286 6-1.372-.884-3.62-2.03-5-2.736 1.26.395 2.953 1.074 4.115 1.24.332-1.255.408-3.137.6-4.504 0 0-.192 1.367 0 0h0z"/><path d="M80.692 96.894C80.675 96.926 77 94 77 94l3.13 3.949L81 98l-.308-1.106h0z"/><path d="M80.395 93c.154 1.71.309 4.362.605 6-1.379-.838-3.622-1.906-5-2.565 1.243.352 2.923.972 4.06 1.098.254-1.27.224-3.157.335-4.533 0 0-.11 1.376 0 0h0z"/><path d="M80.91 97.883C80.887 97.907 78 94 78 94l2.204 4.663L81 99l-.09-1.117h0z"/><path d="M81.15 94c.225 1.711.49 4.37.85 6-1.385-.762-3.624-1.706-5-2.289 1.231.282 2.9.808 4.017.868.194-1.292.084-3.189.133-4.579 0 0-.049 1.39 0 0h0z"/><path d="M81.7 98.91C81.684 98.94 78 96 78 96l3.121 3.933L82 100l-.3-1.09h0z"/><path d="M80.781 94c.33 1.713.762 4.382 1.219 6-1.393-.641-3.627-1.386-5-1.847 1.213.169 2.866.544 3.953.5.103-1.327-.128-3.24-.172-4.653 0 0 .044 1.413 0 0h0z"/><path d="M81.92 98.896C81.9 98.92 79 95 79 95l2.192 4.65.808.35-.08-1.104h0z"/><path d="M81.283 95c.473 1.716 1.13 4.4 1.717 6-1.404-.464-3.631-.915-5-1.195 1.187.002 2.82.156 3.867-.043-.02-1.38-.415-3.314-.584-4.762 0 0 .17 1.448 0 0h0z"/><path d="M82.374 98.906C82.368 98.94 78 98 78 98l4.16 2 .84-.306-.626-.788h0z"/><path d="M81.304 95c.467 1.716 1.114 4.399 1.696 6-1.404-.471-3.631-.935-5-1.224 1.188.01 2.822.173 3.87-.019-.014-1.377-.402-3.31-.566-4.757 0 0 .164 1.446 0 0h0z"/><path d="M83.497 99.993C83.483 100.023 79 98 79 98l4.034 3 .966-.083-.503-.924h0z"/><path d="M81.232 96c.774 1.715 1.907 4.418 2.768 5.98-1.429-.132-3.64-.035-5 .02 1.135-.306 2.722-.566 3.685-1.052-.278-1.472-1.02-3.441-1.453-4.948 0 0 .434 1.507 0 0h0z"/><path d="M83.402 100.04C83.394 100.068 79 99 79 99l4.131 2 .869-.227-.598-.734h0z"/><path d="M81.2 96c.784 1.7 1.93 4.382 2.8 5.93-1.43-.117-3.64 0-5 .07 1.133-.316 2.72-.592 3.68-1.085-.286-1.464-1.038-3.419-1.48-4.915 0 0 .442 1.496 0 0h0z"/><path d="M83.642 100.854C83.628 100.89 80 98 80 98l3.182 3.99.818.01-.358-1.146h0z"/><path d="M81.707 97c.925 1.494 2.295 3.863 3.293 5.198-1.44.1-3.645.537-5 .802 1.108-.466 2.674-.96 3.594-1.567-.407-1.344-1.32-3.082-1.887-4.433 0 0 .566 1.35 0 0h0z"/><path d="M84.29 101.08c0 .028-4.29-.08-4.29-.08l4.245 1 .755-.374-.71-.545h0zM87.577 79c0-.026 3.423-1 3.423-1l-3.406.14-.594.534.577.326h0z"/><path d="M88.87 80c-.812-.335-2.037-.896-2.87-1.144.885-.48 2.194-1.333 3-1.856-.62.53-1.521 1.212-2.002 1.744.464.43 1.307.87 1.871 1.256 0 0-.564-.386 0 0h0z"/><path d="M86.645 79C86.641 78.984 90 78 90 78l-3.476.48-.524.391.645.129h0z"/><path d="M89 80c-1.136-.103-2.879-.314-4-.325.845-.723 2.029-1.932 2.758-2.675-.501.698-1.272 1.624-1.605 2.284.762.296 1.985.493 2.847.716 0 0-.862-.223 0 0h0z"/><path d="M85.542 79.478c.002-.014 3.458-.374 3.458-.374L85.63 79l-.63.266.542.212h0zM88 79c-.85-.158-2.14-.433-3-.53.816-.39 2.006-1.06 2.739-1.47-.547.401-1.354.925-1.762 1.316.517.249 1.412.473 2.023.684 0 0-.611-.21 0 0h0z"/><path d="M85.554 79C85.547 78.99 88 78 88 78l-2.679.672-.321.31.554.018h0z"/><path d="M88 80c-.852-.3-2.157-.808-3-1.02.653-.517 1.572-1.424 2.139-1.98-.394.556-.996 1.275-1.262 1.826.565.41 1.48.813 2.123 1.174 0 0-.643-.36 0 0h0z"/><path d="M85.547 79C85.54 78.98 88 78 88 78l-2.672.344-.328.448.547.208h0zM84.242 101c.002.03-4.242.03-4.242.03l4.295.97.705-.427-.758-.573h0z"/><path d="M84.354 100.988C84.348 101.018 80 100 80 100l4.18 2 .82-.257-.646-.755h0z"/><path d="M85.268 101.167c0 .025-4.268-.167-4.268-.167l4.268 1 .732-.322-.732-.51h0z"/><path d="M82.998 98c1.128 1.36 2.818 3.525 4.002 4.723-1.457.24-3.65.884-5 1.277 1.072-.563 2.608-1.199 3.472-1.88-.582-1.266-1.73-2.864-2.474-4.12 0 0 .744 1.256 0 0h0z"/><path d="M86.4 101.757C86.39 101.795 82 100 82 100l4.134 3 .866-.223-.6-1.02h0z"/><path d="M83.416 98c1.295 1.184 3.248 3.083 4.584 4.102-1.47.425-3.655 1.339-5 1.898 1.043-.69 2.554-1.51 3.37-2.29-.724-1.162-2.063-2.577-2.954-3.71 0 0 .891 1.133 0 0h0z"/><path d="M86.158 102c.007.03-4.158.732-4.158.732l4.381.268.619-.547-.842-.453h0z"/><path d="M85.202 102c.004.03-4.202.302-4.202.302l4.336.698.664-.473-.798-.527h0z"/><path d="M86.314 101.808C86.31 101.844 82 101 82 101l4.222 2 .778-.364-.686-.828h0z"/><path d="M87.23 102c.002.03-4.23.075-4.23.075l4.308.925.692-.434-.77-.566h0z"/><path d="M84.595 99c1.244 1.258 3.116 3.27 4.405 4.365-1.466.347-3.654 1.146-5 1.635 1.052-.636 2.57-1.379 3.402-2.117-.68-1.205-1.96-2.698-2.807-3.883 0 0 .846 1.185 0 0h0z"/><path d="M87.358 102.045C87.353 102.075 83 101 83 101l4.176 2 .824-.223-.642-.732h0z"/><path d="M85 99c1.414 1.088 3.557 2.844 5 3.766-1.47.524-3.633 1.585-4.965 2.234 1.014-.759 2.495-1.68 3.27-2.512-.83-1.107-2.307-2.422-3.305-3.488 0 0 .998 1.066 0 0h0z"/><path d="M88.116 103c.01.03-4.116 1-4.116 1l4.425-.004.575-.592-.884-.404h0z"/></g><path d="M120 90.5a29.49 29.49 0 01-14.748 25.547 29.507 29.507 0 01-29.504 0A29.49 29.49 0 0161 90.5a29.49 29.49 0 0114.748-25.547 29.507 29.507 0 0129.504 0A29.49 29.49 0 01120 90.5s.003-10.538 0 0h0z" stroke="#000"/><path d="M94.167 96L90.5 93.38 86.833 96l1.375-4.19L85 89.19h4.125L90.5 85l1.375 4.19H96l-3.208 2.62L94.167 96h0z" fill="#FEDF00" stroke="#000" stroke-width=".1"/><g fill="#000"><path d="M75.507 101.135l-3.73 2.102-1.101-1.757c-.204-.326-.33-.592-.377-.799a.885.885 0 01.079-.608c.099-.199.267-.365.505-.499.207-.116.41-.177.611-.18.2-.004.392.038.574.127.116.056.242.152.38.286a1.142 1.142 0 01-.035-.352c.006-.056.036-.149.09-.279.054-.13.1-.222.139-.278l.761-1.119.747 1.192-.786 1.205c-.103.155-.16.272-.168.353-.01.108.015.21.075.307l.059.093 1.513-.853.664 1.059zm-3.128-.29l-.246-.362a1.462 1.462 0 00-.2-.203.316.316 0 00-.203-.083.433.433 0 00-.236.05c-.11.059-.176.132-.197.22-.021.088.022.21.128.368l.256.377.698-.367z"/><path d="M69.405 99.651l-1.053-3.32.743-.261.66 2.079.553-.194-.611-1.929.71-.249.612 1.929.686-.24-.678-2.14.788-.276 1.073 3.381-3.483 1.22zM67.946 94.423l-.278-2.231c-.061-.486-.003-.86.173-1.124.177-.263.456-.414.838-.453.392-.04.715.06.97.3.253.242.414.633.481 1.174l.092.735 1.442-.148.169 1.348-3.887.399zm1.589-1.956l-.033-.304c-.026-.24-.088-.402-.188-.488a.44.44 0 00-.356-.105.504.504 0 00-.329.168c-.085.095-.114.259-.09.491l.039.354.957-.116zM68.211 86.66l.188-1.108 2.526.14c.25.014.482.06.693.14.211.078.388.192.53.343.144.15.236.305.277.464.057.221.06.483.01.785-.03.175-.077.365-.14.57-.065.205-.151.374-.26.508-.11.135-.253.255-.431.361a1.616 1.616 0 01-.529.21 3.076 3.076 0 01-.734.063l-2.526-.14.188-1.108 2.587.143c.231.013.42-.031.57-.132a.638.638 0 00.271-.442c.033-.19-.006-.344-.116-.46-.11-.116-.282-.18-.517-.193 0 0 .235.013 0 0l-2.587-.144zM68.846 84.224l.761-2.31c.127-.386.317-.647.57-.785a.914.914 0 01.789-.055c.229.084.4.23.516.438.077.139.116.314.117.527.161-.263.346-.431.553-.506.208-.075.435-.067.681.024.201.074.366.189.494.345.129.155.212.334.25.535.024.126.015.297-.027.516-.057.291-.1.482-.13.573l-.702 2.13-3.872-1.432zm1.414-1.112l.176-.442c.064-.158.078-.277.044-.357-.034-.08-.106-.137-.217-.17a.352.352 0 00-.28.02c-.082.044-.154.143-.215.297l-.18.448.672.204zm2.147.566l.19-.46c.064-.156.079-.275.045-.356-.035-.082-.103-.138-.205-.167a.337.337 0 00-.268.027c-.084.047-.158.15-.223.307l-.19.46.65.19z"/><path d="M70.012 80.09l.606-1.143 2.59 1.767.945-1.785.846.577-1.552 2.929-3.435-2.344zM73.257 76.12l.666-.943 2.774 2.699-.666.942-2.774-2.698zM77.833 74.286l.995-.434c.135.26.21.51.222.752.012.24-.034.469-.139.685-.105.217-.288.435-.55.656-.318.267-.616.441-.896.521-.28.08-.592.069-.936-.034-.345-.103-.671-.33-.98-.683-.412-.47-.6-.939-.564-1.408.036-.469.29-.901.76-1.298.368-.31.721-.481 1.058-.514.338-.033.689.057 1.053.27l-.646.844a.897.897 0 00-.254-.116.697.697 0 00-.614.154.68.68 0 00-.26.636c.022.189.144.41.367.664.276.315.514.49.715.523.2.034.39-.024.568-.174.173-.145.262-.303.268-.471.006-.169-.05-.36-.167-.573 0 0 .117.213 0 0zM82.088 72.182l-1.195.598.12.582-1.072.536-.449-3.665 1.145-.572 3 2.388-1.097.549-.452-.416zm-.64-.815l-1.124-.617.18.984.944-.367zM84.93 67.726l1.925-.338c.38-.067.694-.073.944-.02.25.055.466.158.649.309s.328.339.437.563c.109.224.185.469.23.733.07.415.074.745.01.991a1.635 1.635 0 01-.327.649 1.451 1.451 0 01-.531.41c-.272.12-.524.201-.755.242l-1.924.338-.657-3.877zm1.093.79l.347 1.958.24-.04c.204-.034.345-.084.422-.15a.51.51 0 00.155-.303c.027-.136.014-.348-.037-.634-.067-.38-.168-.63-.302-.753-.134-.121-.328-.161-.581-.119 0 0 .253-.042 0 0l-.244.041zM90.798 67.501l3.13.052-.053.728-1.96-.032-.038.542 1.817.03-.05.696-1.817-.03-.049.672 2.017.034-.056.772-3.187-.052.246-3.412zM95.545 67.514l1.086.21-.718 2.384 1.695.328-.235.78-2.781-.54.953-3.162zM101.316 69.355l1.864 1.106c.406.24.653.518.741.831.088.314.027.649-.183 1.006-.216.367-.496.59-.838.665-.342.076-.74-.02-1.191-.288l-.614-.365-.795 1.35-1.127-.668 2.143-3.637zm.683 2.504l.233.14c.183.109.33.154.442.134a.355.355 0 00.255-.18.402.402 0 00.048-.304c-.025-.107-.126-.213-.304-.319l-.27-.162-.404.69zM105.358 76.955l-1.064-1.046-.6.372-.954-.938 3.88-2.004 1.018 1-1.607 4.237-.977-.96.304-.661zm-.14-1.273l.424-1.113-.896.592.473.52zM106.366 77.972l3.514-2.259 1.197 1.63c.222.302.363.552.423.749a.845.845 0 01-.037.592 1.155 1.155 0 01-.461.513c-.195.125-.391.196-.587.212a1.233 1.233 0 01-.571-.088 1.505 1.505 0 01-.391-.254c.042.145.061.257.057.338a1.158 1.158 0 01-.07.276 1.513 1.513 0 01-.117.277l-.671 1.128-.812-1.106.69-1.213c.09-.155.138-.272.141-.35a.463.463 0 00-.094-.293l-.064-.086-1.426.917-.721-.983zm2.887-.844l.267.345c.029.038.1.101.211.19.055.047.122.07.202.072a.405.405 0 00.224-.061c.103-.063.16-.139.174-.227.013-.088-.039-.206-.154-.356l-.278-.36-.646.397zM109.606 83.467l-.48-1.22-.62.056-.43-1.095 3.866-.055.46 1.168-2.842 2.661-.44-1.12.486-.395zm.94-.74l.718-.951-1.024-.005.306.957zM111.962 87.626l.795-.118.278 1.847-1.629.243c-.291-.319-.5-.607-.627-.866a3.262 3.262 0 01-.275-.948c-.069-.46-.048-.846.063-1.158a1.61 1.61 0 01.59-.776c.282-.205.62-.336 1.017-.395.417-.062.792-.03 1.127.099.335.128.607.349.817.66.163.245.278.588.345 1.032.064.427.074.753.03.976a1.258 1.258 0 01-.277.581c-.14.164-.327.3-.564.406l-.376-1.123a.623.623 0 00.294-.29.77.77 0 00.05-.452.798.798 0 00-.364-.586c-.204-.13-.5-.165-.889-.107-.414.061-.697.184-.85.368-.154.184-.21.417-.167.698.02.134.058.259.115.374.056.116.142.245.258.388l.36-.053-.12-.8zM114.847 93l-.164 1.117-2.548-.102a2.383 2.383 0 01-.7-.129 1.405 1.405 0 01-.543-.337 1.09 1.09 0 01-.288-.463 1.884 1.884 0 01-.028-.79c.026-.176.069-.367.129-.575.06-.207.143-.379.25-.515.107-.137.249-.26.425-.37.177-.11.352-.183.528-.219.282-.058.528-.083.738-.075l2.547.102-.164 1.117-2.609-.104c-.233-.01-.423.038-.57.142a.636.636 0 00-.264.449c-.028.192.014.346.127.46.113.116.288.178.525.187 0 0-.237-.01 0 0l2.61.105zM109.686 96.722l.482-1.214-.566-.336.433-1.09 3.315 2.32-.461 1.163-4.345.272.442-1.115h.7zm.674.042l1.043.095-.89-.834-.153.739zM112.164 100.439l-.727 1.231-1.63-.006.774 1.455-.723 1.224-1.243-2.652-1.49-.907.656-1.111 1.49.906 2.893-.14z"/></g><path d="M114 90a23.992 23.992 0 01-11.998 20.784 24.006 24.006 0 01-24.004 0A23.992 23.992 0 0166 90a23.992 23.992 0 0111.998-20.784 24.006 24.006 0 0124.004 0A23.992 23.992 0 01114 90s.002-8.574 0 0h0z" stroke="#000" stroke-width=".2"/><path d="M109 90.5a18.494 18.494 0 01-9.248 16.021 18.505 18.505 0 01-18.504 0A18.494 18.494 0 0172 90.5a18.494 18.494 0 019.248-16.021 18.505 18.505 0 0118.504 0A18.494 18.494 0 01109 90.5s.002-6.609 0 0h0z" stroke="#000" stroke-width=".2"/></g></svg>