<?xml version="1.0" encoding="UTF-8"?>
<svg width="80px" height="80px" viewBox="0 0 80 80" version="1.1" xmlns="http://www.w3.org/2000/svg" xmlns:xlink="http://www.w3.org/1999/xlink">
    <!-- Generator: Sketch 61 (89581) - https://sketch.com -->
    <title>定制生日礼品</title>
    <desc>Created with Sketch.</desc>
    <g id="定制生日礼品" stroke="none" stroke-width="1" fill="none" fill-rule="evenodd">
        <g id="生日礼遇-3" fill="#CEAE7D">
            <path d="M40,0 C62.09139,0 80,17.90861 80,40 C80,62.09139 62.09139,80 40,80 C17.90861,80 0,62.09139 0,40 C0,17.90861 17.90861,0 40,0 Z M49.2814286,44.4971429 L46.5814286,46.6957143 C43.3221429,49.3635714 37.6264286,49.3635714 34.3671429,46.6957143 L31.68,44.4971429 L28.98,46.6957143 C27.3792857,48.0328571 25.1871429,48.7817857 22.8985714,48.7721429 C21.1850019,48.7798557 19.4982007,48.3470871 18,47.5153571 L18,56.9557143 C18,58.0807143 19.125,59 20.4975,59 L60.4767857,59 C61.8492857,59 62.9742857,58.0807143 62.9742857,56.9557143 L62.9742857,47.5153571 C61.4775204,48.3477693 59.7915712,48.7806032 58.0789286,48.7721429 C55.7839286,48.7785714 53.5821429,48.0328571 51.9717857,46.6957143 L51.9685714,46.6957143 L49.2814286,44.4971429 Z M42.9846429,28.3196429 L37.9928571,28.3196429 L37.9928571,32.4082143 L25.4957143,32.4082143 C21.3621429,32.4082143 18,35.1596429 18,38.5475 L18,41.6975 C18,43.9057143 20.1985714,45.7057143 22.8985714,45.7057143 C24.21,45.7057143 25.4346429,45.2878571 26.3571429,44.5292857 L31.7057143,40.1610714 L37.0414286,44.5196429 C38.8896429,46.0303571 42.1103571,46.0303571 43.9617857,44.5196429 L49.3071429,40.1610714 L54.6428571,44.5196429 C55.5653571,45.275 56.79,45.6960714 58.1014286,45.6960714 C60.8014286,45.6960714 63,43.8960714 63,41.6846429 L63,38.5442857 C62.9742857,35.1596429 59.6153571,32.4082143 55.4785714,32.4082143 L42.9846429,32.4082143 L42.9846429,28.3196429 Z M40.4839286,14 L36.2025,20.075 C35.2751515,21.2854576 35.2490456,22.9601543 36.1382143,24.1989286 C37.0221429,25.4814286 38.6871429,26.2753571 40.4871429,26.2721526 C42.2871429,26.2721526 43.9521429,25.4814286 44.8392857,24.1989286 C45.7264286,22.9132143 45.7007143,21.3382143 44.775,20.075 L40.4839286,14 Z" id="生日礼遇"></path>
        </g>
    </g>
</svg>