<svg height="180" width="180" xmlns="http://www.w3.org/2000/svg"><g fill="none" fill-rule="evenodd"><path d="M174.873 120H5.121c12.355 34.956 45.69 60 84.876 60 39.186 0 72.522-25.044 84.876-60z" fill="#4086CD"/><path d="M5.121 120h169.752c3.317-9.383 5.121-19.48 5.121-30s-1.804-20.617-5.12-30H5.12C1.805 69.383 0 79.48 0 90s1.805 20.617 5.121 30z" fill="#FFF"/><path d="M5.121 60h169.752C162.52 25.044 129.183 0 89.997 0 50.812 0 17.476 25.044 5.121 60z" fill="#4086CD"/><g fill="#1F601A" stroke="#000" stroke-width=".1"><path d="M86.12 113c.19 0 .611-.834.802-.981.19-.134 3.398-1.68 5.477-2.003 2.08-.322 5.273-1.545 5.94-1.868 3.452-1.64 7.312-4.677 8.168-5.927.897-1.303 1.848-4.341 2.27-5.967.19-.753 1.223-3.83 1.223-5.927 0-2.433-.285-4.435-.666-6.021-.367-1.586-3.126-6.236-4.811-8.306 0 0 3.792 5.806 4.444 8.024.653 2.284.843 5.066.802 6.652-.04 1.304-1.141 6.075-2.745 9.583-1.278 2.809-2.392 3.145-4.39 4.717-.938.74-2.732 1.909-4.24 2.662-1.51.739-4.717 1.68-5.573 1.814-.843.148-5.138 1.397-5.708 1.68C86.54 111.414 85 113 85 113h1.12z"/><path d="M105.379 102c-.117-.387-.166-.676-.35-.797-.165-.133-.747-.64-.863-.966-.117-.338 0-.592 0-.761 0-.17-.166-.749-.166-.749s.282-.713.515-.846c.232-.12.814-.712.93-.881 0 0-.066.338.117.507.166.17.232.592.232.834 0 .253-.116.845 0 1.135.117.326.283.592.167.966-.1.302-.582 1.558-.582 1.558h0zM107.306 99.209c0-.514.115-.827.23-.952.117-.125.86-.79.182-1.604-.297-.35-.347-.325-.512-.701-.231-.476-.694-.476-.76-.952 0 0-.166.564-.215 1.04-.066.476.05.651.099.914.066.263-.165.564-.165.952 0 .4.066.551.066.789 0 .126.216 1.779-.231 2.305 0 0 1.306-1.265 1.306-1.791h0zM95.354 108.788a6.532 6.532 0 001.2-.294c.292-.098.863-.392 1.36-.895.937-.951.849-1.455 1.01-1.497.336-.056-.527-.14-.937-.084-.395.042-.95.322-1.316.658-.38.336-.966.713-1.17.853-.205.154-.352.21-.571.49-.22.28-1.019.747-.922.923.097.176.98-.098 1.346-.154h0z"/><path d="M95.594 108.765c.252-.18.645-.555.897-.819.239-.263 1.234-.763 1.402-1.082.112-.222.73-1.068 1.094-1.734.182-.347-1.57.11-1.57.11-1.43.57-.786.168-1.57.75-.478.361-.8.666-.926.93-.182.416-.393 1.138-.603 1.512C94.122 108.807 93 110 93 110s2.355-1.04 2.594-1.235h0z"/><path d="M94.57 108.344c.572-.801.572-.557.814-.828.292-.34.75-.706 1.132-1.399-.038.068.509-1.846.483-2.077-.013-.135-.674.095-1.208.34-.458.203-.725.597-1.12.855-.47.326-.534 1.14-.75 1.52-.305.557-.344.842-.344 1.113.013.421-.216.557-.343.91C93.081 109.198 92 110 92 110s1.768-.489 2.57-1.656h0zM96.671 108.317c.223-.028.31-.13.607-.194.247-.046.47-.184 1.077-.092.26.046 1.324.221 1.585.129.26-.101-.384.544-.681.673-.31.129-.817.193-1.25.157-.434-.028-1.028 0-1.25 0-.211 0-.335.036-.645-.028-.297-.065-1.114-.13-1.114-.13s1.46-.478 1.671-.515h0zM95.557 109c.3 0 1.155.056 1.508.127.34.056 1.413-.057 1.726.113.326.154 1.752.366 2.133.267.38-.085-.761 1.056-1.21 1.183-1.453.422-1.018.366-1.956.113-.57-.156-1.386-.198-1.671-.24-.285-.056-.23-.226-.612-.394-.38-.17-1.018-.592-2.01-.704 1.046-.233 1.793-.465 2.092-.465h0z"/><path d="M96.006 109.09c.908.23.883.195 1.24.252.423.057.78-.137 1.471.114.346.126 1.817.663 2.226.64.371-.023-1.177.879-1.599.822-1.356-.172-2.635.24-3.262.011-.562-.194-.895-.331-1.176-.411-.282-.091-.435-.32-.614-.434-.18-.125-1.292-.685-1.292-.685s1.688-.628 3.006-.308h0zM103.093 104.821c.167-.136.6-.46.828-.67.192-.174.384-.559.972-.708.252-.062.865-.186 1.045-.41.168-.235-.036.832-.228 1.117-.193.286-.601.584-.997.733-.396.149-.9.447-1.08.546-.192.087-.288.186-.589.236-.3.062-.432-.025-1.044.335 0 0 .912-1.042 1.093-1.179h0z"/><path d="M102.973 105.534c.265-.131.755-.32 1.073-.436.33-.102 1.191-.785 1.536-.785.344 0 .993-.029 1.284-.275.304-.262.04.915-.291 1.248-1.1 1.075-.345.755-1.258.959-.556.13-1.298.465-1.563.552-.278.087-.304-.102-.701-.073-.398.015-1.14-.072-2.053.276 0 0 1.708-1.321 1.973-1.466h0z"/><path d="M102.093 105.445c.953-.16.914-.197 1.271-.284.424-.123.517-.123 1.298-.16.384-.025 1.894.432 2.252.234.331-.172-.37.432-.795.58-.609.21-.53.58-1.192.777-.702.21-1.444.469-1.854.395-.318-.062-.557-.197-1.007-.234-.437-.05-2.073-.326-2.066-.654.007-.328.702-.432 2.093-.654h0z"/><path d="M99.31 103.814c.173-.188.394-.456.441-.886.047-.417.379-1.115.6-1.343.22-.242.663-1.316.552-1.585 0 0 1.152.967 1.09 1.585-.048.604-.048.457 0 .739.062.282-.269 1.208-.49 1.49-.22.282-.11 1.128-.331 1.303-.222.188-1.24 1.184-1.8.793-.56-.392-.41-1.693-.063-2.096h0z"/><path d="M100.011 105.997c-.106.05.582-.495.912-.63.318-.125 1.6-.47 1.693-.768.092-.309 1.15-1.335 1.19-1.595.04-.197.238-.605.185-.816-.04-.21-.132-.73-.278-1.026-.132-.31-.45-1.026-.78-1.162 0 0-.264.816-.357 1.113-.092.309-.185.655-.33.816-.132.173-.595.989-.635 1.298a41.776 41.776 0 01-.33 1.496c-.04.21-.9 1.088-1.27 1.274 0 0 .37-.186 0 0h0zM106.002 101.935c-.043.23.73-.23 1.123-.23.394 0 1.56.14 1.855-.127.294-.27.73-.755.885-.844.14-.09.674-.895.828-1.33.141-.447 1.166-1.252 1.307-1.342 0 0-1.405-.255-2.29.269-.87.537-.927.409-1.123.486-.197.09-1.7 1.252-1.799 1.687-.098.447-.73 1.201-.786 1.431 0 0 .056-.23 0 0h0z"/><path d="M107.508 101.263c.286.049 1.617-.848 1.699-1.4.054-.296.692-.713.801-.897.34-.517.53-1.659.992-1.966 0 0-1.277.295-1.603.344-.612.086-1.128.172-1.36.639-.244.467-.434.86-.624.896-.19.05-.462.64-.558 1.241-.094.59-.855 1.88-.855 1.88s1.223-.774 1.508-.737h0zM108.15 95.967c-.207.333-.193-1.93-.276-2.165-.097-.236-.347-.722-.54-.916-.195-.194-.195-.86-.291-1.055-.083-.194-.042-1.498.096-1.831 0 0 .388.291.582.527.194.236.527.333.624.625.097.291.29.291.429.583.152.291.29.763.194 1.151-.097.389-.042.528-.042.874 0 .333-.485 1.776-.776 2.207 0 0 .291-.43 0 0h0z"/><path d="M108.4 95.028c-.256-.231-.512-.231-.617-.36-.105-.14-.06-.308-.165-.487-.105-.18-.33-.475-.36-.629-.106-.488-.422-1.026-.151-1.552 0 0 .571.167.721.256.166.09.632.45.677.809.06.398.105.449.27.667.15.218.36.885.105 1.296-.27.398-.315.795-.315.795-.083-.398.105-.577-.165-.795h0zM108.65 87.44c-.448-.365-.56-1.062-1.555-1.44 0 0 .048.295 0 .496-.065.2-.177.78 0 .98.16.213.722.579.722.744 0 .166.385.579.657.662.29.07.514.118.514.118s.112-1.193-.337-1.56h0z"/><path d="M108.767 87.94a5.383 5.383 0 01-.467-.514c-.11-.16-.233-.559-.5-.719-.266-.16-.777-.707-.777-.707s-.111.981.155 1.506c.278.513.278.787.578.9.31.126.355.206.466.286.122.08.311.194.467.194.156 0 .311.114.311.114s0-.821-.233-1.06h0zM109.046 95.955c-.05.237-.22-.533.672-.533.893 0 1.615-.332 1.92-.628.294-.284.466-.485.588-.616.134-.118.465-.615.514-.864.036-.237.293-1.148.256-1.314 0 0-.477.083-.685.249-.207.165-.599.165-.807.296-.208.118-.38.45-.514.568-.122.13-.501.13-.673.367-.17.249-.464.782-.513 1.03-.037.249-.343.497-.55.616-.208.13-.172.616-.208.829 0 0 .036-.213 0 0h0z"/><path d="M109.927 95.17c.305 0 1.092-.885 1.143-1.264.038-.393.305-1.124.483-1.278.177-.141.482-.478.444-1.068-.05-.59-.05-1.56-.05-1.56s-.179.59-.433.73c-.266.141-.749.338-.838.535-.089.197-.444.197-.584.787-.127.576-.127.534-.216.73-.089.198-.304.437-.393.83A206.23 206.23 0 00109 96s.61-.83.927-.83h0zM109.112 89.951c.027.24-.379-.466.515-.718.906-.252 1.529-.781 1.731-1.146.204-.353.312-.605.406-.756.081-.164.271-.73.23-.983-.027-.252-.067-1.197-.162-1.348 0 0-.447.214-.595.428-.163.227-.555.34-.731.517-.163.176-.23.542-.325.706-.095.15-.474.264-.568.541-.095.29-.217.895-.176 1.147.027.251-.19.567-.366.756-.176.176.028.642.041.856 0 0-.013-.214 0 0h0z"/><path d="M109.81 88.993c.272-.096.718-.883.743-1.241.037-.414.086-1.104.21-1.283.124-.18.347-.772.173-1.283-.185-.51-.47-1.186-.47-1.186s-.248.428-.384.69c-.223.497-.446.538-.483.73-.025.208-.297.332-.396.732-.137.538.012.51-.013.717-.037.193-.173.483-.148.855.013.372-.173 1.434.149 2.276 0 0 .347-.925.619-1.007h0zM109 84c-.042-.12-.335-.252-.684-.336-.335-.084-.865-.744-1.102-.912-.223-.18-.349-.444-.642-.588-.293-.144-.474-.66-.572-1.164 0 0 .823.168 1.06.204.237.048.726.3.921.504.195.204.39.54.586.624.196.084.433.588.433.924V84h0z"/><path d="M108.962 84.139c0-.307.175-1.124-.227-1.781-.282-.453-1.314-1.314-1.582-1.358 0 0-.188.803-.147 1.05.053.264.294 1.27.51 1.373.213.102.75 1.314 1.393 1.577 0 0 .053-.599.053-.861h0zM109.559 83.973c.083.188.027-.654.22-.868.193-.226.221-.528.221-.88s-.055-.603-.092-.83c-.027-.213-.514-1.131-.478-1.395 0 0-.275.855-.349 1.094-.1.301.064.616.028.867-.028.264-.184.742-.065 1.006.101.226.386.704.515 1.006 0 0-.129-.302 0 0h0zM106.591 79.875s-.887-.038-1.05-.213a2.974 2.974 0 00-.607-.489c-.163-.075-.444-.475-.49-.65-.035-.176-.327-.514-.444-.514 0 0 .444-.05.934.088.478.125 1.167.388 1.33.738.164.339.736 1.165.736 1.165l-.409-.125h0z"/><path d="M106.9 79.92c-.089.289-.734-.287-.879-.491l-.39-.54s-.367-.48-.467-.672c-.233-.457-.178-1.285-.078-1.213.123.085.546.336.657.385.122.036.345.12.423.324.078.216.156.504.278.636.111.12.812.54.456 1.572 0 0 .356-1.032 0 0h0z"/><path d="M105.806 78.4c-.344-.23-.164-.554-.344-.715-.147-.15-.557-.52-.442-.762.114-.242.327-.923.327-.923s.41.277.688.485c.294.196.343.357.458.6.114.242.343.404.458.6.115.196 0 .6-.065.842-.05.242 0 .473 0 .473s-.786-.392-1.08-.6h0z"/></g><g fill="#1F601A" stroke="#000" stroke-width=".1"><path d="M94.88 113c-.19 0-.611-.834-.802-.981-.19-.134-3.398-1.68-5.477-2.003-2.08-.322-5.273-1.545-5.94-1.868-3.452-1.64-7.312-4.677-8.168-5.927-.897-1.303-1.848-4.341-2.27-5.967-.19-.753-1.223-3.83-1.223-5.927 0-2.433.285-4.435.666-6.021.367-1.586 3.126-6.236 4.811-8.306 0 0-3.792 5.806-4.444 8.024-.653 2.284-.843 5.066-.802 6.652.04 1.304 1.141 6.075 2.745 9.583 1.278 2.809 2.392 3.145 4.39 4.717.938.74 2.732 1.909 4.24 2.662 1.51.739 4.717 1.68 5.573 1.814.843.148 5.138 1.397 5.708 1.68C94.46 111.414 96 113 96 113h-1.12 0z"/><path d="M75.621 102c.117-.387.166-.676.35-.797.165-.133.747-.64.863-.966.117-.338 0-.592 0-.761 0-.17.166-.749.166-.749s-.282-.713-.515-.846c-.232-.12-.814-.712-.93-.881 0 0 .066.338-.117.507-.166.17-.232.592-.232.834 0 .253.116.845 0 1.135-.117.326-.283.592-.167.966.1.302.582 1.558.582 1.558h0zM73.694 99.209c0-.514-.115-.827-.23-.952-.117-.125-.86-.79-.182-1.604.297-.35.347-.325.512-.701.231-.476.694-.476.76-.952 0 0 .166.564.215 1.04.066.476-.05.651-.099.914-.066.263.165.564.165.952 0 .4-.066.551-.066.789 0 .126-.216 1.779.231 2.305 0 0-1.306-1.265-1.306-1.791h0zM85.646 108.788a6.532 6.532 0 01-1.2-.294c-.292-.098-.863-.392-1.36-.895-.937-.951-.849-1.455-1.01-1.497-.336-.056.527-.14.937-.084.395.042.95.322 1.316.658.38.336.966.713 1.17.853.205.154.352.21.571.49.22.28 1.019.747.922.923-.097.176-.98-.098-1.346-.154h0z"/><path d="M85.406 108.765c-.252-.18-.645-.555-.897-.819-.239-.263-1.234-.763-1.402-1.082-.112-.222-.73-1.068-1.094-1.734-.182-.347 1.57.11 1.57.11 1.43.57.786.168 1.57.75.478.361.8.666.926.93.182.416.393 1.138.603 1.512C86.878 108.807 88 110 88 110s-2.355-1.04-2.594-1.235h0z"/><path d="M86.43 108.344c-.572-.801-.572-.557-.814-.828-.292-.34-.75-.706-1.132-1.399.038.068-.509-1.846-.483-2.077.013-.135.674.095 1.208.34.458.203.725.597 1.12.855.47.326.534 1.14.75 1.52.305.557.344.842.344 1.113-.013.421.216.557.343.91C87.919 109.198 89 110 89 110s-1.768-.489-2.57-1.656h0zM84.329 108.317c-.223-.028-.31-.13-.607-.194-.247-.046-.47-.184-1.077-.092-.26.046-1.324.221-1.585.129-.26-.101.384.544.681.673.31.129.817.193 1.25.157.434-.028 1.028 0 1.25 0 .211 0 .335.036.645-.028.297-.065 1.114-.13 1.114-.13s-1.46-.478-1.671-.515h0zM85.443 109c-.3 0-1.155.056-1.508.127-.34.056-1.413-.057-1.726.113-.326.154-1.752.366-2.133.267-.38-.085.761 1.056 1.21 1.183 1.453.422 1.018.366 1.956.113.57-.156 1.386-.198 1.671-.24.285-.056.23-.226.612-.394.38-.17 1.018-.592 2.01-.704-1.046-.233-1.793-.465-2.092-.465h0z"/><path d="M84.994 109.09c-.908.23-.883.195-1.24.252-.423.057-.78-.137-1.471.114-.346.126-1.817.663-2.226.64-.371-.023 1.177.879 1.599.822 1.356-.172 2.635.24 3.262.011.562-.194.895-.331 1.176-.411.282-.091.435-.32.614-.434.18-.125 1.292-.685 1.292-.685s-1.688-.628-3.006-.308h0zM77.907 104.821c-.167-.136-.6-.46-.828-.67-.192-.174-.384-.559-.972-.708-.252-.062-.865-.186-1.045-.41-.168-.235.036.832.228 1.117.193.286.601.584.997.733.396.149.9.447 1.08.546.192.087.288.186.589.236.3.062.432-.025 1.044.335 0 0-.912-1.042-1.093-1.179h0z"/><path d="M78.027 105.534a13.36 13.36 0 00-1.073-.436c-.33-.102-1.191-.785-1.536-.785-.344 0-.993-.029-1.284-.275-.304-.262-.04.915.291 1.248 1.1 1.075.345.755 1.258.959.556.13 1.298.465 1.563.552.278.087.304-.102.701-.073.398.015 1.14-.072 2.053.276 0 0-1.708-1.321-1.973-1.466h0z"/><path d="M78.907 105.445c-.953-.16-.914-.197-1.271-.284-.424-.123-.517-.123-1.298-.16-.384-.025-1.894.432-2.252.234-.331-.172.37.432.795.58.609.21.53.58 1.192.777.702.21 1.444.469 1.854.395.318-.062.557-.197 1.007-.234.437-.05 2.073-.326 2.066-.654-.007-.328-.702-.432-2.093-.654h0z"/><path d="M81.69 103.814c-.173-.188-.394-.456-.441-.886-.047-.417-.379-1.115-.6-1.343-.22-.242-.663-1.316-.552-1.585 0 0-1.152.967-1.09 1.585.048.604.048.457 0 .739-.062.282.269 1.208.49 1.49.22.282.11 1.128.331 1.303.222.188 1.24 1.184 1.8.793.56-.392.41-1.693.063-2.096h0z"/><path d="M80.989 105.997c.106.05-.582-.495-.912-.63-.318-.125-1.6-.47-1.693-.768-.092-.309-1.15-1.335-1.19-1.595-.04-.197-.238-.605-.185-.816.04-.21.132-.73.278-1.026.132-.31.45-1.026.78-1.162 0 0 .264.816.357 1.113.092.309.185.655.33.816.132.173.595.989.635 1.298.053.297.277 1.286.33 1.496.04.21.9 1.088 1.27 1.274 0 0-.37-.186 0 0h0zM74.998 101.935c.043.23-.73-.23-1.123-.23-.394 0-1.56.14-1.855-.127-.294-.27-.73-.755-.885-.844-.14-.09-.674-.895-.828-1.33-.141-.447-1.166-1.252-1.307-1.342 0 0 1.405-.255 2.29.269.87.537.927.409 1.123.486.197.09 1.7 1.252 1.799 1.687.098.447.73 1.201.786 1.431 0 0-.056-.23 0 0h0z"/><path d="M73.492 101.263c-.286.049-1.617-.848-1.699-1.4-.054-.296-.692-.713-.801-.897-.34-.517-.53-1.659-.992-1.966 0 0 1.277.295 1.603.344.612.086 1.128.172 1.36.639.244.467.434.86.624.896.19.05.462.64.558 1.241.094.59.855 1.88.855 1.88s-1.223-.774-1.508-.737h0zM72.85 95.967c.207.333.193-1.93.276-2.165.097-.236.347-.722.54-.916.195-.194.195-.86.291-1.055.083-.194.042-1.498-.096-1.831 0 0-.388.291-.582.527-.194.236-.527.333-.624.625-.097.291-.29.291-.429.583-.152.291-.29.763-.194 1.151.097.389.042.528.042.874 0 .333.485 1.776.776 2.207 0 0-.291-.43 0 0h0z"/><path d="M72.6 95.028c.256-.231.512-.231.617-.36.105-.14.06-.308.165-.487.105-.18.33-.475.36-.629.106-.488.422-1.026.151-1.552 0 0-.571.167-.721.256-.166.09-.632.45-.677.809-.06.398-.105.449-.27.667-.15.218-.36.885-.105 1.296.27.398.315.795.315.795.083-.398-.105-.577.165-.795h0zM72.35 87.44c.448-.365.56-1.062 1.555-1.44 0 0-.048.295 0 .496.065.2.177.78 0 .98-.16.213-.722.579-.722.744 0 .166-.385.579-.657.662-.29.07-.514.118-.514.118s-.112-1.193.337-1.56h0z"/><path d="M72.233 87.94c.233-.24.356-.366.467-.514.11-.16.233-.559.5-.719.266-.16.777-.707.777-.707s.111.981-.155 1.506c-.278.513-.278.787-.578.9-.31.126-.355.206-.466.286-.122.08-.311.194-.467.194-.156 0-.311.114-.311.114s0-.821.233-1.06h0zM71.954 95.955c.05.237.22-.533-.672-.533-.893 0-1.615-.332-1.92-.628-.294-.284-.466-.485-.588-.616-.134-.118-.465-.615-.514-.864-.036-.237-.293-1.148-.256-1.314 0 0 .477.083.685.249.207.165.599.165.807.296.208.118.38.45.514.568.122.13.501.13.673.367.17.249.464.782.513 1.03.037.249.343.497.55.616.208.13.172.616.208.829 0 0-.036-.213 0 0h0z"/><path d="M71.073 95.17c-.305 0-1.092-.885-1.143-1.264-.038-.393-.305-1.124-.483-1.278-.177-.141-.482-.478-.444-1.068.05-.59.05-1.56.05-1.56s.179.59.433.73c.266.141.749.338.838.535.089.197.444.197.584.787.127.576.127.534.216.73.089.198.304.437.393.83C71.607 94.005 72 96 72 96s-.61-.83-.927-.83h0zM71.888 89.951c-.027.24.379-.466-.515-.718-.906-.252-1.529-.781-1.731-1.146-.204-.353-.312-.605-.406-.756-.081-.164-.271-.73-.23-.983.027-.252.067-1.197.162-1.348 0 0 .447.214.595.428.163.227.555.34.731.517.163.176.23.542.325.706.095.15.474.264.568.541.095.29.217.895.176 1.147-.027.251.19.567.366.756.176.176-.028.642-.041.856 0 0 .013-.214 0 0h0z"/><path d="M71.19 88.993c-.272-.096-.718-.883-.743-1.241-.037-.414-.086-1.104-.21-1.283-.124-.18-.347-.772-.173-1.283.185-.51.47-1.186.47-1.186s.248.428.384.69c.223.497.446.538.483.73.025.208.297.332.396.732.137.538-.012.51.013.717.037.193.173.483.148.855-.013.372.173 1.434-.149 2.276 0 0-.347-.925-.619-1.007h0zM72 84c.042-.12.335-.252.684-.336.335-.084.865-.744 1.102-.912.223-.18.349-.444.642-.588.293-.144.474-.66.572-1.164 0 0-.823.168-1.06.204-.237.048-.726.3-.921.504-.195.204-.39.54-.586.624-.196.084-.433.588-.433.924V84h0z"/><path d="M72.038 84.139c0-.307-.175-1.124.227-1.781.282-.453 1.314-1.314 1.582-1.358 0 0 .188.803.147 1.05-.053.264-.294 1.27-.51 1.373-.213.102-.75 1.314-1.393 1.577 0 0-.053-.599-.053-.861h0zM71.441 83.973c-.083.188-.027-.654-.22-.868-.193-.226-.221-.528-.221-.88s.055-.603.092-.83c.027-.213.514-1.131.478-1.395 0 0 .275.855.349 1.094.1.301-.064.616-.028.867.028.264.184.742.065 1.006-.101.226-.386.704-.515 1.006 0 0 .129-.302 0 0h0zM74.409 79.875s.887-.038 1.05-.213c.163-.175.444-.401.607-.489.163-.075.444-.475.49-.65.035-.176.327-.514.444-.514 0 0-.444-.05-.934.088-.478.125-1.167.388-1.33.738C74.572 79.174 74 80 74 80l.409-.125h0z"/><path d="M74.1 79.92c.089.289.734-.287.879-.491l.39-.54s.367-.48.467-.672c.233-.457.178-1.285.078-1.213a7.525 7.525 0 01-.657.385c-.122.036-.345.12-.423.324-.078.216-.156.504-.278.636-.111.12-.812.54-.456 1.572 0 0-.356-1.032 0 0h0z"/><path d="M75.194 78.4c.344-.23.164-.554.344-.715.147-.15.557-.52.442-.762-.114-.242-.327-.923-.327-.923s-.41.277-.688.485c-.294.196-.343.357-.458.6-.114.242-.343.404-.458.6-.115.196 0 .6.065.842.05.242 0 .473 0 .473s.786-.392 1.08-.6h0z"/></g><path d="M98.243 80.399a5.559 5.559 0 00-.025-.106l-1.316 1.409H85.794L84.032 80c-.038.799-.047 1.045 0 1.55.018.184.482 1.229.482 1.229l-.268.221h13.239s.06-.064.15-.167l.045.118c.05-.158.183-.37.318-.574.063-.088.125-.18.18-.27.093-.144.164-.264.17-.328l.003-.032a.924.924 0 00.014-.045c.031-.115.03-.287.015-.47.002-.229-.01-.483-.032-.938l-.105.105zm-7.24 17.63a.244.244 0 00.006.097h-.02l-.013.025h0a.808.808 0 01-.123.249l-.024.049c.049-.078.19-.29.169-.42L91 98h-4 0c.363.169 0 0 0 0 .363.169.487.506 1.538.844.08 0 .159.007.238.02-.222.056-.309.1-.602.159-.818.135.134.03-.71.114-.737.074-1.06.22-1.783.178-.979-.042-1.555-.365-1.944-.585-.174-.094-1.26-.313-1.85-.73H78c.55.271.965.365 1.488.7.067.051.402.176.482.218.536.293 1.743.407 2.293.71.308.167 1.193.313 1.555.334.885.041 1.756.083 2.654-.073.348-.063.402-.105.737-.146.188-.021.563-.136.75-.167.376-.073.108-.052.604-.167.523-.115.75-.209 1.3-.282.121-.01.229-.094.336-.157.053-.02.228-.135.268-.156.147-.104.134-.073.214-.209.028-.028.29-.243.365-.375h0c.041.09.098.175.125.219a5.418 5.418 0 01.148.156c.08.136.067.105.214.209.04.02.215.135.268.156.107.063.215.147.336.157.55.073.777.167 1.3.282.496.115.228.094.603.167.188.03.563.146.75.167.336.041.39.083.738.146.898.156 1.77.114 2.654.073.362-.021 1.247-.167 1.555-.334.55-.303 1.757-.417 2.293-.71.08-.042.415-.167.482-.219.523-.334.939-.428 1.488-.699 0 0 .67-1.303 1.25-2.604l.89 1.604h0c.16-.106.432-.412.519-.678.173-.532.136-.519.26-1.104.074-.332.074-.704.148-1.05.062-.345.52-1.449.532-1.901.049-1.449.495-2.433.383-4.015-.074-1.223-.334-2.885-.21-4.162.037-.345-.012-.745-.025-1.09l-2.919 2.048c.112 2.1.062 2.685.062 4.72.013.491-.395 2.485-.89 3.376l.434.782h0c-1.744 1.53-4.321 4.074-4.321 4.074-.59.417-1.676.636-1.85.73-.389.22-.965.543-1.944.585-.724.041-1.046-.104-1.783-.178-.844-.083.108.021-.71-.114-.293-.06-.38-.103-.602-.16.079-.012.158-.02.238-.02 1.05-.337 1.175-.674 1.538-.843 0 0-.363.169 0 0h0-4l.002.03h0zm-.375-8.437L100 87.026c.457-1.118.941-3.408.914-3.934-.094-2.158-.067-2.802-.269-5.013L103.468 75c.014.382.094.776.068 1.171-.068 1.395.255 3.092.39 4.382.174 1.644-.014 2.513 0 4.066v.9l-1.609.838s.235 1.34 0 1.853c-.233.51-.859 1.671-.859 1.671l-9.814.282c.027.036.038.068.03.096-.22.794-9.851 1.012-9.851 1.012s-1.384-2.467-1.773-3.093c-.29-.466 0-1.685 0-1.685l-.895-.572c-.04-.5-.08-1.052-.08-1.302.013-1.553-.175-2.422 0-4.066.134-1.29.457-2.987.39-4.382-.027-.395.053-.79.067-1.171l2.823 3.08c-.202 2.21-.175 2.854-.27 5.012-.026.526.458 2.816.915 3.934 0 0 5.32 1.571 7.628 2.566h0zM89.128 76c-.119-.296-.145-2.284-.119-2.593.04-.538.943-3.17 1.127-3.48.196-.309.144-.376.222-.564L90.62 69c.197.336.34.86.38 1.276 0 0-.17 1.263-.314 1.828-.131.564-.485 1.343-.55 1.505-.17.39-.158.752-.053.779L89.127 76h0zM91 70.695s1.18 1.666.923 1.956c-.257.289-.257.204-.215.349L91 72.229c.666-.398 0-1.534 0-1.534zm.51 30.18c.142.322.355.836.1 1.125v-.01c.127 0 .24-.033.354-.065.043-.01.085-.022.1-.054a.541.541 0 01.155-.128c.085-.043.185-.01.27-.054.028-.021.042-.043.057-.043.17-.064.34-.139.41-.278a.467.467 0 00.03-.311c-.015-.075-.058-.128-.086-.193l-.17-.289c-.057-.096-.142-.182-.198-.279a.555.555 0 00-.1-.139c-.028-.043-.07-.086-.1-.128-.028-.043-.098-.076-.141-.118-.057-.043-.071-.043-.114-.075-.014-.01-.084-.022-.07-.043a.185.185 0 01-.085-.032c-.114-.183-.213-.279-.326-.461-.057-.075-.071-.214-.071-.3H91c.184.611.24 1.232.51 1.875zM91 99c-.171.611-.228 1.232-.514 1.875-.129.322-.343.836-.086 1.125l-.014-.01h.014c-.128 0-.243-.033-.371-.065-.029-.01-.072-.022-.1-.054a.4.4 0 00-.157-.128c-.072-.043-.172-.01-.257-.054-.03-.021-.043-.043-.072-.043-.171-.064-.328-.139-.4-.278a.464.464 0 01-.028-.311c.014-.075.057-.128.086-.193l.17-.289c.058-.096.13-.182.2-.279a.556.556 0 01.1-.139c.03-.043.058-.086.1-.128.03-.043.1-.076.143-.118.058-.043.072-.043.114-.075.015-.01.086-.022.072-.043.029 0 .071-.022.071-.032.129-.183.229-.279.343-.461.057-.075.071-.214.071-.3H91zm-15.659-1.678c-.173-.532-.136-.519-.26-1.104-.074-.332-.074-.704-.148-1.05-.062-.345-.52-1.449-.532-1.901-.049-1.449-.495-2.433-.383-4.015.074-1.223.334-2.885.21-4.162-.037-.345.012-.745.025-1.09l2.919 2.048c-.112 2.1-.062 2.685-.062 4.72-.013.491.395 2.485.89 3.376 0 0 1.677 2.68 1.4 3.178-.436.786-3.54.678-3.54.678-.16-.106-.432-.412-.519-.678z" fill="#00209F" stroke="#262626" stroke-width=".1"/><path d="M79.518 75.082v-.423l-1-.498.373.921.459.159L85.79 82l.21-.175-6.482-6.743zm11.71-7.063l.284-.315-.41-1.04-.34.935.235.425.264 9.332.272.01-.304-9.347zM72.866 81.953l-.11-.409-1.094-.222.598.794.484.034 9.97 5.862.158-.223-10.006-5.836zM103 75.083v-.424l1-.498-.373.921-.458.159L96.728 82l-.21-.175L103 75.082zm6.712 6.87l.11-.409 1.094-.222-.598.794-.485.034-9.97 5.862-.157-.223 10.006-5.836z" fill="#FC0" stroke="#000" stroke-width=".1"/><g stroke-width=".1"><path d="M77 97h28L90.994 74 77 97z" fill="#FFF" stroke="#000"/><path d="M81.147 90h0L77 97h28l-4.16-7H81.147h0z" fill="#007E93" stroke="#007E93"/><path d="M91.007 86A2.002 2.002 0 0093 83.993 2 2 0 0091.007 82c-1.11 0-2.007.897-2.007 1.993 0 1.11.897 2.007 2.007 2.007 0 0-1.11 0 0 0h0z" fill="#FFF" stroke="#FFF"/><g stroke="#000"><path d="M90.572 82.526s-.12.18-.187.333c0 0-.2.103-.32-.038-.12-.115-.053-.167.04-.346.08-.142.066-.282.173-.372.093-.09.173-.103.427-.103s.414.026.628.308c.186.243.293.474.387.602.213.32.213.706.213.706l.067.307s-.267-.14-.427-.14c-.16 0-.868-.04-1.148.038-.16.051-.294.179-.294.179s-.106-.23.054-.346c0 0 .027-.5.387-1.128h0z" fill="#E60000"/><path d="M91.028 84.037s.099-.083.323 0c0 0 .037 1.745 0 2.818-.036 1.073.07 2.159-.168 2.145-.281 0-.155-2.117-.155-2.117v-2.846h0z" fill="#FC0"/></g><g fill="#FC0" stroke="#000"><path d="M80.075 91.982c.141.03.48-.26.58-.336.14-.092.211-.32.325-.443.112-.137.452-.305.607-.412.679-.458.99-.718 1.456-1.389.636-.946 1.385-1.724 2.318-2.289.297-.183.749-.122 1.074.03.099.046.226.168.34.26.395.335.932.58 1.582.793.622.199.764.641 1.258 1.114.24.23.51.428.806.58.028.015.099.138.127.153.283.229.594.412.834.641.452.443.876.886 1.3 1.358.07.076.1.23.17.29.325.336.636.687 1.031.885.396.214.75.49 1.117.733-3.76.153-7.223-.107-10.996.016-.1.015-.128 0-.693 0-.283-.016-.452.015-.735.015-1.145-.015-2.233-.015-3.576-.03l1.075-1.97h0z"/><path d="M94.615 94c-.291-.22-.583-.456-.9-.645-.371-.205-.663-.567-.967-.913-.066-.063-.093-.22-.16-.3a28.257 28.257 0 00-1.217-1.4c-.225-.236-.517-.425-.782-.66-.026-.017-.092-.143-.119-.158a3.282 3.282 0 01-.755-.598c-.304-.33-.463-.63-.715-.866l.013-.016c.146-.126.305-.251.477-.346.225-.157.583-.11.835.032.08.031.185.126.264.204.305.3.729.504 1.232.693.49.173.61.55.993.944.186.205.385.378.623.504.013.016.066.11.093.141.225.19.463.347.662.551.344.378.676.756 1.007 1.165.053.063.066.189.132.252.252.283.503.582.808.755.305.173.57.41.861.614-.795.047-1.576.047-2.358.047h-.027 0z"/><path d="M91 89.468c.115.029.244.072.374.115.533.159.662.504 1.08.863.2.188.416.346.676.461.014.014.071.1.1.13.245.172.504.316.72.503.374.345.734.69 1.093 1.064.058.058.072.173.144.23.273.26.547.533.878.69.287.13.532.318.791.476.705 0 1.41-.014 2.144-.043-.288-.173-.547-.374-.863-.518-.303-.144-.533-.389-.792-.633-.058-.043-.072-.144-.13-.202-.33-.345-.661-.647-1.007-.964-.186-.172-.417-.302-.632-.46-.03-.014-.087-.1-.101-.115a2.585 2.585 0 01-.62-.417c-.373-.331-.488-.648-.978-.792-.489-.144-.906-.33-1.208-.56-.086-.073-.187-.16-.26-.188-.258-.115-.604-.158-.834-.029a4.084 4.084 0 00-.575.39s.173-.145 0 0h0z"/><path d="M95 90.556c.091.113.181.227.31.356.168.17.348.299.555.412.013.014.065.1.09.114.194.157.4.285.568.456.31.313.607.612.903.953.052.057.064.157.116.2.233.241.439.483.71.626.18.1.335.213.503.327h-.013c.749 0 1.497 0 2.258-.029-.207-.142-.387-.298-.62-.412-.219-.128-.387-.327-.58-.513-.039-.042-.052-.113-.09-.17-.246-.27-.478-.513-.723-.769-.142-.142-.31-.242-.465-.37-.025-.014-.064-.071-.077-.085-.168-.086-.31-.2-.452-.328-.27-.27-.348-.526-.696-.64-.362-.128-.671-.256-.89-.456-.065-.056-.13-.113-.181-.142-.194-.085-.439-.128-.607-.028a3.572 3.572 0 00-.619.484v.014h0z"/><path d="M101.402 94a2.757 2.757 0 00-.464-.261c-.219-.112-.386-.286-.58-.448-.038-.037-.051-.1-.09-.15-.245-.236-.477-.447-.722-.671-.141-.125-.309-.212-.464-.324-.025-.012-.064-.062-.077-.074a2.113 2.113 0 01-.451-.287c-.232-.199-.322-.385-.554-.51l.013.013c.116-.087.245-.174.374-.237.154-.087.36-.05.528.013.038.012.103.074.154.112.194.136.439.249.761.336.296.087.36.273.593.472.116.1.245.187.386.25.013.012.039.061.065.074.129.087.283.162.4.274.205.186.412.373.618.572.039.037.039.1.077.124.155.137.31.287.49.374.193.1.36.211.541.31-.541.026-1.07.026-1.598.026V94h0z"/></g></g><path d="M90.872 78.988h.092c1.43 0 2.6.308 3.316.938l.33-.376c-.825-.724-2.106-1.062-3.646-1.062h-.095c-1.49.017-2.67.338-3.577 1.036l.305.396c.81-.623 1.887-.916 3.275-.932z" fill="#346DA6"/><path d="M90.903 78.544h.093c1.43 0 2.599.308 3.315.938l.33-.376c-.824-.724-2.105-1.062-3.645-1.062H90.9c-1.49.017-2.67.338-3.576 1.036l.305.396c.81-.623 1.887-.916 3.274-.932z" fill="#57BB63"/><path d="M90.87 78.095h.093c1.43 0 2.599.309 3.315.938l.33-.376c-.824-.724-2.106-1.062-3.645-1.062h-.096c-1.49.017-2.67.338-3.576 1.036l.305.396c.81-.623 1.887-.916 3.274-.932z" fill="#E5B731"/><path d="M90.9 77.7h.092c1.433.018 2.594.322 3.307.94l.328-.378c-.82-.71-2.089-1.043-3.632-1.061h-.099c-1.464.017-2.636.346-3.582 1.049l.298.401c.854-.634 1.924-.934 3.287-.95z" fill="#CE6F2D"/><path d="M90.936 77.25h.093c1.433.017 2.594.321 3.307.939l.328-.378c-.82-.71-2.089-1.042-3.632-1.061h-.099c-1.464.017-2.636.346-3.582 1.05l.298.4c.854-.634 1.924-.934 3.287-.95z" fill="#CA4638"/><path d="M90.994 72L75 98h32L90.994 72zM77 97h28L90.994 74 77 97z" fill="#FC0" stroke="#000" stroke-width=".1"/><path d="M90.658 73.15c.321-.431.342-1.333.342-1.333s-.095-1.807-.208-1.817c-.113-.01-.134 1.229-.249 1.778-.103.549-.384 1.307-.436 1.464-.207.654-.051.732-.041.758l.477-1.007.115.157z" fill="#FFF"/><path d="M90.086 110.433c-.002.166.001.306.014.38.035.28.397.181.76.115.088-.012.128-.111.138-.256.113.09.187.202.187.467 0 .569.32 1.598.96 1.828 0 0 .151-.427.365-.504 0 0 .64.537.837.537 0 0-.365-.493-.365-.723 0-.23-.32-1.105-.64-1.324-.25-.19-.73-.587-1.392-.826a5.724 5.724 0 00-.028-.145c.96.11 1.177-.31 1.335-.474.17-.165.597-1.982.134-2.36-.464-.365-1.232.048-1.488.13-.203.07-.301 1.344-.303 1.8-.103-.11-.155-.089-.2-.024-.005-.474-.104-1.708-.303-1.775-.256-.083-1.024-.496-1.488-.13-.463.377-.036 2.194.134 2.36.159.164.378.589 1.354.47h.003l-.003.056c-.82.21-1.405.7-1.692.918-.32.219-.64 1.094-.64 1.324 0 .23-.365.723-.365.723.198 0 .838-.537.838-.537.213.077.365.504.365.504.64-.23.96-1.259.96-1.828 0-.48.242-.462.523-.706zm.26-1.287c-.046.085-.102.176-.211.188l-.012.198c-.194-.061-.44 0-.71-.13-.34-.165-.45-.318-.426-.484.049-.247.024-1.156.28-1.238.257-.083.659-.2.659-.2s.302 1.305.42 1.666zm.476.408a8.078 8.078 0 00-.08-.286 2.044 2.044 0 00-.087-.125c.119-.366.419-1.664.419-1.664s.402.118.659.2c.256.083.231.992.28 1.24.025.165-.085.318-.427.483-.295.143-.563.055-.764.152z" fill="#00209F"/><g fill="#FC0"><path d="M76.945 114l.225 1.686c-.44-.145-.845.115-1.04.485-.312.631-.036 1.107.563 1.41l.807.419 1.5-2.948-.6-.303-.6 1.183h-.012l-.129-1.562-.714-.37zm.604 2.001c.113.01.236.055.363.112l.088.038-.493.849-.088-.041c-.32-.15-.535-.332-.352-.677.123-.217.292-.293.482-.28zM74.286 113.322l1.063.634.603-.788-1.11-.661.38-.507L77 113.07 74.778 116 73 114.943l.381-.493 1.111.647.492-.647-1.08-.635.382-.493zM74.401 111l-.956.948-.306-.213c-.624-.47-1.255-.448-1.804.086-.577.59-.364 1.105.296 1.574l.822.605L75 111.444l-.599-.444zm-1.903 1.002c.119.009.25.09.392.21l.11.078-.618.71-.1-.08c-.258-.215-.406-.416-.145-.726.128-.149.241-.205.36-.192zM69.83 112l-.48-.543 1.464-1.356c.323-.286.76-.743.351-1.2-.408-.456-.9-.07-1.223.23l-1.464 1.341-.478-.528 1.562-1.442c.647-.586 1.378-.743 2.04-.014.66.742.436 1.484-.211 2.07L69.829 112zM68.372 106.003a.989.989 0 00-.68.207c-.332.254-.591.711-.392 1.176-.276-.13-.584-.04-.812.136-.623.45-.61 1.007-.186 1.648l.547.83L70 107.729l-.69-1.047c-.255-.391-.578-.65-.938-.679zm.038.999c.205-.02.357.154.502.369l.088.115-.728.514-.06-.082c-.177-.27-.363-.59-.02-.834a.436.436 0 01.218-.082zm-.868.998c.15-.004.278.107.398.309l.06.086-.8.605-.056-.086c-.18-.288-.233-.556.093-.786a.477.477 0 01.305-.128zM66.83 103.263l.45-.263.72 1.42-2.695 1.58-.305-.592 2.244-1.301-.415-.844zM65.76 101l.24.634L63.24 103l-.24-.634L65.76 101zM62.873 98.746a.954.954 0 00-.121.855c.242.624.984.8 1.62.624.606-.176 1.076-.732.849-1.343-.091-.285-.364-.516-.652-.638l.833-.244c.227.217.41.434.5.706.349.95-.272 1.9-1.272 2.198-1.03.299-2.181-.109-2.545-1.099a1.654 1.654 0 01-.06-.814l.848-.245zM64.391 94L61 95.815l.103.493L65 97l-.146-.665-.794-.155-.238-1.132.715-.374L64.39 94zm-1.505 1L63 96l-1-.19v-.027l.886-.783zM62.99 88c-1.014.004-1.814.653-1.9 1.676L61 90.709l3.902.291.09-1.036c.094-1.063-.69-1.867-1.8-1.953-.068-.007-.133-.013-.201-.01zm-.142 1.005c.073-.005.15-.008.23 0 .594.032.982.3.914.915V90L62 89.866l.01-.077c.045-.5.332-.757.838-.784zM63.403 84.521l-.234 1.289.981.228.25-1.337.6.13L64.605 87 61 86.152 61.396 84l.615.146-.25 1.337.792.18.249-1.288.6.146zM65.535 80.747l-.422 1.05.887.332.436-1.078.564.207L66.31 83 63 81.742 63.704 80l.564.208-.437 1.092.718.276.423-1.05.563.22zM67.457 78.388l.543.237L67.2 80 64 78.562l.329-.562 2.657 1.188.471-.8zM68.55 73.49c-.263.013-.493.076-.657.24-.164.176-.164.415.05.54.557.315 1.345-.867 2.46-.226.657.377.804.968.279 1.51-.344.364-.87.477-1.428.439l-.082-.566c.328.075.722.025.936-.201.213-.201.115-.465-.148-.604-.344-.2-.673 0-.984.151-.493.239-.952.365-1.46.076-.559-.315-.69-.893-.263-1.333.23-.24.69-.478 1.066-.516l.23.49zM69.4 70l-.4.4 1.627 3.6.53-.555-.327-.738.89-.922.746.309.534-.555L69.4 70zm.609 1l.991.472-.483.528-.517-.991.009-.009zM74.575 70.54l.425.433L73.488 72 71 69.42l.63-.42 2.063 2.131.882-.592zM74.803 66.402L75.37 66 76 69.778l-.302.222L73 67.722l.556-.417 1.742 1.528.012-.014-.507-2.417zM78.465 64l-.465.235.167 3.765.635-.304-.03-.791 1.062-.498.522.548.644-.304L78.465 64zM79 65l1 .735-.84.265-.16-.984V65zM82.418 63c-.167 0-.347.035-.523.097L81 63.4l.913 3.6.887-.29c.93-.314 1.388-1.322 1.128-2.34-.212-.842-.791-1.377-1.51-1.37zm-.035 1c.287.016.48.255.574.729.12.561-.004 1.026-.507 1.235l-.067.036L82 64.104l.066-.037a.773.773 0 01.317-.066zM86.941 62c-.071.004-.15.015-.221.022-1.163.153-1.852 1.176-1.699 2.236.14 1.075 1.081 1.874 2.245 1.724 1.174-.154 1.855-1.162 1.716-2.237-.132-.994-.967-1.775-2.041-1.744zm-.07 1.007c.57-.067 1.05.365 1.123.847.056.447-.286 1.062-.846 1.14-.556.067-1.07-.458-1.142-.904a.983.983 0 01.866-1.083zM90.047 62L90 65.967h.867l.015-1.592h.012l1.055 1.614L93 66l-1.235-1.68c.596-.08.917-.585.917-1.09.016-.855-.592-1.2-1.458-1.22L90.047 62zm.967 1h.143c.481 0 .86.083.842.49 0 .403-.36.51-.883.51H91l.014-1zM98.423 65.44l-1.236-.288-.249.953 1.28.303-.17.592L96 66.523 96.957 63l2.043.477-.156.606-1.28-.303-.202.78 1.217.274-.156.606zM101.55 66.476l.83-2.394.62.29L101.747 68l-.45-.214-.83-3.261h-.016l-.831 2.408-.62-.274L100.268 63l.447.198.822 3.278h.012zM105.435 69.482l-.259.518-1.176-.935L105.515 66l.485.389-1.254 2.546.689.547zM109.547 68L106 69.891l.611.467.73-.387 1.024.81-.254.749.622.47L110 68.349l-.453-.349zM109 69l-.397 1-.603-.423 1-.577zM114.674 74L111 75.038l.424.658.771-.2.721 1.105-.424.731.443.668L115 74.483l-.326-.483zM114 75l-.6 1-.4-.629 1-.371zM114.869 82l-.34-.7 1.914-1.351-2.49.273-.115-.228 1.708-1.87v-.014l-2.21.76-.336-.7 3.678-1.17.25.487-1.75 2.006 2.573-.29.249.502L114.869 82zM117.086 83.44l-.372-1.105-.906.316.382 1.148-.581.201-.609-1.852L118.378 81l.622 1.837-.582.201-.382-1.148-.737.258.369 1.091-.582.201zM119.716 84l-3.716.692.15.662 1.502-.277h.02L116.36 86.2l.207.8 1.333-1.252c.2.443.724.584 1.193.492.805-.148 1.022-.665.854-1.348l-.231-.892zm-.768 1l.02.114c.072.422.049.775-.345.864-.382.106-.532-.182-.603-.62l-.02-.102.948-.256zM116.093 89l-.093-.633 3.907-.367.093.633-3.907.367zM118.898 92.952c.257-.222.392-.571.392-.92-.015-.778-.679-1.207-1.328-1.19-.634 0-1.268.476-1.252 1.237 0 .334.166.683.407.905l-.875.016c-.136-.302-.242-.603-.242-.936-.015-1.175.89-2.048 1.932-2.064 1.087-.016 2.038.794 2.068 2.016 0 .317-.076.65-.212.92l-.89.016zM116.422 93l-.084.672.726.346-.159 1.135-.82.163L116 96l3.926-.83.074-.509L116.422 93zm1.661 1l.917.643v.013L118 95l.083-1zM116.495 102.722c.318-.105.577-.316.698-.58.273-.607-.182-1.16-.79-1.372-.592-.197-1.35-.052-1.624.528a.922.922 0 00.06.844l-.834-.277c-.015-.277 0-.54.121-.804.41-.897 1.579-1.28 2.55-.936 1.018.342 1.61 1.292 1.185 2.229-.122.25-.304.474-.532.646l-.834-.278zM114.388 105.123l.535-.892-.843-.417-.562.943-.518-.263.896-1.494 3.104 1.506-.9 1.494-.531-.263.575-.929-.69-.326-.544.892-.522-.251zM112.45 107.873l1.986 1.493L114 110 111 107.707l.307-.44 3.229-.122h.014l-2-1.526.435-.619 3.015 2.297-.304.453-3.232.105-.014.018zM111.942 110.745l.583-.456.475.35-1.706 1.361-.475-.35.569-.46-2.388-1.745.554-.445 2.388 1.745zM107.84 111l-.536.48.875 1.192v.01l-1.535-.56-.644.592 1.684.514c-.311.41-.233.955.05 1.333.457.623 1.03.535 1.556.035l.71-.668-2.16-2.928zm.518 2l.642.738-.074.052c-.276.22-.525.322-.787.028-.262-.303-.124-.537.168-.757l.05-.061z"/><path d="M106.206 112l-.725.392.16.766-1.216.646-.7-.461-.725.392 3.478 2.265.522-.282-.794-3.718zm-.523 2l.317 1h-.02l-.98-.64.683-.36zM101.248 115.097l-.248-.46 1.521-.637 1.479 2.747-.63.253-1.218-2.265-.904.362z"/></g></g></svg>