<?xml version="1.0" encoding="UTF-8"?>
<svg width="80px" height="80px" viewBox="0 0 80 80" version="1.1" xmlns="http://www.w3.org/2000/svg" xmlns:xlink="http://www.w3.org/1999/xlink">
    <!-- Generator: Sketch 61 (89581) - https://sketch.com -->
    <title>提币额度提升</title>
    <desc>Created with Sketch.</desc>
    <g id="提币额度提升" stroke="none" stroke-width="1" fill="none" fill-rule="evenodd">
        <g id="杠杆配额">
            <g id="未点亮图标边框">
                <path d="M40,-1.0658141e-14 C62.09139,-1.0658141e-14 80,17.90861 80,40 C80,62.09139 62.09139,80 40,80 C17.90861,80 -1.91846539e-13,62.09139 -1.91846539e-13,40 C-1.91846539e-13,17.90861 17.90861,-1.0658141e-14 40,-1.0658141e-14 Z M62.1576072,33.6473988 C57.1807542,36.9412056 49.3206762,38.9983484 40.0728218,38.9983485 C30.8249675,38.9983485 22.9648895,37.0006606 18,33.6473988 L18,41.3658134 C18,44.6596202 26.5539662,48.5943848 40.0728218,48.5943848 C42.5522185,48.5943848 44.8650155,48.4620327 46.9889241,48.2255563 C46.3524247,49.6874999 46,51.3025934 46,53 C46,53.2618448 46.0083865,53.5217308 46.0249056,53.7794041 C44.1207535,53.9742254 42.1311626,54.0761355 40.0728218,54.0761355 C30.8249675,54.0761355 22.9648895,52.0189926 18,48.7370768 L18,55.4554913 C18,58.7492981 26.5539662,63.6840628 40.0728218,63.6840628 C44.0949317,63.6840628 47.6786221,63.2472509 50.7287426,62.5468023 C52.7462611,64.0859528 55.266387,65 58,65 C64.627417,65 70,59.627417 70,53 C70,47.8214722 66.7197483,43.4090882 62.1237173,41.7273204 C62.1462634,41.6063909 62.1576072,41.4856777 62.1576072,41.3658134 L62.1576072,33.6473988 Z M40.0728218,17 C26.5539662,17 18,21.9347646 18,25.2285714 C18,28.5223782 26.5539662,33.4571429 40.0728218,33.4571429 C53.5916775,33.4571429 62.1576072,28.5223782 62.1576072,25.2285714 C62.1576072,21.9347646 53.5916775,17 40.0728218,17 Z" id="形状结合" fill="#CEAE7D"></path>
                <circle id="椭圆形" stroke="#DCB983" stroke-width="3" cx="58" cy="53" r="13.5"></circle>
                <g id="编组" transform="translate(18.000000, 17.000000)">
                    <g id="编组-17"></g>
                    <path d="M40.9598209,29.3430509 L41.032228,29.4115055 L45.6030008,34.0476938 C46.139367,34.5917363 46.1311893,35.4831145 45.5848502,36.0372726 C45.062265,36.5673369 44.2355757,36.5978945 43.6952745,36.1234287 L43.6234276,36.055598 L41.3924552,33.7926966 L41.3341298,41.4485856 C41.3283112,42.2123455 40.7075181,42.8284271 39.943736,42.8284271 C39.1872897,42.8284271 38.5740689,42.2152063 38.5740689,41.45876 C38.5740689,41.4553678 38.5740815,41.4519757 38.5741067,41.4485836 L38.6309168,33.8025828 L38.6309168,33.8025828 L36.3584629,36.1075593 C35.8121238,36.6617174 34.9334065,36.6699272 34.3970403,36.1258847 C33.8839944,35.6054962 33.8690935,34.7673963 34.3468985,34.210528 L34.4151071,34.1363908 L39.0733386,29.4115055 C39.5907522,28.8866869 40.415668,28.8638687 40.9598209,29.3430509 Z" id="路径" fill="#CEAE7D" fill-rule="nonzero" transform="translate(40.000000, 35.914214) scale(1, -1) rotate(-180.000000) translate(-40.000000, -35.914214) "></path>
                </g>
            </g>
        </g>
    </g>
</svg>