<svg height="182" width="182" xmlns="http://www.w3.org/2000/svg"><g fill="none" fill-rule="evenodd"><path d="M138.915 167.199a89.825 89.825 0 01-9.108 5.028L9.773 52.193a89.825 89.825 0 015.028-9.108l124.114 124.114zm13.987-10.867c.415-.394.826-.791 1.233-1.192l1.005-1.005c.401-.407.798-.818 1.192-1.233l-3.43 3.43zm14.297-17.417a89.825 89.825 0 005.031-9.115L52.2 9.77a89.825 89.825 0 00-9.115 5.031l124.114 124.114zm0 0" fill="#FFF"/><path d="M129.807 172.227C118.057 177.85 104.897 181 91 181c-49.706 0-90-40.294-90-90 0-13.896 3.15-27.057 8.773-38.807l120.034 120.034zm24.328-17.087c.338-.332.673-.667 1.005-1.005l-1.005 1.005zm18.095-25.34C177.852 118.05 181 104.893 181 91c0-49.706-40.294-90-90-90-13.893 0-27.051 3.148-38.8 8.77L172.23 129.8zM27.86 26.864c-.334.33-.666.662-.996.997l.997-.997zm0 0" fill="#CA4638"/><path d="M27.371 27.35l-.021.021A90.406 90.406 0 0014.8 43.085L138.915 167.2a90.406 90.406 0 0015.714-12.549l.021-.021a90.406 90.406 0 0012.549-15.714L43.085 14.8A90.406 90.406 0 0027.371 27.35zm0 0" fill="#262626"/></g></svg>