<svg height="182" width="182" xmlns="http://www.w3.org/2000/svg"><g transform="translate(1 1)" fill="none" fill-rule="evenodd"><circle cx="90" cy="90" fill="#FFF" r="90"/><path d="M90 40h74.845a90.5 90.5 0 00-18.272-20H90v20zm0 40h89.45a89.473 89.473 0 00-4.571-20H90v20zm89.45 20a89.473 89.473 0 01-4.571 20H5.12A89.473 89.473 0 01.55 100h178.902zm-14.605 40a90.5 90.5 0 01-18.272 20H33.427a90.5 90.5 0 01-18.272-20h149.69zm0 0" fill="#4086CD"/><path d="M90 60h84.879a89.68 89.68 0 00-10.034-20H90v20zm0-60c21.433 0 41.116 7.492 56.573 20H90V0zM0 90c0 3.38.186 6.717.55 10h178.9c.364-3.283.55-6.62.55-10s-.186-6.717-.55-10H90v10H0zm174.879 30a89.68 89.68 0 01-10.034 20H15.155a89.68 89.68 0 01-10.034-20H174.88zm-28.306 40c-15.457 12.508-35.14 20-56.573 20s-41.116-7.492-56.573-20h113.146zm0 0" fill="#FFF"/><path d="M90 0C40.294 0 0 40.294 0 90h90V0zm0 0" fill="#FFF"/><g transform="translate(24 19)"><path d="M34.274 36.103l3.719 1.004c-.571 11.78 5.548 10.829 3.277 17.16-.485-5.99-3.467-2.89-7.42-11.769m-3.082-5.926l1.92 3.339c-8.734 7.926-3.734 11.58-9.816 14.45 3.892-4.578-.408-4.494 3.075-13.567m2.011-6.37l-1.004 3.718c-11.78-.57-10.829 5.548-17.159 3.278 5.99-.486 2.89-3.467 11.768-7.42m5.927-3.082l-3.34 1.92c-7.925-8.734-11.58-3.735-14.45-9.816 4.578 3.892 4.494-.409 13.568 3.074m6.37 2.012l-3.719-1.004c.571-11.78-5.548-10.829-3.278-17.16.486 5.99 3.468 2.89 7.42 11.769m3.082 5.926L31.224 24.3c8.733-7.926 3.734-11.58 9.815-14.45-3.891 4.578.41 4.494-3.074 13.567m-2.011 6.37l1.004-3.718c11.78.57 10.828-5.548 17.159-3.278-5.99.486-2.89 3.467-11.769 7.42m-5.926 3.082l3.34-1.92c7.925 8.734 11.58 3.734 14.45 9.816-4.579-3.892-4.494.409-13.568-3.074" fill="#FCD116" stroke="#000" stroke-width=".5"/><path d="M34.99 36.014c-.718 11.064 8.272 11.905 6.424 18.31m-10.123-17.37c-8.331 7.315-2.569 14.266-8.405 17.49m5.125-19.442c-11.064-.719-11.905 8.272-18.31 6.424m17.37-10.123c-7.315-8.332-14.267-2.57-17.49-8.406m19.442 5.125c.718-11.064-8.272-11.905-6.424-18.31m10.123 17.37c8.332-7.315 2.57-14.266 8.406-17.49m-5.125 19.442c11.064.719 11.904-8.272 18.31-6.424m-17.37 10.123c7.315 8.332 14.266 2.57 17.49 8.406" stroke="#000" stroke-width=".5"/><path d="M32 38.359h2.79L32 55.549l-2.791-17.19h2.79v17.19m-4.562-19.08l1.973 1.973L15.28 48.624l10.183-14.128 1.973 1.973L15.28 48.624m10.266-16.718v2.79l-17.19-2.79 17.19-2.79v2.79H8.357m19.08-4.562l-1.973 1.973L15.28 15.188 29.41 25.371l-1.973 1.973L15.28 15.188M32 25.454h-2.79l2.79-17.19 2.79 17.19H32V8.264m4.563 19.08l-1.973-1.973 14.128-10.183-10.182 14.129-1.973-1.973 12.155-12.156M38.452 31.906v-2.79l17.19 2.79-17.19 2.79v-2.79h17.19m-19.08 4.563l1.973-1.973 10.182 14.128L34.59 38.442l1.973-1.973 12.155 12.155" fill="#FCD116" stroke="#000" stroke-width=".5"/><circle cx="31.855" cy="32.125" fill="#FCD116" r="7.529" stroke="#000" stroke-width=".5"/><path d="M37.54 29.074c-.478.498-.75-.373-2.454-.373-1.705 0-1.977.933-2.25.747-.273-.187 1.432-1.307 1.977-1.369.545-.062 2.113.436 2.726.995m-1.938.57c.488.388.07 1.227-.419 1.227s-1.396-.775-.977-1.291" fill="#000"/><path d="M33.345 30.268c.067-.774.739-.903 1.815-.903 1.075 0 1.546.774 1.95.968-.471 0-.875-.646-1.95-.646-1.076 0-1.076 0-1.815.646m.241.087c.271-.4.61.4 1.355.4.746 0 1.152-.2 1.627-.533.474-.333-.678.799-1.423.799-.746 0-1.762-.4-1.559-.666" fill="#000"/><path d="M35.926 30.763c.793-.436.305-1.059 0-1.183.122.124.61.747 0 1.183m-3.849 3.783c.416 0 .555-.126 1.109-.126.554 0 1.87.693 2.632.44-1.593.568-.97.19-3.74.19h-.347m4.303.338c-.274-.423-.206-.302-.753-.968.547.363.684.545.753.968m-3.957.646c1.732 0 1.455-.312 3.741-1.184-1.662.187-2.009.685-3.74.685h-.347m.323-1.786c.476 0 .611-.322 1.155-.322s1.291.193 1.631.45c.068.065-.204-.514-.747-.579-.544-.064-.34-.9-.952-1.03 0 .258.204.194.272.58 0 .322-.612.322-.748 0 .136.515-.271.515-.611.515" fill="#000"/></g><g fill="#000"><path d="M50.568 48.074c.477.498.75-.373 2.454-.373 1.704 0 1.977.933 2.25.747.272-.187-1.432-1.307-1.977-1.369-.546-.062-2.113.436-2.727.995m1.939.57c-.489.388-.07 1.227.419 1.227.488 0 1.395-.775.977-1.291"/><path d="M54.763 49.268c-.067-.774-.74-.903-1.815-.903-1.076 0-1.546.774-1.95.968.47 0 .874-.646 1.95-.646s1.076 0 1.815.646m-.241.087c-.272-.4-.61.4-1.356.4-.745 0-1.152-.2-1.626-.533-.475-.333.677.799 1.423.799.745 0 1.762-.4 1.559-.666"/><path d="M52.182 49.763c-.793-.436-.305-1.059 0-1.183-.122.124-.61.747 0 1.183m3.848 3.783c-.416 0-.554-.126-1.108-.126-.555 0-1.87.693-2.633.44 1.593.568.97.19 3.741.19h.346m-4.302.338c.274-.423.205-.302.753-.968-.548.363-.685.545-.753.968m3.956.646c-1.732 0-1.455-.312-3.74-1.184 1.662.187 2.008.685 3.74.685h.346m-.322-1.786c-.476 0-.612-.322-1.156-.322-.543 0-1.29.193-1.63.45-.069.065.203-.514.747-.579.544-.064.34-.9.951-1.03 0 .258-.203.194-.271.58 0 .322.611.322.747 0-.136.515.272.515.612.515"/></g><path d="M56 55.571c-.32 0-1.154.216 0 .216s.32-.216 0-.216" fill="#000"/></g></svg>